%TF.GenerationSoftware,KiCad,Pcbnew,(6.0.9)*%
%TF.CreationDate,2023-08-13T20:05:29-07:00*%
%TF.ProjectId,LED_and_Switch_board,4c45445f-616e-4645-9f53-77697463685f,rev?*%
%TF.SameCoordinates,Original*%
%TF.FileFunction,Drillmap*%
%TF.FilePolarity,Positive*%
%FSLAX45Y45*%
G04 Gerber Fmt 4.5, Leading zero omitted, Abs format (unit mm)*
G04 Created by KiCad (PCBNEW (6.0.9)) date 2023-08-13 20:05:29*
%MOMM*%
%LPD*%
G01*
G04 APERTURE LIST*
%ADD10C,0.100000*%
%ADD11C,0.200000*%
%ADD12C,0.040000*%
%ADD13C,0.090000*%
%ADD14C,0.140000*%
G04 APERTURE END LIST*
D10*
X16075805Y-12192000D02*
G75*
G03*
X16075805Y-12192000I-200805J0D01*
G01*
X13027805Y-12192000D02*
G75*
G03*
X13027805Y-12192000I-200805J0D01*
G01*
X13027805Y-8509000D02*
G75*
G03*
X13027805Y-8509000I-200805J0D01*
G01*
X16192500Y-12509500D02*
X12509500Y-12509500D01*
X16192500Y-8191500D02*
X16192500Y-12509500D01*
X12509500Y-8191500D02*
X16192500Y-8191500D01*
X12509500Y-12509500D02*
X12509500Y-8191500D01*
D11*
D12*
X15156500Y-10103550D02*
X15196500Y-10143550D01*
X15196500Y-10103550D02*
X15156500Y-10143550D01*
D13*
X12999000Y-10541000D02*
G75*
G03*
X12999000Y-10541000I-45000J0D01*
G01*
X12999500Y-9398000D02*
G75*
G03*
X12999500Y-9398000I-45000J0D01*
G01*
X12999500Y-11684000D02*
G75*
G03*
X12999500Y-11684000I-45000J0D01*
G01*
X13253000Y-10541000D02*
G75*
G03*
X13253000Y-10541000I-45000J0D01*
G01*
X13253500Y-9398000D02*
G75*
G03*
X13253500Y-9398000I-45000J0D01*
G01*
X13253500Y-11684000D02*
G75*
G03*
X13253500Y-11684000I-45000J0D01*
G01*
D10*
X13272000Y-8586000D02*
X13272000Y-8686000D01*
X13222000Y-8636000D02*
X13322000Y-8636000D01*
X13526000Y-8586000D02*
X13526000Y-8686000D01*
X13476000Y-8636000D02*
X13576000Y-8636000D01*
X13780000Y-8586000D02*
X13780000Y-8686000D01*
X13730000Y-8636000D02*
X13830000Y-8636000D01*
X14034000Y-8586000D02*
X14034000Y-8686000D01*
X13984000Y-8636000D02*
X14084000Y-8636000D01*
X14288000Y-8586000D02*
X14288000Y-8686000D01*
X14238000Y-8636000D02*
X14338000Y-8636000D01*
X15557500Y-8586000D02*
X15557500Y-8686000D01*
X15507500Y-8636000D02*
X15607500Y-8636000D01*
X15557500Y-9157500D02*
X15557500Y-9257500D01*
X15507500Y-9207500D02*
X15607500Y-9207500D01*
X15811500Y-8586000D02*
X15811500Y-8686000D01*
X15761500Y-8636000D02*
X15861500Y-8636000D01*
X15811500Y-9157500D02*
X15811500Y-9257500D01*
X15761500Y-9207500D02*
X15861500Y-9207500D01*
D14*
X14852998Y-11477498D02*
X14852998Y-11378502D01*
X14754002Y-11378502D01*
X14754002Y-11477498D01*
X14852998Y-11477498D01*
X15352998Y-11477498D02*
X15352998Y-11378502D01*
X15254002Y-11378502D01*
X15254002Y-11477498D01*
X15352998Y-11477498D01*
X15852998Y-11477498D02*
X15852998Y-11378502D01*
X15754002Y-11378502D01*
X15754002Y-11477498D01*
X15852998Y-11477498D01*
D11*
X12762119Y-12824976D02*
X12762119Y-12624976D01*
X12809738Y-12624976D01*
X12838309Y-12634500D01*
X12857357Y-12653548D01*
X12866881Y-12672595D01*
X12876405Y-12710690D01*
X12876405Y-12739262D01*
X12866881Y-12777357D01*
X12857357Y-12796405D01*
X12838309Y-12815452D01*
X12809738Y-12824976D01*
X12762119Y-12824976D01*
X12962119Y-12824976D02*
X12962119Y-12691643D01*
X12962119Y-12729738D02*
X12971643Y-12710690D01*
X12981167Y-12701167D01*
X13000214Y-12691643D01*
X13019262Y-12691643D01*
X13085928Y-12824976D02*
X13085928Y-12691643D01*
X13085928Y-12624976D02*
X13076405Y-12634500D01*
X13085928Y-12644024D01*
X13095452Y-12634500D01*
X13085928Y-12624976D01*
X13085928Y-12644024D01*
X13209738Y-12824976D02*
X13190690Y-12815452D01*
X13181167Y-12796405D01*
X13181167Y-12624976D01*
X13314500Y-12824976D02*
X13295452Y-12815452D01*
X13285928Y-12796405D01*
X13285928Y-12624976D01*
X13543071Y-12824976D02*
X13543071Y-12624976D01*
X13609738Y-12767833D01*
X13676405Y-12624976D01*
X13676405Y-12824976D01*
X13857357Y-12824976D02*
X13857357Y-12720214D01*
X13847833Y-12701167D01*
X13828786Y-12691643D01*
X13790690Y-12691643D01*
X13771643Y-12701167D01*
X13857357Y-12815452D02*
X13838309Y-12824976D01*
X13790690Y-12824976D01*
X13771643Y-12815452D01*
X13762119Y-12796405D01*
X13762119Y-12777357D01*
X13771643Y-12758309D01*
X13790690Y-12748786D01*
X13838309Y-12748786D01*
X13857357Y-12739262D01*
X13952595Y-12691643D02*
X13952595Y-12891643D01*
X13952595Y-12701167D02*
X13971643Y-12691643D01*
X14009738Y-12691643D01*
X14028786Y-12701167D01*
X14038309Y-12710690D01*
X14047833Y-12729738D01*
X14047833Y-12786881D01*
X14038309Y-12805928D01*
X14028786Y-12815452D01*
X14009738Y-12824976D01*
X13971643Y-12824976D01*
X13952595Y-12815452D01*
X14133548Y-12805928D02*
X14143071Y-12815452D01*
X14133548Y-12824976D01*
X14124024Y-12815452D01*
X14133548Y-12805928D01*
X14133548Y-12824976D01*
X14133548Y-12701167D02*
X14143071Y-12710690D01*
X14133548Y-12720214D01*
X14124024Y-12710690D01*
X14133548Y-12701167D01*
X14133548Y-12720214D01*
D12*
X12464500Y-13134500D02*
X12504500Y-13174500D01*
X12504500Y-13134500D02*
X12464500Y-13174500D01*
D11*
X12800214Y-13044976D02*
X12819262Y-13044976D01*
X12838309Y-13054500D01*
X12847833Y-13064024D01*
X12857357Y-13083071D01*
X12866881Y-13121167D01*
X12866881Y-13168786D01*
X12857357Y-13206881D01*
X12847833Y-13225928D01*
X12838309Y-13235452D01*
X12819262Y-13244976D01*
X12800214Y-13244976D01*
X12781167Y-13235452D01*
X12771643Y-13225928D01*
X12762119Y-13206881D01*
X12752595Y-13168786D01*
X12752595Y-13121167D01*
X12762119Y-13083071D01*
X12771643Y-13064024D01*
X12781167Y-13054500D01*
X12800214Y-13044976D01*
X12952595Y-13225928D02*
X12962119Y-13235452D01*
X12952595Y-13244976D01*
X12943071Y-13235452D01*
X12952595Y-13225928D01*
X12952595Y-13244976D01*
X13133548Y-13111643D02*
X13133548Y-13244976D01*
X13085928Y-13035452D02*
X13038309Y-13178309D01*
X13162119Y-13178309D01*
X13276405Y-13044976D02*
X13295452Y-13044976D01*
X13314500Y-13054500D01*
X13324024Y-13064024D01*
X13333548Y-13083071D01*
X13343071Y-13121167D01*
X13343071Y-13168786D01*
X13333548Y-13206881D01*
X13324024Y-13225928D01*
X13314500Y-13235452D01*
X13295452Y-13244976D01*
X13276405Y-13244976D01*
X13257357Y-13235452D01*
X13247833Y-13225928D01*
X13238309Y-13206881D01*
X13228786Y-13168786D01*
X13228786Y-13121167D01*
X13238309Y-13083071D01*
X13247833Y-13064024D01*
X13257357Y-13054500D01*
X13276405Y-13044976D01*
X13466881Y-13044976D02*
X13485928Y-13044976D01*
X13504976Y-13054500D01*
X13514500Y-13064024D01*
X13524024Y-13083071D01*
X13533548Y-13121167D01*
X13533548Y-13168786D01*
X13524024Y-13206881D01*
X13514500Y-13225928D01*
X13504976Y-13235452D01*
X13485928Y-13244976D01*
X13466881Y-13244976D01*
X13447833Y-13235452D01*
X13438309Y-13225928D01*
X13428786Y-13206881D01*
X13419262Y-13168786D01*
X13419262Y-13121167D01*
X13428786Y-13083071D01*
X13438309Y-13064024D01*
X13447833Y-13054500D01*
X13466881Y-13044976D01*
X13619262Y-13244976D02*
X13619262Y-13111643D01*
X13619262Y-13130690D02*
X13628786Y-13121167D01*
X13647833Y-13111643D01*
X13676405Y-13111643D01*
X13695452Y-13121167D01*
X13704976Y-13140214D01*
X13704976Y-13244976D01*
X13704976Y-13140214D02*
X13714500Y-13121167D01*
X13733548Y-13111643D01*
X13762119Y-13111643D01*
X13781167Y-13121167D01*
X13790690Y-13140214D01*
X13790690Y-13244976D01*
X13885928Y-13244976D02*
X13885928Y-13111643D01*
X13885928Y-13130690D02*
X13895452Y-13121167D01*
X13914500Y-13111643D01*
X13943071Y-13111643D01*
X13962119Y-13121167D01*
X13971643Y-13140214D01*
X13971643Y-13244976D01*
X13971643Y-13140214D02*
X13981167Y-13121167D01*
X14000214Y-13111643D01*
X14028786Y-13111643D01*
X14047833Y-13121167D01*
X14057357Y-13140214D01*
X14057357Y-13244976D01*
X14447833Y-13035452D02*
X14276405Y-13292595D01*
X14704976Y-13044976D02*
X14724024Y-13044976D01*
X14743071Y-13054500D01*
X14752595Y-13064024D01*
X14762119Y-13083071D01*
X14771643Y-13121167D01*
X14771643Y-13168786D01*
X14762119Y-13206881D01*
X14752595Y-13225928D01*
X14743071Y-13235452D01*
X14724024Y-13244976D01*
X14704976Y-13244976D01*
X14685928Y-13235452D01*
X14676405Y-13225928D01*
X14666881Y-13206881D01*
X14657357Y-13168786D01*
X14657357Y-13121167D01*
X14666881Y-13083071D01*
X14676405Y-13064024D01*
X14685928Y-13054500D01*
X14704976Y-13044976D01*
X14857357Y-13225928D02*
X14866881Y-13235452D01*
X14857357Y-13244976D01*
X14847833Y-13235452D01*
X14857357Y-13225928D01*
X14857357Y-13244976D01*
X14990690Y-13044976D02*
X15009738Y-13044976D01*
X15028786Y-13054500D01*
X15038309Y-13064024D01*
X15047833Y-13083071D01*
X15057357Y-13121167D01*
X15057357Y-13168786D01*
X15047833Y-13206881D01*
X15038309Y-13225928D01*
X15028786Y-13235452D01*
X15009738Y-13244976D01*
X14990690Y-13244976D01*
X14971643Y-13235452D01*
X14962119Y-13225928D01*
X14952595Y-13206881D01*
X14943071Y-13168786D01*
X14943071Y-13121167D01*
X14952595Y-13083071D01*
X14962119Y-13064024D01*
X14971643Y-13054500D01*
X14990690Y-13044976D01*
X15247833Y-13244976D02*
X15133548Y-13244976D01*
X15190690Y-13244976D02*
X15190690Y-13044976D01*
X15171643Y-13073548D01*
X15152595Y-13092595D01*
X15133548Y-13102119D01*
X15428786Y-13044976D02*
X15333548Y-13044976D01*
X15324024Y-13140214D01*
X15333548Y-13130690D01*
X15352595Y-13121167D01*
X15400214Y-13121167D01*
X15419262Y-13130690D01*
X15428786Y-13140214D01*
X15438309Y-13159262D01*
X15438309Y-13206881D01*
X15428786Y-13225928D01*
X15419262Y-13235452D01*
X15400214Y-13244976D01*
X15352595Y-13244976D01*
X15333548Y-13235452D01*
X15324024Y-13225928D01*
X15504976Y-13044976D02*
X15638309Y-13044976D01*
X15552595Y-13244976D01*
X15704976Y-13044976D02*
X15704976Y-13083071D01*
X15781167Y-13044976D02*
X15781167Y-13083071D01*
X16076405Y-13321167D02*
X16066881Y-13311643D01*
X16047833Y-13283071D01*
X16038309Y-13264024D01*
X16028786Y-13235452D01*
X16019262Y-13187833D01*
X16019262Y-13149738D01*
X16028786Y-13102119D01*
X16038309Y-13073548D01*
X16047833Y-13054500D01*
X16066881Y-13025928D01*
X16076405Y-13016405D01*
X16257357Y-13244976D02*
X16143071Y-13244976D01*
X16200214Y-13244976D02*
X16200214Y-13044976D01*
X16181167Y-13073548D01*
X16162119Y-13092595D01*
X16143071Y-13102119D01*
X16495452Y-13244976D02*
X16495452Y-13044976D01*
X16581167Y-13244976D02*
X16581167Y-13140214D01*
X16571643Y-13121167D01*
X16552595Y-13111643D01*
X16524024Y-13111643D01*
X16504976Y-13121167D01*
X16495452Y-13130690D01*
X16704976Y-13244976D02*
X16685928Y-13235452D01*
X16676405Y-13225928D01*
X16666881Y-13206881D01*
X16666881Y-13149738D01*
X16676405Y-13130690D01*
X16685928Y-13121167D01*
X16704976Y-13111643D01*
X16733548Y-13111643D01*
X16752595Y-13121167D01*
X16762119Y-13130690D01*
X16771643Y-13149738D01*
X16771643Y-13206881D01*
X16762119Y-13225928D01*
X16752595Y-13235452D01*
X16733548Y-13244976D01*
X16704976Y-13244976D01*
X16885929Y-13244976D02*
X16866881Y-13235452D01*
X16857357Y-13216405D01*
X16857357Y-13044976D01*
X17038310Y-13235452D02*
X17019262Y-13244976D01*
X16981167Y-13244976D01*
X16962119Y-13235452D01*
X16952595Y-13216405D01*
X16952595Y-13140214D01*
X16962119Y-13121167D01*
X16981167Y-13111643D01*
X17019262Y-13111643D01*
X17038310Y-13121167D01*
X17047833Y-13140214D01*
X17047833Y-13159262D01*
X16952595Y-13178309D01*
X17114500Y-13321167D02*
X17124024Y-13311643D01*
X17143071Y-13283071D01*
X17152595Y-13264024D01*
X17162119Y-13235452D01*
X17171643Y-13187833D01*
X17171643Y-13149738D01*
X17162119Y-13102119D01*
X17152595Y-13073548D01*
X17143071Y-13054500D01*
X17124024Y-13025928D01*
X17114500Y-13016405D01*
D13*
X12504500Y-13418500D02*
G75*
G03*
X12504500Y-13418500I-45000J0D01*
G01*
D11*
X12800214Y-13308976D02*
X12819262Y-13308976D01*
X12838309Y-13318500D01*
X12847833Y-13328024D01*
X12857357Y-13347071D01*
X12866881Y-13385167D01*
X12866881Y-13432786D01*
X12857357Y-13470881D01*
X12847833Y-13489928D01*
X12838309Y-13499452D01*
X12819262Y-13508976D01*
X12800214Y-13508976D01*
X12781167Y-13499452D01*
X12771643Y-13489928D01*
X12762119Y-13470881D01*
X12752595Y-13432786D01*
X12752595Y-13385167D01*
X12762119Y-13347071D01*
X12771643Y-13328024D01*
X12781167Y-13318500D01*
X12800214Y-13308976D01*
X12952595Y-13489928D02*
X12962119Y-13499452D01*
X12952595Y-13508976D01*
X12943071Y-13499452D01*
X12952595Y-13489928D01*
X12952595Y-13508976D01*
X13057357Y-13508976D02*
X13095452Y-13508976D01*
X13114500Y-13499452D01*
X13124024Y-13489928D01*
X13143071Y-13461357D01*
X13152595Y-13423262D01*
X13152595Y-13347071D01*
X13143071Y-13328024D01*
X13133548Y-13318500D01*
X13114500Y-13308976D01*
X13076405Y-13308976D01*
X13057357Y-13318500D01*
X13047833Y-13328024D01*
X13038309Y-13347071D01*
X13038309Y-13394690D01*
X13047833Y-13413738D01*
X13057357Y-13423262D01*
X13076405Y-13432786D01*
X13114500Y-13432786D01*
X13133548Y-13423262D01*
X13143071Y-13413738D01*
X13152595Y-13394690D01*
X13276405Y-13308976D02*
X13295452Y-13308976D01*
X13314500Y-13318500D01*
X13324024Y-13328024D01*
X13333548Y-13347071D01*
X13343071Y-13385167D01*
X13343071Y-13432786D01*
X13333548Y-13470881D01*
X13324024Y-13489928D01*
X13314500Y-13499452D01*
X13295452Y-13508976D01*
X13276405Y-13508976D01*
X13257357Y-13499452D01*
X13247833Y-13489928D01*
X13238309Y-13470881D01*
X13228786Y-13432786D01*
X13228786Y-13385167D01*
X13238309Y-13347071D01*
X13247833Y-13328024D01*
X13257357Y-13318500D01*
X13276405Y-13308976D01*
X13466881Y-13308976D02*
X13485928Y-13308976D01*
X13504976Y-13318500D01*
X13514500Y-13328024D01*
X13524024Y-13347071D01*
X13533548Y-13385167D01*
X13533548Y-13432786D01*
X13524024Y-13470881D01*
X13514500Y-13489928D01*
X13504976Y-13499452D01*
X13485928Y-13508976D01*
X13466881Y-13508976D01*
X13447833Y-13499452D01*
X13438309Y-13489928D01*
X13428786Y-13470881D01*
X13419262Y-13432786D01*
X13419262Y-13385167D01*
X13428786Y-13347071D01*
X13438309Y-13328024D01*
X13447833Y-13318500D01*
X13466881Y-13308976D01*
X13619262Y-13508976D02*
X13619262Y-13375643D01*
X13619262Y-13394690D02*
X13628786Y-13385167D01*
X13647833Y-13375643D01*
X13676405Y-13375643D01*
X13695452Y-13385167D01*
X13704976Y-13404214D01*
X13704976Y-13508976D01*
X13704976Y-13404214D02*
X13714500Y-13385167D01*
X13733548Y-13375643D01*
X13762119Y-13375643D01*
X13781167Y-13385167D01*
X13790690Y-13404214D01*
X13790690Y-13508976D01*
X13885928Y-13508976D02*
X13885928Y-13375643D01*
X13885928Y-13394690D02*
X13895452Y-13385167D01*
X13914500Y-13375643D01*
X13943071Y-13375643D01*
X13962119Y-13385167D01*
X13971643Y-13404214D01*
X13971643Y-13508976D01*
X13971643Y-13404214D02*
X13981167Y-13385167D01*
X14000214Y-13375643D01*
X14028786Y-13375643D01*
X14047833Y-13385167D01*
X14057357Y-13404214D01*
X14057357Y-13508976D01*
X14447833Y-13299452D02*
X14276405Y-13556595D01*
X14704976Y-13308976D02*
X14724024Y-13308976D01*
X14743071Y-13318500D01*
X14752595Y-13328024D01*
X14762119Y-13347071D01*
X14771643Y-13385167D01*
X14771643Y-13432786D01*
X14762119Y-13470881D01*
X14752595Y-13489928D01*
X14743071Y-13499452D01*
X14724024Y-13508976D01*
X14704976Y-13508976D01*
X14685928Y-13499452D01*
X14676405Y-13489928D01*
X14666881Y-13470881D01*
X14657357Y-13432786D01*
X14657357Y-13385167D01*
X14666881Y-13347071D01*
X14676405Y-13328024D01*
X14685928Y-13318500D01*
X14704976Y-13308976D01*
X14857357Y-13489928D02*
X14866881Y-13499452D01*
X14857357Y-13508976D01*
X14847833Y-13499452D01*
X14857357Y-13489928D01*
X14857357Y-13508976D01*
X14990690Y-13308976D02*
X15009738Y-13308976D01*
X15028786Y-13318500D01*
X15038309Y-13328024D01*
X15047833Y-13347071D01*
X15057357Y-13385167D01*
X15057357Y-13432786D01*
X15047833Y-13470881D01*
X15038309Y-13489928D01*
X15028786Y-13499452D01*
X15009738Y-13508976D01*
X14990690Y-13508976D01*
X14971643Y-13499452D01*
X14962119Y-13489928D01*
X14952595Y-13470881D01*
X14943071Y-13432786D01*
X14943071Y-13385167D01*
X14952595Y-13347071D01*
X14962119Y-13328024D01*
X14971643Y-13318500D01*
X14990690Y-13308976D01*
X15124024Y-13308976D02*
X15247833Y-13308976D01*
X15181167Y-13385167D01*
X15209738Y-13385167D01*
X15228786Y-13394690D01*
X15238309Y-13404214D01*
X15247833Y-13423262D01*
X15247833Y-13470881D01*
X15238309Y-13489928D01*
X15228786Y-13499452D01*
X15209738Y-13508976D01*
X15152595Y-13508976D01*
X15133548Y-13499452D01*
X15124024Y-13489928D01*
X15428786Y-13308976D02*
X15333548Y-13308976D01*
X15324024Y-13404214D01*
X15333548Y-13394690D01*
X15352595Y-13385167D01*
X15400214Y-13385167D01*
X15419262Y-13394690D01*
X15428786Y-13404214D01*
X15438309Y-13423262D01*
X15438309Y-13470881D01*
X15428786Y-13489928D01*
X15419262Y-13499452D01*
X15400214Y-13508976D01*
X15352595Y-13508976D01*
X15333548Y-13499452D01*
X15324024Y-13489928D01*
X15609738Y-13375643D02*
X15609738Y-13508976D01*
X15562119Y-13299452D02*
X15514500Y-13442309D01*
X15638309Y-13442309D01*
X15704976Y-13308976D02*
X15704976Y-13347071D01*
X15781167Y-13308976D02*
X15781167Y-13347071D01*
X16076405Y-13585167D02*
X16066881Y-13575643D01*
X16047833Y-13547071D01*
X16038309Y-13528024D01*
X16028786Y-13499452D01*
X16019262Y-13451833D01*
X16019262Y-13413738D01*
X16028786Y-13366119D01*
X16038309Y-13337548D01*
X16047833Y-13318500D01*
X16066881Y-13289928D01*
X16076405Y-13280405D01*
X16238309Y-13308976D02*
X16200214Y-13308976D01*
X16181167Y-13318500D01*
X16171643Y-13328024D01*
X16152595Y-13356595D01*
X16143071Y-13394690D01*
X16143071Y-13470881D01*
X16152595Y-13489928D01*
X16162119Y-13499452D01*
X16181167Y-13508976D01*
X16219262Y-13508976D01*
X16238309Y-13499452D01*
X16247833Y-13489928D01*
X16257357Y-13470881D01*
X16257357Y-13423262D01*
X16247833Y-13404214D01*
X16238309Y-13394690D01*
X16219262Y-13385167D01*
X16181167Y-13385167D01*
X16162119Y-13394690D01*
X16152595Y-13404214D01*
X16143071Y-13423262D01*
X16495452Y-13508976D02*
X16495452Y-13308976D01*
X16581167Y-13508976D02*
X16581167Y-13404214D01*
X16571643Y-13385167D01*
X16552595Y-13375643D01*
X16524024Y-13375643D01*
X16504976Y-13385167D01*
X16495452Y-13394690D01*
X16704976Y-13508976D02*
X16685928Y-13499452D01*
X16676405Y-13489928D01*
X16666881Y-13470881D01*
X16666881Y-13413738D01*
X16676405Y-13394690D01*
X16685928Y-13385167D01*
X16704976Y-13375643D01*
X16733548Y-13375643D01*
X16752595Y-13385167D01*
X16762119Y-13394690D01*
X16771643Y-13413738D01*
X16771643Y-13470881D01*
X16762119Y-13489928D01*
X16752595Y-13499452D01*
X16733548Y-13508976D01*
X16704976Y-13508976D01*
X16885929Y-13508976D02*
X16866881Y-13499452D01*
X16857357Y-13480405D01*
X16857357Y-13308976D01*
X17038310Y-13499452D02*
X17019262Y-13508976D01*
X16981167Y-13508976D01*
X16962119Y-13499452D01*
X16952595Y-13480405D01*
X16952595Y-13404214D01*
X16962119Y-13385167D01*
X16981167Y-13375643D01*
X17019262Y-13375643D01*
X17038310Y-13385167D01*
X17047833Y-13404214D01*
X17047833Y-13423262D01*
X16952595Y-13442309D01*
X17124024Y-13499452D02*
X17143071Y-13508976D01*
X17181167Y-13508976D01*
X17200214Y-13499452D01*
X17209738Y-13480405D01*
X17209738Y-13470881D01*
X17200214Y-13451833D01*
X17181167Y-13442309D01*
X17152595Y-13442309D01*
X17133548Y-13432786D01*
X17124024Y-13413738D01*
X17124024Y-13404214D01*
X17133548Y-13385167D01*
X17152595Y-13375643D01*
X17181167Y-13375643D01*
X17200214Y-13385167D01*
X17276405Y-13585167D02*
X17285929Y-13575643D01*
X17304976Y-13547071D01*
X17314500Y-13528024D01*
X17324024Y-13499452D01*
X17333548Y-13451833D01*
X17333548Y-13413738D01*
X17324024Y-13366119D01*
X17314500Y-13337548D01*
X17304976Y-13318500D01*
X17285929Y-13289928D01*
X17276405Y-13280405D01*
D10*
X12454500Y-13632500D02*
X12454500Y-13732500D01*
X12404500Y-13682500D02*
X12504500Y-13682500D01*
D11*
X12866881Y-13772976D02*
X12752595Y-13772976D01*
X12809738Y-13772976D02*
X12809738Y-13572976D01*
X12790690Y-13601548D01*
X12771643Y-13620595D01*
X12752595Y-13630119D01*
X12952595Y-13753928D02*
X12962119Y-13763452D01*
X12952595Y-13772976D01*
X12943071Y-13763452D01*
X12952595Y-13753928D01*
X12952595Y-13772976D01*
X13085928Y-13572976D02*
X13104976Y-13572976D01*
X13124024Y-13582500D01*
X13133548Y-13592024D01*
X13143071Y-13611071D01*
X13152595Y-13649167D01*
X13152595Y-13696786D01*
X13143071Y-13734881D01*
X13133548Y-13753928D01*
X13124024Y-13763452D01*
X13104976Y-13772976D01*
X13085928Y-13772976D01*
X13066881Y-13763452D01*
X13057357Y-13753928D01*
X13047833Y-13734881D01*
X13038309Y-13696786D01*
X13038309Y-13649167D01*
X13047833Y-13611071D01*
X13057357Y-13592024D01*
X13066881Y-13582500D01*
X13085928Y-13572976D01*
X13276405Y-13572976D02*
X13295452Y-13572976D01*
X13314500Y-13582500D01*
X13324024Y-13592024D01*
X13333548Y-13611071D01*
X13343071Y-13649167D01*
X13343071Y-13696786D01*
X13333548Y-13734881D01*
X13324024Y-13753928D01*
X13314500Y-13763452D01*
X13295452Y-13772976D01*
X13276405Y-13772976D01*
X13257357Y-13763452D01*
X13247833Y-13753928D01*
X13238309Y-13734881D01*
X13228786Y-13696786D01*
X13228786Y-13649167D01*
X13238309Y-13611071D01*
X13247833Y-13592024D01*
X13257357Y-13582500D01*
X13276405Y-13572976D01*
X13466881Y-13572976D02*
X13485928Y-13572976D01*
X13504976Y-13582500D01*
X13514500Y-13592024D01*
X13524024Y-13611071D01*
X13533548Y-13649167D01*
X13533548Y-13696786D01*
X13524024Y-13734881D01*
X13514500Y-13753928D01*
X13504976Y-13763452D01*
X13485928Y-13772976D01*
X13466881Y-13772976D01*
X13447833Y-13763452D01*
X13438309Y-13753928D01*
X13428786Y-13734881D01*
X13419262Y-13696786D01*
X13419262Y-13649167D01*
X13428786Y-13611071D01*
X13438309Y-13592024D01*
X13447833Y-13582500D01*
X13466881Y-13572976D01*
X13619262Y-13772976D02*
X13619262Y-13639643D01*
X13619262Y-13658690D02*
X13628786Y-13649167D01*
X13647833Y-13639643D01*
X13676405Y-13639643D01*
X13695452Y-13649167D01*
X13704976Y-13668214D01*
X13704976Y-13772976D01*
X13704976Y-13668214D02*
X13714500Y-13649167D01*
X13733548Y-13639643D01*
X13762119Y-13639643D01*
X13781167Y-13649167D01*
X13790690Y-13668214D01*
X13790690Y-13772976D01*
X13885928Y-13772976D02*
X13885928Y-13639643D01*
X13885928Y-13658690D02*
X13895452Y-13649167D01*
X13914500Y-13639643D01*
X13943071Y-13639643D01*
X13962119Y-13649167D01*
X13971643Y-13668214D01*
X13971643Y-13772976D01*
X13971643Y-13668214D02*
X13981167Y-13649167D01*
X14000214Y-13639643D01*
X14028786Y-13639643D01*
X14047833Y-13649167D01*
X14057357Y-13668214D01*
X14057357Y-13772976D01*
X14447833Y-13563452D02*
X14276405Y-13820595D01*
X14704976Y-13572976D02*
X14724024Y-13572976D01*
X14743071Y-13582500D01*
X14752595Y-13592024D01*
X14762119Y-13611071D01*
X14771643Y-13649167D01*
X14771643Y-13696786D01*
X14762119Y-13734881D01*
X14752595Y-13753928D01*
X14743071Y-13763452D01*
X14724024Y-13772976D01*
X14704976Y-13772976D01*
X14685928Y-13763452D01*
X14676405Y-13753928D01*
X14666881Y-13734881D01*
X14657357Y-13696786D01*
X14657357Y-13649167D01*
X14666881Y-13611071D01*
X14676405Y-13592024D01*
X14685928Y-13582500D01*
X14704976Y-13572976D01*
X14857357Y-13753928D02*
X14866881Y-13763452D01*
X14857357Y-13772976D01*
X14847833Y-13763452D01*
X14857357Y-13753928D01*
X14857357Y-13772976D01*
X14990690Y-13572976D02*
X15009738Y-13572976D01*
X15028786Y-13582500D01*
X15038309Y-13592024D01*
X15047833Y-13611071D01*
X15057357Y-13649167D01*
X15057357Y-13696786D01*
X15047833Y-13734881D01*
X15038309Y-13753928D01*
X15028786Y-13763452D01*
X15009738Y-13772976D01*
X14990690Y-13772976D01*
X14971643Y-13763452D01*
X14962119Y-13753928D01*
X14952595Y-13734881D01*
X14943071Y-13696786D01*
X14943071Y-13649167D01*
X14952595Y-13611071D01*
X14962119Y-13592024D01*
X14971643Y-13582500D01*
X14990690Y-13572976D01*
X15124024Y-13572976D02*
X15247833Y-13572976D01*
X15181167Y-13649167D01*
X15209738Y-13649167D01*
X15228786Y-13658690D01*
X15238309Y-13668214D01*
X15247833Y-13687262D01*
X15247833Y-13734881D01*
X15238309Y-13753928D01*
X15228786Y-13763452D01*
X15209738Y-13772976D01*
X15152595Y-13772976D01*
X15133548Y-13763452D01*
X15124024Y-13753928D01*
X15343071Y-13772976D02*
X15381167Y-13772976D01*
X15400214Y-13763452D01*
X15409738Y-13753928D01*
X15428786Y-13725357D01*
X15438309Y-13687262D01*
X15438309Y-13611071D01*
X15428786Y-13592024D01*
X15419262Y-13582500D01*
X15400214Y-13572976D01*
X15362119Y-13572976D01*
X15343071Y-13582500D01*
X15333548Y-13592024D01*
X15324024Y-13611071D01*
X15324024Y-13658690D01*
X15333548Y-13677738D01*
X15343071Y-13687262D01*
X15362119Y-13696786D01*
X15400214Y-13696786D01*
X15419262Y-13687262D01*
X15428786Y-13677738D01*
X15438309Y-13658690D01*
X15609738Y-13639643D02*
X15609738Y-13772976D01*
X15562119Y-13563452D02*
X15514500Y-13706309D01*
X15638309Y-13706309D01*
X15704976Y-13572976D02*
X15704976Y-13611071D01*
X15781167Y-13572976D02*
X15781167Y-13611071D01*
X16076405Y-13849167D02*
X16066881Y-13839643D01*
X16047833Y-13811071D01*
X16038309Y-13792024D01*
X16028786Y-13763452D01*
X16019262Y-13715833D01*
X16019262Y-13677738D01*
X16028786Y-13630119D01*
X16038309Y-13601548D01*
X16047833Y-13582500D01*
X16066881Y-13553928D01*
X16076405Y-13544405D01*
X16162119Y-13772976D02*
X16200214Y-13772976D01*
X16219262Y-13763452D01*
X16228786Y-13753928D01*
X16247833Y-13725357D01*
X16257357Y-13687262D01*
X16257357Y-13611071D01*
X16247833Y-13592024D01*
X16238309Y-13582500D01*
X16219262Y-13572976D01*
X16181167Y-13572976D01*
X16162119Y-13582500D01*
X16152595Y-13592024D01*
X16143071Y-13611071D01*
X16143071Y-13658690D01*
X16152595Y-13677738D01*
X16162119Y-13687262D01*
X16181167Y-13696786D01*
X16219262Y-13696786D01*
X16238309Y-13687262D01*
X16247833Y-13677738D01*
X16257357Y-13658690D01*
X16495452Y-13772976D02*
X16495452Y-13572976D01*
X16581167Y-13772976D02*
X16581167Y-13668214D01*
X16571643Y-13649167D01*
X16552595Y-13639643D01*
X16524024Y-13639643D01*
X16504976Y-13649167D01*
X16495452Y-13658690D01*
X16704976Y-13772976D02*
X16685928Y-13763452D01*
X16676405Y-13753928D01*
X16666881Y-13734881D01*
X16666881Y-13677738D01*
X16676405Y-13658690D01*
X16685928Y-13649167D01*
X16704976Y-13639643D01*
X16733548Y-13639643D01*
X16752595Y-13649167D01*
X16762119Y-13658690D01*
X16771643Y-13677738D01*
X16771643Y-13734881D01*
X16762119Y-13753928D01*
X16752595Y-13763452D01*
X16733548Y-13772976D01*
X16704976Y-13772976D01*
X16885929Y-13772976D02*
X16866881Y-13763452D01*
X16857357Y-13744405D01*
X16857357Y-13572976D01*
X17038310Y-13763452D02*
X17019262Y-13772976D01*
X16981167Y-13772976D01*
X16962119Y-13763452D01*
X16952595Y-13744405D01*
X16952595Y-13668214D01*
X16962119Y-13649167D01*
X16981167Y-13639643D01*
X17019262Y-13639643D01*
X17038310Y-13649167D01*
X17047833Y-13668214D01*
X17047833Y-13687262D01*
X16952595Y-13706309D01*
X17124024Y-13763452D02*
X17143071Y-13772976D01*
X17181167Y-13772976D01*
X17200214Y-13763452D01*
X17209738Y-13744405D01*
X17209738Y-13734881D01*
X17200214Y-13715833D01*
X17181167Y-13706309D01*
X17152595Y-13706309D01*
X17133548Y-13696786D01*
X17124024Y-13677738D01*
X17124024Y-13668214D01*
X17133548Y-13649167D01*
X17152595Y-13639643D01*
X17181167Y-13639643D01*
X17200214Y-13649167D01*
X17276405Y-13849167D02*
X17285929Y-13839643D01*
X17304976Y-13811071D01*
X17314500Y-13792024D01*
X17324024Y-13763452D01*
X17333548Y-13715833D01*
X17333548Y-13677738D01*
X17324024Y-13630119D01*
X17314500Y-13601548D01*
X17304976Y-13582500D01*
X17285929Y-13553928D01*
X17276405Y-13544405D01*
D14*
X12483998Y-13995998D02*
X12483998Y-13897002D01*
X12385002Y-13897002D01*
X12385002Y-13995998D01*
X12483998Y-13995998D01*
D11*
X12866881Y-14036976D02*
X12752595Y-14036976D01*
X12809738Y-14036976D02*
X12809738Y-13836976D01*
X12790690Y-13865548D01*
X12771643Y-13884595D01*
X12752595Y-13894119D01*
X12952595Y-14017928D02*
X12962119Y-14027452D01*
X12952595Y-14036976D01*
X12943071Y-14027452D01*
X12952595Y-14017928D01*
X12952595Y-14036976D01*
X13133548Y-13903643D02*
X13133548Y-14036976D01*
X13085928Y-13827452D02*
X13038309Y-13970309D01*
X13162119Y-13970309D01*
X13276405Y-13836976D02*
X13295452Y-13836976D01*
X13314500Y-13846500D01*
X13324024Y-13856024D01*
X13333548Y-13875071D01*
X13343071Y-13913167D01*
X13343071Y-13960786D01*
X13333548Y-13998881D01*
X13324024Y-14017928D01*
X13314500Y-14027452D01*
X13295452Y-14036976D01*
X13276405Y-14036976D01*
X13257357Y-14027452D01*
X13247833Y-14017928D01*
X13238309Y-13998881D01*
X13228786Y-13960786D01*
X13228786Y-13913167D01*
X13238309Y-13875071D01*
X13247833Y-13856024D01*
X13257357Y-13846500D01*
X13276405Y-13836976D01*
X13466881Y-13836976D02*
X13485928Y-13836976D01*
X13504976Y-13846500D01*
X13514500Y-13856024D01*
X13524024Y-13875071D01*
X13533548Y-13913167D01*
X13533548Y-13960786D01*
X13524024Y-13998881D01*
X13514500Y-14017928D01*
X13504976Y-14027452D01*
X13485928Y-14036976D01*
X13466881Y-14036976D01*
X13447833Y-14027452D01*
X13438309Y-14017928D01*
X13428786Y-13998881D01*
X13419262Y-13960786D01*
X13419262Y-13913167D01*
X13428786Y-13875071D01*
X13438309Y-13856024D01*
X13447833Y-13846500D01*
X13466881Y-13836976D01*
X13619262Y-14036976D02*
X13619262Y-13903643D01*
X13619262Y-13922690D02*
X13628786Y-13913167D01*
X13647833Y-13903643D01*
X13676405Y-13903643D01*
X13695452Y-13913167D01*
X13704976Y-13932214D01*
X13704976Y-14036976D01*
X13704976Y-13932214D02*
X13714500Y-13913167D01*
X13733548Y-13903643D01*
X13762119Y-13903643D01*
X13781167Y-13913167D01*
X13790690Y-13932214D01*
X13790690Y-14036976D01*
X13885928Y-14036976D02*
X13885928Y-13903643D01*
X13885928Y-13922690D02*
X13895452Y-13913167D01*
X13914500Y-13903643D01*
X13943071Y-13903643D01*
X13962119Y-13913167D01*
X13971643Y-13932214D01*
X13971643Y-14036976D01*
X13971643Y-13932214D02*
X13981167Y-13913167D01*
X14000214Y-13903643D01*
X14028786Y-13903643D01*
X14047833Y-13913167D01*
X14057357Y-13932214D01*
X14057357Y-14036976D01*
X14447833Y-13827452D02*
X14276405Y-14084595D01*
X14704976Y-13836976D02*
X14724024Y-13836976D01*
X14743071Y-13846500D01*
X14752595Y-13856024D01*
X14762119Y-13875071D01*
X14771643Y-13913167D01*
X14771643Y-13960786D01*
X14762119Y-13998881D01*
X14752595Y-14017928D01*
X14743071Y-14027452D01*
X14724024Y-14036976D01*
X14704976Y-14036976D01*
X14685928Y-14027452D01*
X14676405Y-14017928D01*
X14666881Y-13998881D01*
X14657357Y-13960786D01*
X14657357Y-13913167D01*
X14666881Y-13875071D01*
X14676405Y-13856024D01*
X14685928Y-13846500D01*
X14704976Y-13836976D01*
X14857357Y-14017928D02*
X14866881Y-14027452D01*
X14857357Y-14036976D01*
X14847833Y-14027452D01*
X14857357Y-14017928D01*
X14857357Y-14036976D01*
X14990690Y-13836976D02*
X15009738Y-13836976D01*
X15028786Y-13846500D01*
X15038309Y-13856024D01*
X15047833Y-13875071D01*
X15057357Y-13913167D01*
X15057357Y-13960786D01*
X15047833Y-13998881D01*
X15038309Y-14017928D01*
X15028786Y-14027452D01*
X15009738Y-14036976D01*
X14990690Y-14036976D01*
X14971643Y-14027452D01*
X14962119Y-14017928D01*
X14952595Y-13998881D01*
X14943071Y-13960786D01*
X14943071Y-13913167D01*
X14952595Y-13875071D01*
X14962119Y-13856024D01*
X14971643Y-13846500D01*
X14990690Y-13836976D01*
X15238309Y-13836976D02*
X15143071Y-13836976D01*
X15133548Y-13932214D01*
X15143071Y-13922690D01*
X15162119Y-13913167D01*
X15209738Y-13913167D01*
X15228786Y-13922690D01*
X15238309Y-13932214D01*
X15247833Y-13951262D01*
X15247833Y-13998881D01*
X15238309Y-14017928D01*
X15228786Y-14027452D01*
X15209738Y-14036976D01*
X15162119Y-14036976D01*
X15143071Y-14027452D01*
X15133548Y-14017928D01*
X15428786Y-13836976D02*
X15333548Y-13836976D01*
X15324024Y-13932214D01*
X15333548Y-13922690D01*
X15352595Y-13913167D01*
X15400214Y-13913167D01*
X15419262Y-13922690D01*
X15428786Y-13932214D01*
X15438309Y-13951262D01*
X15438309Y-13998881D01*
X15428786Y-14017928D01*
X15419262Y-14027452D01*
X15400214Y-14036976D01*
X15352595Y-14036976D01*
X15333548Y-14027452D01*
X15324024Y-14017928D01*
X15628786Y-14036976D02*
X15514500Y-14036976D01*
X15571643Y-14036976D02*
X15571643Y-13836976D01*
X15552595Y-13865548D01*
X15533548Y-13884595D01*
X15514500Y-13894119D01*
X15704976Y-13836976D02*
X15704976Y-13875071D01*
X15781167Y-13836976D02*
X15781167Y-13875071D01*
X16076405Y-14113167D02*
X16066881Y-14103643D01*
X16047833Y-14075071D01*
X16038309Y-14056024D01*
X16028786Y-14027452D01*
X16019262Y-13979833D01*
X16019262Y-13941738D01*
X16028786Y-13894119D01*
X16038309Y-13865548D01*
X16047833Y-13846500D01*
X16066881Y-13817928D01*
X16076405Y-13808405D01*
X16133548Y-13836976D02*
X16257357Y-13836976D01*
X16190690Y-13913167D01*
X16219262Y-13913167D01*
X16238309Y-13922690D01*
X16247833Y-13932214D01*
X16257357Y-13951262D01*
X16257357Y-13998881D01*
X16247833Y-14017928D01*
X16238309Y-14027452D01*
X16219262Y-14036976D01*
X16162119Y-14036976D01*
X16143071Y-14027452D01*
X16133548Y-14017928D01*
X16495452Y-14036976D02*
X16495452Y-13836976D01*
X16581167Y-14036976D02*
X16581167Y-13932214D01*
X16571643Y-13913167D01*
X16552595Y-13903643D01*
X16524024Y-13903643D01*
X16504976Y-13913167D01*
X16495452Y-13922690D01*
X16704976Y-14036976D02*
X16685928Y-14027452D01*
X16676405Y-14017928D01*
X16666881Y-13998881D01*
X16666881Y-13941738D01*
X16676405Y-13922690D01*
X16685928Y-13913167D01*
X16704976Y-13903643D01*
X16733548Y-13903643D01*
X16752595Y-13913167D01*
X16762119Y-13922690D01*
X16771643Y-13941738D01*
X16771643Y-13998881D01*
X16762119Y-14017928D01*
X16752595Y-14027452D01*
X16733548Y-14036976D01*
X16704976Y-14036976D01*
X16885929Y-14036976D02*
X16866881Y-14027452D01*
X16857357Y-14008405D01*
X16857357Y-13836976D01*
X17038310Y-14027452D02*
X17019262Y-14036976D01*
X16981167Y-14036976D01*
X16962119Y-14027452D01*
X16952595Y-14008405D01*
X16952595Y-13932214D01*
X16962119Y-13913167D01*
X16981167Y-13903643D01*
X17019262Y-13903643D01*
X17038310Y-13913167D01*
X17047833Y-13932214D01*
X17047833Y-13951262D01*
X16952595Y-13970309D01*
X17124024Y-14027452D02*
X17143071Y-14036976D01*
X17181167Y-14036976D01*
X17200214Y-14027452D01*
X17209738Y-14008405D01*
X17209738Y-13998881D01*
X17200214Y-13979833D01*
X17181167Y-13970309D01*
X17152595Y-13970309D01*
X17133548Y-13960786D01*
X17124024Y-13941738D01*
X17124024Y-13932214D01*
X17133548Y-13913167D01*
X17152595Y-13903643D01*
X17181167Y-13903643D01*
X17200214Y-13913167D01*
X17276405Y-14113167D02*
X17285929Y-14103643D01*
X17304976Y-14075071D01*
X17314500Y-14056024D01*
X17324024Y-14027452D01*
X17333548Y-13979833D01*
X17333548Y-13941738D01*
X17324024Y-13894119D01*
X17314500Y-13865548D01*
X17304976Y-13846500D01*
X17285929Y-13817928D01*
X17276405Y-13808405D01*
M02*
