%TF.GenerationSoftware,KiCad,Pcbnew,(6.0.9)*%
%TF.CreationDate,2024-07-14T14:50:05-07:00*%
%TF.ProjectId,RA_Controller,52415f43-6f6e-4747-926f-6c6c65722e6b,rev?*%
%TF.SameCoordinates,Original*%
%TF.FileFunction,Legend,Top*%
%TF.FilePolarity,Positive*%
%FSLAX46Y46*%
G04 Gerber Fmt 4.6, Leading zero omitted, Abs format (unit mm)*
G04 Created by KiCad (PCBNEW (6.0.9)) date 2024-07-14 14:50:05*
%MOMM*%
%LPD*%
G01*
G04 APERTURE LIST*
G04 Aperture macros list*
%AMRoundRect*
0 Rectangle with rounded corners*
0 $1 Rounding radius*
0 $2 $3 $4 $5 $6 $7 $8 $9 X,Y pos of 4 corners*
0 Add a 4 corners polygon primitive as box body*
4,1,4,$2,$3,$4,$5,$6,$7,$8,$9,$2,$3,0*
0 Add four circle primitives for the rounded corners*
1,1,$1+$1,$2,$3*
1,1,$1+$1,$4,$5*
1,1,$1+$1,$6,$7*
1,1,$1+$1,$8,$9*
0 Add four rect primitives between the rounded corners*
20,1,$1+$1,$2,$3,$4,$5,0*
20,1,$1+$1,$4,$5,$6,$7,0*
20,1,$1+$1,$6,$7,$8,$9,0*
20,1,$1+$1,$8,$9,$2,$3,0*%
G04 Aperture macros list end*
%ADD10C,0.150000*%
%ADD11C,0.300000*%
%ADD12C,0.120000*%
%ADD13R,1.600000X1.600000*%
%ADD14C,1.600000*%
%ADD15O,1.600000X1.600000*%
%ADD16RoundRect,0.250000X-0.750000X0.600000X-0.750000X-0.600000X0.750000X-0.600000X0.750000X0.600000X0*%
%ADD17O,2.000000X1.700000*%
%ADD18C,3.000000*%
%ADD19RoundRect,0.250000X-0.725000X0.600000X-0.725000X-0.600000X0.725000X-0.600000X0.725000X0.600000X0*%
%ADD20O,1.950000X1.700000*%
%ADD21R,1.524000X1.524000*%
%ADD22C,1.524000*%
%ADD23RoundRect,0.250000X0.600000X0.750000X-0.600000X0.750000X-0.600000X-0.750000X0.600000X-0.750000X0*%
%ADD24O,1.700000X2.000000*%
%ADD25RoundRect,0.250000X0.450000X-0.350000X0.450000X0.350000X-0.450000X0.350000X-0.450000X-0.350000X0*%
%ADD26R,3.500000X3.500000*%
%ADD27RoundRect,0.750000X-1.000000X0.750000X-1.000000X-0.750000X1.000000X-0.750000X1.000000X0.750000X0*%
%ADD28RoundRect,0.875000X-0.875000X0.875000X-0.875000X-0.875000X0.875000X-0.875000X0.875000X0.875000X0*%
%ADD29RoundRect,0.250000X0.725000X-0.600000X0.725000X0.600000X-0.725000X0.600000X-0.725000X-0.600000X0*%
%ADD30R,1.800000X1.800000*%
%ADD31C,1.800000*%
G04 APERTURE END LIST*
D10*
X113157000Y-119253000D02*
X183896000Y-119253000D01*
X183896000Y-119253000D02*
X183896000Y-46990000D01*
X183896000Y-46990000D02*
X113157000Y-46990000D01*
X113157000Y-46990000D02*
X113157000Y-119253000D01*
D11*
X113931000Y-103308857D02*
X113859571Y-103451714D01*
X113859571Y-103666000D01*
X113931000Y-103880285D01*
X114073857Y-104023142D01*
X114216714Y-104094571D01*
X114502428Y-104166000D01*
X114716714Y-104166000D01*
X115002428Y-104094571D01*
X115145285Y-104023142D01*
X115288142Y-103880285D01*
X115359571Y-103666000D01*
X115359571Y-103523142D01*
X115288142Y-103308857D01*
X115216714Y-103237428D01*
X114716714Y-103237428D01*
X114716714Y-103523142D01*
X115359571Y-102594571D02*
X114359571Y-102594571D01*
X113859571Y-102594571D02*
X113931000Y-102666000D01*
X114002428Y-102594571D01*
X113931000Y-102523142D01*
X113859571Y-102594571D01*
X114002428Y-102594571D01*
X114359571Y-101880285D02*
X115359571Y-101880285D01*
X114502428Y-101880285D02*
X114431000Y-101808857D01*
X114359571Y-101666000D01*
X114359571Y-101451714D01*
X114431000Y-101308857D01*
X114573857Y-101237428D01*
X115359571Y-101237428D01*
X114359571Y-99880285D02*
X115573857Y-99880285D01*
X115716714Y-99951714D01*
X115788142Y-100023142D01*
X115859571Y-100166000D01*
X115859571Y-100380285D01*
X115788142Y-100523142D01*
X115288142Y-99880285D02*
X115359571Y-100023142D01*
X115359571Y-100308857D01*
X115288142Y-100451714D01*
X115216714Y-100523142D01*
X115073857Y-100594571D01*
X114645285Y-100594571D01*
X114502428Y-100523142D01*
X114431000Y-100451714D01*
X114359571Y-100308857D01*
X114359571Y-100023142D01*
X114431000Y-99880285D01*
X115288142Y-98594571D02*
X115359571Y-98737428D01*
X115359571Y-99023142D01*
X115288142Y-99166000D01*
X115145285Y-99237428D01*
X114573857Y-99237428D01*
X114431000Y-99166000D01*
X114359571Y-99023142D01*
X114359571Y-98737428D01*
X114431000Y-98594571D01*
X114573857Y-98523142D01*
X114716714Y-98523142D01*
X114859571Y-99237428D01*
X115359571Y-97880285D02*
X114359571Y-97880285D01*
X114645285Y-97880285D02*
X114502428Y-97808857D01*
X114431000Y-97737428D01*
X114359571Y-97594571D01*
X114359571Y-97451714D01*
X115359571Y-96951714D02*
X113859571Y-96951714D01*
X114431000Y-96951714D02*
X114359571Y-96808857D01*
X114359571Y-96523142D01*
X114431000Y-96380285D01*
X114502428Y-96308857D01*
X114645285Y-96237428D01*
X115073857Y-96237428D01*
X115216714Y-96308857D01*
X115288142Y-96380285D01*
X115359571Y-96523142D01*
X115359571Y-96808857D01*
X115288142Y-96951714D01*
X115359571Y-95594571D02*
X114359571Y-95594571D01*
X114645285Y-95594571D02*
X114502428Y-95523142D01*
X114431000Y-95451714D01*
X114359571Y-95308857D01*
X114359571Y-95166000D01*
X115288142Y-94094571D02*
X115359571Y-94237428D01*
X115359571Y-94523142D01*
X115288142Y-94666000D01*
X115145285Y-94737428D01*
X114573857Y-94737428D01*
X114431000Y-94666000D01*
X114359571Y-94523142D01*
X114359571Y-94237428D01*
X114431000Y-94094571D01*
X114573857Y-94023142D01*
X114716714Y-94023142D01*
X114859571Y-94737428D01*
X115359571Y-92737428D02*
X114573857Y-92737428D01*
X114431000Y-92808857D01*
X114359571Y-92951714D01*
X114359571Y-93237428D01*
X114431000Y-93380285D01*
X115288142Y-92737428D02*
X115359571Y-92880285D01*
X115359571Y-93237428D01*
X115288142Y-93380285D01*
X115145285Y-93451714D01*
X115002428Y-93451714D01*
X114859571Y-93380285D01*
X114788142Y-93237428D01*
X114788142Y-92880285D01*
X114716714Y-92737428D01*
X115359571Y-91380285D02*
X113859571Y-91380285D01*
X115288142Y-91380285D02*
X115359571Y-91523142D01*
X115359571Y-91808857D01*
X115288142Y-91951714D01*
X115216714Y-92023142D01*
X115073857Y-92094571D01*
X114645285Y-92094571D01*
X114502428Y-92023142D01*
X114431000Y-91951714D01*
X114359571Y-91808857D01*
X114359571Y-91523142D01*
X114431000Y-91380285D01*
X113859571Y-89737428D02*
X113859571Y-88880285D01*
X115359571Y-89308857D02*
X113859571Y-89308857D01*
X115288142Y-87808857D02*
X115359571Y-87951714D01*
X115359571Y-88237428D01*
X115288142Y-88380285D01*
X115145285Y-88451714D01*
X114573857Y-88451714D01*
X114431000Y-88380285D01*
X114359571Y-88237428D01*
X114359571Y-87951714D01*
X114431000Y-87808857D01*
X114573857Y-87737428D01*
X114716714Y-87737428D01*
X114859571Y-88451714D01*
X115288142Y-86451714D02*
X115359571Y-86594571D01*
X115359571Y-86880285D01*
X115288142Y-87023142D01*
X115216714Y-87094571D01*
X115073857Y-87166000D01*
X114645285Y-87166000D01*
X114502428Y-87094571D01*
X114431000Y-87023142D01*
X114359571Y-86880285D01*
X114359571Y-86594571D01*
X114431000Y-86451714D01*
X115359571Y-85808857D02*
X113859571Y-85808857D01*
X115359571Y-85166000D02*
X114573857Y-85166000D01*
X114431000Y-85237428D01*
X114359571Y-85380285D01*
X114359571Y-85594571D01*
X114431000Y-85737428D01*
X114502428Y-85808857D01*
X114359571Y-84451714D02*
X115359571Y-84451714D01*
X114502428Y-84451714D02*
X114431000Y-84380285D01*
X114359571Y-84237428D01*
X114359571Y-84023142D01*
X114431000Y-83880285D01*
X114573857Y-83808857D01*
X115359571Y-83808857D01*
X115359571Y-82880285D02*
X115288142Y-83023142D01*
X115216714Y-83094571D01*
X115073857Y-83166000D01*
X114645285Y-83166000D01*
X114502428Y-83094571D01*
X114431000Y-83023142D01*
X114359571Y-82880285D01*
X114359571Y-82666000D01*
X114431000Y-82523142D01*
X114502428Y-82451714D01*
X114645285Y-82380285D01*
X115073857Y-82380285D01*
X115216714Y-82451714D01*
X115288142Y-82523142D01*
X115359571Y-82666000D01*
X115359571Y-82880285D01*
X115359571Y-81523142D02*
X115288142Y-81666000D01*
X115145285Y-81737428D01*
X113859571Y-81737428D01*
X115359571Y-80737428D02*
X115288142Y-80880285D01*
X115216714Y-80951714D01*
X115073857Y-81023142D01*
X114645285Y-81023142D01*
X114502428Y-80951714D01*
X114431000Y-80880285D01*
X114359571Y-80737428D01*
X114359571Y-80523142D01*
X114431000Y-80380285D01*
X114502428Y-80308857D01*
X114645285Y-80237428D01*
X115073857Y-80237428D01*
X115216714Y-80308857D01*
X115288142Y-80380285D01*
X115359571Y-80523142D01*
X115359571Y-80737428D01*
X114359571Y-78951714D02*
X115573857Y-78951714D01*
X115716714Y-79023142D01*
X115788142Y-79094571D01*
X115859571Y-79237428D01*
X115859571Y-79451714D01*
X115788142Y-79594571D01*
X115288142Y-78951714D02*
X115359571Y-79094571D01*
X115359571Y-79380285D01*
X115288142Y-79523142D01*
X115216714Y-79594571D01*
X115073857Y-79666000D01*
X114645285Y-79666000D01*
X114502428Y-79594571D01*
X114431000Y-79523142D01*
X114359571Y-79380285D01*
X114359571Y-79094571D01*
X114431000Y-78951714D01*
X115359571Y-78237428D02*
X114359571Y-78237428D01*
X113859571Y-78237428D02*
X113931000Y-78308857D01*
X114002428Y-78237428D01*
X113931000Y-78166000D01*
X113859571Y-78237428D01*
X114002428Y-78237428D01*
X115288142Y-76951714D02*
X115359571Y-77094571D01*
X115359571Y-77380285D01*
X115288142Y-77523142D01*
X115145285Y-77594571D01*
X114573857Y-77594571D01*
X114431000Y-77523142D01*
X114359571Y-77380285D01*
X114359571Y-77094571D01*
X114431000Y-76951714D01*
X114573857Y-76880285D01*
X114716714Y-76880285D01*
X114859571Y-77594571D01*
X115288142Y-76308857D02*
X115359571Y-76166000D01*
X115359571Y-75880285D01*
X115288142Y-75737428D01*
X115145285Y-75666000D01*
X115073857Y-75666000D01*
X114931000Y-75737428D01*
X114859571Y-75880285D01*
X114859571Y-76094571D01*
X114788142Y-76237428D01*
X114645285Y-76308857D01*
X114573857Y-76308857D01*
X114431000Y-76237428D01*
X114359571Y-76094571D01*
X114359571Y-75880285D01*
X114431000Y-75737428D01*
X118284571Y-99252428D02*
X118341714Y-99309571D01*
X118398857Y-99480999D01*
X118398857Y-99595285D01*
X118341714Y-99766714D01*
X118227428Y-99880999D01*
X118113142Y-99938142D01*
X117884571Y-99995285D01*
X117713142Y-99995285D01*
X117484571Y-99938142D01*
X117370285Y-99880999D01*
X117256000Y-99766714D01*
X117198857Y-99595285D01*
X117198857Y-99480999D01*
X117256000Y-99309571D01*
X117313142Y-99252428D01*
X118398857Y-98566714D02*
X118341714Y-98680999D01*
X118284571Y-98738142D01*
X118170285Y-98795285D01*
X117827428Y-98795285D01*
X117713142Y-98738142D01*
X117656000Y-98680999D01*
X117598857Y-98566714D01*
X117598857Y-98395285D01*
X117656000Y-98280999D01*
X117713142Y-98223857D01*
X117827428Y-98166714D01*
X118170285Y-98166714D01*
X118284571Y-98223857D01*
X118341714Y-98280999D01*
X118398857Y-98395285D01*
X118398857Y-98566714D01*
X118341714Y-97709571D02*
X118398857Y-97595285D01*
X118398857Y-97366714D01*
X118341714Y-97252428D01*
X118227428Y-97195285D01*
X118170285Y-97195285D01*
X118056000Y-97252428D01*
X117998857Y-97366714D01*
X117998857Y-97538142D01*
X117941714Y-97652428D01*
X117827428Y-97709571D01*
X117770285Y-97709571D01*
X117656000Y-97652428D01*
X117598857Y-97538142D01*
X117598857Y-97366714D01*
X117656000Y-97252428D01*
X118398857Y-96680999D02*
X117598857Y-96680999D01*
X117713142Y-96680999D02*
X117656000Y-96623857D01*
X117598857Y-96509571D01*
X117598857Y-96338142D01*
X117656000Y-96223857D01*
X117770285Y-96166714D01*
X118398857Y-96166714D01*
X117770285Y-96166714D02*
X117656000Y-96109571D01*
X117598857Y-95995285D01*
X117598857Y-95823857D01*
X117656000Y-95709571D01*
X117770285Y-95652428D01*
X118398857Y-95652428D01*
X118398857Y-95081000D02*
X117598857Y-95081000D01*
X117198857Y-95081000D02*
X117256000Y-95138142D01*
X117313142Y-95081000D01*
X117256000Y-95023857D01*
X117198857Y-95081000D01*
X117313142Y-95081000D01*
X118341714Y-93995285D02*
X118398857Y-94109571D01*
X118398857Y-94338142D01*
X118341714Y-94452428D01*
X118284571Y-94509571D01*
X118170285Y-94566714D01*
X117827428Y-94566714D01*
X117713142Y-94509571D01*
X117656000Y-94452428D01*
X117598857Y-94338142D01*
X117598857Y-94109571D01*
X117656000Y-93995285D01*
X117198857Y-92738142D02*
X117198857Y-92052428D01*
X118398857Y-92395285D02*
X117198857Y-92395285D01*
X117598857Y-91138142D02*
X118398857Y-91138142D01*
X117598857Y-91652428D02*
X118227428Y-91652428D01*
X118341714Y-91595285D01*
X118398857Y-91481000D01*
X118398857Y-91309571D01*
X118341714Y-91195285D01*
X118284571Y-91138142D01*
X118398857Y-90566714D02*
X117598857Y-90566714D01*
X117827428Y-90566714D02*
X117713142Y-90509571D01*
X117656000Y-90452428D01*
X117598857Y-90338142D01*
X117598857Y-90223857D01*
X118398857Y-89823857D02*
X117198857Y-89823857D01*
X117656000Y-89823857D02*
X117598857Y-89709571D01*
X117598857Y-89480999D01*
X117656000Y-89366714D01*
X117713142Y-89309571D01*
X117827428Y-89252428D01*
X118170285Y-89252428D01*
X118284571Y-89309571D01*
X118341714Y-89366714D01*
X118398857Y-89480999D01*
X118398857Y-89709571D01*
X118341714Y-89823857D01*
X118398857Y-88566714D02*
X118341714Y-88680999D01*
X118284571Y-88738142D01*
X118170285Y-88795285D01*
X117827428Y-88795285D01*
X117713142Y-88738142D01*
X117656000Y-88680999D01*
X117598857Y-88566714D01*
X117598857Y-88395285D01*
X117656000Y-88280999D01*
X117713142Y-88223857D01*
X117827428Y-88166714D01*
X118170285Y-88166714D01*
X118284571Y-88223857D01*
X118341714Y-88280999D01*
X118398857Y-88395285D01*
X118398857Y-88566714D01*
X117598857Y-87652428D02*
X118798857Y-87652428D01*
X117656000Y-87652428D02*
X117598857Y-87538142D01*
X117598857Y-87309571D01*
X117656000Y-87195285D01*
X117713142Y-87138142D01*
X117827428Y-87081000D01*
X118170285Y-87081000D01*
X118284571Y-87138142D01*
X118341714Y-87195285D01*
X118398857Y-87309571D01*
X118398857Y-87538142D01*
X118341714Y-87652428D01*
X118398857Y-86395285D02*
X118341714Y-86509571D01*
X118284571Y-86566714D01*
X118170285Y-86623857D01*
X117827428Y-86623857D01*
X117713142Y-86566714D01*
X117656000Y-86509571D01*
X117598857Y-86395285D01*
X117598857Y-86223857D01*
X117656000Y-86109571D01*
X117713142Y-86052428D01*
X117827428Y-85995285D01*
X118170285Y-85995285D01*
X118284571Y-86052428D01*
X118341714Y-86109571D01*
X118398857Y-86223857D01*
X118398857Y-86395285D01*
X118398857Y-85309571D02*
X118341714Y-85423857D01*
X118227428Y-85481000D01*
X117198857Y-85481000D01*
X117598857Y-84966714D02*
X118398857Y-84681000D01*
X117598857Y-84395285D02*
X118398857Y-84681000D01*
X118684571Y-84795285D01*
X118741714Y-84852428D01*
X118798857Y-84966714D01*
X117598857Y-83938142D02*
X118798857Y-83938142D01*
X117656000Y-83938142D02*
X117598857Y-83823857D01*
X117598857Y-83595285D01*
X117656000Y-83480999D01*
X117713142Y-83423857D01*
X117827428Y-83366714D01*
X118170285Y-83366714D01*
X118284571Y-83423857D01*
X118341714Y-83480999D01*
X118398857Y-83595285D01*
X118398857Y-83823857D01*
X118341714Y-83938142D01*
X117198857Y-82109571D02*
X118398857Y-81709571D01*
X117198857Y-81309571D01*
X118398857Y-80281000D02*
X118398857Y-80966714D01*
X118398857Y-80623857D02*
X117198857Y-80623857D01*
X117370285Y-80738142D01*
X117484571Y-80852428D01*
X117541714Y-80966714D01*
X118284571Y-79766714D02*
X118341714Y-79709571D01*
X118398857Y-79766714D01*
X118341714Y-79823857D01*
X118284571Y-79766714D01*
X118398857Y-79766714D01*
X117198857Y-78966714D02*
X117198857Y-78852428D01*
X117256000Y-78738142D01*
X117313142Y-78681000D01*
X117427428Y-78623857D01*
X117656000Y-78566714D01*
X117941714Y-78566714D01*
X118170285Y-78623857D01*
X118284571Y-78681000D01*
X118341714Y-78738142D01*
X118398857Y-78852428D01*
X118398857Y-78966714D01*
X118341714Y-79081000D01*
X118284571Y-79138142D01*
X118170285Y-79195285D01*
X117941714Y-79252428D01*
X117656000Y-79252428D01*
X117427428Y-79195285D01*
X117313142Y-79138142D01*
X117256000Y-79081000D01*
X117198857Y-78966714D01*
D10*
%TO.C,C1*%
X114956142Y-106271046D02*
X115003761Y-106318665D01*
X115051380Y-106461522D01*
X115051380Y-106556760D01*
X115003761Y-106699618D01*
X114908523Y-106794856D01*
X114813285Y-106842475D01*
X114622809Y-106890094D01*
X114479952Y-106890094D01*
X114289476Y-106842475D01*
X114194238Y-106794856D01*
X114099000Y-106699618D01*
X114051380Y-106556760D01*
X114051380Y-106461522D01*
X114099000Y-106318665D01*
X114146619Y-106271046D01*
X115051380Y-105318665D02*
X115051380Y-105890094D01*
X115051380Y-105604380D02*
X114051380Y-105604380D01*
X114194238Y-105699618D01*
X114289476Y-105794856D01*
X114337095Y-105890094D01*
X123851380Y-108032951D02*
X123851380Y-108604380D01*
X123851380Y-108318665D02*
X122851380Y-108318665D01*
X122994238Y-108413903D01*
X123089476Y-108509141D01*
X123137095Y-108604380D01*
X122851380Y-107413903D02*
X122851380Y-107318665D01*
X122899000Y-107223427D01*
X122946619Y-107175808D01*
X123041857Y-107128189D01*
X123232333Y-107080570D01*
X123470428Y-107080570D01*
X123660904Y-107128189D01*
X123756142Y-107175808D01*
X123803761Y-107223427D01*
X123851380Y-107318665D01*
X123851380Y-107413903D01*
X123803761Y-107509141D01*
X123756142Y-107556760D01*
X123660904Y-107604380D01*
X123470428Y-107651999D01*
X123232333Y-107651999D01*
X123041857Y-107604380D01*
X122946619Y-107556760D01*
X122899000Y-107509141D01*
X122851380Y-107413903D01*
X122851380Y-106461522D02*
X122851380Y-106366284D01*
X122899000Y-106271046D01*
X122946619Y-106223427D01*
X123041857Y-106175808D01*
X123232333Y-106128189D01*
X123470428Y-106128189D01*
X123660904Y-106175808D01*
X123756142Y-106223427D01*
X123803761Y-106271046D01*
X123851380Y-106366284D01*
X123851380Y-106461522D01*
X123803761Y-106556760D01*
X123756142Y-106604380D01*
X123660904Y-106651999D01*
X123470428Y-106699618D01*
X123232333Y-106699618D01*
X123041857Y-106651999D01*
X122946619Y-106604380D01*
X122899000Y-106556760D01*
X122851380Y-106461522D01*
X123184714Y-104509141D02*
X123851380Y-104509141D01*
X123184714Y-104937713D02*
X123708523Y-104937713D01*
X123803761Y-104890094D01*
X123851380Y-104794856D01*
X123851380Y-104651999D01*
X123803761Y-104556760D01*
X123756142Y-104509141D01*
X123327571Y-103699618D02*
X123327571Y-104032951D01*
X123851380Y-104032951D02*
X122851380Y-104032951D01*
X122851380Y-103556760D01*
%TO.C,C3*%
X179832333Y-88043142D02*
X179784714Y-88090761D01*
X179641857Y-88138380D01*
X179546619Y-88138380D01*
X179403761Y-88090761D01*
X179308523Y-87995523D01*
X179260904Y-87900285D01*
X179213285Y-87709809D01*
X179213285Y-87566952D01*
X179260904Y-87376476D01*
X179308523Y-87281238D01*
X179403761Y-87186000D01*
X179546619Y-87138380D01*
X179641857Y-87138380D01*
X179784714Y-87186000D01*
X179832333Y-87233619D01*
X180165666Y-87138380D02*
X180784714Y-87138380D01*
X180451380Y-87519333D01*
X180594238Y-87519333D01*
X180689476Y-87566952D01*
X180737095Y-87614571D01*
X180784714Y-87709809D01*
X180784714Y-87947904D01*
X180737095Y-88043142D01*
X180689476Y-88090761D01*
X180594238Y-88138380D01*
X180308523Y-88138380D01*
X180213285Y-88090761D01*
X180165666Y-88043142D01*
X178070428Y-82438380D02*
X177499000Y-82438380D01*
X177784714Y-82438380D02*
X177784714Y-81438380D01*
X177689476Y-81581238D01*
X177594238Y-81676476D01*
X177499000Y-81724095D01*
X178689476Y-81438380D02*
X178784714Y-81438380D01*
X178879952Y-81486000D01*
X178927571Y-81533619D01*
X178975190Y-81628857D01*
X179022809Y-81819333D01*
X179022809Y-82057428D01*
X178975190Y-82247904D01*
X178927571Y-82343142D01*
X178879952Y-82390761D01*
X178784714Y-82438380D01*
X178689476Y-82438380D01*
X178594238Y-82390761D01*
X178546619Y-82343142D01*
X178499000Y-82247904D01*
X178451380Y-82057428D01*
X178451380Y-81819333D01*
X178499000Y-81628857D01*
X178546619Y-81533619D01*
X178594238Y-81486000D01*
X178689476Y-81438380D01*
X179641857Y-81438380D02*
X179737095Y-81438380D01*
X179832333Y-81486000D01*
X179879952Y-81533619D01*
X179927571Y-81628857D01*
X179975190Y-81819333D01*
X179975190Y-82057428D01*
X179927571Y-82247904D01*
X179879952Y-82343142D01*
X179832333Y-82390761D01*
X179737095Y-82438380D01*
X179641857Y-82438380D01*
X179546619Y-82390761D01*
X179499000Y-82343142D01*
X179451380Y-82247904D01*
X179403761Y-82057428D01*
X179403761Y-81819333D01*
X179451380Y-81628857D01*
X179499000Y-81533619D01*
X179546619Y-81486000D01*
X179641857Y-81438380D01*
X181165666Y-81771714D02*
X181165666Y-82438380D01*
X181165666Y-81866952D02*
X181213285Y-81819333D01*
X181308523Y-81771714D01*
X181451380Y-81771714D01*
X181546619Y-81819333D01*
X181594238Y-81914571D01*
X181594238Y-82438380D01*
X182403761Y-81914571D02*
X182070428Y-81914571D01*
X182070428Y-82438380D02*
X182070428Y-81438380D01*
X182546619Y-81438380D01*
%TO.C,A2*%
X132391714Y-95797666D02*
X132867904Y-95797666D01*
X132296476Y-96083380D02*
X132629809Y-95083380D01*
X132963142Y-96083380D01*
X133248857Y-95178619D02*
X133296476Y-95131000D01*
X133391714Y-95083380D01*
X133629809Y-95083380D01*
X133725047Y-95131000D01*
X133772666Y-95178619D01*
X133820285Y-95273857D01*
X133820285Y-95369095D01*
X133772666Y-95511952D01*
X133201238Y-96083380D01*
X133820285Y-96083380D01*
%TO.C,J3*%
X152735380Y-113724333D02*
X153449666Y-113724333D01*
X153592523Y-113771952D01*
X153687761Y-113867190D01*
X153735380Y-114010047D01*
X153735380Y-114105285D01*
X152735380Y-113343380D02*
X152735380Y-112724333D01*
X153116333Y-113057666D01*
X153116333Y-112914809D01*
X153163952Y-112819571D01*
X153211571Y-112771952D01*
X153306809Y-112724333D01*
X153544904Y-112724333D01*
X153640142Y-112771952D01*
X153687761Y-112819571D01*
X153735380Y-112914809D01*
X153735380Y-113200523D01*
X153687761Y-113295761D01*
X153640142Y-113343380D01*
X145835619Y-115379523D02*
X145835619Y-114903333D01*
X145359428Y-114855714D01*
X145407047Y-114903333D01*
X145454666Y-114998571D01*
X145454666Y-115236666D01*
X145407047Y-115331904D01*
X145359428Y-115379523D01*
X145264190Y-115427142D01*
X145026095Y-115427142D01*
X144930857Y-115379523D01*
X144883238Y-115331904D01*
X144835619Y-115236666D01*
X144835619Y-114998571D01*
X144883238Y-114903333D01*
X144930857Y-114855714D01*
X145835619Y-115712857D02*
X144835619Y-116046190D01*
X145835619Y-116379523D01*
X145534000Y-111125095D02*
X145581619Y-111029857D01*
X145581619Y-110887000D01*
X145534000Y-110744142D01*
X145438761Y-110648904D01*
X145343523Y-110601285D01*
X145153047Y-110553666D01*
X145010190Y-110553666D01*
X144819714Y-110601285D01*
X144724476Y-110648904D01*
X144629238Y-110744142D01*
X144581619Y-110887000D01*
X144581619Y-110982238D01*
X144629238Y-111125095D01*
X144676857Y-111172714D01*
X145010190Y-111172714D01*
X145010190Y-110982238D01*
X144581619Y-111601285D02*
X145581619Y-111601285D01*
X144581619Y-112172714D01*
X145581619Y-112172714D01*
X144581619Y-112648904D02*
X145581619Y-112648904D01*
X145581619Y-112887000D01*
X145534000Y-113029857D01*
X145438761Y-113125095D01*
X145343523Y-113172714D01*
X145153047Y-113220333D01*
X145010190Y-113220333D01*
X144819714Y-113172714D01*
X144724476Y-113125095D01*
X144629238Y-113029857D01*
X144581619Y-112887000D01*
X144581619Y-112648904D01*
%TO.C,F1*%
X126396428Y-79422666D02*
X126396428Y-79089333D01*
X125872619Y-79089333D02*
X126872619Y-79089333D01*
X126872619Y-79565523D01*
X125872619Y-80470285D02*
X125872619Y-79898857D01*
X125872619Y-80184571D02*
X126872619Y-80184571D01*
X126729761Y-80089333D01*
X126634523Y-79994095D01*
X126586904Y-79898857D01*
X129357428Y-78740142D02*
X129357428Y-78406809D01*
X128833619Y-78406809D02*
X129833619Y-78406809D01*
X129833619Y-78883000D01*
X129500285Y-79692523D02*
X128833619Y-79692523D01*
X129500285Y-79263952D02*
X128976476Y-79263952D01*
X128881238Y-79311571D01*
X128833619Y-79406809D01*
X128833619Y-79549666D01*
X128881238Y-79644904D01*
X128928857Y-79692523D01*
X128881238Y-80121095D02*
X128833619Y-80216333D01*
X128833619Y-80406809D01*
X128881238Y-80502047D01*
X128976476Y-80549666D01*
X129024095Y-80549666D01*
X129119333Y-80502047D01*
X129166952Y-80406809D01*
X129166952Y-80263952D01*
X129214571Y-80168714D01*
X129309809Y-80121095D01*
X129357428Y-80121095D01*
X129452666Y-80168714D01*
X129500285Y-80263952D01*
X129500285Y-80406809D01*
X129452666Y-80502047D01*
X128881238Y-81359190D02*
X128833619Y-81263952D01*
X128833619Y-81073476D01*
X128881238Y-80978238D01*
X128976476Y-80930619D01*
X129357428Y-80930619D01*
X129452666Y-80978238D01*
X129500285Y-81073476D01*
X129500285Y-81263952D01*
X129452666Y-81359190D01*
X129357428Y-81406809D01*
X129262190Y-81406809D01*
X129166952Y-80930619D01*
X139866428Y-77327428D02*
X139866428Y-76994095D01*
X139342619Y-76994095D02*
X140342619Y-76994095D01*
X140342619Y-77470285D01*
X140009285Y-78279809D02*
X139342619Y-78279809D01*
X140009285Y-77851238D02*
X139485476Y-77851238D01*
X139390238Y-77898857D01*
X139342619Y-77994095D01*
X139342619Y-78136952D01*
X139390238Y-78232190D01*
X139437857Y-78279809D01*
X139390238Y-78708380D02*
X139342619Y-78803619D01*
X139342619Y-78994095D01*
X139390238Y-79089333D01*
X139485476Y-79136952D01*
X139533095Y-79136952D01*
X139628333Y-79089333D01*
X139675952Y-78994095D01*
X139675952Y-78851238D01*
X139723571Y-78756000D01*
X139818809Y-78708380D01*
X139866428Y-78708380D01*
X139961666Y-78756000D01*
X140009285Y-78851238D01*
X140009285Y-78994095D01*
X139961666Y-79089333D01*
X139390238Y-79946476D02*
X139342619Y-79851238D01*
X139342619Y-79660761D01*
X139390238Y-79565523D01*
X139485476Y-79517904D01*
X139866428Y-79517904D01*
X139961666Y-79565523D01*
X140009285Y-79660761D01*
X140009285Y-79851238D01*
X139961666Y-79946476D01*
X139866428Y-79994095D01*
X139771190Y-79994095D01*
X139675952Y-79517904D01*
X140247380Y-81136952D02*
X140295000Y-81184571D01*
X140342619Y-81279809D01*
X140342619Y-81517904D01*
X140295000Y-81613142D01*
X140247380Y-81660761D01*
X140152142Y-81708380D01*
X140056904Y-81708380D01*
X139914047Y-81660761D01*
X139342619Y-81089333D01*
X139342619Y-81708380D01*
X139628333Y-82089333D02*
X139628333Y-82565523D01*
X139342619Y-81994095D02*
X140342619Y-82327428D01*
X139342619Y-82660761D01*
%TO.C,C2*%
X180066333Y-80322142D02*
X180018714Y-80369761D01*
X179875857Y-80417380D01*
X179780619Y-80417380D01*
X179637761Y-80369761D01*
X179542523Y-80274523D01*
X179494904Y-80179285D01*
X179447285Y-79988809D01*
X179447285Y-79845952D01*
X179494904Y-79655476D01*
X179542523Y-79560238D01*
X179637761Y-79465000D01*
X179780619Y-79417380D01*
X179875857Y-79417380D01*
X180018714Y-79465000D01*
X180066333Y-79512619D01*
X180447285Y-79512619D02*
X180494904Y-79465000D01*
X180590142Y-79417380D01*
X180828238Y-79417380D01*
X180923476Y-79465000D01*
X180971095Y-79512619D01*
X181018714Y-79607857D01*
X181018714Y-79703095D01*
X180971095Y-79845952D01*
X180399666Y-80417380D01*
X181018714Y-80417380D01*
X178780619Y-71617380D02*
X178209190Y-71617380D01*
X178494904Y-71617380D02*
X178494904Y-70617380D01*
X178399666Y-70760238D01*
X178304428Y-70855476D01*
X178209190Y-70903095D01*
X179399666Y-70617380D02*
X179494904Y-70617380D01*
X179590142Y-70665000D01*
X179637761Y-70712619D01*
X179685380Y-70807857D01*
X179733000Y-70998333D01*
X179733000Y-71236428D01*
X179685380Y-71426904D01*
X179637761Y-71522142D01*
X179590142Y-71569761D01*
X179494904Y-71617380D01*
X179399666Y-71617380D01*
X179304428Y-71569761D01*
X179256809Y-71522142D01*
X179209190Y-71426904D01*
X179161571Y-71236428D01*
X179161571Y-70998333D01*
X179209190Y-70807857D01*
X179256809Y-70712619D01*
X179304428Y-70665000D01*
X179399666Y-70617380D01*
X181352047Y-70950714D02*
X181352047Y-71617380D01*
X180923476Y-70950714D02*
X180923476Y-71474523D01*
X180971095Y-71569761D01*
X181066333Y-71617380D01*
X181209190Y-71617380D01*
X181304428Y-71569761D01*
X181352047Y-71522142D01*
X182161571Y-71093571D02*
X181828238Y-71093571D01*
X181828238Y-71617380D02*
X181828238Y-70617380D01*
X182304428Y-70617380D01*
%TO.C,J1*%
X152508380Y-80724333D02*
X153222666Y-80724333D01*
X153365523Y-80771952D01*
X153460761Y-80867190D01*
X153508380Y-81010047D01*
X153508380Y-81105285D01*
X153508380Y-79724333D02*
X153508380Y-80295761D01*
X153508380Y-80010047D02*
X152508380Y-80010047D01*
X152651238Y-80105285D01*
X152746476Y-80200523D01*
X152794095Y-80295761D01*
X143973619Y-75542428D02*
X144449809Y-75209095D01*
X143973619Y-74971000D02*
X144973619Y-74971000D01*
X144973619Y-75351952D01*
X144926000Y-75447190D01*
X144878380Y-75494809D01*
X144783142Y-75542428D01*
X144640285Y-75542428D01*
X144545047Y-75494809D01*
X144497428Y-75447190D01*
X144449809Y-75351952D01*
X144449809Y-74971000D01*
X143973619Y-76113857D02*
X144021238Y-76018619D01*
X144068857Y-75971000D01*
X144164095Y-75923380D01*
X144449809Y-75923380D01*
X144545047Y-75971000D01*
X144592666Y-76018619D01*
X144640285Y-76113857D01*
X144640285Y-76256714D01*
X144592666Y-76351952D01*
X144545047Y-76399571D01*
X144449809Y-76447190D01*
X144164095Y-76447190D01*
X144068857Y-76399571D01*
X144021238Y-76351952D01*
X143973619Y-76256714D01*
X143973619Y-76113857D01*
X144640285Y-76732904D02*
X144640285Y-77113857D01*
X144973619Y-76875761D02*
X144116476Y-76875761D01*
X144021238Y-76923380D01*
X143973619Y-77018619D01*
X143973619Y-77113857D01*
X143973619Y-77875761D02*
X144497428Y-77875761D01*
X144592666Y-77828142D01*
X144640285Y-77732904D01*
X144640285Y-77542428D01*
X144592666Y-77447190D01*
X144021238Y-77875761D02*
X143973619Y-77780523D01*
X143973619Y-77542428D01*
X144021238Y-77447190D01*
X144116476Y-77399571D01*
X144211714Y-77399571D01*
X144306952Y-77447190D01*
X144354571Y-77542428D01*
X144354571Y-77780523D01*
X144402190Y-77875761D01*
X143973619Y-78351952D02*
X144640285Y-78351952D01*
X144449809Y-78351952D02*
X144545047Y-78399571D01*
X144592666Y-78447190D01*
X144640285Y-78542428D01*
X144640285Y-78637666D01*
X144640285Y-78875761D02*
X143973619Y-79113857D01*
X144640285Y-79351952D02*
X143973619Y-79113857D01*
X143735523Y-79018619D01*
X143687904Y-78971000D01*
X143640285Y-78875761D01*
X144497428Y-80494809D02*
X144497428Y-80828142D01*
X143973619Y-80971000D02*
X143973619Y-80494809D01*
X144973619Y-80494809D01*
X144973619Y-80971000D01*
X144640285Y-81399571D02*
X143973619Y-81399571D01*
X144545047Y-81399571D02*
X144592666Y-81447190D01*
X144640285Y-81542428D01*
X144640285Y-81685285D01*
X144592666Y-81780523D01*
X144497428Y-81828142D01*
X143973619Y-81828142D01*
X144021238Y-82732904D02*
X143973619Y-82637666D01*
X143973619Y-82447190D01*
X144021238Y-82351952D01*
X144068857Y-82304333D01*
X144164095Y-82256714D01*
X144449809Y-82256714D01*
X144545047Y-82304333D01*
X144592666Y-82351952D01*
X144640285Y-82447190D01*
X144640285Y-82637666D01*
X144592666Y-82732904D01*
X143973619Y-83304333D02*
X144021238Y-83209095D01*
X144068857Y-83161476D01*
X144164095Y-83113857D01*
X144449809Y-83113857D01*
X144545047Y-83161476D01*
X144592666Y-83209095D01*
X144640285Y-83304333D01*
X144640285Y-83447190D01*
X144592666Y-83542428D01*
X144545047Y-83590047D01*
X144449809Y-83637666D01*
X144164095Y-83637666D01*
X144068857Y-83590047D01*
X144021238Y-83542428D01*
X143973619Y-83447190D01*
X143973619Y-83304333D01*
X143973619Y-84494809D02*
X144973619Y-84494809D01*
X144021238Y-84494809D02*
X143973619Y-84399571D01*
X143973619Y-84209095D01*
X144021238Y-84113857D01*
X144068857Y-84066238D01*
X144164095Y-84018619D01*
X144449809Y-84018619D01*
X144545047Y-84066238D01*
X144592666Y-84113857D01*
X144640285Y-84209095D01*
X144640285Y-84399571D01*
X144592666Y-84494809D01*
X144021238Y-85351952D02*
X143973619Y-85256714D01*
X143973619Y-85066238D01*
X144021238Y-84971000D01*
X144116476Y-84923380D01*
X144497428Y-84923380D01*
X144592666Y-84971000D01*
X144640285Y-85066238D01*
X144640285Y-85256714D01*
X144592666Y-85351952D01*
X144497428Y-85399571D01*
X144402190Y-85399571D01*
X144306952Y-84923380D01*
X143973619Y-85828142D02*
X144640285Y-85828142D01*
X144449809Y-85828142D02*
X144545047Y-85875761D01*
X144592666Y-85923380D01*
X144640285Y-86018619D01*
X144640285Y-86113857D01*
%TO.C,A1*%
X164522714Y-70778666D02*
X164998904Y-70778666D01*
X164427476Y-71064380D02*
X164760809Y-70064380D01*
X165094142Y-71064380D01*
X165951285Y-71064380D02*
X165379857Y-71064380D01*
X165665571Y-71064380D02*
X165665571Y-70064380D01*
X165570333Y-70207238D01*
X165475095Y-70302476D01*
X165379857Y-70350095D01*
X161593666Y-99599142D02*
X161593666Y-99122952D01*
X161879380Y-99694380D02*
X160879380Y-99361047D01*
X161879380Y-99027714D01*
X161879380Y-98694380D02*
X161212714Y-98694380D01*
X161403190Y-98694380D02*
X161307952Y-98646761D01*
X161260333Y-98599142D01*
X161212714Y-98503904D01*
X161212714Y-98408666D01*
X161879380Y-97646761D02*
X160879380Y-97646761D01*
X161831761Y-97646761D02*
X161879380Y-97742000D01*
X161879380Y-97932476D01*
X161831761Y-98027714D01*
X161784142Y-98075333D01*
X161688904Y-98122952D01*
X161403190Y-98122952D01*
X161307952Y-98075333D01*
X161260333Y-98027714D01*
X161212714Y-97932476D01*
X161212714Y-97742000D01*
X161260333Y-97646761D01*
X161212714Y-96742000D02*
X161879380Y-96742000D01*
X161212714Y-97170571D02*
X161736523Y-97170571D01*
X161831761Y-97122952D01*
X161879380Y-97027714D01*
X161879380Y-96884857D01*
X161831761Y-96789619D01*
X161784142Y-96742000D01*
X161879380Y-96265809D02*
X161212714Y-96265809D01*
X160879380Y-96265809D02*
X160927000Y-96313428D01*
X160974619Y-96265809D01*
X160927000Y-96218190D01*
X160879380Y-96265809D01*
X160974619Y-96265809D01*
X161212714Y-95789619D02*
X161879380Y-95789619D01*
X161307952Y-95789619D02*
X161260333Y-95742000D01*
X161212714Y-95646761D01*
X161212714Y-95503904D01*
X161260333Y-95408666D01*
X161355571Y-95361047D01*
X161879380Y-95361047D01*
X161879380Y-94742000D02*
X161831761Y-94837238D01*
X161784142Y-94884857D01*
X161688904Y-94932476D01*
X161403190Y-94932476D01*
X161307952Y-94884857D01*
X161260333Y-94837238D01*
X161212714Y-94742000D01*
X161212714Y-94599142D01*
X161260333Y-94503904D01*
X161307952Y-94456285D01*
X161403190Y-94408666D01*
X161688904Y-94408666D01*
X161784142Y-94456285D01*
X161831761Y-94503904D01*
X161879380Y-94599142D01*
X161879380Y-94742000D01*
X161879380Y-93218190D02*
X160879380Y-93218190D01*
X161879380Y-92646761D01*
X160879380Y-92646761D01*
X161879380Y-91742000D02*
X161355571Y-91742000D01*
X161260333Y-91789619D01*
X161212714Y-91884857D01*
X161212714Y-92075333D01*
X161260333Y-92170571D01*
X161831761Y-91742000D02*
X161879380Y-91837238D01*
X161879380Y-92075333D01*
X161831761Y-92170571D01*
X161736523Y-92218190D01*
X161641285Y-92218190D01*
X161546047Y-92170571D01*
X161498428Y-92075333D01*
X161498428Y-91837238D01*
X161450809Y-91742000D01*
X161212714Y-91265809D02*
X161879380Y-91265809D01*
X161307952Y-91265809D02*
X161260333Y-91218190D01*
X161212714Y-91122952D01*
X161212714Y-90980095D01*
X161260333Y-90884857D01*
X161355571Y-90837238D01*
X161879380Y-90837238D01*
X161879380Y-90218190D02*
X161831761Y-90313428D01*
X161784142Y-90361047D01*
X161688904Y-90408666D01*
X161403190Y-90408666D01*
X161307952Y-90361047D01*
X161260333Y-90313428D01*
X161212714Y-90218190D01*
X161212714Y-90075333D01*
X161260333Y-89980095D01*
X161307952Y-89932476D01*
X161403190Y-89884857D01*
X161688904Y-89884857D01*
X161784142Y-89932476D01*
X161831761Y-89980095D01*
X161879380Y-90075333D01*
X161879380Y-90218190D01*
X163975095Y-110704380D02*
X163975095Y-111513904D01*
X164022714Y-111609142D01*
X164070333Y-111656761D01*
X164165571Y-111704380D01*
X164356047Y-111704380D01*
X164451285Y-111656761D01*
X164498904Y-111609142D01*
X164546523Y-111513904D01*
X164546523Y-110704380D01*
X164975095Y-111656761D02*
X165117952Y-111704380D01*
X165356047Y-111704380D01*
X165451285Y-111656761D01*
X165498904Y-111609142D01*
X165546523Y-111513904D01*
X165546523Y-111418666D01*
X165498904Y-111323428D01*
X165451285Y-111275809D01*
X165356047Y-111228190D01*
X165165571Y-111180571D01*
X165070333Y-111132952D01*
X165022714Y-111085333D01*
X164975095Y-110990095D01*
X164975095Y-110894857D01*
X165022714Y-110799619D01*
X165070333Y-110752000D01*
X165165571Y-110704380D01*
X165403666Y-110704380D01*
X165546523Y-110752000D01*
X166308428Y-111180571D02*
X166451285Y-111228190D01*
X166498904Y-111275809D01*
X166546523Y-111371047D01*
X166546523Y-111513904D01*
X166498904Y-111609142D01*
X166451285Y-111656761D01*
X166356047Y-111704380D01*
X165975095Y-111704380D01*
X165975095Y-110704380D01*
X166308428Y-110704380D01*
X166403666Y-110752000D01*
X166451285Y-110799619D01*
X166498904Y-110894857D01*
X166498904Y-110990095D01*
X166451285Y-111085333D01*
X166403666Y-111132952D01*
X166308428Y-111180571D01*
X165975095Y-111180571D01*
%TO.C,C4*%
X179792333Y-95871142D02*
X179744714Y-95918761D01*
X179601857Y-95966380D01*
X179506619Y-95966380D01*
X179363761Y-95918761D01*
X179268523Y-95823523D01*
X179220904Y-95728285D01*
X179173285Y-95537809D01*
X179173285Y-95394952D01*
X179220904Y-95204476D01*
X179268523Y-95109238D01*
X179363761Y-95014000D01*
X179506619Y-94966380D01*
X179601857Y-94966380D01*
X179744714Y-95014000D01*
X179792333Y-95061619D01*
X180649476Y-95299714D02*
X180649476Y-95966380D01*
X180411380Y-94918761D02*
X180173285Y-95633047D01*
X180792333Y-95633047D01*
X178506619Y-90866380D02*
X177935190Y-90866380D01*
X178220904Y-90866380D02*
X178220904Y-89866380D01*
X178125666Y-90009238D01*
X178030428Y-90104476D01*
X177935190Y-90152095D01*
X179125666Y-89866380D02*
X179220904Y-89866380D01*
X179316142Y-89914000D01*
X179363761Y-89961619D01*
X179411380Y-90056857D01*
X179459000Y-90247333D01*
X179459000Y-90485428D01*
X179411380Y-90675904D01*
X179363761Y-90771142D01*
X179316142Y-90818761D01*
X179220904Y-90866380D01*
X179125666Y-90866380D01*
X179030428Y-90818761D01*
X178982809Y-90771142D01*
X178935190Y-90675904D01*
X178887571Y-90485428D01*
X178887571Y-90247333D01*
X178935190Y-90056857D01*
X178982809Y-89961619D01*
X179030428Y-89914000D01*
X179125666Y-89866380D01*
X180649476Y-90199714D02*
X180649476Y-90866380D01*
X180649476Y-90294952D02*
X180697095Y-90247333D01*
X180792333Y-90199714D01*
X180935190Y-90199714D01*
X181030428Y-90247333D01*
X181078047Y-90342571D01*
X181078047Y-90866380D01*
X181887571Y-90342571D02*
X181554238Y-90342571D01*
X181554238Y-90866380D02*
X181554238Y-89866380D01*
X182030428Y-89866380D01*
D11*
%TO.C,G\u002A\u002A\u002A*%
X119434428Y-69215000D02*
X119289285Y-69142428D01*
X119071571Y-69142428D01*
X118853857Y-69215000D01*
X118708714Y-69360142D01*
X118636142Y-69505285D01*
X118563571Y-69795571D01*
X118563571Y-70013285D01*
X118636142Y-70303571D01*
X118708714Y-70448714D01*
X118853857Y-70593857D01*
X119071571Y-70666428D01*
X119216714Y-70666428D01*
X119434428Y-70593857D01*
X119507000Y-70521285D01*
X119507000Y-70013285D01*
X119216714Y-70013285D01*
X120377857Y-69142428D02*
X120377857Y-69505285D01*
X120015000Y-69360142D02*
X120377857Y-69505285D01*
X120740714Y-69360142D01*
X120160142Y-69795571D02*
X120377857Y-69505285D01*
X120595571Y-69795571D01*
X121539000Y-69142428D02*
X121539000Y-69505285D01*
X121176142Y-69360142D02*
X121539000Y-69505285D01*
X121901857Y-69360142D01*
X121321285Y-69795571D02*
X121539000Y-69505285D01*
X121756714Y-69795571D01*
X122700142Y-69142428D02*
X122700142Y-69505285D01*
X122337285Y-69360142D02*
X122700142Y-69505285D01*
X123063000Y-69360142D01*
X122482428Y-69795571D02*
X122700142Y-69505285D01*
X122917857Y-69795571D01*
D10*
%TO.C,U1*%
X168275095Y-60539380D02*
X168275095Y-61348904D01*
X168322714Y-61444142D01*
X168370333Y-61491761D01*
X168465571Y-61539380D01*
X168656047Y-61539380D01*
X168751285Y-61491761D01*
X168798904Y-61444142D01*
X168846523Y-61348904D01*
X168846523Y-60539380D01*
X169846523Y-61539380D02*
X169275095Y-61539380D01*
X169560809Y-61539380D02*
X169560809Y-60539380D01*
X169465571Y-60682238D01*
X169370333Y-60777476D01*
X169275095Y-60825095D01*
X160655095Y-63127000D02*
X160559857Y-63079380D01*
X160417000Y-63079380D01*
X160274142Y-63127000D01*
X160178904Y-63222238D01*
X160131285Y-63317476D01*
X160083666Y-63507952D01*
X160083666Y-63650809D01*
X160131285Y-63841285D01*
X160178904Y-63936523D01*
X160274142Y-64031761D01*
X160417000Y-64079380D01*
X160512238Y-64079380D01*
X160655095Y-64031761D01*
X160702714Y-63984142D01*
X160702714Y-63650809D01*
X160512238Y-63650809D01*
X161131285Y-64079380D02*
X161131285Y-63079380D01*
X161702714Y-64079380D01*
X161702714Y-63079380D01*
X162178904Y-64079380D02*
X162178904Y-63079380D01*
X162417000Y-63079380D01*
X162559857Y-63127000D01*
X162655095Y-63222238D01*
X162702714Y-63317476D01*
X162750333Y-63507952D01*
X162750333Y-63650809D01*
X162702714Y-63841285D01*
X162655095Y-63936523D01*
X162559857Y-64031761D01*
X162417000Y-64079380D01*
X162178904Y-64079380D01*
X163608428Y-67603666D02*
X164084619Y-67603666D01*
X163513190Y-67889380D02*
X163846523Y-66889380D01*
X164179857Y-67889380D01*
X164513190Y-67889380D02*
X164513190Y-66889380D01*
X164846523Y-67603666D01*
X165179857Y-66889380D01*
X165179857Y-67889380D01*
X165608428Y-67841761D02*
X165751285Y-67889380D01*
X165989380Y-67889380D01*
X166084619Y-67841761D01*
X166132238Y-67794142D01*
X166179857Y-67698904D01*
X166179857Y-67603666D01*
X166132238Y-67508428D01*
X166084619Y-67460809D01*
X165989380Y-67413190D01*
X165798904Y-67365571D01*
X165703666Y-67317952D01*
X165656047Y-67270333D01*
X165608428Y-67175095D01*
X165608428Y-67079857D01*
X165656047Y-66984619D01*
X165703666Y-66937000D01*
X165798904Y-66889380D01*
X166037000Y-66889380D01*
X166179857Y-66937000D01*
X167132238Y-67889380D02*
X166560809Y-67889380D01*
X166846523Y-67889380D02*
X166846523Y-66889380D01*
X166751285Y-67032238D01*
X166656047Y-67127476D01*
X166560809Y-67175095D01*
X168084619Y-67889380D02*
X167513190Y-67889380D01*
X167798904Y-67889380D02*
X167798904Y-66889380D01*
X167703666Y-67032238D01*
X167608428Y-67127476D01*
X167513190Y-67175095D01*
X169037000Y-67889380D02*
X168465571Y-67889380D01*
X168751285Y-67889380D02*
X168751285Y-66889380D01*
X168656047Y-67032238D01*
X168560809Y-67127476D01*
X168465571Y-67175095D01*
X169370333Y-66889380D02*
X170037000Y-66889380D01*
X169608428Y-67889380D01*
X170417952Y-67508428D02*
X171179857Y-67508428D01*
X172132238Y-66889380D02*
X171656047Y-66889380D01*
X171608428Y-67365571D01*
X171656047Y-67317952D01*
X171751285Y-67270333D01*
X171989380Y-67270333D01*
X172084619Y-67317952D01*
X172132238Y-67365571D01*
X172179857Y-67460809D01*
X172179857Y-67698904D01*
X172132238Y-67794142D01*
X172084619Y-67841761D01*
X171989380Y-67889380D01*
X171751285Y-67889380D01*
X171656047Y-67841761D01*
X171608428Y-67794142D01*
X172608428Y-67794142D02*
X172656047Y-67841761D01*
X172608428Y-67889380D01*
X172560809Y-67841761D01*
X172608428Y-67794142D01*
X172608428Y-67889380D01*
X173275095Y-66889380D02*
X173370333Y-66889380D01*
X173465571Y-66937000D01*
X173513190Y-66984619D01*
X173560809Y-67079857D01*
X173608428Y-67270333D01*
X173608428Y-67508428D01*
X173560809Y-67698904D01*
X173513190Y-67794142D01*
X173465571Y-67841761D01*
X173370333Y-67889380D01*
X173275095Y-67889380D01*
X173179857Y-67841761D01*
X173132238Y-67794142D01*
X173084619Y-67698904D01*
X173037000Y-67508428D01*
X173037000Y-67270333D01*
X173084619Y-67079857D01*
X173132238Y-66984619D01*
X173179857Y-66937000D01*
X173275095Y-66889380D01*
X173894142Y-66889380D02*
X174227476Y-67889380D01*
X174560809Y-66889380D01*
X175895095Y-63127000D02*
X175799857Y-63079380D01*
X175657000Y-63079380D01*
X175514142Y-63127000D01*
X175418904Y-63222238D01*
X175371285Y-63317476D01*
X175323666Y-63507952D01*
X175323666Y-63650809D01*
X175371285Y-63841285D01*
X175418904Y-63936523D01*
X175514142Y-64031761D01*
X175657000Y-64079380D01*
X175752238Y-64079380D01*
X175895095Y-64031761D01*
X175942714Y-63984142D01*
X175942714Y-63650809D01*
X175752238Y-63650809D01*
X176371285Y-64079380D02*
X176371285Y-63079380D01*
X176942714Y-64079380D01*
X176942714Y-63079380D01*
X177418904Y-64079380D02*
X177418904Y-63079380D01*
X177657000Y-63079380D01*
X177799857Y-63127000D01*
X177895095Y-63222238D01*
X177942714Y-63317476D01*
X177990333Y-63507952D01*
X177990333Y-63650809D01*
X177942714Y-63841285D01*
X177895095Y-63936523D01*
X177799857Y-64031761D01*
X177657000Y-64079380D01*
X177418904Y-64079380D01*
X174895095Y-60539380D02*
X175228428Y-61539380D01*
X175561761Y-60539380D01*
X176085571Y-60539380D02*
X176276047Y-60539380D01*
X176371285Y-60587000D01*
X176466523Y-60682238D01*
X176514142Y-60872714D01*
X176514142Y-61206047D01*
X176466523Y-61396523D01*
X176371285Y-61491761D01*
X176276047Y-61539380D01*
X176085571Y-61539380D01*
X175990333Y-61491761D01*
X175895095Y-61396523D01*
X175847476Y-61206047D01*
X175847476Y-60872714D01*
X175895095Y-60682238D01*
X175990333Y-60587000D01*
X176085571Y-60539380D01*
X176942714Y-60539380D02*
X176942714Y-61348904D01*
X176990333Y-61444142D01*
X177037952Y-61491761D01*
X177133190Y-61539380D01*
X177323666Y-61539380D01*
X177418904Y-61491761D01*
X177466523Y-61444142D01*
X177514142Y-61348904D01*
X177514142Y-60539380D01*
X177847476Y-60539380D02*
X178418904Y-60539380D01*
X178133190Y-61539380D02*
X178133190Y-60539380D01*
X160393190Y-60539380D02*
X160726523Y-61539380D01*
X161059857Y-60539380D01*
X161393190Y-61539380D02*
X161393190Y-60872714D01*
X161393190Y-60539380D02*
X161345571Y-60587000D01*
X161393190Y-60634619D01*
X161440809Y-60587000D01*
X161393190Y-60539380D01*
X161393190Y-60634619D01*
X161869380Y-60872714D02*
X161869380Y-61539380D01*
X161869380Y-60967952D02*
X161917000Y-60920333D01*
X162012238Y-60872714D01*
X162155095Y-60872714D01*
X162250333Y-60920333D01*
X162297952Y-61015571D01*
X162297952Y-61539380D01*
%TO.C,J6*%
X147895666Y-66121380D02*
X147895666Y-66835666D01*
X147848047Y-66978523D01*
X147752809Y-67073761D01*
X147609952Y-67121380D01*
X147514714Y-67121380D01*
X148800428Y-66121380D02*
X148609952Y-66121380D01*
X148514714Y-66169000D01*
X148467095Y-66216619D01*
X148371857Y-66359476D01*
X148324238Y-66549952D01*
X148324238Y-66930904D01*
X148371857Y-67026142D01*
X148419476Y-67073761D01*
X148514714Y-67121380D01*
X148705190Y-67121380D01*
X148800428Y-67073761D01*
X148848047Y-67026142D01*
X148895666Y-66930904D01*
X148895666Y-66692809D01*
X148848047Y-66597571D01*
X148800428Y-66549952D01*
X148705190Y-66502333D01*
X148514714Y-66502333D01*
X148419476Y-66549952D01*
X148371857Y-66597571D01*
X148324238Y-66692809D01*
%TO.C,R1*%
X143709380Y-52125666D02*
X143233190Y-52459000D01*
X143709380Y-52697095D02*
X142709380Y-52697095D01*
X142709380Y-52316142D01*
X142757000Y-52220904D01*
X142804619Y-52173285D01*
X142899857Y-52125666D01*
X143042714Y-52125666D01*
X143137952Y-52173285D01*
X143185571Y-52220904D01*
X143233190Y-52316142D01*
X143233190Y-52697095D01*
X143709380Y-51173285D02*
X143709380Y-51744714D01*
X143709380Y-51459000D02*
X142709380Y-51459000D01*
X142852238Y-51554238D01*
X142947476Y-51649476D01*
X142995095Y-51744714D01*
X146342714Y-52982809D02*
X147009380Y-52982809D01*
X145961761Y-53220904D02*
X146676047Y-53459000D01*
X146676047Y-52839952D01*
X146914142Y-52459000D02*
X146961761Y-52411380D01*
X147009380Y-52459000D01*
X146961761Y-52506619D01*
X146914142Y-52459000D01*
X147009380Y-52459000D01*
X146009380Y-52078047D02*
X146009380Y-51411380D01*
X147009380Y-51839952D01*
X147009380Y-51030428D02*
X146009380Y-51030428D01*
X147009380Y-50459000D02*
X146437952Y-50887571D01*
X146009380Y-50459000D02*
X146580809Y-51030428D01*
%TO.C,J5*%
X127247880Y-49318333D02*
X127962166Y-49318333D01*
X128105023Y-49365952D01*
X128200261Y-49461190D01*
X128247880Y-49604047D01*
X128247880Y-49699285D01*
X127247880Y-48365952D02*
X127247880Y-48842142D01*
X127724071Y-48889761D01*
X127676452Y-48842142D01*
X127628833Y-48746904D01*
X127628833Y-48508809D01*
X127676452Y-48413571D01*
X127724071Y-48365952D01*
X127819309Y-48318333D01*
X128057404Y-48318333D01*
X128152642Y-48365952D01*
X128200261Y-48413571D01*
X128247880Y-48508809D01*
X128247880Y-48746904D01*
X128200261Y-48842142D01*
X128152642Y-48889761D01*
X138485619Y-48840000D02*
X138485619Y-48268571D01*
X138485619Y-48554285D02*
X139485619Y-48554285D01*
X139342761Y-48459047D01*
X139247523Y-48363809D01*
X139199904Y-48268571D01*
X139390380Y-49220952D02*
X139438000Y-49268571D01*
X139485619Y-49363809D01*
X139485619Y-49601904D01*
X139438000Y-49697142D01*
X139390380Y-49744761D01*
X139295142Y-49792380D01*
X139199904Y-49792380D01*
X139057047Y-49744761D01*
X138485619Y-49173333D01*
X138485619Y-49792380D01*
X139485619Y-50078095D02*
X138485619Y-50411428D01*
X139485619Y-50744761D01*
X139390380Y-51792380D02*
X139438000Y-51840000D01*
X139485619Y-51935238D01*
X139485619Y-52173333D01*
X139438000Y-52268571D01*
X139390380Y-52316190D01*
X139295142Y-52363809D01*
X139199904Y-52363809D01*
X139057047Y-52316190D01*
X138485619Y-51744761D01*
X138485619Y-52363809D01*
X138771333Y-52744761D02*
X138771333Y-53220952D01*
X138485619Y-52649523D02*
X139485619Y-52982857D01*
X138485619Y-53316190D01*
X138485619Y-54411428D02*
X139485619Y-54411428D01*
X139485619Y-54792380D01*
X139438000Y-54887619D01*
X139390380Y-54935238D01*
X139295142Y-54982857D01*
X139152285Y-54982857D01*
X139057047Y-54935238D01*
X139009428Y-54887619D01*
X138961809Y-54792380D01*
X138961809Y-54411428D01*
X138485619Y-55554285D02*
X138533238Y-55459047D01*
X138580857Y-55411428D01*
X138676095Y-55363809D01*
X138961809Y-55363809D01*
X139057047Y-55411428D01*
X139104666Y-55459047D01*
X139152285Y-55554285D01*
X139152285Y-55697142D01*
X139104666Y-55792380D01*
X139057047Y-55840000D01*
X138961809Y-55887619D01*
X138676095Y-55887619D01*
X138580857Y-55840000D01*
X138533238Y-55792380D01*
X138485619Y-55697142D01*
X138485619Y-55554285D01*
X139152285Y-56220952D02*
X138485619Y-56411428D01*
X138961809Y-56601904D01*
X138485619Y-56792380D01*
X139152285Y-56982857D01*
X138533238Y-57744761D02*
X138485619Y-57649523D01*
X138485619Y-57459047D01*
X138533238Y-57363809D01*
X138628476Y-57316190D01*
X139009428Y-57316190D01*
X139104666Y-57363809D01*
X139152285Y-57459047D01*
X139152285Y-57649523D01*
X139104666Y-57744761D01*
X139009428Y-57792380D01*
X138914190Y-57792380D01*
X138818952Y-57316190D01*
X138485619Y-58220952D02*
X139152285Y-58220952D01*
X138961809Y-58220952D02*
X139057047Y-58268571D01*
X139104666Y-58316190D01*
X139152285Y-58411428D01*
X139152285Y-58506666D01*
%TO.C,J2*%
X152762380Y-99774333D02*
X153476666Y-99774333D01*
X153619523Y-99821952D01*
X153714761Y-99917190D01*
X153762380Y-100060047D01*
X153762380Y-100155285D01*
X152857619Y-99345761D02*
X152810000Y-99298142D01*
X152762380Y-99202904D01*
X152762380Y-98964809D01*
X152810000Y-98869571D01*
X152857619Y-98821952D01*
X152952857Y-98774333D01*
X153048095Y-98774333D01*
X153190952Y-98821952D01*
X153762380Y-99393380D01*
X153762380Y-98774333D01*
X144275238Y-91330523D02*
X144227619Y-91473380D01*
X144227619Y-91711476D01*
X144275238Y-91806714D01*
X144322857Y-91854333D01*
X144418095Y-91901952D01*
X144513333Y-91901952D01*
X144608571Y-91854333D01*
X144656190Y-91806714D01*
X144703809Y-91711476D01*
X144751428Y-91521000D01*
X144799047Y-91425761D01*
X144846666Y-91378142D01*
X144941904Y-91330523D01*
X145037142Y-91330523D01*
X145132380Y-91378142D01*
X145180000Y-91425761D01*
X145227619Y-91521000D01*
X145227619Y-91759095D01*
X145180000Y-91901952D01*
X144894285Y-92235285D02*
X144227619Y-92425761D01*
X144703809Y-92616238D01*
X144227619Y-92806714D01*
X144894285Y-92997190D01*
X144227619Y-93378142D02*
X144894285Y-93378142D01*
X145227619Y-93378142D02*
X145180000Y-93330523D01*
X145132380Y-93378142D01*
X145180000Y-93425761D01*
X145227619Y-93378142D01*
X145132380Y-93378142D01*
X144894285Y-93711476D02*
X144894285Y-94092428D01*
X145227619Y-93854333D02*
X144370476Y-93854333D01*
X144275238Y-93901952D01*
X144227619Y-93997190D01*
X144227619Y-94092428D01*
X144275238Y-94854333D02*
X144227619Y-94759095D01*
X144227619Y-94568619D01*
X144275238Y-94473380D01*
X144322857Y-94425761D01*
X144418095Y-94378142D01*
X144703809Y-94378142D01*
X144799047Y-94425761D01*
X144846666Y-94473380D01*
X144894285Y-94568619D01*
X144894285Y-94759095D01*
X144846666Y-94854333D01*
X144227619Y-95282904D02*
X145227619Y-95282904D01*
X144227619Y-95711476D02*
X144751428Y-95711476D01*
X144846666Y-95663857D01*
X144894285Y-95568619D01*
X144894285Y-95425761D01*
X144846666Y-95330523D01*
X144799047Y-95282904D01*
X144227619Y-97378142D02*
X144751428Y-97378142D01*
X144846666Y-97330523D01*
X144894285Y-97235285D01*
X144894285Y-97044809D01*
X144846666Y-96949571D01*
X144275238Y-97378142D02*
X144227619Y-97282904D01*
X144227619Y-97044809D01*
X144275238Y-96949571D01*
X144370476Y-96901952D01*
X144465714Y-96901952D01*
X144560952Y-96949571D01*
X144608571Y-97044809D01*
X144608571Y-97282904D01*
X144656190Y-97378142D01*
X144894285Y-97854333D02*
X144227619Y-97854333D01*
X144799047Y-97854333D02*
X144846666Y-97901952D01*
X144894285Y-97997190D01*
X144894285Y-98140047D01*
X144846666Y-98235285D01*
X144751428Y-98282904D01*
X144227619Y-98282904D01*
X144227619Y-99187666D02*
X145227619Y-99187666D01*
X144275238Y-99187666D02*
X144227619Y-99092428D01*
X144227619Y-98901952D01*
X144275238Y-98806714D01*
X144322857Y-98759095D01*
X144418095Y-98711476D01*
X144703809Y-98711476D01*
X144799047Y-98759095D01*
X144846666Y-98806714D01*
X144894285Y-98901952D01*
X144894285Y-99092428D01*
X144846666Y-99187666D01*
X144227619Y-100901952D02*
X144227619Y-100425761D01*
X145227619Y-100425761D01*
X144751428Y-101235285D02*
X144751428Y-101568619D01*
X144227619Y-101711476D02*
X144227619Y-101235285D01*
X145227619Y-101235285D01*
X145227619Y-101711476D01*
X144227619Y-102140047D02*
X145227619Y-102140047D01*
X145227619Y-102378142D01*
X145180000Y-102521000D01*
X145084761Y-102616238D01*
X144989523Y-102663857D01*
X144799047Y-102711476D01*
X144656190Y-102711476D01*
X144465714Y-102663857D01*
X144370476Y-102616238D01*
X144275238Y-102521000D01*
X144227619Y-102378142D01*
X144227619Y-102140047D01*
X144227619Y-103901952D02*
X145227619Y-103901952D01*
X144846666Y-103901952D02*
X144894285Y-103997190D01*
X144894285Y-104187666D01*
X144846666Y-104282904D01*
X144799047Y-104330523D01*
X144703809Y-104378142D01*
X144418095Y-104378142D01*
X144322857Y-104330523D01*
X144275238Y-104282904D01*
X144227619Y-104187666D01*
X144227619Y-103997190D01*
X144275238Y-103901952D01*
X144227619Y-104949571D02*
X144275238Y-104854333D01*
X144322857Y-104806714D01*
X144418095Y-104759095D01*
X144703809Y-104759095D01*
X144799047Y-104806714D01*
X144846666Y-104854333D01*
X144894285Y-104949571D01*
X144894285Y-105092428D01*
X144846666Y-105187666D01*
X144799047Y-105235285D01*
X144703809Y-105282904D01*
X144418095Y-105282904D01*
X144322857Y-105235285D01*
X144275238Y-105187666D01*
X144227619Y-105092428D01*
X144227619Y-104949571D01*
X144227619Y-106140047D02*
X144751428Y-106140047D01*
X144846666Y-106092428D01*
X144894285Y-105997190D01*
X144894285Y-105806714D01*
X144846666Y-105711476D01*
X144275238Y-106140047D02*
X144227619Y-106044809D01*
X144227619Y-105806714D01*
X144275238Y-105711476D01*
X144370476Y-105663857D01*
X144465714Y-105663857D01*
X144560952Y-105711476D01*
X144608571Y-105806714D01*
X144608571Y-106044809D01*
X144656190Y-106140047D01*
X144227619Y-106616238D02*
X144894285Y-106616238D01*
X144703809Y-106616238D02*
X144799047Y-106663857D01*
X144846666Y-106711476D01*
X144894285Y-106806714D01*
X144894285Y-106901952D01*
X144227619Y-107663857D02*
X145227619Y-107663857D01*
X144275238Y-107663857D02*
X144227619Y-107568619D01*
X144227619Y-107378142D01*
X144275238Y-107282904D01*
X144322857Y-107235285D01*
X144418095Y-107187666D01*
X144703809Y-107187666D01*
X144799047Y-107235285D01*
X144846666Y-107282904D01*
X144894285Y-107378142D01*
X144894285Y-107568619D01*
X144846666Y-107663857D01*
%TO.C,J4*%
X114122380Y-55197333D02*
X114836666Y-55197333D01*
X114979523Y-55244952D01*
X115074761Y-55340190D01*
X115122380Y-55483047D01*
X115122380Y-55578285D01*
X114455714Y-54292571D02*
X115122380Y-54292571D01*
X114074761Y-54530666D02*
X114789047Y-54768761D01*
X114789047Y-54149714D01*
X123704761Y-59994476D02*
X123752380Y-59851619D01*
X123752380Y-59613523D01*
X123704761Y-59518285D01*
X123657142Y-59470666D01*
X123561904Y-59423047D01*
X123466666Y-59423047D01*
X123371428Y-59470666D01*
X123323809Y-59518285D01*
X123276190Y-59613523D01*
X123228571Y-59804000D01*
X123180952Y-59899238D01*
X123133333Y-59946857D01*
X123038095Y-59994476D01*
X122942857Y-59994476D01*
X122847619Y-59946857D01*
X122800000Y-59899238D01*
X122752380Y-59804000D01*
X122752380Y-59565904D01*
X122800000Y-59423047D01*
X123085714Y-59137333D02*
X123085714Y-58756380D01*
X122752380Y-58994476D02*
X123609523Y-58994476D01*
X123704761Y-58946857D01*
X123752380Y-58851619D01*
X123752380Y-58756380D01*
X123704761Y-58042095D02*
X123752380Y-58137333D01*
X123752380Y-58327809D01*
X123704761Y-58423047D01*
X123609523Y-58470666D01*
X123228571Y-58470666D01*
X123133333Y-58423047D01*
X123085714Y-58327809D01*
X123085714Y-58137333D01*
X123133333Y-58042095D01*
X123228571Y-57994476D01*
X123323809Y-57994476D01*
X123419047Y-58470666D01*
X123085714Y-57565904D02*
X124085714Y-57565904D01*
X123133333Y-57565904D02*
X123085714Y-57470666D01*
X123085714Y-57280190D01*
X123133333Y-57184952D01*
X123180952Y-57137333D01*
X123276190Y-57089714D01*
X123561904Y-57089714D01*
X123657142Y-57137333D01*
X123704761Y-57184952D01*
X123752380Y-57280190D01*
X123752380Y-57470666D01*
X123704761Y-57565904D01*
X123085714Y-56661142D02*
X124085714Y-56661142D01*
X123133333Y-56661142D02*
X123085714Y-56565904D01*
X123085714Y-56375428D01*
X123133333Y-56280190D01*
X123180952Y-56232571D01*
X123276190Y-56184952D01*
X123561904Y-56184952D01*
X123657142Y-56232571D01*
X123704761Y-56280190D01*
X123752380Y-56375428D01*
X123752380Y-56565904D01*
X123704761Y-56661142D01*
X123704761Y-55375428D02*
X123752380Y-55470666D01*
X123752380Y-55661142D01*
X123704761Y-55756380D01*
X123609523Y-55804000D01*
X123228571Y-55804000D01*
X123133333Y-55756380D01*
X123085714Y-55661142D01*
X123085714Y-55470666D01*
X123133333Y-55375428D01*
X123228571Y-55327809D01*
X123323809Y-55327809D01*
X123419047Y-55804000D01*
X123752380Y-54899238D02*
X123085714Y-54899238D01*
X123276190Y-54899238D02*
X123180952Y-54851619D01*
X123133333Y-54804000D01*
X123085714Y-54708761D01*
X123085714Y-54613523D01*
X123752380Y-53518285D02*
X123085714Y-53518285D01*
X123180952Y-53518285D02*
X123133333Y-53470666D01*
X123085714Y-53375428D01*
X123085714Y-53232571D01*
X123133333Y-53137333D01*
X123228571Y-53089714D01*
X123752380Y-53089714D01*
X123228571Y-53089714D02*
X123133333Y-53042095D01*
X123085714Y-52946857D01*
X123085714Y-52804000D01*
X123133333Y-52708761D01*
X123228571Y-52661142D01*
X123752380Y-52661142D01*
X123752380Y-52042095D02*
X123704761Y-52137333D01*
X123657142Y-52184952D01*
X123561904Y-52232571D01*
X123276190Y-52232571D01*
X123180952Y-52184952D01*
X123133333Y-52137333D01*
X123085714Y-52042095D01*
X123085714Y-51899238D01*
X123133333Y-51804000D01*
X123180952Y-51756380D01*
X123276190Y-51708761D01*
X123561904Y-51708761D01*
X123657142Y-51756380D01*
X123704761Y-51804000D01*
X123752380Y-51899238D01*
X123752380Y-52042095D01*
X123085714Y-51423047D02*
X123085714Y-51042095D01*
X122752380Y-51280190D02*
X123609523Y-51280190D01*
X123704761Y-51232571D01*
X123752380Y-51137333D01*
X123752380Y-51042095D01*
X123752380Y-50565904D02*
X123704761Y-50661142D01*
X123657142Y-50708761D01*
X123561904Y-50756380D01*
X123276190Y-50756380D01*
X123180952Y-50708761D01*
X123133333Y-50661142D01*
X123085714Y-50565904D01*
X123085714Y-50423047D01*
X123133333Y-50327809D01*
X123180952Y-50280190D01*
X123276190Y-50232571D01*
X123561904Y-50232571D01*
X123657142Y-50280190D01*
X123704761Y-50327809D01*
X123752380Y-50423047D01*
X123752380Y-50565904D01*
X123752380Y-49804000D02*
X123085714Y-49804000D01*
X123276190Y-49804000D02*
X123180952Y-49756380D01*
X123133333Y-49708761D01*
X123085714Y-49613523D01*
X123085714Y-49518285D01*
%TO.C,D1*%
X154074904Y-49093380D02*
X154074904Y-48093380D01*
X154313000Y-48093380D01*
X154455857Y-48141000D01*
X154551095Y-48236238D01*
X154598714Y-48331476D01*
X154646333Y-48521952D01*
X154646333Y-48664809D01*
X154598714Y-48855285D01*
X154551095Y-48950523D01*
X154455857Y-49045761D01*
X154313000Y-49093380D01*
X154074904Y-49093380D01*
X155598714Y-49093380D02*
X155027285Y-49093380D01*
X155313000Y-49093380D02*
X155313000Y-48093380D01*
X155217761Y-48236238D01*
X155122523Y-48331476D01*
X155027285Y-48379095D01*
X150990142Y-55593380D02*
X150513952Y-55593380D01*
X150513952Y-54593380D01*
X151323476Y-55069571D02*
X151656809Y-55069571D01*
X151799666Y-55593380D02*
X151323476Y-55593380D01*
X151323476Y-54593380D01*
X151799666Y-54593380D01*
X152228238Y-55593380D02*
X152228238Y-54593380D01*
X152466333Y-54593380D01*
X152609190Y-54641000D01*
X152704428Y-54736238D01*
X152752047Y-54831476D01*
X152799666Y-55021952D01*
X152799666Y-55164809D01*
X152752047Y-55355285D01*
X152704428Y-55450523D01*
X152609190Y-55545761D01*
X152466333Y-55593380D01*
X152228238Y-55593380D01*
D12*
%TO.C,C1*%
X115817000Y-105544380D02*
X117959000Y-105544380D01*
X120039000Y-105744380D02*
X122210000Y-105744380D01*
X120039000Y-104623380D02*
X121875000Y-104623380D01*
X120039000Y-105704380D02*
X122205000Y-105704380D01*
X115840000Y-105424380D02*
X117959000Y-105424380D01*
X115858000Y-105343380D02*
X117959000Y-105343380D01*
X115798000Y-105664380D02*
X117959000Y-105664380D01*
X116233000Y-104423380D02*
X117959000Y-104423380D01*
X120039000Y-105664380D02*
X122200000Y-105664380D01*
X120039000Y-105263380D02*
X122120000Y-105263380D01*
X118059000Y-102983380D02*
X119939000Y-102983380D01*
X120039000Y-104023380D02*
X121483000Y-104023380D01*
X120039000Y-105103380D02*
X122073000Y-105103380D01*
X120039000Y-104183380D02*
X121606000Y-104183380D01*
X115913000Y-105143380D02*
X117959000Y-105143380D01*
X116143000Y-104583380D02*
X117959000Y-104583380D01*
X120039000Y-105343380D02*
X122140000Y-105343380D01*
X117109000Y-103463380D02*
X120889000Y-103463380D01*
X120039000Y-105424380D02*
X122158000Y-105424380D01*
X120039000Y-105183380D02*
X122097000Y-105183380D01*
X117160000Y-109604621D02*
X117160000Y-108974621D01*
X120039000Y-104343380D02*
X121715000Y-104343380D01*
X115788000Y-105744380D02*
X117959000Y-105744380D01*
X116123000Y-104623380D02*
X117959000Y-104623380D01*
X117737000Y-103103380D02*
X120261000Y-103103380D01*
X116165000Y-104543380D02*
X117959000Y-104543380D01*
X118597000Y-102863380D02*
X119401000Y-102863380D01*
X115966000Y-104983380D02*
X117959000Y-104983380D01*
X120039000Y-105023380D02*
X122046000Y-105023380D01*
X115769000Y-106104380D02*
X122229000Y-106104380D01*
X115777000Y-105864380D02*
X117959000Y-105864380D01*
X116955000Y-103583380D02*
X121043000Y-103583380D01*
X120039000Y-104583380D02*
X121855000Y-104583380D01*
X116257000Y-104383380D02*
X117959000Y-104383380D01*
X116392000Y-104183380D02*
X117959000Y-104183380D01*
X120039000Y-104903380D02*
X122001000Y-104903380D01*
X116421000Y-104143380D02*
X117959000Y-104143380D01*
X117490000Y-103223380D02*
X120508000Y-103223380D01*
X120039000Y-104943380D02*
X122017000Y-104943380D01*
X120039000Y-104823380D02*
X121969000Y-104823380D01*
X116656000Y-103863380D02*
X117959000Y-103863380D01*
X120039000Y-104223380D02*
X121635000Y-104223380D01*
X115952000Y-105023380D02*
X117959000Y-105023380D01*
X120039000Y-104383380D02*
X121741000Y-104383380D01*
X118366000Y-102903380D02*
X119632000Y-102903380D01*
X120039000Y-104143380D02*
X121577000Y-104143380D01*
X116283000Y-104343380D02*
X117959000Y-104343380D01*
X120039000Y-103903380D02*
X121379000Y-103903380D01*
X117649000Y-103143380D02*
X120349000Y-103143380D01*
X116734000Y-103783380D02*
X121264000Y-103783380D01*
X115772000Y-105944380D02*
X122226000Y-105944380D01*
X120039000Y-105464380D02*
X122166000Y-105464380D01*
X116583000Y-103943380D02*
X117959000Y-103943380D01*
X115832000Y-105464380D02*
X117959000Y-105464380D01*
X120039000Y-104863380D02*
X121985000Y-104863380D01*
X115868000Y-105303380D02*
X117959000Y-105303380D01*
X120039000Y-105504380D02*
X122174000Y-105504380D01*
X116363000Y-104223380D02*
X117959000Y-104223380D01*
X116013000Y-104863380D02*
X117959000Y-104863380D01*
X116862000Y-103663380D02*
X121136000Y-103663380D01*
X120039000Y-104663380D02*
X121895000Y-104663380D01*
X120039000Y-105303380D02*
X122130000Y-105303380D01*
X120039000Y-103943380D02*
X121415000Y-103943380D01*
X116775000Y-103743380D02*
X121223000Y-103743380D01*
X120039000Y-104983380D02*
X122032000Y-104983380D01*
X115784000Y-105784380D02*
X117959000Y-105784380D01*
X120039000Y-104423380D02*
X121765000Y-104423380D01*
X115804000Y-105624380D02*
X117959000Y-105624380D01*
X117418000Y-103263380D02*
X120580000Y-103263380D01*
X117004000Y-103543380D02*
X120994000Y-103543380D01*
X116065000Y-104743380D02*
X117959000Y-104743380D01*
X116103000Y-104663380D02*
X117959000Y-104663380D01*
X120039000Y-105063380D02*
X122060000Y-105063380D01*
X116549000Y-103983380D02*
X117959000Y-103983380D01*
X115824000Y-105504380D02*
X117959000Y-105504380D01*
X120039000Y-104463380D02*
X121789000Y-104463380D01*
X116619000Y-103903380D02*
X117959000Y-103903380D01*
X116083000Y-104703380D02*
X117959000Y-104703380D01*
X117165000Y-103423380D02*
X120833000Y-103423380D01*
X115849000Y-105383380D02*
X117959000Y-105383380D01*
X120039000Y-105383380D02*
X122149000Y-105383380D01*
X116187000Y-104503380D02*
X117959000Y-104503380D01*
X115938000Y-105063380D02*
X117959000Y-105063380D01*
X120039000Y-105544380D02*
X122181000Y-105544380D01*
X120039000Y-103863380D02*
X121342000Y-103863380D01*
X115925000Y-105103380D02*
X117959000Y-105103380D01*
X115769000Y-106064380D02*
X122229000Y-106064380D01*
X117055000Y-103503380D02*
X120943000Y-103503380D01*
X117567000Y-103183380D02*
X120431000Y-103183380D01*
X120039000Y-105824380D02*
X122217000Y-105824380D01*
X120039000Y-103823380D02*
X121304000Y-103823380D01*
X115781000Y-105824380D02*
X117959000Y-105824380D01*
X120039000Y-104743380D02*
X121933000Y-104743380D01*
X116451000Y-104103380D02*
X117959000Y-104103380D01*
X120039000Y-104263380D02*
X121663000Y-104263380D01*
X116817000Y-103703380D02*
X121181000Y-103703380D01*
X120039000Y-104503380D02*
X121811000Y-104503380D01*
X117834000Y-103063380D02*
X120164000Y-103063380D01*
X115997000Y-104903380D02*
X117959000Y-104903380D01*
X116029000Y-104823380D02*
X117959000Y-104823380D01*
X116483000Y-104063380D02*
X117959000Y-104063380D01*
X117349000Y-103303380D02*
X120649000Y-103303380D01*
X118197000Y-102943380D02*
X119801000Y-102943380D01*
X117223000Y-103383380D02*
X120775000Y-103383380D01*
X120039000Y-104063380D02*
X121515000Y-104063380D01*
X116309000Y-104303380D02*
X117959000Y-104303380D01*
X115901000Y-105183380D02*
X117959000Y-105183380D01*
X120039000Y-103983380D02*
X121449000Y-103983380D01*
X115878000Y-105263380D02*
X117959000Y-105263380D01*
X116694000Y-103823380D02*
X117959000Y-103823380D01*
X120039000Y-105223380D02*
X122109000Y-105223380D01*
X120039000Y-105584380D02*
X122188000Y-105584380D01*
X120039000Y-104543380D02*
X121833000Y-104543380D01*
X115793000Y-105704380D02*
X117959000Y-105704380D01*
X116845000Y-109289621D02*
X117475000Y-109289621D01*
X116047000Y-104783380D02*
X117959000Y-104783380D01*
X120039000Y-105784380D02*
X122214000Y-105784380D01*
X120039000Y-105864380D02*
X122221000Y-105864380D01*
X116209000Y-104463380D02*
X117959000Y-104463380D01*
X116907000Y-103623380D02*
X121091000Y-103623380D01*
X115769000Y-106024380D02*
X122229000Y-106024380D01*
X120039000Y-104703380D02*
X121915000Y-104703380D01*
X115771000Y-105984380D02*
X122227000Y-105984380D01*
X115981000Y-104943380D02*
X117959000Y-104943380D01*
X120039000Y-104103380D02*
X121547000Y-104103380D01*
X120039000Y-104783380D02*
X121951000Y-104783380D01*
X116335000Y-104263380D02*
X117959000Y-104263380D01*
X120039000Y-105143380D02*
X122085000Y-105143380D01*
X117285000Y-103343380D02*
X120713000Y-103343380D01*
X115889000Y-105223380D02*
X117959000Y-105223380D01*
X116515000Y-104023380D02*
X117959000Y-104023380D01*
X117940000Y-103023380D02*
X120058000Y-103023380D01*
X120039000Y-105624380D02*
X122194000Y-105624380D01*
X115810000Y-105584380D02*
X117959000Y-105584380D01*
X120039000Y-104303380D02*
X121689000Y-104303380D01*
X115775000Y-105904380D02*
X122223000Y-105904380D01*
X122269000Y-106104380D02*
G75*
G03*
X122269000Y-106104380I-3270000J0D01*
G01*
%TO.C,C3*%
X182669000Y-83115000D02*
X177329000Y-83115000D01*
X182669000Y-86557000D02*
X177329000Y-86557000D01*
X182669000Y-83781000D02*
X182669000Y-83115000D01*
X177329000Y-86557000D02*
X177329000Y-85891000D01*
X182669000Y-86557000D02*
X182669000Y-85891000D01*
X177329000Y-83781000D02*
X177329000Y-83115000D01*
%TO.C,A2*%
X128026000Y-99441000D02*
X125356000Y-99441000D01*
X128026000Y-96771000D02*
X128026000Y-99441000D01*
X125356000Y-117351000D02*
X140856000Y-117351000D01*
X126756000Y-96771000D02*
X125356000Y-96771000D01*
X140856000Y-96771000D02*
X128026000Y-96771000D01*
X140856000Y-117351000D02*
X140856000Y-96771000D01*
X138186000Y-96771000D02*
X138186000Y-117351000D01*
X125356000Y-96771000D02*
X125356000Y-98171000D01*
X125356000Y-99441000D02*
X125356000Y-117351000D01*
X128026000Y-99441000D02*
X128026000Y-117351000D01*
%TO.C,J3*%
X146223000Y-109581000D02*
X146223000Y-117201000D01*
X151433000Y-117191000D02*
X152183000Y-117191000D01*
X152183000Y-109591000D02*
X151433000Y-109591000D01*
X152183000Y-111391000D02*
X152183000Y-109591000D01*
X151433000Y-113891000D02*
X152183000Y-113891000D01*
X149933000Y-110341000D02*
X146983000Y-110341000D01*
X152193000Y-117201000D02*
X152193000Y-109581000D01*
X152483000Y-110541000D02*
X152483000Y-109291000D01*
X149933000Y-109591000D02*
X149933000Y-110341000D01*
X152483000Y-109291000D02*
X151233000Y-109291000D01*
X152183000Y-117191000D02*
X152183000Y-115391000D01*
X152193000Y-109581000D02*
X146223000Y-109581000D01*
X149933000Y-116441000D02*
X146983000Y-116441000D01*
X151433000Y-115391000D02*
X151433000Y-117191000D01*
X146983000Y-116441000D02*
X146983000Y-113391000D01*
X152183000Y-112891000D02*
X151433000Y-112891000D01*
X152183000Y-115391000D02*
X151433000Y-115391000D01*
X151433000Y-109591000D02*
X151433000Y-111391000D01*
X152183000Y-113891000D02*
X152183000Y-112891000D01*
X146983000Y-110341000D02*
X146983000Y-113391000D01*
X146223000Y-117201000D02*
X152193000Y-117201000D01*
X149933000Y-117191000D02*
X149933000Y-116441000D01*
X151433000Y-112891000D02*
X151433000Y-113891000D01*
X151433000Y-111391000D02*
X152183000Y-111391000D01*
%TO.C,F1*%
X128365000Y-67056000D02*
X138525000Y-67056000D01*
X138525000Y-67056000D02*
X138525000Y-92456000D01*
X138525000Y-92456000D02*
X128365000Y-92456000D01*
X128365000Y-92456000D02*
X128365000Y-67056000D01*
%TO.C,C2*%
X179272000Y-78651000D02*
X179272000Y-76605000D01*
X178152000Y-78049000D02*
X178152000Y-76605000D01*
X178912000Y-74525000D02*
X178912000Y-72613000D01*
X179192000Y-74525000D02*
X179192000Y-72504000D01*
X179553000Y-78724000D02*
X179553000Y-76605000D01*
X179312000Y-78663000D02*
X179312000Y-76605000D01*
X178512000Y-74525000D02*
X178512000Y-72823000D01*
X179633000Y-78740000D02*
X179633000Y-76605000D01*
X177752000Y-77657000D02*
X177752000Y-73473000D01*
X178112000Y-74525000D02*
X178112000Y-73115000D01*
X179633000Y-74525000D02*
X179633000Y-72390000D01*
X178192000Y-74525000D02*
X178192000Y-73049000D01*
X178152000Y-74525000D02*
X178152000Y-73081000D01*
X179232000Y-78639000D02*
X179232000Y-76605000D01*
X177992000Y-77908000D02*
X177992000Y-76605000D01*
X178752000Y-78441000D02*
X178752000Y-76605000D01*
X177472000Y-77279000D02*
X177472000Y-73851000D01*
X179913000Y-74525000D02*
X179913000Y-72350000D01*
X177592000Y-77455000D02*
X177592000Y-73675000D01*
X179512000Y-74525000D02*
X179512000Y-72415000D01*
X178072000Y-74525000D02*
X178072000Y-73149000D01*
X177232000Y-76827000D02*
X177232000Y-74303000D01*
X179152000Y-78612000D02*
X179152000Y-76605000D01*
X179713000Y-74525000D02*
X179713000Y-72376000D01*
X178312000Y-78172000D02*
X178312000Y-76605000D01*
X178832000Y-78481000D02*
X178832000Y-76605000D01*
X179312000Y-74525000D02*
X179312000Y-72467000D01*
X179833000Y-78771000D02*
X179833000Y-76605000D01*
X178072000Y-77981000D02*
X178072000Y-76605000D01*
X178992000Y-74525000D02*
X178992000Y-72579000D01*
X177832000Y-77747000D02*
X177832000Y-73383000D01*
X177312000Y-76997000D02*
X177312000Y-74133000D01*
X178952000Y-78535000D02*
X178952000Y-76605000D01*
X178712000Y-74525000D02*
X178712000Y-72709000D01*
X178432000Y-74525000D02*
X178432000Y-72875000D01*
X177272000Y-76915000D02*
X177272000Y-74215000D01*
X179072000Y-78583000D02*
X179072000Y-76605000D01*
X179112000Y-74525000D02*
X179112000Y-72532000D01*
X178552000Y-74525000D02*
X178552000Y-72799000D01*
X180033000Y-78789000D02*
X180033000Y-72341000D01*
X179833000Y-74525000D02*
X179833000Y-72359000D01*
X178592000Y-78355000D02*
X178592000Y-76605000D01*
X179953000Y-78783000D02*
X179953000Y-76605000D01*
X178472000Y-74525000D02*
X178472000Y-72849000D01*
X178752000Y-74525000D02*
X178752000Y-72689000D01*
X178792000Y-78461000D02*
X178792000Y-76605000D01*
X177872000Y-77789000D02*
X177872000Y-73341000D01*
X179472000Y-74525000D02*
X179472000Y-72424000D01*
X179352000Y-78675000D02*
X179352000Y-76605000D01*
X179593000Y-78732000D02*
X179593000Y-76605000D01*
X178632000Y-74525000D02*
X178632000Y-72753000D01*
X179593000Y-74525000D02*
X179593000Y-72398000D01*
X180193000Y-78795000D02*
X180193000Y-72335000D01*
X178592000Y-74525000D02*
X178592000Y-72775000D01*
X178112000Y-78015000D02*
X178112000Y-76605000D01*
X178392000Y-74525000D02*
X178392000Y-72901000D01*
X180233000Y-78795000D02*
X180233000Y-72335000D01*
X177952000Y-74525000D02*
X177952000Y-73260000D01*
X177672000Y-77560000D02*
X177672000Y-73570000D01*
X176992000Y-75967000D02*
X176992000Y-75163000D01*
X179673000Y-74525000D02*
X179673000Y-72383000D01*
X179553000Y-74525000D02*
X179553000Y-72406000D01*
X178272000Y-78143000D02*
X178272000Y-76605000D01*
X177392000Y-77146000D02*
X177392000Y-73984000D01*
X178032000Y-77945000D02*
X178032000Y-76605000D01*
X178552000Y-78331000D02*
X178552000Y-76605000D01*
X179753000Y-78760000D02*
X179753000Y-76605000D01*
X179673000Y-78747000D02*
X179673000Y-76605000D01*
X178992000Y-78551000D02*
X178992000Y-76605000D01*
X177192000Y-76730000D02*
X177192000Y-74400000D01*
X178432000Y-78255000D02*
X178432000Y-76605000D01*
X178032000Y-74525000D02*
X178032000Y-73185000D01*
X179753000Y-74525000D02*
X179753000Y-72370000D01*
X177632000Y-77509000D02*
X177632000Y-73621000D01*
X178672000Y-74525000D02*
X178672000Y-72731000D01*
X179993000Y-74525000D02*
X179993000Y-72343000D01*
X178512000Y-78307000D02*
X178512000Y-76605000D01*
X177112000Y-76505000D02*
X177112000Y-74625000D01*
X179873000Y-74525000D02*
X179873000Y-72354000D01*
X177152000Y-76624000D02*
X177152000Y-74506000D01*
X178952000Y-74525000D02*
X178952000Y-72595000D01*
X179392000Y-74525000D02*
X179392000Y-72444000D01*
X179072000Y-74525000D02*
X179072000Y-72547000D01*
X179953000Y-74525000D02*
X179953000Y-72347000D01*
X183733241Y-77404000D02*
X183103241Y-77404000D01*
X180073000Y-78792000D02*
X180073000Y-72338000D01*
X177072000Y-76367000D02*
X177072000Y-74763000D01*
X178352000Y-78201000D02*
X178352000Y-76605000D01*
X179272000Y-74525000D02*
X179272000Y-72479000D01*
X180153000Y-78795000D02*
X180153000Y-72335000D01*
X177352000Y-77074000D02*
X177352000Y-74056000D01*
X178632000Y-78377000D02*
X178632000Y-76605000D01*
X179032000Y-74525000D02*
X179032000Y-72563000D01*
X177992000Y-74525000D02*
X177992000Y-73222000D01*
X183418241Y-77719000D02*
X183418241Y-77089000D01*
X178872000Y-74525000D02*
X178872000Y-72631000D01*
X178392000Y-78229000D02*
X178392000Y-76605000D01*
X179512000Y-78715000D02*
X179512000Y-76605000D01*
X179432000Y-78696000D02*
X179432000Y-76605000D01*
X178792000Y-74525000D02*
X178792000Y-72669000D01*
X177512000Y-77341000D02*
X177512000Y-73789000D01*
X179392000Y-78686000D02*
X179392000Y-76605000D01*
X179713000Y-78754000D02*
X179713000Y-76605000D01*
X177952000Y-77870000D02*
X177952000Y-76605000D01*
X179873000Y-78776000D02*
X179873000Y-76605000D01*
X178312000Y-74525000D02*
X178312000Y-72958000D01*
X177432000Y-77215000D02*
X177432000Y-73915000D01*
X178272000Y-74525000D02*
X178272000Y-72987000D01*
X178232000Y-78113000D02*
X178232000Y-76605000D01*
X179032000Y-78567000D02*
X179032000Y-76605000D01*
X177032000Y-76198000D02*
X177032000Y-74932000D01*
X179993000Y-78787000D02*
X179993000Y-76605000D01*
X179472000Y-78706000D02*
X179472000Y-76605000D01*
X179793000Y-74525000D02*
X179793000Y-72364000D01*
X178352000Y-74525000D02*
X178352000Y-72929000D01*
X178912000Y-78517000D02*
X178912000Y-76605000D01*
X179913000Y-78780000D02*
X179913000Y-76605000D01*
X179352000Y-74525000D02*
X179352000Y-72455000D01*
X177712000Y-77609000D02*
X177712000Y-73521000D01*
X179432000Y-74525000D02*
X179432000Y-72434000D01*
X179232000Y-74525000D02*
X179232000Y-72491000D01*
X178232000Y-74525000D02*
X178232000Y-73017000D01*
X177552000Y-77399000D02*
X177552000Y-73731000D01*
X178712000Y-78421000D02*
X178712000Y-76605000D01*
X180113000Y-78793000D02*
X180113000Y-72337000D01*
X177792000Y-77702000D02*
X177792000Y-73428000D01*
X178872000Y-78499000D02*
X178872000Y-76605000D01*
X179152000Y-74525000D02*
X179152000Y-72518000D01*
X178672000Y-78399000D02*
X178672000Y-76605000D01*
X178832000Y-74525000D02*
X178832000Y-72649000D01*
X177912000Y-77830000D02*
X177912000Y-73300000D01*
X178192000Y-78081000D02*
X178192000Y-76605000D01*
X178472000Y-78281000D02*
X178472000Y-76605000D01*
X179192000Y-78626000D02*
X179192000Y-76605000D01*
X179793000Y-78766000D02*
X179793000Y-76605000D01*
X179112000Y-78598000D02*
X179112000Y-76605000D01*
X183503000Y-75565000D02*
G75*
G03*
X183503000Y-75565000I-3270000J0D01*
G01*
%TO.C,J1*%
X149706000Y-87941000D02*
X149706000Y-87191000D01*
X145996000Y-87951000D02*
X151966000Y-87951000D01*
X151206000Y-87941000D02*
X151956000Y-87941000D01*
X151206000Y-74641000D02*
X151956000Y-74641000D01*
X145996000Y-72831000D02*
X145996000Y-87951000D01*
X151206000Y-86141000D02*
X151206000Y-87941000D01*
X151956000Y-76141000D02*
X151206000Y-76141000D01*
X149706000Y-73591000D02*
X146756000Y-73591000D01*
X146756000Y-73591000D02*
X146756000Y-80391000D01*
X151206000Y-76141000D02*
X151206000Y-84641000D01*
X151966000Y-87951000D02*
X151966000Y-72831000D01*
X149706000Y-87191000D02*
X146756000Y-87191000D01*
X151206000Y-84641000D02*
X151956000Y-84641000D01*
X151956000Y-86141000D02*
X151206000Y-86141000D01*
X149706000Y-72841000D02*
X149706000Y-73591000D01*
X151206000Y-72841000D02*
X151206000Y-74641000D01*
X152256000Y-73791000D02*
X152256000Y-72541000D01*
X152256000Y-72541000D02*
X151006000Y-72541000D01*
X146756000Y-87191000D02*
X146756000Y-80391000D01*
X151966000Y-72831000D02*
X145996000Y-72831000D01*
X151956000Y-74641000D02*
X151956000Y-72841000D01*
X151956000Y-72841000D02*
X151206000Y-72841000D01*
X151956000Y-84641000D02*
X151956000Y-76141000D01*
X151956000Y-87941000D02*
X151956000Y-86141000D01*
%TO.C,A1*%
X161297000Y-107312000D02*
X169177000Y-107312000D01*
X169177000Y-117732000D02*
X161297000Y-117732000D01*
X156217000Y-115192000D02*
X161297000Y-115192000D01*
X158887000Y-76962000D02*
X158887000Y-112522000D01*
X169177000Y-107312000D02*
X169177000Y-117732000D01*
X156217000Y-71752000D02*
X156217000Y-74422000D01*
X158887000Y-76962000D02*
X156217000Y-76962000D01*
X174257000Y-115192000D02*
X174257000Y-71752000D01*
X174257000Y-115192000D02*
X169177000Y-115192000D01*
X171587000Y-74422000D02*
X171587000Y-112522000D01*
X171587000Y-112522000D02*
X174257000Y-112522000D01*
X156217000Y-76962000D02*
X156217000Y-115192000D01*
X158887000Y-74422000D02*
X156217000Y-74422000D01*
X171587000Y-74422000D02*
X174257000Y-74422000D01*
X158887000Y-112522000D02*
X156217000Y-112522000D01*
X161297000Y-117732000D02*
X161297000Y-107312000D01*
X158887000Y-76962000D02*
X158887000Y-74422000D01*
X174257000Y-71752000D02*
X156217000Y-71752000D01*
%TO.C,C4*%
X181979000Y-92169000D02*
X181979000Y-91544000D01*
X181979000Y-94384000D02*
X181979000Y-93759000D01*
X177939000Y-94384000D02*
X177939000Y-93759000D01*
X181979000Y-91544000D02*
X177939000Y-91544000D01*
X177939000Y-92169000D02*
X177939000Y-91544000D01*
X181979000Y-94384000D02*
X177939000Y-94384000D01*
%TO.C,G\u002A\u002A\u002A*%
G36*
X116613899Y-66186262D02*
G01*
X116655507Y-66206621D01*
X116678340Y-66224997D01*
X116721790Y-66280016D01*
X116739292Y-66342037D01*
X116731463Y-66405665D01*
X116698919Y-66465506D01*
X116645317Y-66514169D01*
X116592972Y-66540810D01*
X116544375Y-66543929D01*
X116488259Y-66524169D01*
X116486353Y-66523235D01*
X116429750Y-66480534D01*
X116394492Y-66422663D01*
X116382534Y-66356436D01*
X116395834Y-66288669D01*
X116410624Y-66259416D01*
X116444652Y-66214857D01*
X116483588Y-66190586D01*
X116537298Y-66181478D01*
X116561735Y-66180924D01*
X116613899Y-66186262D01*
G37*
G36*
X118510392Y-73034155D02*
G01*
X118542573Y-73056613D01*
X118583043Y-73087877D01*
X118635964Y-73128673D01*
X118699523Y-73175139D01*
X118758367Y-73216123D01*
X118804119Y-73248913D01*
X118838541Y-73277332D01*
X118855715Y-73296376D01*
X118856628Y-73299238D01*
X118849353Y-73318895D01*
X118828952Y-73358896D01*
X118798051Y-73414863D01*
X118759277Y-73482420D01*
X118715256Y-73557188D01*
X118668614Y-73634792D01*
X118621977Y-73710852D01*
X118577972Y-73780992D01*
X118539225Y-73840835D01*
X118508361Y-73886003D01*
X118490789Y-73909008D01*
X118474147Y-73908253D01*
X118442820Y-73893543D01*
X118423514Y-73881484D01*
X118386642Y-73856587D01*
X118333729Y-73820880D01*
X118273039Y-73779939D01*
X118234069Y-73753657D01*
X118179971Y-73717154D01*
X118135468Y-73687082D01*
X118105798Y-73666984D01*
X118096239Y-73660451D01*
X118100954Y-73647313D01*
X118118925Y-73616734D01*
X118146364Y-73575121D01*
X118148697Y-73571734D01*
X118175719Y-73530832D01*
X118213759Y-73470789D01*
X118259003Y-73397751D01*
X118307637Y-73317861D01*
X118344467Y-73256429D01*
X118388705Y-73183139D01*
X118428332Y-73119444D01*
X118460781Y-73069311D01*
X118483488Y-73036708D01*
X118493745Y-73025586D01*
X118510392Y-73034155D01*
G37*
G36*
X115932322Y-70529463D02*
G01*
X116131833Y-70559797D01*
X116336107Y-70612575D01*
X116366301Y-70622206D01*
X116544331Y-70688351D01*
X116722226Y-70769186D01*
X116886663Y-70858550D01*
X116914969Y-70875789D01*
X116983077Y-70920261D01*
X117054880Y-70970827D01*
X117125349Y-71023540D01*
X117189451Y-71074454D01*
X117242159Y-71119622D01*
X117278440Y-71155097D01*
X117290368Y-71170310D01*
X117315891Y-71235601D01*
X117315842Y-71299014D01*
X117293149Y-71355132D01*
X117250738Y-71398533D01*
X117191538Y-71423800D01*
X117151166Y-71428010D01*
X117123396Y-71425079D01*
X117095484Y-71413872D01*
X117061579Y-71390764D01*
X117015834Y-71352131D01*
X116987510Y-71326604D01*
X116848616Y-71215475D01*
X116688653Y-71114040D01*
X116513678Y-71024725D01*
X116329751Y-70949956D01*
X116142929Y-70892160D01*
X115959270Y-70853763D01*
X115784832Y-70837191D01*
X115764421Y-70836780D01*
X115612057Y-70847020D01*
X115474439Y-70880476D01*
X115353219Y-70935881D01*
X115250049Y-71011966D01*
X115166580Y-71107464D01*
X115104464Y-71221105D01*
X115065354Y-71351623D01*
X115060872Y-71376893D01*
X115045523Y-71448403D01*
X115023695Y-71497583D01*
X114990993Y-71531343D01*
X114947782Y-71554614D01*
X114915618Y-71568168D01*
X114896262Y-71572074D01*
X114875518Y-71566175D01*
X114846595Y-71553516D01*
X114806767Y-71529051D01*
X114776976Y-71499530D01*
X114759474Y-71453386D01*
X114753965Y-71386915D01*
X114759538Y-71306106D01*
X114775281Y-71216953D01*
X114800282Y-71125447D01*
X114833631Y-71037579D01*
X114853545Y-70996127D01*
X114899622Y-70925595D01*
X114965022Y-70848996D01*
X115042672Y-70773012D01*
X115125498Y-70704327D01*
X115206428Y-70649623D01*
X115238881Y-70632063D01*
X115390855Y-70572873D01*
X115558986Y-70536026D01*
X115740424Y-70521548D01*
X115932322Y-70529463D01*
G37*
G36*
X122588741Y-72183237D02*
G01*
X122611354Y-72214064D01*
X122623172Y-72235178D01*
X122623667Y-72237567D01*
X122630986Y-72253157D01*
X122651132Y-72289112D01*
X122681466Y-72340899D01*
X122719352Y-72403981D01*
X122743012Y-72442761D01*
X122797955Y-72532528D01*
X122839071Y-72600595D01*
X122867949Y-72650192D01*
X122886178Y-72684552D01*
X122895347Y-72706904D01*
X122897046Y-72720481D01*
X122892865Y-72728514D01*
X122885936Y-72733361D01*
X122866730Y-72745739D01*
X122828631Y-72771312D01*
X122776829Y-72806565D01*
X122716514Y-72847982D01*
X122704890Y-72856003D01*
X122644270Y-72897091D01*
X122591671Y-72931301D01*
X122552056Y-72955508D01*
X122530386Y-72966592D01*
X122528580Y-72966959D01*
X122516658Y-72954984D01*
X122492158Y-72921496D01*
X122457525Y-72870154D01*
X122415205Y-72804617D01*
X122367644Y-72728544D01*
X122350156Y-72700015D01*
X122302271Y-72620347D01*
X122260525Y-72548680D01*
X122227072Y-72488897D01*
X122204065Y-72444881D01*
X122193658Y-72420515D01*
X122193386Y-72417362D01*
X122207516Y-72402939D01*
X122240632Y-72376904D01*
X122287092Y-72343544D01*
X122319391Y-72321554D01*
X122379153Y-72280309D01*
X122436698Y-72238294D01*
X122482767Y-72202349D01*
X122496628Y-72190565D01*
X122553887Y-72139676D01*
X122588741Y-72183237D01*
G37*
G36*
X115907579Y-71623985D02*
G01*
X115983242Y-71651650D01*
X116050827Y-71697719D01*
X116106934Y-71758581D01*
X116148161Y-71830627D01*
X116171106Y-71910245D01*
X116172368Y-71993824D01*
X116152045Y-72069709D01*
X116106530Y-72144276D01*
X116041503Y-72204903D01*
X115963370Y-72248448D01*
X115878540Y-72271770D01*
X115793420Y-72271727D01*
X115757092Y-72263361D01*
X115689104Y-72228387D01*
X115627008Y-72171623D01*
X115576217Y-72100587D01*
X115542149Y-72022798D01*
X115530200Y-71948321D01*
X115543742Y-71866348D01*
X115581032Y-71785866D01*
X115637067Y-71714076D01*
X115706842Y-71658179D01*
X115745629Y-71638310D01*
X115827241Y-71618335D01*
X115907579Y-71623985D01*
G37*
G36*
X116471374Y-72554738D02*
G01*
X116519321Y-72587986D01*
X116555021Y-72633835D01*
X116570422Y-72684460D01*
X116570537Y-72688951D01*
X116558683Y-72751047D01*
X116527099Y-72800708D01*
X116481746Y-72835054D01*
X116428590Y-72851206D01*
X116373594Y-72846284D01*
X116322723Y-72817408D01*
X116316562Y-72811583D01*
X116278746Y-72763447D01*
X116265100Y-72713939D01*
X116269182Y-72666107D01*
X116292994Y-72611967D01*
X116337040Y-72569115D01*
X116392517Y-72544839D01*
X116419232Y-72541916D01*
X116471374Y-72554738D01*
G37*
G36*
X126918127Y-68284577D02*
G01*
X126963914Y-68310363D01*
X127003760Y-68357990D01*
X127039386Y-68425010D01*
X127098701Y-68564808D01*
X127140682Y-68689870D01*
X127167175Y-68807625D01*
X127180028Y-68925500D01*
X127181962Y-68998271D01*
X127178842Y-69091920D01*
X127168047Y-69175479D01*
X127147431Y-69255887D01*
X127114845Y-69340081D01*
X127068142Y-69434999D01*
X127019676Y-69522435D01*
X126965028Y-69619170D01*
X126924055Y-69696041D01*
X126894986Y-69758100D01*
X126876048Y-69810395D01*
X126865471Y-69857979D01*
X126861485Y-69905902D01*
X126862317Y-69959213D01*
X126862836Y-69969672D01*
X126868412Y-70030683D01*
X126879774Y-70086580D01*
X126899332Y-70143513D01*
X126929493Y-70207631D01*
X126972665Y-70285084D01*
X127012048Y-70350745D01*
X127072714Y-70471638D01*
X127115089Y-70602148D01*
X127136180Y-70732096D01*
X127137992Y-70779272D01*
X127127400Y-70918693D01*
X127094561Y-71052373D01*
X127037881Y-71184399D01*
X126955769Y-71318858D01*
X126896549Y-71398696D01*
X126844422Y-71465509D01*
X126788032Y-71538523D01*
X126736586Y-71605792D01*
X126717832Y-71630568D01*
X126655022Y-71707318D01*
X126600219Y-71758549D01*
X126550320Y-71785871D01*
X126502223Y-71790893D01*
X126452825Y-71775222D01*
X126445833Y-71771579D01*
X126400352Y-71734306D01*
X126378638Y-71682549D01*
X126375846Y-71647860D01*
X126376925Y-71623697D01*
X126381739Y-71600631D01*
X126392657Y-71574708D01*
X126412043Y-71541978D01*
X126442266Y-71498488D01*
X126485692Y-71440286D01*
X126544688Y-71363420D01*
X126551402Y-71354726D01*
X126634810Y-71243981D01*
X126699950Y-71150221D01*
X126748805Y-71069241D01*
X126783359Y-70996834D01*
X126805598Y-70928795D01*
X126817505Y-70860916D01*
X126821063Y-70788993D01*
X126821048Y-70783116D01*
X126815457Y-70700377D01*
X126797883Y-70623271D01*
X126765588Y-70543812D01*
X126715836Y-70454011D01*
X126698863Y-70426653D01*
X126621906Y-70287810D01*
X126571318Y-70155041D01*
X126546026Y-70024103D01*
X126544961Y-69890755D01*
X126550589Y-69839264D01*
X126564799Y-69759164D01*
X126585689Y-69683333D01*
X126615905Y-69605015D01*
X126658094Y-69517450D01*
X126714900Y-69413881D01*
X126721923Y-69401623D01*
X126760778Y-69330917D01*
X126796159Y-69260887D01*
X126824115Y-69199708D01*
X126840500Y-69156227D01*
X126861528Y-69045593D01*
X126861154Y-68925638D01*
X126839039Y-68793611D01*
X126794845Y-68646758D01*
X126769881Y-68580658D01*
X126739076Y-68499127D01*
X126721021Y-68438601D01*
X126715402Y-68393841D01*
X126721906Y-68359609D01*
X126740220Y-68330669D01*
X126754057Y-68316211D01*
X126790892Y-68288965D01*
X126833695Y-68277944D01*
X126861842Y-68276827D01*
X126918127Y-68284577D01*
G37*
G36*
X124716967Y-65717461D02*
G01*
X124764877Y-65729514D01*
X124775509Y-65732979D01*
X124853615Y-65773292D01*
X124917154Y-65834394D01*
X124961609Y-65910116D01*
X124982464Y-65994286D01*
X124983463Y-66017043D01*
X124970507Y-66106193D01*
X124934597Y-66183939D01*
X124880167Y-66247475D01*
X124811652Y-66293992D01*
X124733487Y-66320684D01*
X124650108Y-66324742D01*
X124565949Y-66303361D01*
X124545900Y-66294016D01*
X124473068Y-66242460D01*
X124422133Y-66176896D01*
X124392467Y-66102077D01*
X124383445Y-66022756D01*
X124394439Y-65943685D01*
X124424823Y-65869617D01*
X124473969Y-65805304D01*
X124541251Y-65755500D01*
X124620807Y-65726084D01*
X124674455Y-65716563D01*
X124716967Y-65717461D01*
G37*
G36*
X121797061Y-65070992D02*
G01*
X121875923Y-65094448D01*
X121938780Y-65136348D01*
X121996133Y-65208600D01*
X122027971Y-65288308D01*
X122035325Y-65370605D01*
X122019229Y-65450620D01*
X121980716Y-65523486D01*
X121920819Y-65584334D01*
X121840570Y-65628296D01*
X121833893Y-65630729D01*
X121763729Y-65649044D01*
X121701037Y-65648310D01*
X121635066Y-65629990D01*
X121559539Y-65588726D01*
X121503855Y-65530803D01*
X121468053Y-65461178D01*
X121452178Y-65384806D01*
X121456270Y-65306646D01*
X121480371Y-65231653D01*
X121524525Y-65164786D01*
X121588772Y-65110999D01*
X121630480Y-65089702D01*
X121712432Y-65068984D01*
X121797061Y-65070992D01*
G37*
G36*
X119940757Y-65068543D02*
G01*
X120017487Y-65089361D01*
X120086998Y-65128830D01*
X120144342Y-65184990D01*
X120184573Y-65255885D01*
X120201963Y-65329646D01*
X120196659Y-65412017D01*
X120167598Y-65487986D01*
X120119352Y-65553650D01*
X120056490Y-65605109D01*
X119983584Y-65638460D01*
X119905205Y-65649803D01*
X119838878Y-65639589D01*
X119751100Y-65599961D01*
X119683757Y-65542183D01*
X119639202Y-65469206D01*
X119619787Y-65383979D01*
X119619123Y-65364025D01*
X119632897Y-65270019D01*
X119673750Y-65186993D01*
X119716714Y-65137569D01*
X119785423Y-65090688D01*
X119861753Y-65068332D01*
X119940757Y-65068543D01*
G37*
G36*
X116468070Y-76053516D02*
G01*
X116373987Y-75926633D01*
X116290882Y-75796558D01*
X116224961Y-75671661D01*
X116224830Y-75671379D01*
X116197987Y-75616663D01*
X116172514Y-75576403D01*
X116141187Y-75542055D01*
X116096781Y-75505077D01*
X116062263Y-75479112D01*
X115959020Y-75398155D01*
X115842066Y-75298534D01*
X115715866Y-75184585D01*
X115584885Y-75060644D01*
X115453587Y-74931044D01*
X115389444Y-74864998D01*
X116629164Y-74864998D01*
X116636492Y-74872326D01*
X116643820Y-74864998D01*
X116636492Y-74857669D01*
X116629164Y-74864998D01*
X115389444Y-74864998D01*
X115326437Y-74800121D01*
X115207900Y-74672210D01*
X115102441Y-74551646D01*
X115082562Y-74527894D01*
X115047018Y-74485305D01*
X115018797Y-74451962D01*
X115003027Y-74433910D01*
X115001776Y-74432626D01*
X114990014Y-74418320D01*
X114964544Y-74385570D01*
X114929186Y-74339426D01*
X114887762Y-74284939D01*
X114844093Y-74227158D01*
X114802003Y-74171133D01*
X114765311Y-74121913D01*
X114737841Y-74084549D01*
X114728591Y-74071654D01*
X114628525Y-73927525D01*
X114539767Y-73794407D01*
X114456144Y-73662608D01*
X114371488Y-73522436D01*
X114292333Y-73386375D01*
X114239850Y-73290437D01*
X114180204Y-73173868D01*
X114116567Y-73043472D01*
X114052114Y-72906047D01*
X113990017Y-72768396D01*
X113933448Y-72637319D01*
X113885582Y-72519617D01*
X113874411Y-72490618D01*
X113853532Y-72436176D01*
X113833990Y-72386144D01*
X113823002Y-72358708D01*
X113806574Y-72314236D01*
X113784010Y-72246928D01*
X113756956Y-72162211D01*
X113727061Y-72065510D01*
X113695972Y-71962249D01*
X113665336Y-71857856D01*
X113636801Y-71757755D01*
X113612015Y-71667371D01*
X113604920Y-71640531D01*
X113546413Y-71390179D01*
X113495658Y-71119442D01*
X113453681Y-70836468D01*
X113421504Y-70549402D01*
X113400152Y-70266391D01*
X113390649Y-69995582D01*
X113390245Y-69933030D01*
X113391775Y-69813192D01*
X113392121Y-69802983D01*
X113946749Y-69802983D01*
X113947745Y-69873009D01*
X113949654Y-69955014D01*
X113952665Y-70053643D01*
X113956405Y-70127132D01*
X113961304Y-70179654D01*
X113967788Y-70215381D01*
X113976287Y-70238484D01*
X113979258Y-70243524D01*
X113994425Y-70284692D01*
X114004927Y-70354763D01*
X114009335Y-70417542D01*
X114020508Y-70562969D01*
X114040303Y-70729495D01*
X114067514Y-70910607D01*
X114100937Y-71099787D01*
X114139365Y-71290519D01*
X114181592Y-71476288D01*
X114226414Y-71650577D01*
X114257326Y-71757785D01*
X114312686Y-71934173D01*
X114369858Y-72105053D01*
X114427567Y-72267185D01*
X114484538Y-72417331D01*
X114539496Y-72552252D01*
X114591167Y-72668710D01*
X114638276Y-72763467D01*
X114679547Y-72833285D01*
X114682294Y-72837312D01*
X114705278Y-72885374D01*
X114705859Y-72926785D01*
X114693946Y-72946978D01*
X114696751Y-72963511D01*
X114714285Y-72999263D01*
X114743682Y-73050006D01*
X114782078Y-73111513D01*
X114826609Y-73179557D01*
X114874410Y-73249909D01*
X114922616Y-73318341D01*
X114968362Y-73380627D01*
X115008784Y-73432538D01*
X115041018Y-73469846D01*
X115059769Y-73486874D01*
X115091904Y-73515783D01*
X115111078Y-73546931D01*
X115111683Y-73549062D01*
X115127920Y-73587274D01*
X115160971Y-73643942D01*
X115208283Y-73715518D01*
X115267300Y-73798456D01*
X115335471Y-73889208D01*
X115410239Y-73984228D01*
X115489051Y-74079967D01*
X115520996Y-74117508D01*
X115557979Y-74159092D01*
X115607291Y-74212449D01*
X115665716Y-74274302D01*
X115730032Y-74341374D01*
X115797022Y-74410387D01*
X115863465Y-74478064D01*
X115926143Y-74541127D01*
X115981837Y-74596300D01*
X116027327Y-74640306D01*
X116059394Y-74669867D01*
X116074820Y-74681705D01*
X116075278Y-74681789D01*
X116085121Y-74669662D01*
X116086867Y-74656190D01*
X116092128Y-74623898D01*
X116106295Y-74571743D01*
X116126946Y-74506899D01*
X116151657Y-74436539D01*
X116178005Y-74367836D01*
X116203569Y-74307963D01*
X116206937Y-74300716D01*
X116272253Y-74166447D01*
X116330709Y-74056691D01*
X116384529Y-73968092D01*
X116435935Y-73897293D01*
X116487154Y-73840938D01*
X116540409Y-73795669D01*
X116542751Y-73793940D01*
X116615900Y-73740244D01*
X116743449Y-73746356D01*
X116832339Y-73753625D01*
X116900783Y-73768375D01*
X116953228Y-73794483D01*
X116994122Y-73835828D01*
X117027914Y-73896288D01*
X117059049Y-73979741D01*
X117076668Y-74036896D01*
X117116648Y-74155639D01*
X117159759Y-74247180D01*
X117208585Y-74313624D01*
X117265710Y-74357078D01*
X117333717Y-74379646D01*
X117415191Y-74383434D01*
X117490919Y-74374509D01*
X117577336Y-74360285D01*
X117639615Y-74351414D01*
X117682382Y-74347592D01*
X117710261Y-74348516D01*
X117727878Y-74353883D01*
X117734746Y-74358516D01*
X117748864Y-74378510D01*
X117770810Y-74419070D01*
X117797216Y-74473675D01*
X117816932Y-74517641D01*
X117846440Y-74582441D01*
X117875924Y-74641885D01*
X117901156Y-74687682D01*
X117912881Y-74705686D01*
X117959747Y-74745663D01*
X118024261Y-74763105D01*
X118106956Y-74758099D01*
X118160785Y-74745696D01*
X118215778Y-74732119D01*
X118266137Y-74722636D01*
X118292695Y-74719794D01*
X118318141Y-74721308D01*
X118334895Y-74732211D01*
X118348670Y-74759093D01*
X118362626Y-74800433D01*
X118406456Y-74896571D01*
X118469989Y-74971509D01*
X118552377Y-75024315D01*
X118575190Y-75033715D01*
X118681539Y-75079807D01*
X118787877Y-75137284D01*
X118884511Y-75200405D01*
X118959573Y-75261375D01*
X119002996Y-75300674D01*
X119041790Y-75333267D01*
X119068093Y-75352572D01*
X119069498Y-75353388D01*
X119120690Y-75368211D01*
X119181649Y-75366477D01*
X119237888Y-75348751D01*
X119289156Y-75310514D01*
X119317608Y-75258305D01*
X119325990Y-75190845D01*
X119315914Y-75123514D01*
X119285713Y-75077483D01*
X119235424Y-75052792D01*
X119191637Y-75048206D01*
X119152232Y-75045124D01*
X119120359Y-75032350D01*
X119085312Y-75004594D01*
X119065909Y-74986057D01*
X119013585Y-74944048D01*
X118936657Y-74895745D01*
X118838592Y-74843296D01*
X118823539Y-74835826D01*
X118644494Y-74747744D01*
X118611173Y-74659804D01*
X118578998Y-74579344D01*
X118551297Y-74521597D01*
X118524826Y-74480998D01*
X118496340Y-74451982D01*
X118484949Y-74443287D01*
X118428433Y-74419759D01*
X118353445Y-74414292D01*
X118264534Y-74426796D01*
X118188315Y-74449014D01*
X118142820Y-74464428D01*
X118109671Y-74470992D01*
X118084725Y-74465369D01*
X118063840Y-74444223D01*
X118042872Y-74404219D01*
X118017678Y-74342022D01*
X118000883Y-74298097D01*
X117967168Y-74214345D01*
X117937902Y-74154056D01*
X117909853Y-74112405D01*
X117879789Y-74084568D01*
X117845466Y-74066126D01*
X117796614Y-74055882D01*
X117727341Y-74054834D01*
X117644892Y-74062496D01*
X117556512Y-74078379D01*
X117515892Y-74088304D01*
X117427952Y-74111741D01*
X117397190Y-74073193D01*
X117378642Y-74041805D01*
X117355727Y-73991366D01*
X117332421Y-73930925D01*
X117324391Y-73907524D01*
X117289340Y-73807558D01*
X117257537Y-73731740D01*
X117226345Y-73675501D01*
X117207330Y-73651902D01*
X117745525Y-73651902D01*
X117747029Y-73695452D01*
X117763785Y-73757309D01*
X117801065Y-73808488D01*
X117862617Y-73853520D01*
X117890130Y-73868435D01*
X117923672Y-73887570D01*
X117976077Y-73919967D01*
X118042075Y-73962251D01*
X118116390Y-74011048D01*
X118186412Y-74058007D01*
X118263335Y-74109419D01*
X118336397Y-74156948D01*
X118400429Y-74197330D01*
X118450261Y-74227299D01*
X118479053Y-74242836D01*
X118549422Y-74263506D01*
X118611590Y-74257344D01*
X118656509Y-74230923D01*
X118690861Y-74185926D01*
X118715801Y-74126570D01*
X118725067Y-74069317D01*
X118734154Y-74033638D01*
X118759928Y-73980146D01*
X118800153Y-73913418D01*
X118804071Y-73907429D01*
X118842505Y-73848423D01*
X118890639Y-73773657D01*
X118942640Y-73692231D01*
X118992678Y-73613246D01*
X118998272Y-73604367D01*
X119039957Y-73539908D01*
X119077316Y-73485393D01*
X119107176Y-73445209D01*
X119126366Y-73423740D01*
X119130625Y-73421353D01*
X119145703Y-73433939D01*
X119156862Y-73462660D01*
X119181486Y-73519365D01*
X119224993Y-73572631D01*
X119278196Y-73612723D01*
X119311570Y-73626573D01*
X119381486Y-73632782D01*
X119440619Y-73613589D01*
X119485148Y-73572067D01*
X119511250Y-73511289D01*
X119516527Y-73461810D01*
X119512690Y-73411854D01*
X119496992Y-73374659D01*
X119468893Y-73340317D01*
X119414774Y-73296924D01*
X119346112Y-73263053D01*
X119340647Y-73261101D01*
X119296413Y-73242828D01*
X119265455Y-73224508D01*
X119255953Y-73213384D01*
X119262296Y-73196385D01*
X119281914Y-73158565D01*
X119312420Y-73103884D01*
X119351428Y-73036301D01*
X119396551Y-72959774D01*
X119445405Y-72878264D01*
X119495603Y-72795729D01*
X119544759Y-72716128D01*
X119590487Y-72643421D01*
X119630400Y-72581566D01*
X119662114Y-72534523D01*
X119678929Y-72511537D01*
X119727430Y-72464941D01*
X119794137Y-72427962D01*
X119884175Y-72397850D01*
X119896715Y-72394586D01*
X119958955Y-72368154D01*
X120010304Y-72329547D01*
X120040643Y-72294767D01*
X120054910Y-72261429D01*
X120058786Y-72215236D01*
X120058823Y-72207403D01*
X120046941Y-72134219D01*
X120013100Y-72078921D01*
X119960012Y-72043558D01*
X119890387Y-72030181D01*
X119831381Y-72035344D01*
X119791375Y-72049822D01*
X119758071Y-72080826D01*
X119739776Y-72106594D01*
X119692969Y-72169375D01*
X119645683Y-72211239D01*
X119601489Y-72234931D01*
X119581655Y-72241264D01*
X119561712Y-72240146D01*
X119535908Y-72229061D01*
X119498494Y-72205498D01*
X119443718Y-72166942D01*
X119440266Y-72164464D01*
X119376872Y-72119483D01*
X119311062Y-72073658D01*
X119253606Y-72034460D01*
X119234386Y-72021657D01*
X119189557Y-71988572D01*
X119159615Y-71959306D01*
X119150110Y-71940894D01*
X119163085Y-71902021D01*
X119198337Y-71859647D01*
X119250362Y-71819613D01*
X119280553Y-71802498D01*
X119337832Y-71764256D01*
X119362068Y-71729284D01*
X120297920Y-71729284D01*
X120314071Y-71839187D01*
X120353123Y-71945967D01*
X120412709Y-72043180D01*
X120490461Y-72124380D01*
X120491769Y-72125456D01*
X120583347Y-72182453D01*
X120688854Y-72218011D01*
X120801450Y-72231374D01*
X120914294Y-72221788D01*
X121020545Y-72188498D01*
X121028772Y-72184686D01*
X121046610Y-72173439D01*
X121513953Y-72173439D01*
X121514181Y-72238841D01*
X121535482Y-72295551D01*
X121575236Y-72339720D01*
X121632117Y-72374657D01*
X121694053Y-72393681D01*
X121715892Y-72395350D01*
X121785516Y-72408660D01*
X121851380Y-72444880D01*
X121895833Y-72488772D01*
X121916194Y-72517889D01*
X121947985Y-72566231D01*
X121987442Y-72627953D01*
X122030804Y-72697211D01*
X122048339Y-72725619D01*
X122096580Y-72804046D01*
X122146399Y-72884938D01*
X122192539Y-72959764D01*
X122229742Y-73019994D01*
X122236133Y-73030321D01*
X122272576Y-73091506D01*
X122291118Y-73134743D01*
X122289943Y-73166587D01*
X122267240Y-73193593D01*
X122221193Y-73222317D01*
X122176543Y-73245704D01*
X122098051Y-73294299D01*
X122047738Y-73346086D01*
X122024488Y-73403153D01*
X122027187Y-73467592D01*
X122038449Y-73504638D01*
X122071139Y-73564763D01*
X122115827Y-73599533D01*
X122176245Y-73611715D01*
X122182930Y-73611798D01*
X122262117Y-73599893D01*
X122323430Y-73564899D01*
X122365895Y-73507681D01*
X122388430Y-73429837D01*
X122397421Y-73392007D01*
X122409699Y-73369119D01*
X122413118Y-73366913D01*
X122427113Y-73376363D01*
X122451238Y-73406251D01*
X122481521Y-73451316D01*
X122500717Y-73482974D01*
X122536658Y-73543744D01*
X122582253Y-73619786D01*
X122631697Y-73701465D01*
X122679184Y-73779149D01*
X122679956Y-73780404D01*
X122722937Y-73852955D01*
X122762951Y-73925330D01*
X122795875Y-73989755D01*
X122817588Y-74038454D01*
X122819535Y-74043678D01*
X122846756Y-74105533D01*
X122878460Y-74146886D01*
X122900720Y-74164596D01*
X122941634Y-74188855D01*
X122974892Y-74196313D01*
X123013367Y-74188005D01*
X123043751Y-74176119D01*
X123072511Y-74161137D01*
X123120682Y-74132763D01*
X123183383Y-74094014D01*
X123255733Y-74047906D01*
X123331679Y-73998229D01*
X123431720Y-73933699D01*
X123516872Y-73882389D01*
X123584530Y-73845780D01*
X123632092Y-73825355D01*
X123638470Y-73823472D01*
X123684802Y-73808837D01*
X123721328Y-73793077D01*
X123732111Y-73786245D01*
X123769390Y-73737751D01*
X123791433Y-73670273D01*
X123796273Y-73615323D01*
X123792936Y-73566292D01*
X123779703Y-73533085D01*
X123755967Y-73506527D01*
X123715582Y-73474676D01*
X123673565Y-73449451D01*
X123672231Y-73448823D01*
X123640430Y-73424824D01*
X123604842Y-73379247D01*
X123564315Y-73311391D01*
X123515211Y-73223475D01*
X123460767Y-73128307D01*
X123403775Y-73030554D01*
X123347027Y-72934878D01*
X123293315Y-72845946D01*
X123245432Y-72768421D01*
X123206169Y-72706970D01*
X123178318Y-72666256D01*
X123177512Y-72665166D01*
X123148752Y-72625181D01*
X123128710Y-72594868D01*
X123122066Y-72581774D01*
X123114836Y-72565175D01*
X123094647Y-72527354D01*
X123063752Y-72472142D01*
X123024406Y-72403375D01*
X122978861Y-72324886D01*
X122929370Y-72240509D01*
X122878188Y-72154078D01*
X122827566Y-72069426D01*
X122779760Y-71990388D01*
X122737021Y-71920797D01*
X122701603Y-71864487D01*
X122689456Y-71845725D01*
X122644370Y-71775980D01*
X122600319Y-71706161D01*
X122562430Y-71644493D01*
X122536368Y-71600159D01*
X122490024Y-71528711D01*
X122444684Y-71483274D01*
X122396802Y-71460902D01*
X122364544Y-71457323D01*
X122292235Y-71469902D01*
X122235765Y-71505284D01*
X122198689Y-71559933D01*
X122184561Y-71630313D01*
X122184527Y-71636351D01*
X122192888Y-71693686D01*
X122219887Y-71738660D01*
X122269931Y-71777352D01*
X122297673Y-71792580D01*
X122347971Y-71825126D01*
X122385311Y-71862474D01*
X122403206Y-71897774D01*
X122403890Y-71904749D01*
X122392312Y-71917750D01*
X122360210Y-71943925D01*
X122311529Y-71980306D01*
X122250217Y-72023930D01*
X122193068Y-72063172D01*
X122111117Y-72118303D01*
X122048776Y-72157662D01*
X122001188Y-72181622D01*
X121963497Y-72190558D01*
X121930847Y-72184841D01*
X121898380Y-72164847D01*
X121861241Y-72130948D01*
X121822553Y-72091664D01*
X121777333Y-72048508D01*
X121742969Y-72024377D01*
X121712626Y-72014924D01*
X121700908Y-72014276D01*
X121632800Y-72027119D01*
X121576669Y-72061787D01*
X121535918Y-72112490D01*
X121513953Y-72173439D01*
X121046610Y-72173439D01*
X121123860Y-72124732D01*
X121206641Y-72043993D01*
X121271104Y-71949375D01*
X121306243Y-71865743D01*
X121327254Y-71749299D01*
X121320410Y-71635355D01*
X121287161Y-71527144D01*
X121228957Y-71427898D01*
X121147246Y-71340849D01*
X121043479Y-71269230D01*
X121037186Y-71265816D01*
X120990039Y-71241892D01*
X120951347Y-71227326D01*
X120910694Y-71219836D01*
X120857668Y-71217145D01*
X120813642Y-71216887D01*
X120742351Y-71218455D01*
X120689587Y-71224254D01*
X120644657Y-71236168D01*
X120600334Y-71254478D01*
X120493741Y-71318533D01*
X120408757Y-71402246D01*
X120346115Y-71504697D01*
X120307039Y-71622703D01*
X120297920Y-71729284D01*
X119362068Y-71729284D01*
X119370807Y-71716674D01*
X119383609Y-71652829D01*
X119384129Y-71628849D01*
X119370817Y-71562304D01*
X119334634Y-71511520D01*
X119279478Y-71480305D01*
X119223629Y-71471980D01*
X119160983Y-71483119D01*
X119106266Y-71518138D01*
X119056100Y-71579436D01*
X119043227Y-71600245D01*
X119015897Y-71645532D01*
X118977634Y-71707472D01*
X118933402Y-71778090D01*
X118888166Y-71849412D01*
X118885840Y-71853053D01*
X118840541Y-71924631D01*
X118795910Y-71996399D01*
X118756965Y-72060215D01*
X118728723Y-72107935D01*
X118727801Y-72109545D01*
X118687372Y-72180158D01*
X118657243Y-72232439D01*
X118633207Y-72273526D01*
X118611052Y-72310557D01*
X118586569Y-72350669D01*
X118563559Y-72388021D01*
X118525691Y-72450028D01*
X118486505Y-72515213D01*
X118454290Y-72569782D01*
X118453449Y-72571230D01*
X118431563Y-72608329D01*
X118397530Y-72665283D01*
X118354460Y-72736919D01*
X118305467Y-72818062D01*
X118253662Y-72903540D01*
X118241846Y-72922989D01*
X118189991Y-73008686D01*
X118140466Y-73091226D01*
X118096338Y-73165446D01*
X118060676Y-73226181D01*
X118036545Y-73268264D01*
X118032956Y-73274749D01*
X117986870Y-73357194D01*
X117950418Y-73417180D01*
X117920464Y-73458636D01*
X117893875Y-73485490D01*
X117867516Y-73501670D01*
X117845865Y-73509203D01*
X117793864Y-73537123D01*
X117759758Y-73585932D01*
X117745525Y-73651902D01*
X117207330Y-73651902D01*
X117193125Y-73634272D01*
X117155241Y-73603485D01*
X117145236Y-73597187D01*
X117116454Y-73583500D01*
X117067930Y-73563899D01*
X117007851Y-73541361D01*
X116944406Y-73518866D01*
X116885784Y-73499393D01*
X116840173Y-73485920D01*
X116837509Y-73485236D01*
X116830144Y-73480880D01*
X116828707Y-73470658D01*
X116834720Y-73451384D01*
X116849705Y-73419869D01*
X116875183Y-73372926D01*
X116912676Y-73307368D01*
X116963706Y-73220007D01*
X116965987Y-73216123D01*
X117063074Y-73050384D01*
X117147750Y-72904942D01*
X117222771Y-72775012D01*
X117290895Y-72655806D01*
X117354879Y-72542539D01*
X117383957Y-72490618D01*
X117425525Y-72417235D01*
X117478335Y-72325596D01*
X117538414Y-72222502D01*
X117601791Y-72114751D01*
X117664495Y-72009146D01*
X117692127Y-71962978D01*
X117761897Y-71846420D01*
X117818469Y-71750811D01*
X117863937Y-71672092D01*
X117900398Y-71606204D01*
X117929946Y-71549090D01*
X117954676Y-71496688D01*
X117976684Y-71444942D01*
X117998065Y-71389792D01*
X118020913Y-71327179D01*
X118022256Y-71323433D01*
X118049442Y-71248183D01*
X118077188Y-71172464D01*
X118101667Y-71106664D01*
X118114883Y-71071881D01*
X118162357Y-70948447D01*
X118200878Y-70847152D01*
X118232283Y-70762884D01*
X118258412Y-70690527D01*
X118281101Y-70624968D01*
X118302189Y-70561091D01*
X118323512Y-70493782D01*
X118329248Y-70475326D01*
X118352477Y-70400367D01*
X118373493Y-70332568D01*
X118383069Y-70301685D01*
X120299754Y-70301685D01*
X120314747Y-70416216D01*
X120357636Y-70530698D01*
X120357986Y-70531389D01*
X120415732Y-70619107D01*
X120491335Y-70694946D01*
X120577553Y-70752656D01*
X120647134Y-70780956D01*
X120723427Y-70794177D01*
X120814088Y-70796866D01*
X120906337Y-70789543D01*
X120987393Y-70772729D01*
X121006551Y-70766313D01*
X121102648Y-70715347D01*
X121188099Y-70640153D01*
X121258218Y-70545204D01*
X121279345Y-70505946D01*
X121304247Y-70451198D01*
X121318405Y-70405954D01*
X121324613Y-70357322D01*
X121325663Y-70292412D01*
X121325661Y-70292118D01*
X121322535Y-70218873D01*
X121313118Y-70163350D01*
X121295331Y-70114261D01*
X121291323Y-70105739D01*
X121228048Y-70005402D01*
X121144491Y-69919410D01*
X121049905Y-69856130D01*
X121004265Y-69834050D01*
X120965666Y-69820370D01*
X120924237Y-69813091D01*
X120870103Y-69810213D01*
X120820970Y-69809748D01*
X120749424Y-69810800D01*
X120697264Y-69815432D01*
X120654626Y-69825310D01*
X120611644Y-69842104D01*
X120601120Y-69846911D01*
X120494683Y-69910852D01*
X120410124Y-69991688D01*
X120348647Y-70086032D01*
X120311456Y-70190494D01*
X120299754Y-70301685D01*
X118383069Y-70301685D01*
X118390320Y-70278300D01*
X118400985Y-70243930D01*
X118402562Y-70238854D01*
X118407933Y-70213081D01*
X118398106Y-70200069D01*
X118366501Y-70192311D01*
X118360960Y-70191381D01*
X118336257Y-70189669D01*
X118285189Y-70188042D01*
X118210706Y-70186533D01*
X118115756Y-70185176D01*
X118003289Y-70184004D01*
X117876253Y-70183052D01*
X117737598Y-70182354D01*
X117590272Y-70181943D01*
X117530549Y-70181867D01*
X117359195Y-70181686D01*
X117214301Y-70181385D01*
X117093012Y-70180857D01*
X116992473Y-70179999D01*
X116909831Y-70178704D01*
X116842232Y-70176869D01*
X116786820Y-70174388D01*
X116740743Y-70171156D01*
X116701146Y-70167068D01*
X116665174Y-70162020D01*
X116629974Y-70155907D01*
X116592690Y-70148623D01*
X116585194Y-70147110D01*
X116390200Y-70097449D01*
X116214715Y-70030135D01*
X116053619Y-69942333D01*
X115901794Y-69831206D01*
X115754120Y-69693921D01*
X115739451Y-69678714D01*
X115603288Y-69517660D01*
X115494778Y-69347768D01*
X115413394Y-69167714D01*
X115358607Y-68976176D01*
X115329892Y-68771831D01*
X115324950Y-68639424D01*
X115325264Y-68634065D01*
X117318027Y-68634065D01*
X117326055Y-68666543D01*
X117351100Y-68710191D01*
X117394600Y-68766899D01*
X117457998Y-68838558D01*
X117535414Y-68919603D01*
X117583882Y-68971245D01*
X117624581Y-69018643D01*
X117652932Y-69056200D01*
X117664083Y-69076868D01*
X117664332Y-69095879D01*
X117654796Y-69121155D01*
X117633024Y-69156770D01*
X117596567Y-69206797D01*
X117550384Y-69265988D01*
X117484804Y-69348649D01*
X117435096Y-69411912D01*
X117399068Y-69459461D01*
X117374523Y-69494983D01*
X117359267Y-69522161D01*
X117351106Y-69544681D01*
X117347845Y-69566228D01*
X117347288Y-69590487D01*
X117347340Y-69606900D01*
X117349494Y-69656601D01*
X117359403Y-69690280D01*
X117382242Y-69721115D01*
X117398990Y-69738448D01*
X117432638Y-69769357D01*
X117459532Y-69782807D01*
X117492167Y-69783447D01*
X117512579Y-69780715D01*
X117577190Y-69758489D01*
X117614715Y-69727491D01*
X117644038Y-69685390D01*
X117652864Y-69638936D01*
X117652678Y-69626669D01*
X117661260Y-69565668D01*
X117678437Y-69533407D01*
X117708706Y-69494921D01*
X117747585Y-69446516D01*
X117790036Y-69394335D01*
X117831025Y-69344522D01*
X117865517Y-69303218D01*
X117888475Y-69276568D01*
X117892788Y-69271907D01*
X117947122Y-69208501D01*
X117978817Y-69150546D01*
X117991557Y-69090590D01*
X117992234Y-69070748D01*
X117992234Y-68995365D01*
X117866417Y-68864901D01*
X120301102Y-68864901D01*
X120308311Y-68974795D01*
X120309402Y-68980253D01*
X120346805Y-69098412D01*
X120405510Y-69200668D01*
X120482824Y-69284253D01*
X120576057Y-69346399D01*
X120682518Y-69384339D01*
X120706897Y-69389071D01*
X120765143Y-69398313D01*
X120805824Y-69402519D01*
X120840235Y-69401765D01*
X120879674Y-69396131D01*
X120910228Y-69390483D01*
X121018987Y-69356611D01*
X121115343Y-69300911D01*
X121196843Y-69227319D01*
X121261032Y-69139769D01*
X121305456Y-69042196D01*
X121327661Y-68938537D01*
X121325192Y-68832727D01*
X121306144Y-68755656D01*
X121251765Y-68640550D01*
X121178207Y-68545884D01*
X121088203Y-68473283D01*
X120984487Y-68424372D01*
X120869793Y-68400776D01*
X120746853Y-68404122D01*
X120721688Y-68408136D01*
X120609669Y-68441691D01*
X120510873Y-68497197D01*
X120427959Y-68570961D01*
X120363586Y-68659293D01*
X120320414Y-68758503D01*
X120301102Y-68864901D01*
X117866417Y-68864901D01*
X117815534Y-68812139D01*
X117745612Y-68738335D01*
X117695806Y-68682594D01*
X117664668Y-68643124D01*
X117650750Y-68618134D01*
X117650646Y-68607976D01*
X117664247Y-68590505D01*
X117694200Y-68555749D01*
X117736846Y-68507840D01*
X117788521Y-68450907D01*
X117824458Y-68411842D01*
X117896791Y-68331868D01*
X117949839Y-68267937D01*
X117985596Y-68215927D01*
X118006052Y-68171716D01*
X118012866Y-68133067D01*
X123550044Y-68133067D01*
X123563774Y-68193058D01*
X123598540Y-68258647D01*
X123654736Y-68334016D01*
X123732754Y-68423343D01*
X123752162Y-68444499D01*
X123804002Y-68502099D01*
X123847800Y-68553465D01*
X123880007Y-68594222D01*
X123897071Y-68619992D01*
X123898869Y-68625353D01*
X123889123Y-68643099D01*
X123862286Y-68677364D01*
X123821962Y-68723901D01*
X123771753Y-68778469D01*
X123745919Y-68805522D01*
X123674582Y-68881798D01*
X123623354Y-68943226D01*
X123589924Y-68993839D01*
X123571979Y-69037672D01*
X123567207Y-69078759D01*
X123570979Y-69110686D01*
X123576015Y-69128669D01*
X123585596Y-69149402D01*
X123602038Y-69176113D01*
X123627662Y-69212032D01*
X123664783Y-69260387D01*
X123715721Y-69324408D01*
X123782794Y-69407323D01*
X123792609Y-69419398D01*
X123844239Y-69484210D01*
X123879232Y-69531994D01*
X123900498Y-69567565D01*
X123910953Y-69595735D01*
X123913526Y-69619180D01*
X123927071Y-69684594D01*
X123964795Y-69737809D01*
X124008097Y-69766431D01*
X124062403Y-69779182D01*
X124117965Y-69774051D01*
X124158700Y-69754379D01*
X124183385Y-69724155D01*
X124208623Y-69679061D01*
X124228216Y-69631831D01*
X124235973Y-69595547D01*
X124234157Y-69574905D01*
X124227075Y-69552549D01*
X124212272Y-69524632D01*
X124187295Y-69487309D01*
X124149689Y-69436731D01*
X124097000Y-69369052D01*
X124068379Y-69332830D01*
X124004033Y-69251261D01*
X123956027Y-69189458D01*
X123922208Y-69144448D01*
X123900419Y-69113256D01*
X123888506Y-69092909D01*
X123884314Y-69080430D01*
X123884213Y-69078651D01*
X123893919Y-69064300D01*
X123920642Y-69033094D01*
X123960791Y-68989027D01*
X124010774Y-68936090D01*
X124036238Y-68909697D01*
X124109168Y-68832869D01*
X124162778Y-68771686D01*
X124199658Y-68722322D01*
X124222399Y-68680950D01*
X124233592Y-68643744D01*
X124235973Y-68614700D01*
X124233925Y-68594051D01*
X124226052Y-68571968D01*
X124209760Y-68544989D01*
X124182454Y-68509646D01*
X124141542Y-68462476D01*
X124084429Y-68400014D01*
X124037893Y-68350110D01*
X123971835Y-68278166D01*
X123924824Y-68223095D01*
X123894669Y-68181563D01*
X123879181Y-68150240D01*
X123876170Y-68125793D01*
X123880472Y-68110632D01*
X123894417Y-68088365D01*
X123923385Y-68047869D01*
X123963970Y-67993710D01*
X124012767Y-67930456D01*
X124051147Y-67881752D01*
X124108024Y-67809812D01*
X124149040Y-67756246D01*
X124176780Y-67716644D01*
X124193826Y-67686599D01*
X124202762Y-67661702D01*
X124206173Y-67637542D01*
X124206659Y-67616375D01*
X124203668Y-67569550D01*
X124190995Y-67538491D01*
X124163091Y-67509944D01*
X124161565Y-67508655D01*
X124103068Y-67475640D01*
X124042673Y-67470811D01*
X123984878Y-67494010D01*
X123958624Y-67515808D01*
X123930829Y-67547442D01*
X123914955Y-67572949D01*
X123913526Y-67578854D01*
X123904122Y-67601565D01*
X123877826Y-67642104D01*
X123837514Y-67696653D01*
X123786062Y-67761396D01*
X123726344Y-67832514D01*
X123697600Y-67865513D01*
X123631127Y-67944900D01*
X123584114Y-68013168D01*
X123556955Y-68074497D01*
X123550044Y-68133067D01*
X118012866Y-68133067D01*
X118013199Y-68131181D01*
X118009029Y-68090201D01*
X117998188Y-68052269D01*
X117973724Y-68002406D01*
X117930971Y-67938986D01*
X117873772Y-67867672D01*
X117869811Y-67863089D01*
X117795348Y-67776174D01*
X117738458Y-67707007D01*
X117696467Y-67652137D01*
X117666703Y-67608112D01*
X117651054Y-67580635D01*
X117612456Y-67519950D01*
X117570635Y-67484727D01*
X117520625Y-67471165D01*
X117507477Y-67470710D01*
X117441832Y-67482744D01*
X117390716Y-67515597D01*
X117358468Y-67564397D01*
X117349429Y-67624270D01*
X117352172Y-67645100D01*
X117364047Y-67670922D01*
X117391218Y-67714252D01*
X117430239Y-67770064D01*
X117477661Y-67833327D01*
X117505317Y-67868527D01*
X117570921Y-67950830D01*
X117620134Y-68013512D01*
X117654907Y-68059819D01*
X117677187Y-68092999D01*
X117688924Y-68116298D01*
X117692067Y-68132965D01*
X117688563Y-68146245D01*
X117680362Y-68159386D01*
X117680099Y-68159761D01*
X117662596Y-68181289D01*
X117629251Y-68219386D01*
X117584323Y-68269289D01*
X117532071Y-68326231D01*
X117512540Y-68347264D01*
X117440301Y-68426643D01*
X117387248Y-68489729D01*
X117350985Y-68540059D01*
X117329110Y-68581171D01*
X117319225Y-68616603D01*
X117318027Y-68634065D01*
X115325264Y-68634065D01*
X115337209Y-68430274D01*
X115374891Y-68235330D01*
X115438553Y-68053268D01*
X115528755Y-67882770D01*
X115646053Y-67722514D01*
X115766799Y-67594015D01*
X115921034Y-67464118D01*
X116086278Y-67360701D01*
X116264262Y-67282974D01*
X116456715Y-67230144D01*
X116614507Y-67206075D01*
X116650727Y-67203792D01*
X116713421Y-67201612D01*
X116799754Y-67199571D01*
X116906885Y-67197705D01*
X117031978Y-67196050D01*
X117172194Y-67194641D01*
X117324695Y-67193515D01*
X117486644Y-67192708D01*
X117655202Y-67192255D01*
X117711517Y-67192190D01*
X118683945Y-67191435D01*
X118657670Y-67151529D01*
X118544176Y-66966543D01*
X118442490Y-66775557D01*
X118356019Y-66585671D01*
X118324748Y-66501929D01*
X120000802Y-66501929D01*
X120013693Y-66562955D01*
X120051029Y-66631784D01*
X120113478Y-66710747D01*
X120146703Y-66746810D01*
X120253506Y-66847661D01*
X120359291Y-66923650D01*
X120469558Y-66978495D01*
X120512540Y-66994156D01*
X120674291Y-67032624D01*
X120840601Y-67042200D01*
X121005330Y-67023921D01*
X121158208Y-66980069D01*
X121301338Y-66909908D01*
X121389553Y-66848972D01*
X121482886Y-66766853D01*
X121554628Y-66685113D01*
X121603824Y-66605935D01*
X121629522Y-66531503D01*
X121630768Y-66463998D01*
X121606607Y-66405603D01*
X121591367Y-66387086D01*
X121557369Y-66357581D01*
X121521706Y-66344628D01*
X121480332Y-66342147D01*
X121428945Y-66348038D01*
X121389399Y-66368821D01*
X121356146Y-66409164D01*
X121323637Y-66473734D01*
X121323497Y-66474057D01*
X121283056Y-66541345D01*
X121221857Y-66601358D01*
X121136382Y-66657225D01*
X121091165Y-66680813D01*
X121036964Y-66705544D01*
X120989669Y-66720986D01*
X120937783Y-66729820D01*
X120869812Y-66734725D01*
X120857556Y-66735286D01*
X120718701Y-66731208D01*
X120598437Y-66705325D01*
X120494758Y-66656688D01*
X120405655Y-66584348D01*
X120329124Y-66487357D01*
X120327399Y-66484678D01*
X120286547Y-66422883D01*
X120254964Y-66382140D01*
X120227284Y-66358106D01*
X120198140Y-66346434D01*
X120162166Y-66342780D01*
X120151946Y-66342613D01*
X120109459Y-66346140D01*
X120077846Y-66361875D01*
X120045685Y-66393955D01*
X120011688Y-66446373D01*
X120000802Y-66501929D01*
X118324748Y-66501929D01*
X118288173Y-66403982D01*
X118269023Y-66342147D01*
X118205013Y-66070325D01*
X118169657Y-65794591D01*
X118162900Y-65516959D01*
X118176069Y-65349216D01*
X119326149Y-65349216D01*
X119333980Y-65454180D01*
X119359130Y-65548405D01*
X119404675Y-65640392D01*
X119461137Y-65722407D01*
X119547245Y-65812240D01*
X119649951Y-65880254D01*
X119764693Y-65924917D01*
X119886908Y-65944695D01*
X120012035Y-65938057D01*
X120067616Y-65926165D01*
X120182735Y-65880622D01*
X120286294Y-65809429D01*
X120375636Y-65714860D01*
X120447371Y-65600649D01*
X120467381Y-65558732D01*
X120480177Y-65522598D01*
X120487350Y-65483513D01*
X120490492Y-65432741D01*
X120491195Y-65361546D01*
X120491195Y-65360150D01*
X120490717Y-65303134D01*
X121155561Y-65303134D01*
X121156482Y-65422909D01*
X121183643Y-65541690D01*
X121209231Y-65603011D01*
X121279768Y-65716137D01*
X121369672Y-65807323D01*
X121478254Y-65876009D01*
X121597773Y-65919826D01*
X121704886Y-65940776D01*
X121800440Y-65942701D01*
X121895217Y-65925557D01*
X121919419Y-65918484D01*
X122025972Y-65870764D01*
X122123692Y-65799036D01*
X122207779Y-65708325D01*
X122273434Y-65603657D01*
X122310821Y-65508648D01*
X122330572Y-65390338D01*
X122323503Y-65271037D01*
X122291620Y-65155076D01*
X122236929Y-65046789D01*
X122161435Y-64950509D01*
X122067144Y-64870569D01*
X121996276Y-64829200D01*
X121950110Y-64807447D01*
X121912233Y-64793525D01*
X121873618Y-64785733D01*
X121825237Y-64782369D01*
X121758063Y-64781732D01*
X121744596Y-64781771D01*
X121672167Y-64782785D01*
X121619793Y-64786329D01*
X121578227Y-64794087D01*
X121538224Y-64807742D01*
X121493881Y-64827412D01*
X121385320Y-64892986D01*
X121295759Y-64977290D01*
X121226647Y-65076379D01*
X121179432Y-65186309D01*
X121155561Y-65303134D01*
X120490717Y-65303134D01*
X120490601Y-65289254D01*
X120487640Y-65238624D01*
X120480539Y-65199218D01*
X120467529Y-65161995D01*
X120446838Y-65117913D01*
X120441754Y-65107741D01*
X120376790Y-65006259D01*
X120291898Y-64915930D01*
X120194635Y-64844197D01*
X120150466Y-64820725D01*
X120108034Y-64802376D01*
X120069517Y-64790727D01*
X120026033Y-64784305D01*
X119968703Y-64781636D01*
X119912257Y-64781212D01*
X119799917Y-64786665D01*
X119707149Y-64804553D01*
X119626021Y-64837173D01*
X119549296Y-64886300D01*
X119473761Y-64959338D01*
X119409983Y-65052726D01*
X119361751Y-65158600D01*
X119332855Y-65269100D01*
X119326149Y-65349216D01*
X118176069Y-65349216D01*
X118184687Y-65239446D01*
X118234963Y-64964069D01*
X118313526Y-64693272D01*
X118352178Y-64595398D01*
X118404616Y-64482423D01*
X118466537Y-64362313D01*
X118533636Y-64243033D01*
X118601608Y-64132547D01*
X118666150Y-64038820D01*
X118669955Y-64033722D01*
X118735010Y-63951862D01*
X118813361Y-63860848D01*
X118899215Y-63766805D01*
X118986780Y-63675860D01*
X119070262Y-63594137D01*
X119143868Y-63527765D01*
X119164767Y-63510465D01*
X119230722Y-63457409D01*
X119120797Y-63484294D01*
X118991783Y-63517904D01*
X118848880Y-63558651D01*
X118699463Y-63604170D01*
X118550903Y-63652100D01*
X118410575Y-63700077D01*
X118285851Y-63745739D01*
X118205931Y-63777483D01*
X118098724Y-63823162D01*
X118000845Y-63866910D01*
X117915866Y-63906987D01*
X117847356Y-63941652D01*
X117798886Y-63969164D01*
X117774028Y-63987782D01*
X117773666Y-63988208D01*
X117751344Y-64005773D01*
X117710084Y-64030698D01*
X117657702Y-64058363D01*
X117641912Y-64066064D01*
X117574064Y-64100607D01*
X117496864Y-64143037D01*
X117425381Y-64185031D01*
X117415480Y-64191154D01*
X117361945Y-64223946D01*
X117315784Y-64251109D01*
X117284053Y-64268538D01*
X117276241Y-64272158D01*
X117249713Y-64286323D01*
X117203914Y-64315039D01*
X117143069Y-64355326D01*
X117071399Y-64404203D01*
X116993129Y-64458689D01*
X116912480Y-64515804D01*
X116833675Y-64572568D01*
X116760938Y-64625999D01*
X116698491Y-64673117D01*
X116650557Y-64710942D01*
X116630585Y-64727877D01*
X116603596Y-64750851D01*
X116586518Y-64757468D01*
X116567063Y-64750517D01*
X116556212Y-64744748D01*
X116540398Y-64741286D01*
X116519631Y-64748637D01*
X116489483Y-64769626D01*
X116445532Y-64807075D01*
X116414273Y-64835344D01*
X116298000Y-64943158D01*
X116204122Y-65033478D01*
X116132013Y-65106957D01*
X116081048Y-65164247D01*
X116050601Y-65206003D01*
X116041811Y-65224202D01*
X116027923Y-65256352D01*
X116014754Y-65271936D01*
X116013309Y-65272210D01*
X115994514Y-65282981D01*
X115959334Y-65313602D01*
X115910307Y-65361535D01*
X115849971Y-65424242D01*
X115780863Y-65499188D01*
X115734341Y-65551119D01*
X115674391Y-65619042D01*
X115624350Y-65676609D01*
X115577456Y-65731792D01*
X115526951Y-65792564D01*
X115466074Y-65866895D01*
X115454056Y-65881638D01*
X115391032Y-65960999D01*
X115326652Y-66045608D01*
X115264556Y-66130353D01*
X115208385Y-66210123D01*
X115161776Y-66279807D01*
X115128370Y-66334296D01*
X115118296Y-66353139D01*
X115095184Y-66392957D01*
X115072731Y-66411438D01*
X115047923Y-66415430D01*
X115026231Y-66419174D01*
X115004971Y-66433451D01*
X114979571Y-66462829D01*
X114945457Y-66511875D01*
X114934200Y-66529019D01*
X114897939Y-66586958D01*
X114853556Y-66661346D01*
X114806606Y-66742708D01*
X114762645Y-66821565D01*
X114761597Y-66823487D01*
X114722707Y-66895563D01*
X114696575Y-66946610D01*
X114681557Y-66981128D01*
X114676003Y-67003617D01*
X114678269Y-67018577D01*
X114686091Y-67029834D01*
X114705406Y-67060228D01*
X114704154Y-67091613D01*
X114681218Y-67131173D01*
X114667609Y-67148588D01*
X114640766Y-67188234D01*
X114606516Y-67248575D01*
X114568061Y-67322981D01*
X114528606Y-67404822D01*
X114491354Y-67487467D01*
X114459510Y-67564287D01*
X114437584Y-67624605D01*
X114422538Y-67668737D01*
X114401724Y-67727363D01*
X114380371Y-67785828D01*
X114339205Y-67898712D01*
X114307120Y-67991511D01*
X114281802Y-68071151D01*
X114262810Y-68137588D01*
X114246338Y-68198396D01*
X114226613Y-68271092D01*
X114209123Y-68335453D01*
X114175005Y-68469080D01*
X114141750Y-68614644D01*
X114110220Y-68767061D01*
X114081280Y-68921244D01*
X114055793Y-69072107D01*
X114034624Y-69214564D01*
X114018635Y-69343529D01*
X114008690Y-69453917D01*
X114005621Y-69533849D01*
X114004167Y-69592839D01*
X113998544Y-69630951D01*
X113986859Y-69656535D01*
X113974506Y-69671011D01*
X113963249Y-69683641D01*
X113955247Y-69698555D01*
X113950098Y-69720353D01*
X113947399Y-69753629D01*
X113946749Y-69802983D01*
X113392121Y-69802983D01*
X113396146Y-69684210D01*
X113402899Y-69553552D01*
X113411572Y-69428684D01*
X113421704Y-69317076D01*
X113432836Y-69226194D01*
X113434557Y-69214853D01*
X113443563Y-69156463D01*
X113454879Y-69081802D01*
X113466581Y-69003605D01*
X113471112Y-68973018D01*
X113493345Y-68835555D01*
X113521064Y-68685027D01*
X113552658Y-68528866D01*
X113586518Y-68374504D01*
X113621037Y-68229372D01*
X113654603Y-68100902D01*
X113675815Y-68027663D01*
X113739757Y-67822765D01*
X113799879Y-67640601D01*
X113858525Y-67475250D01*
X113918036Y-67320790D01*
X113980757Y-67171297D01*
X114049028Y-67020848D01*
X114125194Y-66863522D01*
X114176859Y-66761007D01*
X114272623Y-66581670D01*
X114382461Y-66390208D01*
X114500909Y-66195485D01*
X114622507Y-66006366D01*
X114741791Y-65831715D01*
X114794759Y-65758160D01*
X114825288Y-65717296D01*
X114866092Y-65663686D01*
X114913834Y-65601605D01*
X114965180Y-65535325D01*
X115016793Y-65469119D01*
X115065339Y-65407259D01*
X115107482Y-65354018D01*
X115139887Y-65313669D01*
X115159217Y-65290485D01*
X115162667Y-65286867D01*
X115175052Y-65273724D01*
X115202953Y-65242711D01*
X115242615Y-65198042D01*
X115290281Y-65143935D01*
X115306325Y-65125644D01*
X115516634Y-64898811D01*
X115748859Y-64672169D01*
X115997031Y-64450724D01*
X116255179Y-64239484D01*
X116517336Y-64043456D01*
X116777530Y-63867648D01*
X116886928Y-63799753D01*
X117046740Y-63706123D01*
X117217945Y-63610735D01*
X117392614Y-63517764D01*
X117562821Y-63431385D01*
X117720637Y-63355775D01*
X117787040Y-63325692D01*
X117839277Y-63302524D01*
X117890404Y-63279822D01*
X117904294Y-63273647D01*
X117962795Y-63248560D01*
X118038264Y-63217491D01*
X118121074Y-63184274D01*
X118201603Y-63152745D01*
X118270224Y-63126739D01*
X118300024Y-63115961D01*
X118431666Y-63070412D01*
X118553724Y-63029507D01*
X118661259Y-62994855D01*
X118749327Y-62968060D01*
X118791022Y-62956355D01*
X118860724Y-62937608D01*
X118940104Y-62916095D01*
X119003543Y-62898780D01*
X119122472Y-62868140D01*
X119257515Y-62836652D01*
X119400981Y-62805854D01*
X119545184Y-62777285D01*
X119682435Y-62752482D01*
X119805045Y-62732983D01*
X119883993Y-62722626D01*
X119962161Y-62713057D01*
X120048545Y-62701495D01*
X120124499Y-62690438D01*
X120124778Y-62690395D01*
X120173747Y-62685368D01*
X120247707Y-62681129D01*
X120342347Y-62677678D01*
X120453358Y-62675018D01*
X120576428Y-62673150D01*
X120707245Y-62672075D01*
X120841499Y-62671796D01*
X120974879Y-62672314D01*
X121103073Y-62673632D01*
X121221771Y-62675750D01*
X121326663Y-62678671D01*
X121413435Y-62682396D01*
X121477779Y-62686928D01*
X121502505Y-62689833D01*
X121578140Y-62700696D01*
X121664414Y-62712387D01*
X121742842Y-62722402D01*
X121743910Y-62722532D01*
X121888999Y-62743423D01*
X122054439Y-62772735D01*
X122233039Y-62808859D01*
X122417605Y-62850186D01*
X122600944Y-62895107D01*
X122775864Y-62942014D01*
X122931530Y-62988153D01*
X123003953Y-63011744D01*
X123090056Y-63041167D01*
X123184941Y-63074610D01*
X123283707Y-63110257D01*
X123381456Y-63146292D01*
X123473289Y-63180902D01*
X123554307Y-63212272D01*
X123619610Y-63238587D01*
X123664300Y-63258032D01*
X123676431Y-63264085D01*
X123705213Y-63278174D01*
X123746764Y-63296831D01*
X123759631Y-63302356D01*
X123914111Y-63371983D01*
X124085278Y-63456358D01*
X124266831Y-63552043D01*
X124452466Y-63655602D01*
X124635882Y-63763596D01*
X124810776Y-63872588D01*
X124841467Y-63892439D01*
X125088571Y-64059893D01*
X125322613Y-64232762D01*
X125547750Y-64414702D01*
X125768139Y-64609366D01*
X125987937Y-64820412D01*
X126211299Y-65051493D01*
X126418737Y-65279539D01*
X126499187Y-65373979D01*
X126589912Y-65486826D01*
X126686771Y-65612417D01*
X126785622Y-65745089D01*
X126882325Y-65879181D01*
X126972739Y-66009031D01*
X127052723Y-66128975D01*
X127118136Y-66233353D01*
X127126177Y-66246879D01*
X127161292Y-66305851D01*
X127202646Y-66374460D01*
X127239587Y-66435076D01*
X127271501Y-66490161D01*
X127312670Y-66565815D01*
X127360048Y-66655998D01*
X127410591Y-66754671D01*
X127461253Y-66855794D01*
X127508990Y-66953329D01*
X127550757Y-67041235D01*
X127583510Y-67113473D01*
X127593999Y-67138057D01*
X127688558Y-67373732D01*
X127771847Y-67598833D01*
X127846171Y-67820783D01*
X127913832Y-68047009D01*
X127977134Y-68284935D01*
X128038380Y-68541986D01*
X128060941Y-68643243D01*
X128087434Y-68780002D01*
X128112436Y-68939260D01*
X128135263Y-69114213D01*
X128155230Y-69298059D01*
X128171653Y-69483994D01*
X128183846Y-69665215D01*
X128191125Y-69834919D01*
X128192951Y-69955015D01*
X128190677Y-70076251D01*
X128184261Y-70218379D01*
X128174348Y-70373371D01*
X128161581Y-70533200D01*
X128146604Y-70689837D01*
X128130062Y-70835255D01*
X128112598Y-70961425D01*
X128111832Y-70966325D01*
X128097941Y-71051100D01*
X128081819Y-71143781D01*
X128064561Y-71238649D01*
X128047259Y-71329983D01*
X128031006Y-71412064D01*
X128016897Y-71479173D01*
X128006024Y-71525589D01*
X128002562Y-71537935D01*
X127993696Y-71569224D01*
X127979805Y-71621603D01*
X127962817Y-71687686D01*
X127945228Y-71757785D01*
X127912904Y-71877998D01*
X127871513Y-72016158D01*
X127823259Y-72166034D01*
X127770340Y-72321396D01*
X127714958Y-72476013D01*
X127659313Y-72623655D01*
X127605607Y-72758091D01*
X127556040Y-72873092D01*
X127536237Y-72915661D01*
X127516567Y-72956779D01*
X127489370Y-73013707D01*
X127459731Y-73075797D01*
X127452220Y-73091541D01*
X127412539Y-73170156D01*
X127359988Y-73267492D01*
X127297917Y-73377850D01*
X127229674Y-73495533D01*
X127158608Y-73614844D01*
X127088067Y-73730085D01*
X127021402Y-73835559D01*
X126962142Y-73925301D01*
X126775131Y-74185515D01*
X126570390Y-74443775D01*
X126352391Y-74695244D01*
X126125611Y-74935082D01*
X125894525Y-75158449D01*
X125663606Y-75360507D01*
X125552459Y-75449813D01*
X125482167Y-75507813D01*
X125435839Y-75553512D01*
X125414306Y-75586081D01*
X125413431Y-75589051D01*
X125398697Y-75629860D01*
X125370969Y-75688911D01*
X125333531Y-75760069D01*
X125289666Y-75837197D01*
X125242658Y-75914159D01*
X125223907Y-75943223D01*
X125145451Y-76048397D01*
X125048211Y-76156148D01*
X124938246Y-76261216D01*
X124821611Y-76358341D01*
X124704366Y-76442266D01*
X124592567Y-76507729D01*
X124551091Y-76527409D01*
X124433750Y-76573572D01*
X124304050Y-76616012D01*
X124178895Y-76649250D01*
X124167124Y-76651891D01*
X124078208Y-76665559D01*
X123969897Y-76673118D01*
X123851448Y-76674639D01*
X123732121Y-76670195D01*
X123621174Y-76659856D01*
X123543079Y-76647058D01*
X123414468Y-76620176D01*
X123183991Y-76699622D01*
X123099741Y-76728317D01*
X123018579Y-76755338D01*
X122947418Y-76778428D01*
X122893169Y-76795330D01*
X122872903Y-76801210D01*
X122738074Y-76837996D01*
X122625025Y-76868168D01*
X122527385Y-76893281D01*
X122438781Y-76914886D01*
X122352841Y-76934538D01*
X122263194Y-76953790D01*
X122163466Y-76974194D01*
X122162055Y-76974478D01*
X121898726Y-77019504D01*
X121611910Y-77053776D01*
X121305485Y-77077043D01*
X120983331Y-77089055D01*
X120649327Y-77089561D01*
X120455572Y-77084621D01*
X120014715Y-77055868D01*
X119584585Y-77000683D01*
X119162027Y-76918454D01*
X118743885Y-76808566D01*
X118327960Y-76670756D01*
X118187345Y-76619391D01*
X118056812Y-76646665D01*
X117958705Y-76661961D01*
X117844170Y-76671504D01*
X117722289Y-76675228D01*
X117602143Y-76673066D01*
X117492813Y-76664954D01*
X117405967Y-76651397D01*
X117211050Y-76594094D01*
X117020022Y-76508994D01*
X116835754Y-76397594D01*
X116664352Y-76264228D01*
X116631129Y-76231699D01*
X118856830Y-76231699D01*
X119021791Y-76275724D01*
X119124092Y-76302391D01*
X119228953Y-76328326D01*
X119343845Y-76355304D01*
X119476236Y-76385100D01*
X119553168Y-76402012D01*
X119621954Y-76415695D01*
X119702046Y-76429676D01*
X119773018Y-76440484D01*
X119841012Y-76450373D01*
X119908981Y-76461199D01*
X119962800Y-76470705D01*
X119965131Y-76471157D01*
X120007615Y-76477589D01*
X120071455Y-76484954D01*
X120148744Y-76492435D01*
X120231577Y-76499219D01*
X120250936Y-76500620D01*
X120346082Y-76507328D01*
X120449305Y-76514621D01*
X120548177Y-76521620D01*
X120630267Y-76527446D01*
X120630433Y-76527458D01*
X120713753Y-76531819D01*
X120803601Y-76533888D01*
X120894338Y-76533823D01*
X120980321Y-76531783D01*
X121055912Y-76527924D01*
X121115469Y-76522406D01*
X121153351Y-76515385D01*
X121160434Y-76512609D01*
X121185919Y-76506449D01*
X121232287Y-76501583D01*
X121291114Y-76498784D01*
X121314669Y-76498425D01*
X121457889Y-76492253D01*
X121622986Y-76475940D01*
X121804685Y-76450396D01*
X121997714Y-76416530D01*
X122196799Y-76375252D01*
X122396665Y-76327472D01*
X122557785Y-76283980D01*
X122634445Y-76262063D01*
X122685508Y-76245415D01*
X122713342Y-76230524D01*
X122720317Y-76213880D01*
X122708800Y-76191969D01*
X122681162Y-76161280D01*
X122657226Y-76136570D01*
X122567008Y-76036949D01*
X122477042Y-75926674D01*
X122397027Y-75817848D01*
X122372320Y-75781039D01*
X122338560Y-75728357D01*
X122299732Y-75666457D01*
X122258782Y-75600202D01*
X122218661Y-75534454D01*
X122182315Y-75474077D01*
X122152693Y-75423934D01*
X122132743Y-75388886D01*
X122125413Y-75373797D01*
X122125413Y-75373788D01*
X122116973Y-75357373D01*
X122105422Y-75342493D01*
X122089704Y-75319552D01*
X122064797Y-75278042D01*
X122035085Y-75225378D01*
X122022434Y-75202101D01*
X121989342Y-75141783D01*
X122261281Y-75141783D01*
X122272098Y-75206613D01*
X122303411Y-75263057D01*
X122322402Y-75281985D01*
X122355845Y-75300062D01*
X122400832Y-75313865D01*
X122442871Y-75319620D01*
X122460051Y-75317826D01*
X122493271Y-75312288D01*
X122500314Y-75312026D01*
X122522867Y-75302991D01*
X122556868Y-75280016D01*
X122576063Y-75264392D01*
X122624826Y-75223981D01*
X122673679Y-75188103D01*
X122727870Y-75153676D01*
X122792648Y-75117619D01*
X122873261Y-75076850D01*
X122974957Y-75028287D01*
X122990794Y-75020869D01*
X123066313Y-74983708D01*
X123121740Y-74949765D01*
X123162887Y-74912615D01*
X123195563Y-74865835D01*
X123225578Y-74803000D01*
X123254367Y-74729423D01*
X123271617Y-74698211D01*
X123297024Y-74683693D01*
X123335674Y-74685346D01*
X123392653Y-74702641D01*
X123418321Y-74712473D01*
X123504502Y-74735475D01*
X123580706Y-74733036D01*
X123644626Y-74705376D01*
X123664523Y-74688964D01*
X123689118Y-74657208D01*
X123718817Y-74606883D01*
X123748546Y-74546913D01*
X123759236Y-74522402D01*
X123791897Y-74445063D01*
X123816530Y-74390812D01*
X123836191Y-74355598D01*
X123853934Y-74335371D01*
X123872815Y-74326082D01*
X123895890Y-74323680D01*
X123909091Y-74323780D01*
X123954601Y-74328505D01*
X124012632Y-74339527D01*
X124052180Y-74349429D01*
X124139994Y-74369361D01*
X124209701Y-74373112D01*
X124267936Y-74360217D01*
X124320734Y-74330647D01*
X124361504Y-74295700D01*
X124398035Y-74251192D01*
X124433249Y-74192301D01*
X124470063Y-74114206D01*
X124507473Y-74022239D01*
X124542446Y-73933914D01*
X124571495Y-73868869D01*
X124598808Y-73822868D01*
X124628576Y-73791677D01*
X124664988Y-73771063D01*
X124712232Y-73756791D01*
X124774499Y-73744627D01*
X124783742Y-73743010D01*
X124876422Y-73731980D01*
X124950432Y-73736361D01*
X125012985Y-73757808D01*
X125071296Y-73797978D01*
X125087835Y-73812797D01*
X125156913Y-73889569D01*
X125227615Y-73990414D01*
X125297473Y-74110377D01*
X125364018Y-74244504D01*
X125424782Y-74387843D01*
X125477295Y-74535438D01*
X125517034Y-74674053D01*
X125527937Y-74669417D01*
X125555861Y-74646373D01*
X125597818Y-74607934D01*
X125650817Y-74557111D01*
X125711869Y-74496917D01*
X125777985Y-74430365D01*
X125846175Y-74360467D01*
X125913448Y-74290234D01*
X125976816Y-74222679D01*
X126033290Y-74160814D01*
X126079878Y-74107652D01*
X126083946Y-74102851D01*
X126142868Y-74031390D01*
X126204732Y-73953505D01*
X126266833Y-73872908D01*
X126326467Y-73793310D01*
X126380930Y-73718423D01*
X126427516Y-73651958D01*
X126463522Y-73597629D01*
X126486242Y-73559146D01*
X126493099Y-73541303D01*
X126502963Y-73526208D01*
X126528498Y-73498253D01*
X126555390Y-73471873D01*
X126586653Y-73437140D01*
X126627773Y-73383930D01*
X126673769Y-73319045D01*
X126719658Y-73249286D01*
X126726904Y-73237730D01*
X126769609Y-73170043D01*
X126809917Y-73107827D01*
X126843842Y-73057123D01*
X126867394Y-73023976D01*
X126870968Y-73019417D01*
X126894956Y-72981016D01*
X126898836Y-72942387D01*
X126896585Y-72927442D01*
X126896157Y-72879172D01*
X126917366Y-72836140D01*
X126944072Y-72791166D01*
X126979126Y-72719971D01*
X127021817Y-72624216D01*
X127071432Y-72505558D01*
X127127262Y-72365657D01*
X127188596Y-72206171D01*
X127197410Y-72182828D01*
X127212225Y-72140671D01*
X127233233Y-72077176D01*
X127258320Y-71999115D01*
X127285369Y-71913261D01*
X127312267Y-71826388D01*
X127336900Y-71745269D01*
X127357151Y-71676675D01*
X127370908Y-71627382D01*
X127371302Y-71625875D01*
X127397445Y-71524023D01*
X127419206Y-71435241D01*
X127437866Y-71353104D01*
X127454708Y-71271186D01*
X127471015Y-71183061D01*
X127488070Y-71082305D01*
X127507154Y-70962491D01*
X127519046Y-70885713D01*
X127533791Y-70782611D01*
X127547192Y-70675317D01*
X127558297Y-70572522D01*
X127566150Y-70482916D01*
X127569467Y-70426170D01*
X127573620Y-70343653D01*
X127579365Y-70286022D01*
X127587354Y-70248866D01*
X127598235Y-70227772D01*
X127598783Y-70227151D01*
X127608051Y-70202231D01*
X127615228Y-70154204D01*
X127620313Y-70088978D01*
X127623308Y-70012463D01*
X127624210Y-69930571D01*
X127623020Y-69849211D01*
X127619738Y-69774293D01*
X127614362Y-69711728D01*
X127606893Y-69667424D01*
X127598824Y-69648465D01*
X127584615Y-69620657D01*
X127574947Y-69568747D01*
X127569937Y-69504516D01*
X127561441Y-69368670D01*
X127549337Y-69236473D01*
X127532820Y-69102861D01*
X127511085Y-68962769D01*
X127483328Y-68811129D01*
X127448744Y-68642878D01*
X127406527Y-68452948D01*
X127394668Y-68401408D01*
X127380635Y-68342928D01*
X127367032Y-68289794D01*
X127357198Y-68254842D01*
X127346911Y-68221757D01*
X127330674Y-68169391D01*
X127311190Y-68106468D01*
X127300414Y-68071633D01*
X127252400Y-67923803D01*
X127199273Y-67773235D01*
X127143017Y-67624755D01*
X127085618Y-67483184D01*
X127029059Y-67353345D01*
X126975327Y-67240064D01*
X126926406Y-67148161D01*
X126907175Y-67116148D01*
X126891713Y-67084780D01*
X126891778Y-67054935D01*
X126901024Y-67024971D01*
X126909069Y-66999336D01*
X126910236Y-66977231D01*
X126902308Y-66951697D01*
X126883069Y-66915777D01*
X126850305Y-66862511D01*
X126848242Y-66859222D01*
X126808228Y-66795191D01*
X126760496Y-66718496D01*
X126712696Y-66641437D01*
X126690761Y-66605967D01*
X126643635Y-66530036D01*
X126608984Y-66475610D01*
X126584090Y-66439124D01*
X126566236Y-66417012D01*
X126552705Y-66405712D01*
X126540779Y-66401656D01*
X126534691Y-66401234D01*
X126522796Y-66397214D01*
X126506560Y-66383724D01*
X126483803Y-66358022D01*
X126452348Y-66317371D01*
X126410016Y-66259029D01*
X126354629Y-66180259D01*
X126324544Y-66136954D01*
X126228663Y-66005740D01*
X126115424Y-65862761D01*
X125990391Y-65714521D01*
X125859132Y-65567523D01*
X125727210Y-65428272D01*
X125663205Y-65364043D01*
X125612126Y-65312841D01*
X125569648Y-65268540D01*
X125539686Y-65235351D01*
X125526151Y-65217484D01*
X125525759Y-65216150D01*
X125515650Y-65202036D01*
X125487492Y-65171040D01*
X125444541Y-65126415D01*
X125390053Y-65071412D01*
X125327283Y-65009286D01*
X125259488Y-64943287D01*
X125189922Y-64876670D01*
X125123075Y-64813834D01*
X125077001Y-64772746D01*
X125045706Y-64750087D01*
X125024020Y-64742811D01*
X125009011Y-64746585D01*
X124993153Y-64749584D01*
X124970862Y-64741863D01*
X124937907Y-64720911D01*
X124890056Y-64684216D01*
X124852603Y-64653736D01*
X124780741Y-64595435D01*
X124716617Y-64545862D01*
X124652092Y-64499132D01*
X124579027Y-64449357D01*
X124489284Y-64390653D01*
X124485136Y-64387974D01*
X124381250Y-64321281D01*
X124294588Y-64266740D01*
X124218039Y-64220156D01*
X124144495Y-64177332D01*
X124066848Y-64134074D01*
X123977988Y-64086185D01*
X123936199Y-64063992D01*
X123891295Y-64038710D01*
X123854701Y-64015479D01*
X123840727Y-64004847D01*
X123813560Y-63986432D01*
X123764501Y-63959114D01*
X123698667Y-63925376D01*
X123621176Y-63887702D01*
X123537147Y-63848576D01*
X123451697Y-63810482D01*
X123369945Y-63775904D01*
X123363901Y-63773439D01*
X123282636Y-63741597D01*
X123189523Y-63707126D01*
X123088527Y-63671297D01*
X122983610Y-63635380D01*
X122878737Y-63600644D01*
X122777872Y-63568360D01*
X122684977Y-63539798D01*
X122604018Y-63516228D01*
X122538958Y-63498920D01*
X122493760Y-63489143D01*
X122472917Y-63487959D01*
X122476024Y-63498507D01*
X122498252Y-63521779D01*
X122535074Y-63553177D01*
X122544246Y-63560381D01*
X122600777Y-63608037D01*
X122669227Y-63671617D01*
X122742918Y-63744386D01*
X122815171Y-63819611D01*
X122879306Y-63890560D01*
X122919284Y-63938454D01*
X122945231Y-63972918D01*
X122979851Y-64021243D01*
X123019732Y-64078387D01*
X123061464Y-64139307D01*
X123101634Y-64198958D01*
X123136833Y-64252299D01*
X123163649Y-64294286D01*
X123178671Y-64319875D01*
X123180693Y-64324934D01*
X123187489Y-64340988D01*
X123205001Y-64373963D01*
X123221595Y-64403158D01*
X123261982Y-64481818D01*
X123304953Y-64581406D01*
X123347731Y-64694032D01*
X123387536Y-64811804D01*
X123421592Y-64926832D01*
X123447118Y-65031225D01*
X123452772Y-65059689D01*
X123472341Y-65169198D01*
X123486282Y-65259740D01*
X123495297Y-65340361D01*
X123500087Y-65420104D01*
X123501351Y-65508015D01*
X123499792Y-65613139D01*
X123498774Y-65653284D01*
X123485680Y-65874102D01*
X123457706Y-66081376D01*
X123413225Y-66280571D01*
X123350607Y-66477148D01*
X123268226Y-66676573D01*
X123164454Y-66884308D01*
X123094822Y-67009025D01*
X122993280Y-67184905D01*
X124036006Y-67192821D01*
X124236135Y-67194360D01*
X124409184Y-67195773D01*
X124557381Y-67197139D01*
X124682960Y-67198536D01*
X124788149Y-67200042D01*
X124875182Y-67201735D01*
X124946288Y-67203693D01*
X125003699Y-67205994D01*
X125049646Y-67208717D01*
X125086359Y-67211939D01*
X125116071Y-67215739D01*
X125141011Y-67220194D01*
X125163412Y-67225383D01*
X125185503Y-67231384D01*
X125192229Y-67233305D01*
X125388315Y-67299789D01*
X125561561Y-67380843D01*
X125715651Y-67478561D01*
X125854269Y-67595034D01*
X125888114Y-67628529D01*
X126021017Y-67784205D01*
X126128444Y-67951918D01*
X126210426Y-68129251D01*
X126266988Y-68313785D01*
X126298158Y-68503103D01*
X126303965Y-68694788D01*
X126284434Y-68886421D01*
X126239595Y-69075585D01*
X126169474Y-69259863D01*
X126074098Y-69436836D01*
X125953496Y-69604088D01*
X125864514Y-69703441D01*
X125718077Y-69839072D01*
X125565425Y-69949368D01*
X125401882Y-70036823D01*
X125222771Y-70103933D01*
X125023418Y-70153190D01*
X125020133Y-70153828D01*
X124986531Y-70159966D01*
X124952519Y-70165156D01*
X124915406Y-70169476D01*
X124872501Y-70173005D01*
X124821112Y-70175821D01*
X124758548Y-70178003D01*
X124682117Y-70179631D01*
X124589127Y-70180781D01*
X124476888Y-70181534D01*
X124342707Y-70181967D01*
X124183894Y-70182159D01*
X124049129Y-70182193D01*
X123872352Y-70182244D01*
X123722658Y-70182440D01*
X123597817Y-70182848D01*
X123495598Y-70183535D01*
X123413773Y-70184566D01*
X123350110Y-70186008D01*
X123302380Y-70187927D01*
X123268353Y-70190390D01*
X123245798Y-70193463D01*
X123232485Y-70197212D01*
X123226184Y-70201704D01*
X123224663Y-70206722D01*
X123229393Y-70233405D01*
X123242702Y-70283644D01*
X123263269Y-70353403D01*
X123289773Y-70438649D01*
X123320894Y-70535345D01*
X123355311Y-70639457D01*
X123391702Y-70746950D01*
X123428747Y-70853788D01*
X123465125Y-70955937D01*
X123499515Y-71049362D01*
X123506903Y-71068921D01*
X123533503Y-71139106D01*
X123561698Y-71213710D01*
X123585698Y-71277416D01*
X123587211Y-71281443D01*
X123611608Y-71346059D01*
X123637519Y-71414168D01*
X123654064Y-71457323D01*
X123669057Y-71490149D01*
X123696629Y-71544483D01*
X123734693Y-71616452D01*
X123781162Y-71702184D01*
X123833952Y-71797805D01*
X123890976Y-71899442D01*
X123914550Y-71940993D01*
X123985449Y-72065700D01*
X124064687Y-72205325D01*
X124147512Y-72351475D01*
X124229168Y-72495755D01*
X124304903Y-72629774D01*
X124358688Y-72725124D01*
X124413410Y-72822154D01*
X124463920Y-72911548D01*
X124508302Y-72989932D01*
X124544642Y-73053928D01*
X124571024Y-73100160D01*
X124585534Y-73125252D01*
X124587305Y-73128183D01*
X124601420Y-73151675D01*
X124624867Y-73191805D01*
X124651549Y-73238108D01*
X124701000Y-73324810D01*
X124736991Y-73389399D01*
X124760758Y-73435124D01*
X124773536Y-73465236D01*
X124776560Y-73482984D01*
X124771065Y-73491621D01*
X124758287Y-73494395D01*
X124749014Y-73494599D01*
X124720287Y-73499158D01*
X124674541Y-73511036D01*
X124628097Y-73525562D01*
X124532882Y-73560613D01*
X124461281Y-73595506D01*
X124408023Y-73635083D01*
X124367838Y-73684186D01*
X124335456Y-73747657D01*
X124309571Y-73818207D01*
X124285831Y-73883469D01*
X124257701Y-73951685D01*
X124238073Y-73994087D01*
X124211685Y-74040223D01*
X124184194Y-74067721D01*
X124149336Y-74078280D01*
X124100842Y-74073597D01*
X124032446Y-74055373D01*
X124022856Y-74052435D01*
X123922907Y-74028552D01*
X123838299Y-74024670D01*
X123762906Y-74040828D01*
X123731142Y-74054263D01*
X123690184Y-74080301D01*
X123655467Y-74117795D01*
X123623998Y-74171510D01*
X123592787Y-74246213D01*
X123570660Y-74309985D01*
X123551264Y-74357910D01*
X123529151Y-74397017D01*
X123517739Y-74410693D01*
X123500835Y-74423803D01*
X123482552Y-74428776D01*
X123454599Y-74425599D01*
X123408684Y-74414262D01*
X123394782Y-74410517D01*
X123304388Y-74393252D01*
X123221577Y-74391071D01*
X123152348Y-74403537D01*
X123102703Y-74430212D01*
X123100813Y-74431938D01*
X123078413Y-74462036D01*
X123052469Y-74510286D01*
X123028188Y-74566867D01*
X123025700Y-74573570D01*
X122993239Y-74650861D01*
X122958263Y-74705533D01*
X122915060Y-74744104D01*
X122857915Y-74773095D01*
X122847242Y-74777226D01*
X122765719Y-74811840D01*
X122685386Y-74852997D01*
X122613978Y-74896224D01*
X122559232Y-74937053D01*
X122541892Y-74953670D01*
X122513638Y-74981863D01*
X122489137Y-74995292D01*
X122456659Y-74997811D01*
X122417310Y-74994585D01*
X122369199Y-74991352D01*
X122339147Y-74995779D01*
X122316316Y-75010601D01*
X122303756Y-75023266D01*
X122271616Y-75077643D01*
X122261281Y-75141783D01*
X121989342Y-75141783D01*
X121985254Y-75134332D01*
X121944584Y-75062419D01*
X121908298Y-75000254D01*
X121903186Y-74991745D01*
X121876075Y-74946311D01*
X121856127Y-74911816D01*
X121847113Y-74894799D01*
X121846936Y-74894151D01*
X121840028Y-74880564D01*
X121820992Y-74846109D01*
X121792363Y-74795301D01*
X121756676Y-74732653D01*
X121737011Y-74698358D01*
X121698727Y-74631361D01*
X121666245Y-74573805D01*
X121642104Y-74530249D01*
X121628843Y-74505247D01*
X121627086Y-74501135D01*
X121620228Y-74487006D01*
X121601324Y-74451978D01*
X121572880Y-74400599D01*
X121537402Y-74337416D01*
X121517161Y-74301679D01*
X121479024Y-74234122D01*
X121446630Y-74175954D01*
X121422489Y-74131742D01*
X121409109Y-74106053D01*
X121407236Y-74101543D01*
X121400081Y-74086403D01*
X121381827Y-74055100D01*
X121368328Y-74033305D01*
X121347274Y-73997165D01*
X121317058Y-73941666D01*
X121281390Y-73873781D01*
X121243982Y-73800488D01*
X121236115Y-73784787D01*
X121200757Y-73716498D01*
X121167799Y-73657439D01*
X121140308Y-73612781D01*
X121121347Y-73587695D01*
X121117465Y-73584583D01*
X121079786Y-73569586D01*
X121023075Y-73552346D01*
X120957237Y-73535297D01*
X120892177Y-73520872D01*
X120837801Y-73511504D01*
X120810812Y-73509256D01*
X120759377Y-73514116D01*
X120695056Y-73526986D01*
X120626659Y-73545300D01*
X120562997Y-73566491D01*
X120512882Y-73587993D01*
X120489372Y-73602878D01*
X120469299Y-73627634D01*
X120440358Y-73672587D01*
X120406325Y-73731491D01*
X120370975Y-73798098D01*
X120368801Y-73802389D01*
X120262543Y-74009139D01*
X120163152Y-74194940D01*
X120067161Y-74366271D01*
X120064160Y-74371496D01*
X120032120Y-74427834D01*
X120006375Y-74474272D01*
X119989946Y-74505286D01*
X119985540Y-74515266D01*
X119978533Y-74529432D01*
X119958890Y-74565283D01*
X119928681Y-74619143D01*
X119889974Y-74687338D01*
X119844839Y-74766194D01*
X119819104Y-74810902D01*
X119765805Y-74903794D01*
X119712680Y-74997228D01*
X119663151Y-75085125D01*
X119620640Y-75161403D01*
X119588568Y-75219983D01*
X119582442Y-75231414D01*
X119547884Y-75295040D01*
X119513672Y-75355850D01*
X119485048Y-75404613D01*
X119474238Y-75421951D01*
X119446890Y-75465994D01*
X119423730Y-75506331D01*
X119418042Y-75517219D01*
X119409217Y-75534671D01*
X119399972Y-75551596D01*
X119387474Y-75572537D01*
X119368888Y-75602036D01*
X119341380Y-75644636D01*
X119302114Y-75704881D01*
X119276370Y-75744290D01*
X119212551Y-75838268D01*
X119150631Y-75920448D01*
X119083444Y-75999543D01*
X119003823Y-76084262D01*
X118961283Y-76127287D01*
X118856830Y-76231699D01*
X116631129Y-76231699D01*
X116566927Y-76168837D01*
X116468070Y-76053516D01*
G37*
G36*
X123070039Y-72979086D02*
G01*
X123092119Y-73009834D01*
X123102558Y-73029250D01*
X123118966Y-73059658D01*
X123147744Y-73109695D01*
X123185733Y-73174129D01*
X123229772Y-73247727D01*
X123276701Y-73325257D01*
X123323360Y-73401486D01*
X123366590Y-73471184D01*
X123403231Y-73529116D01*
X123420414Y-73555562D01*
X123446144Y-73594540D01*
X123254319Y-73720449D01*
X123187791Y-73763608D01*
X123129613Y-73800390D01*
X123084274Y-73828033D01*
X123056264Y-73843773D01*
X123049758Y-73846359D01*
X123034957Y-73834996D01*
X123012631Y-73806376D01*
X123002829Y-73791397D01*
X122980454Y-73754445D01*
X122965068Y-73727239D01*
X122962394Y-73721778D01*
X122952190Y-73703397D01*
X122929690Y-73665662D01*
X122898258Y-73613998D01*
X122861254Y-73553833D01*
X122822040Y-73490594D01*
X122783980Y-73429706D01*
X122750433Y-73376597D01*
X122724764Y-73336693D01*
X122712519Y-73318436D01*
X122683660Y-73271874D01*
X122676452Y-73238156D01*
X122692122Y-73209101D01*
X122731897Y-73176527D01*
X122734018Y-73175027D01*
X122771705Y-73149285D01*
X122798851Y-73132270D01*
X122807518Y-73128183D01*
X122821612Y-73120035D01*
X122853552Y-73098184D01*
X122897740Y-73066522D01*
X122923563Y-73047571D01*
X122973584Y-73012086D01*
X123016255Y-72984569D01*
X123045196Y-72969009D01*
X123052411Y-72966959D01*
X123070039Y-72979086D01*
G37*
G36*
X125747751Y-70789259D02*
G01*
X125823580Y-70805568D01*
X125901272Y-70828869D01*
X125968708Y-70855986D01*
X125974133Y-70858641D01*
X126027972Y-70892490D01*
X126088969Y-70941288D01*
X126147573Y-70996448D01*
X126194232Y-71049380D01*
X126207994Y-71068921D01*
X126250788Y-71140084D01*
X126279563Y-71199686D01*
X126297032Y-71257361D01*
X126305906Y-71322747D01*
X126308896Y-71405479D01*
X126309037Y-71428010D01*
X126308841Y-71501725D01*
X126306773Y-71554116D01*
X126301364Y-71593169D01*
X126291149Y-71626870D01*
X126274662Y-71663206D01*
X126260927Y-71690019D01*
X126184539Y-71807809D01*
X126089848Y-71905798D01*
X125980294Y-71982210D01*
X125859315Y-72035267D01*
X125730351Y-72063194D01*
X125596838Y-72064213D01*
X125549126Y-72057790D01*
X125437576Y-72025004D01*
X125329393Y-71968328D01*
X125231126Y-71892719D01*
X125149324Y-71803136D01*
X125094793Y-71713815D01*
X125049694Y-71587046D01*
X125031769Y-71459740D01*
X125039099Y-71334920D01*
X125069760Y-71215613D01*
X125121833Y-71104843D01*
X125193396Y-71005634D01*
X125282528Y-70921013D01*
X125387307Y-70854003D01*
X125505813Y-70807630D01*
X125636124Y-70784918D01*
X125685904Y-70783116D01*
X125747751Y-70789259D01*
G37*
G36*
X119008383Y-72198464D02*
G01*
X119042276Y-72220482D01*
X119086033Y-72251853D01*
X119096588Y-72259775D01*
X119155943Y-72304090D01*
X119220365Y-72351260D01*
X119271621Y-72388021D01*
X119313240Y-72420101D01*
X119343143Y-72448295D01*
X119354978Y-72466600D01*
X119354987Y-72466834D01*
X119347972Y-72492965D01*
X119328220Y-72538184D01*
X119298380Y-72597930D01*
X119261099Y-72667647D01*
X119219026Y-72742774D01*
X119174809Y-72818752D01*
X119131096Y-72891023D01*
X119090535Y-72955027D01*
X119055774Y-73006206D01*
X119029461Y-73040000D01*
X119015220Y-73051778D01*
X118990876Y-73044982D01*
X118967098Y-73025803D01*
X118944606Y-73006000D01*
X118903514Y-72974348D01*
X118849657Y-72935196D01*
X118788866Y-72892893D01*
X118788455Y-72892614D01*
X118730907Y-72852614D01*
X118683425Y-72818035D01*
X118650651Y-72792374D01*
X118637227Y-72779124D01*
X118637127Y-72778655D01*
X118644378Y-72762453D01*
X118664035Y-72726922D01*
X118692953Y-72677582D01*
X118722309Y-72629162D01*
X118767705Y-72554121D01*
X118819259Y-72467032D01*
X118868956Y-72381502D01*
X118892407Y-72340387D01*
X118926702Y-72281646D01*
X118956792Y-72233667D01*
X118979371Y-72201494D01*
X118990964Y-72190156D01*
X119008383Y-72198464D01*
G37*
%TO.C,U1*%
X181737000Y-59817000D02*
X179197000Y-59817000D01*
X179197000Y-59817000D02*
X179197000Y-64897000D01*
X179197000Y-64897000D02*
X181737000Y-64897000D01*
X181737000Y-64897000D02*
X181737000Y-59817000D01*
X156337000Y-56357000D02*
X181737000Y-56357000D01*
X181737000Y-56357000D02*
X181737000Y-68357000D01*
X181737000Y-68357000D02*
X156337000Y-68357000D01*
X156337000Y-68357000D02*
X156337000Y-56357000D01*
X156337000Y-59817000D02*
X158877000Y-59817000D01*
X158877000Y-59817000D02*
X158877000Y-64897000D01*
X158877000Y-64897000D02*
X156337000Y-64897000D01*
X156337000Y-64897000D02*
X156337000Y-59817000D01*
%TO.C,J6*%
X147729000Y-64819000D02*
X147729000Y-65569000D01*
X150229000Y-64819000D02*
X150229000Y-65569000D01*
X145179000Y-60369000D02*
X148229000Y-60369000D01*
X152029000Y-65569000D02*
X152029000Y-64819000D01*
X144429000Y-63319000D02*
X145179000Y-63319000D01*
X152039000Y-59609000D02*
X144419000Y-59609000D01*
X144429000Y-64819000D02*
X144429000Y-65569000D01*
X152039000Y-65579000D02*
X152039000Y-59609000D01*
X150229000Y-65569000D02*
X152029000Y-65569000D01*
X145179000Y-63319000D02*
X145179000Y-60369000D01*
X151279000Y-63319000D02*
X151279000Y-60369000D01*
X144429000Y-65569000D02*
X146229000Y-65569000D01*
X144419000Y-59609000D02*
X144419000Y-65579000D01*
X152029000Y-64819000D02*
X150229000Y-64819000D01*
X147729000Y-65569000D02*
X148729000Y-65569000D01*
X151279000Y-60369000D02*
X148229000Y-60369000D01*
X152029000Y-63319000D02*
X151279000Y-63319000D01*
X152329000Y-65869000D02*
X152329000Y-64619000D01*
X148729000Y-64819000D02*
X147729000Y-64819000D01*
X151079000Y-65869000D02*
X152329000Y-65869000D01*
X146229000Y-64819000D02*
X144429000Y-64819000D01*
X144419000Y-65579000D02*
X152039000Y-65579000D01*
X148729000Y-65569000D02*
X148729000Y-64819000D01*
X146229000Y-65569000D02*
X146229000Y-64819000D01*
%TO.C,R1*%
X144172000Y-52186064D02*
X144172000Y-51731936D01*
X145642000Y-52186064D02*
X145642000Y-51731936D01*
%TO.C,J5*%
X128945500Y-58335000D02*
X128945500Y-56435000D01*
X138145500Y-43635000D02*
X138145500Y-58335000D01*
X138145500Y-58335000D02*
X135545500Y-58335000D01*
X131645500Y-58335000D02*
X128945500Y-58335000D01*
X138345500Y-57485000D02*
X138345500Y-58535000D01*
X128945500Y-52435000D02*
X128945500Y-43635000D01*
X137295500Y-58535000D02*
X138345500Y-58535000D01*
X128945500Y-43635000D02*
X138145500Y-43635000D01*
%TO.C,J2*%
X151460000Y-95191000D02*
X151460000Y-103691000D01*
X151460000Y-105191000D02*
X151460000Y-106991000D01*
X149960000Y-92641000D02*
X147010000Y-92641000D01*
X146250000Y-107001000D02*
X152220000Y-107001000D01*
X152220000Y-91881000D02*
X146250000Y-91881000D01*
X152220000Y-107001000D02*
X152220000Y-91881000D01*
X149960000Y-106241000D02*
X147010000Y-106241000D01*
X152210000Y-105191000D02*
X151460000Y-105191000D01*
X147010000Y-92641000D02*
X147010000Y-99441000D01*
X151460000Y-106991000D02*
X152210000Y-106991000D01*
X152210000Y-91891000D02*
X151460000Y-91891000D01*
X149960000Y-91891000D02*
X149960000Y-92641000D01*
X151460000Y-93691000D02*
X152210000Y-93691000D01*
X146250000Y-91881000D02*
X146250000Y-107001000D01*
X149960000Y-106991000D02*
X149960000Y-106241000D01*
X152510000Y-92841000D02*
X152510000Y-91591000D01*
X152210000Y-106991000D02*
X152210000Y-105191000D01*
X147010000Y-106241000D02*
X147010000Y-99441000D01*
X152510000Y-91591000D02*
X151260000Y-91591000D01*
X151460000Y-91891000D02*
X151460000Y-93691000D01*
X152210000Y-93691000D02*
X152210000Y-91891000D01*
X152210000Y-95191000D02*
X151460000Y-95191000D01*
X151460000Y-103691000D02*
X152210000Y-103691000D01*
X152210000Y-103691000D02*
X152210000Y-95191000D01*
%TO.C,J4*%
X116520000Y-48564000D02*
X115770000Y-48564000D01*
X115770000Y-61164000D02*
X116520000Y-61164000D01*
X115760000Y-48554000D02*
X115760000Y-61174000D01*
X120970000Y-60414000D02*
X120970000Y-54864000D01*
X116520000Y-59364000D02*
X115770000Y-59364000D01*
X120970000Y-49314000D02*
X120970000Y-54864000D01*
X115770000Y-59364000D02*
X115770000Y-61164000D01*
X116520000Y-61164000D02*
X116520000Y-59364000D01*
X115770000Y-51864000D02*
X115770000Y-57864000D01*
X115770000Y-57864000D02*
X116520000Y-57864000D01*
X116520000Y-51864000D02*
X115770000Y-51864000D01*
X118020000Y-48564000D02*
X118020000Y-49314000D01*
X118020000Y-49314000D02*
X120970000Y-49314000D01*
X115470000Y-61464000D02*
X116720000Y-61464000D01*
X116520000Y-57864000D02*
X116520000Y-51864000D01*
X118020000Y-60414000D02*
X120970000Y-60414000D01*
X115770000Y-50364000D02*
X116520000Y-50364000D01*
X121730000Y-61174000D02*
X121730000Y-48554000D01*
X115760000Y-61174000D02*
X121730000Y-61174000D01*
X115770000Y-48564000D02*
X115770000Y-50364000D01*
X115470000Y-60214000D02*
X115470000Y-61464000D01*
X118020000Y-61164000D02*
X118020000Y-60414000D01*
X116520000Y-50364000D02*
X116520000Y-48564000D01*
X121730000Y-48554000D02*
X115760000Y-48554000D01*
%TO.C,D1*%
X149073000Y-49636000D02*
X149073000Y-52726000D01*
X154623000Y-51181462D02*
G75*
G03*
X149073000Y-49636170I-2990000J462D01*
G01*
X149073000Y-52725830D02*
G75*
G03*
X154623000Y-51180538I2560000J1544830D01*
G01*
X154133000Y-51181000D02*
G75*
G03*
X154133000Y-51181000I-2500000J0D01*
G01*
%TD*%
%LPC*%
D13*
%TO.C,C1*%
X118999000Y-107354380D03*
D14*
X118999000Y-104854380D03*
%TD*%
%TO.C,C3*%
X182499000Y-84836000D03*
X177499000Y-84836000D03*
%TD*%
D13*
%TO.C,A2*%
X126756000Y-98171000D03*
D15*
X126756000Y-100711000D03*
X126756000Y-103251000D03*
X126756000Y-105791000D03*
X126756000Y-108331000D03*
X126756000Y-110871000D03*
X126756000Y-113411000D03*
X126756000Y-115951000D03*
X139456000Y-115951000D03*
X139456000Y-113411000D03*
X139456000Y-110871000D03*
X139456000Y-108331000D03*
X139456000Y-105791000D03*
X139456000Y-103251000D03*
X139456000Y-100711000D03*
X139456000Y-98171000D03*
%TD*%
D16*
%TO.C,J3*%
X149733000Y-112141000D03*
D17*
X149733000Y-114641000D03*
%TD*%
D18*
%TO.C,F1*%
X133445000Y-72256000D03*
X133445000Y-87256000D03*
%TD*%
D13*
%TO.C,C2*%
X181483000Y-75565000D03*
D14*
X178983000Y-75565000D03*
%TD*%
D19*
%TO.C,J1*%
X149506000Y-75391000D03*
D20*
X149506000Y-77891000D03*
X149506000Y-80391000D03*
X149506000Y-82891000D03*
X149506000Y-85391000D03*
%TD*%
D13*
%TO.C,A1*%
X157617000Y-75692000D03*
D15*
X157617000Y-78232000D03*
X157617000Y-80772000D03*
X157617000Y-83312000D03*
X157617000Y-85852000D03*
X157617000Y-88392000D03*
X157617000Y-90932000D03*
X157617000Y-93472000D03*
X157617000Y-96012000D03*
X157617000Y-98552000D03*
X157617000Y-101092000D03*
X157617000Y-103632000D03*
X157617000Y-106172000D03*
X157617000Y-108712000D03*
X157617000Y-111252000D03*
X172857000Y-111252000D03*
X172857000Y-108712000D03*
X172857000Y-106172000D03*
X172857000Y-103632000D03*
X172857000Y-101092000D03*
X172857000Y-98552000D03*
X172857000Y-96012000D03*
X172857000Y-93472000D03*
X172857000Y-90932000D03*
X172857000Y-88392000D03*
X172857000Y-85852000D03*
X172857000Y-83312000D03*
X172857000Y-80772000D03*
X172857000Y-78232000D03*
X172857000Y-75692000D03*
%TD*%
D14*
%TO.C,C4*%
X181209000Y-92964000D03*
X178709000Y-92964000D03*
%TD*%
D21*
%TO.C,U1*%
X157607000Y-61087000D03*
D22*
X157607000Y-63627000D03*
X180467000Y-61087000D03*
X180467000Y-63627000D03*
%TD*%
D23*
%TO.C,J6*%
X149479000Y-63119000D03*
D24*
X146979000Y-63119000D03*
%TD*%
D25*
%TO.C,R1*%
X144907000Y-52959000D03*
X144907000Y-50959000D03*
%TD*%
D26*
%TO.C,J5*%
X133545500Y-57435000D03*
D27*
X133545500Y-51435000D03*
D28*
X128845500Y-54435000D03*
%TD*%
D19*
%TO.C,J2*%
X149760000Y-94441000D03*
D20*
X149760000Y-96941000D03*
X149760000Y-99441000D03*
X149760000Y-101941000D03*
X149760000Y-104441000D03*
%TD*%
D29*
%TO.C,J4*%
X118220000Y-58614000D03*
D20*
X118220000Y-56114000D03*
X118220000Y-53614000D03*
X118220000Y-51114000D03*
%TD*%
D30*
%TO.C,D1*%
X150363000Y-51181000D03*
D31*
X152903000Y-51181000D03*
%TD*%
M02*
