%TF.GenerationSoftware,KiCad,Pcbnew,(6.0.9)*%
%TF.CreationDate,2024-07-14T14:50:05-07:00*%
%TF.ProjectId,RA_Controller,52415f43-6f6e-4747-926f-6c6c65722e6b,rev?*%
%TF.SameCoordinates,Original*%
%TF.FileFunction,Copper,L1,Top*%
%TF.FilePolarity,Positive*%
%FSLAX46Y46*%
G04 Gerber Fmt 4.6, Leading zero omitted, Abs format (unit mm)*
G04 Created by KiCad (PCBNEW (6.0.9)) date 2024-07-14 14:50:05*
%MOMM*%
%LPD*%
G01*
G04 APERTURE LIST*
G04 Aperture macros list*
%AMRoundRect*
0 Rectangle with rounded corners*
0 $1 Rounding radius*
0 $2 $3 $4 $5 $6 $7 $8 $9 X,Y pos of 4 corners*
0 Add a 4 corners polygon primitive as box body*
4,1,4,$2,$3,$4,$5,$6,$7,$8,$9,$2,$3,0*
0 Add four circle primitives for the rounded corners*
1,1,$1+$1,$2,$3*
1,1,$1+$1,$4,$5*
1,1,$1+$1,$6,$7*
1,1,$1+$1,$8,$9*
0 Add four rect primitives between the rounded corners*
20,1,$1+$1,$2,$3,$4,$5,0*
20,1,$1+$1,$4,$5,$6,$7,0*
20,1,$1+$1,$6,$7,$8,$9,0*
20,1,$1+$1,$8,$9,$2,$3,0*%
G04 Aperture macros list end*
%TA.AperFunction,ComponentPad*%
%ADD10R,1.600000X1.600000*%
%TD*%
%TA.AperFunction,ComponentPad*%
%ADD11C,1.600000*%
%TD*%
%TA.AperFunction,ComponentPad*%
%ADD12O,1.600000X1.600000*%
%TD*%
%TA.AperFunction,ComponentPad*%
%ADD13RoundRect,0.250000X-0.750000X0.600000X-0.750000X-0.600000X0.750000X-0.600000X0.750000X0.600000X0*%
%TD*%
%TA.AperFunction,ComponentPad*%
%ADD14O,2.000000X1.700000*%
%TD*%
%TA.AperFunction,ComponentPad*%
%ADD15C,3.000000*%
%TD*%
%TA.AperFunction,ComponentPad*%
%ADD16RoundRect,0.250000X-0.725000X0.600000X-0.725000X-0.600000X0.725000X-0.600000X0.725000X0.600000X0*%
%TD*%
%TA.AperFunction,ComponentPad*%
%ADD17O,1.950000X1.700000*%
%TD*%
%TA.AperFunction,ComponentPad*%
%ADD18R,1.524000X1.524000*%
%TD*%
%TA.AperFunction,ComponentPad*%
%ADD19C,1.524000*%
%TD*%
%TA.AperFunction,ComponentPad*%
%ADD20RoundRect,0.250000X0.600000X0.750000X-0.600000X0.750000X-0.600000X-0.750000X0.600000X-0.750000X0*%
%TD*%
%TA.AperFunction,ComponentPad*%
%ADD21O,1.700000X2.000000*%
%TD*%
%TA.AperFunction,SMDPad,CuDef*%
%ADD22RoundRect,0.250000X0.450000X-0.350000X0.450000X0.350000X-0.450000X0.350000X-0.450000X-0.350000X0*%
%TD*%
%TA.AperFunction,ComponentPad*%
%ADD23R,3.500000X3.500000*%
%TD*%
%TA.AperFunction,ComponentPad*%
%ADD24RoundRect,0.750000X-1.000000X0.750000X-1.000000X-0.750000X1.000000X-0.750000X1.000000X0.750000X0*%
%TD*%
%TA.AperFunction,ComponentPad*%
%ADD25RoundRect,0.875000X-0.875000X0.875000X-0.875000X-0.875000X0.875000X-0.875000X0.875000X0.875000X0*%
%TD*%
%TA.AperFunction,ComponentPad*%
%ADD26RoundRect,0.250000X0.725000X-0.600000X0.725000X0.600000X-0.725000X0.600000X-0.725000X-0.600000X0*%
%TD*%
%TA.AperFunction,ComponentPad*%
%ADD27R,1.800000X1.800000*%
%TD*%
%TA.AperFunction,ComponentPad*%
%ADD28C,1.800000*%
%TD*%
%TA.AperFunction,Conductor*%
%ADD29C,0.250000*%
%TD*%
G04 APERTURE END LIST*
D10*
%TO.P,C1,1*%
%TO.N,+12V*%
X118999000Y-107354380D03*
D11*
%TO.P,C1,2*%
%TO.N,GND*%
X118999000Y-104854380D03*
%TD*%
%TO.P,C3,1*%
%TO.N,+5V*%
X182499000Y-84836000D03*
%TO.P,C3,2*%
%TO.N,GND*%
X177499000Y-84836000D03*
%TD*%
D10*
%TO.P,A2,1,GND*%
%TO.N,GND*%
X126756000Y-98171000D03*
D12*
%TO.P,A2,2,VDD*%
%TO.N,+5V*%
X126756000Y-100711000D03*
%TO.P,A2,3,1B*%
%TO.N,/1B*%
X126756000Y-103251000D03*
%TO.P,A2,4,1A*%
%TO.N,/1A*%
X126756000Y-105791000D03*
%TO.P,A2,5,2A*%
%TO.N,/2A*%
X126756000Y-108331000D03*
%TO.P,A2,6,2B*%
%TO.N,/2B*%
X126756000Y-110871000D03*
%TO.P,A2,7,GND*%
%TO.N,GND*%
X126756000Y-113411000D03*
%TO.P,A2,8,VMOT*%
%TO.N,+12V*%
X126756000Y-115951000D03*
%TO.P,A2,9,~{ENABLE}*%
%TO.N,unconnected-(A2-Pad9)*%
X139456000Y-115951000D03*
%TO.P,A2,10,MS1*%
%TO.N,unconnected-(A2-Pad10)*%
X139456000Y-113411000D03*
%TO.P,A2,11,MS2*%
%TO.N,unconnected-(A2-Pad11)*%
X139456000Y-110871000D03*
%TO.P,A2,12,MS3*%
%TO.N,unconnected-(A2-Pad12)*%
X139456000Y-108331000D03*
%TO.P,A2,13,~{RESET}*%
%TO.N,Net-(A2-Pad13)*%
X139456000Y-105791000D03*
%TO.P,A2,14,~{SLEEP}*%
X139456000Y-103251000D03*
%TO.P,A2,15,STEP*%
%TO.N,/STEP*%
X139456000Y-100711000D03*
%TO.P,A2,16,DIR*%
%TO.N,/DIR*%
X139456000Y-98171000D03*
%TD*%
D13*
%TO.P,J3,1,Pin_1*%
%TO.N,GND*%
X149733000Y-112141000D03*
D14*
%TO.P,J3,2,Pin_2*%
%TO.N,+5V*%
X149733000Y-114641000D03*
%TD*%
D15*
%TO.P,F1,1*%
%TO.N,Net-(F1-Pad1)*%
X133445000Y-72256000D03*
%TO.P,F1,2*%
%TO.N,Net-(F1-Pad2)*%
X133445000Y-87256000D03*
%TD*%
D10*
%TO.P,C2,1*%
%TO.N,+5V*%
X181483000Y-75565000D03*
D11*
%TO.P,C2,2*%
%TO.N,GND*%
X178983000Y-75565000D03*
%TD*%
D16*
%TO.P,J1,1,Pin_1*%
%TO.N,/RotCLK*%
X149506000Y-75391000D03*
D17*
%TO.P,J1,2,Pin_2*%
%TO.N,/RotDT*%
X149506000Y-77891000D03*
%TO.P,J1,3,Pin_3*%
%TO.N,/RotSW*%
X149506000Y-80391000D03*
%TO.P,J1,4,Pin_4*%
%TO.N,+5V*%
X149506000Y-82891000D03*
%TO.P,J1,5,Pin_5*%
%TO.N,GND*%
X149506000Y-85391000D03*
%TD*%
D10*
%TO.P,A1,1,D1/TX*%
%TO.N,unconnected-(A1-Pad1)*%
X157617000Y-75692000D03*
D12*
%TO.P,A1,2,D0/RX*%
%TO.N,unconnected-(A1-Pad2)*%
X157617000Y-78232000D03*
%TO.P,A1,3,~{RESET}*%
%TO.N,unconnected-(A1-Pad3)*%
X157617000Y-80772000D03*
%TO.P,A1,4,GND*%
%TO.N,GND*%
X157617000Y-83312000D03*
%TO.P,A1,5,D2*%
%TO.N,/RotCLK*%
X157617000Y-85852000D03*
%TO.P,A1,6,D3*%
%TO.N,/RotDT*%
X157617000Y-88392000D03*
%TO.P,A1,7,D4*%
%TO.N,/RotSW*%
X157617000Y-90932000D03*
%TO.P,A1,8,D5*%
%TO.N,/LEDBL*%
X157617000Y-93472000D03*
%TO.P,A1,9,D6*%
%TO.N,/LEDRD*%
X157617000Y-96012000D03*
%TO.P,A1,10,D7*%
%TO.N,/LEDGR*%
X157617000Y-98552000D03*
%TO.P,A1,11,D8*%
%TO.N,/TRKSW*%
X157617000Y-101092000D03*
%TO.P,A1,12,D9*%
%TO.N,/SLEWSW*%
X157617000Y-103632000D03*
%TO.P,A1,13,D10*%
%TO.N,/DIR*%
X157617000Y-106172000D03*
%TO.P,A1,14,D11*%
%TO.N,/STEP*%
X157617000Y-108712000D03*
%TO.P,A1,15,D12*%
%TO.N,unconnected-(A1-Pad15)*%
X157617000Y-111252000D03*
%TO.P,A1,16,D13*%
%TO.N,unconnected-(A1-Pad16)*%
X172857000Y-111252000D03*
%TO.P,A1,17,3V3*%
%TO.N,unconnected-(A1-Pad17)*%
X172857000Y-108712000D03*
%TO.P,A1,18,AREF*%
%TO.N,unconnected-(A1-Pad18)*%
X172857000Y-106172000D03*
%TO.P,A1,19,A0*%
%TO.N,unconnected-(A1-Pad19)*%
X172857000Y-103632000D03*
%TO.P,A1,20,A1*%
%TO.N,unconnected-(A1-Pad20)*%
X172857000Y-101092000D03*
%TO.P,A1,21,A2*%
%TO.N,unconnected-(A1-Pad21)*%
X172857000Y-98552000D03*
%TO.P,A1,22,A3*%
%TO.N,unconnected-(A1-Pad22)*%
X172857000Y-96012000D03*
%TO.P,A1,23,A4*%
%TO.N,unconnected-(A1-Pad23)*%
X172857000Y-93472000D03*
%TO.P,A1,24,A5*%
%TO.N,unconnected-(A1-Pad24)*%
X172857000Y-90932000D03*
%TO.P,A1,25,A6*%
%TO.N,unconnected-(A1-Pad25)*%
X172857000Y-88392000D03*
%TO.P,A1,26,A7*%
%TO.N,unconnected-(A1-Pad26)*%
X172857000Y-85852000D03*
%TO.P,A1,27,+5V*%
%TO.N,+5V*%
X172857000Y-83312000D03*
%TO.P,A1,28,~{RESET}*%
%TO.N,unconnected-(A1-Pad28)*%
X172857000Y-80772000D03*
%TO.P,A1,29,GND*%
%TO.N,GND*%
X172857000Y-78232000D03*
%TO.P,A1,30,VIN*%
%TO.N,unconnected-(A1-Pad30)*%
X172857000Y-75692000D03*
%TD*%
D11*
%TO.P,C4,1*%
%TO.N,+5V*%
X181209000Y-92964000D03*
%TO.P,C4,2*%
%TO.N,GND*%
X178709000Y-92964000D03*
%TD*%
D18*
%TO.P,U1,1,Vin*%
%TO.N,+12V*%
X157607000Y-61087000D03*
D19*
%TO.P,U1,2,GND*%
%TO.N,GND*%
X157607000Y-63627000D03*
%TO.P,U1,3,Vout*%
%TO.N,+5V*%
X180467000Y-61087000D03*
%TO.P,U1,4,GND*%
%TO.N,GND*%
X180467000Y-63627000D03*
%TD*%
D20*
%TO.P,J6,1,Pin_1*%
%TO.N,+12V*%
X149479000Y-63119000D03*
D21*
%TO.P,J6,2,Pin_2*%
%TO.N,Net-(F1-Pad2)*%
X146979000Y-63119000D03*
%TD*%
D22*
%TO.P,R1,1*%
%TO.N,GND*%
X144907000Y-52959000D03*
%TO.P,R1,2*%
%TO.N,Net-(D1-Pad1)*%
X144907000Y-50959000D03*
%TD*%
D23*
%TO.P,J5,1*%
%TO.N,Net-(F1-Pad1)*%
X133545500Y-57435000D03*
D24*
%TO.P,J5,2*%
%TO.N,GND*%
X133545500Y-51435000D03*
D25*
%TO.P,J5,3*%
%TO.N,N/C*%
X128845500Y-54435000D03*
%TD*%
D16*
%TO.P,J2,1,Pin_1*%
%TO.N,/LEDBL*%
X149760000Y-94441000D03*
D17*
%TO.P,J2,2,Pin_2*%
%TO.N,/LEDRD*%
X149760000Y-96941000D03*
%TO.P,J2,3,Pin_3*%
%TO.N,/LEDGR*%
X149760000Y-99441000D03*
%TO.P,J2,4,Pin_4*%
%TO.N,/TRKSW*%
X149760000Y-101941000D03*
%TO.P,J2,5,Pin_5*%
%TO.N,/SLEWSW*%
X149760000Y-104441000D03*
%TD*%
D26*
%TO.P,J4,1,Pin_1*%
%TO.N,/2B*%
X118220000Y-58614000D03*
D17*
%TO.P,J4,2,Pin_2*%
%TO.N,/2A*%
X118220000Y-56114000D03*
%TO.P,J4,3,Pin_3*%
%TO.N,/1A*%
X118220000Y-53614000D03*
%TO.P,J4,4,Pin_4*%
%TO.N,/1B*%
X118220000Y-51114000D03*
%TD*%
D27*
%TO.P,D1,1,K*%
%TO.N,Net-(D1-Pad1)*%
X150363000Y-51181000D03*
D28*
%TO.P,D1,2,A*%
%TO.N,+5V*%
X152903000Y-51181000D03*
%TD*%
D29*
%TO.N,/RotCLK*%
X154432000Y-79502000D02*
X154432000Y-82667000D01*
X149506000Y-75391000D02*
X150321000Y-75391000D01*
X154432000Y-82667000D02*
X157617000Y-85852000D01*
X150321000Y-75391000D02*
X154432000Y-79502000D01*
%TO.N,/RotDT*%
X149506000Y-77891000D02*
X150789000Y-77891000D01*
X153289000Y-84064000D02*
X157617000Y-88392000D01*
X153289000Y-80391000D02*
X153289000Y-84064000D01*
X150789000Y-77891000D02*
X153289000Y-80391000D01*
%TO.N,/RotSW*%
X149506000Y-80391000D02*
X151892000Y-82777000D01*
X151892000Y-85207000D02*
X157617000Y-90932000D01*
X151892000Y-82777000D02*
X151892000Y-85207000D01*
%TO.N,/LEDBL*%
X157617000Y-93472000D02*
X150729000Y-93472000D01*
X150729000Y-93472000D02*
X149760000Y-94441000D01*
%TO.N,/LEDRD*%
X157617000Y-96012000D02*
X150689000Y-96012000D01*
X150689000Y-96012000D02*
X149760000Y-96941000D01*
%TO.N,/LEDGR*%
X157617000Y-98552000D02*
X150649000Y-98552000D01*
X150649000Y-98552000D02*
X149760000Y-99441000D01*
%TO.N,/TRKSW*%
X150609000Y-101092000D02*
X149760000Y-101941000D01*
X157617000Y-101092000D02*
X150609000Y-101092000D01*
%TO.N,/SLEWSW*%
X157617000Y-103632000D02*
X150569000Y-103632000D01*
X150569000Y-103632000D02*
X149760000Y-104441000D01*
%TO.N,/STEP*%
X143129000Y-107188000D02*
X144653000Y-108712000D01*
X139456000Y-100711000D02*
X143129000Y-104384000D01*
X144653000Y-108712000D02*
X157617000Y-108712000D01*
X143129000Y-104384000D02*
X143129000Y-107188000D01*
%TO.N,/DIR*%
X155829000Y-106172000D02*
X157617000Y-106172000D01*
X139456000Y-98171000D02*
X143637000Y-102352000D01*
X143637000Y-106172000D02*
X145161000Y-107696000D01*
X145161000Y-107696000D02*
X154305000Y-107696000D01*
X154305000Y-107696000D02*
X155829000Y-106172000D01*
X143637000Y-102352000D02*
X143637000Y-106172000D01*
%TO.N,+5V*%
X174879000Y-55245000D02*
X174879000Y-55499000D01*
X174879000Y-55499000D02*
X180467000Y-61087000D01*
X158369000Y-55245000D02*
X174879000Y-55245000D01*
X152903000Y-51181000D02*
X154305000Y-51181000D01*
X154305000Y-51181000D02*
X158369000Y-55245000D01*
%TO.N,/1B*%
X122428000Y-55322000D02*
X122428000Y-98923000D01*
X122428000Y-98923000D02*
X126756000Y-103251000D01*
X118220000Y-51114000D02*
X122428000Y-55322000D01*
%TO.N,/1A*%
X121412000Y-100447000D02*
X126756000Y-105791000D01*
X118220000Y-53614000D02*
X121412000Y-56806000D01*
X121412000Y-56806000D02*
X121412000Y-100447000D01*
%TO.N,/2A*%
X118220000Y-56114000D02*
X118220000Y-56117000D01*
X118220000Y-56117000D02*
X120523000Y-58420000D01*
X120523000Y-102098000D02*
X126756000Y-108331000D01*
X120523000Y-58420000D02*
X120523000Y-102098000D01*
%TO.N,/2B*%
X119761000Y-103876000D02*
X126756000Y-110871000D01*
X118220000Y-58614000D02*
X119761000Y-60155000D01*
X119761000Y-60155000D02*
X119761000Y-103876000D01*
%TO.N,+12V*%
X154432000Y-61087000D02*
X157607000Y-61087000D01*
X126756000Y-115951000D02*
X118999000Y-108194000D01*
X118999000Y-108194000D02*
X118999000Y-107354380D01*
X152400000Y-63119000D02*
X154432000Y-61087000D01*
X126756000Y-115951000D02*
X136535000Y-106172000D01*
X136535000Y-106172000D02*
X136652000Y-106172000D01*
X136652000Y-106172000D02*
X136652000Y-80391000D01*
X136652000Y-80391000D02*
X149479000Y-67564000D01*
X149479000Y-67564000D02*
X149479000Y-63119000D01*
X149479000Y-63119000D02*
X152400000Y-63119000D01*
%TO.N,Net-(A2-Pad13)*%
X139456000Y-105791000D02*
X139456000Y-103251000D01*
%TO.N,Net-(D1-Pad1)*%
X150363000Y-51181000D02*
X145129000Y-51181000D01*
X145129000Y-51181000D02*
X144907000Y-50959000D01*
%TO.N,Net-(F1-Pad1)*%
X133545500Y-72155500D02*
X133445000Y-72256000D01*
X133545500Y-57435000D02*
X133545500Y-72155500D01*
%TO.N,Net-(F1-Pad2)*%
X133445000Y-87256000D02*
X133445000Y-79915000D01*
X146979000Y-66381000D02*
X146979000Y-63119000D01*
X133445000Y-79915000D02*
X146979000Y-66381000D01*
%TD*%
%TA.AperFunction,Conductor*%
%TO.N,GND*%
G36*
X183463621Y-47035502D02*
G01*
X183510114Y-47089158D01*
X183521500Y-47141500D01*
X183521500Y-83712535D01*
X183501498Y-83780656D01*
X183447842Y-83827149D01*
X183377568Y-83837253D01*
X183323229Y-83815748D01*
X183292775Y-83794424D01*
X183155749Y-83698477D01*
X183150767Y-83696154D01*
X183150762Y-83696151D01*
X182953225Y-83604039D01*
X182953224Y-83604039D01*
X182948243Y-83601716D01*
X182942935Y-83600294D01*
X182942933Y-83600293D01*
X182732402Y-83543881D01*
X182732400Y-83543881D01*
X182727087Y-83542457D01*
X182499000Y-83522502D01*
X182270913Y-83542457D01*
X182265600Y-83543881D01*
X182265598Y-83543881D01*
X182055067Y-83600293D01*
X182055065Y-83600294D01*
X182049757Y-83601716D01*
X182044776Y-83604039D01*
X182044775Y-83604039D01*
X181847238Y-83696151D01*
X181847233Y-83696154D01*
X181842251Y-83698477D01*
X181768757Y-83749938D01*
X181659211Y-83826643D01*
X181659208Y-83826645D01*
X181654700Y-83829802D01*
X181492802Y-83991700D01*
X181489645Y-83996208D01*
X181489643Y-83996211D01*
X181464003Y-84032829D01*
X181361477Y-84179251D01*
X181359154Y-84184233D01*
X181359151Y-84184238D01*
X181280001Y-84353978D01*
X181264716Y-84386757D01*
X181263294Y-84392065D01*
X181263293Y-84392067D01*
X181218709Y-84558457D01*
X181205457Y-84607913D01*
X181185502Y-84836000D01*
X181205457Y-85064087D01*
X181206881Y-85069400D01*
X181206881Y-85069402D01*
X181255485Y-85250791D01*
X181264716Y-85285243D01*
X181267039Y-85290224D01*
X181267039Y-85290225D01*
X181359151Y-85487762D01*
X181359154Y-85487767D01*
X181361477Y-85492749D01*
X181400312Y-85548211D01*
X181478294Y-85659580D01*
X181492802Y-85680300D01*
X181654700Y-85842198D01*
X181659208Y-85845355D01*
X181659211Y-85845357D01*
X181676532Y-85857485D01*
X181842251Y-85973523D01*
X181847233Y-85975846D01*
X181847238Y-85975849D01*
X182043765Y-86067490D01*
X182049757Y-86070284D01*
X182055065Y-86071706D01*
X182055067Y-86071707D01*
X182265598Y-86128119D01*
X182265600Y-86128119D01*
X182270913Y-86129543D01*
X182499000Y-86149498D01*
X182727087Y-86129543D01*
X182732400Y-86128119D01*
X182732402Y-86128119D01*
X182942933Y-86071707D01*
X182942935Y-86071706D01*
X182948243Y-86070284D01*
X182954235Y-86067490D01*
X183150762Y-85975849D01*
X183150767Y-85975846D01*
X183155749Y-85973523D01*
X183323229Y-85856252D01*
X183390503Y-85833564D01*
X183459364Y-85850849D01*
X183507948Y-85902619D01*
X183521500Y-85959465D01*
X183521500Y-118872500D01*
X183501498Y-118940621D01*
X183447842Y-118987114D01*
X183395500Y-118998500D01*
X113664500Y-118998500D01*
X113596379Y-118978498D01*
X113549886Y-118924842D01*
X113538500Y-118872500D01*
X113538500Y-114507000D01*
X115816761Y-114507000D01*
X115817031Y-114511119D01*
X115832686Y-114749959D01*
X115835696Y-114795886D01*
X115836500Y-114799926D01*
X115836500Y-114799929D01*
X115883806Y-115037752D01*
X115892175Y-115079828D01*
X115893501Y-115083734D01*
X115893502Y-115083738D01*
X115917336Y-115153949D01*
X115985234Y-115353970D01*
X115987055Y-115357663D01*
X115987056Y-115357665D01*
X116029788Y-115444317D01*
X116113279Y-115613619D01*
X116274119Y-115854335D01*
X116276831Y-115857427D01*
X116276836Y-115857434D01*
X116388640Y-115984920D01*
X116465004Y-116071996D01*
X116468093Y-116074705D01*
X116679565Y-116260163D01*
X116679571Y-116260168D01*
X116682665Y-116262881D01*
X116923380Y-116423721D01*
X116927079Y-116425545D01*
X116927084Y-116425548D01*
X117179335Y-116549944D01*
X117183030Y-116551766D01*
X117186928Y-116553089D01*
X117186930Y-116553090D01*
X117453262Y-116643498D01*
X117453266Y-116643499D01*
X117457172Y-116644825D01*
X117461216Y-116645629D01*
X117461222Y-116645631D01*
X117737071Y-116700500D01*
X117737074Y-116700500D01*
X117741114Y-116701304D01*
X117745225Y-116701573D01*
X117745229Y-116701574D01*
X118025881Y-116719969D01*
X118030000Y-116720239D01*
X118034119Y-116719969D01*
X118314771Y-116701574D01*
X118314775Y-116701573D01*
X118318886Y-116701304D01*
X118322926Y-116700500D01*
X118322929Y-116700500D01*
X118598778Y-116645631D01*
X118598784Y-116645629D01*
X118602828Y-116644825D01*
X118606734Y-116643499D01*
X118606738Y-116643498D01*
X118873070Y-116553090D01*
X118873072Y-116553089D01*
X118876970Y-116551766D01*
X118880665Y-116549944D01*
X119132916Y-116425548D01*
X119132921Y-116425545D01*
X119136620Y-116423721D01*
X119377335Y-116262881D01*
X119380429Y-116260168D01*
X119380435Y-116260163D01*
X119591907Y-116074705D01*
X119594996Y-116071996D01*
X119671360Y-115984920D01*
X119783164Y-115857434D01*
X119783169Y-115857427D01*
X119785881Y-115854335D01*
X119946721Y-115613619D01*
X120030212Y-115444317D01*
X120072944Y-115357665D01*
X120072945Y-115357663D01*
X120074766Y-115353970D01*
X120142664Y-115153949D01*
X120166498Y-115083738D01*
X120166499Y-115083734D01*
X120167825Y-115079828D01*
X120176195Y-115037752D01*
X120223500Y-114799929D01*
X120223500Y-114799926D01*
X120224304Y-114795886D01*
X120227315Y-114749959D01*
X120242969Y-114511119D01*
X120243239Y-114507000D01*
X120226997Y-114259197D01*
X120224574Y-114222229D01*
X120224573Y-114222225D01*
X120224304Y-114218114D01*
X120223500Y-114214071D01*
X120168631Y-113938222D01*
X120168629Y-113938216D01*
X120167825Y-113934172D01*
X120165492Y-113927297D01*
X120076090Y-113663930D01*
X120076089Y-113663928D01*
X120074766Y-113660030D01*
X120061927Y-113633994D01*
X119961191Y-113429723D01*
X119946721Y-113400381D01*
X119785881Y-113159665D01*
X119783169Y-113156573D01*
X119783164Y-113156566D01*
X119597705Y-112945093D01*
X119594996Y-112942004D01*
X119534459Y-112888914D01*
X119380435Y-112753837D01*
X119380429Y-112753832D01*
X119377335Y-112751119D01*
X119136620Y-112590279D01*
X119132921Y-112588455D01*
X119132916Y-112588452D01*
X118880665Y-112464056D01*
X118880663Y-112464055D01*
X118876970Y-112462234D01*
X118718817Y-112408548D01*
X118606738Y-112370502D01*
X118606734Y-112370501D01*
X118602828Y-112369175D01*
X118598784Y-112368371D01*
X118598778Y-112368369D01*
X118322929Y-112313500D01*
X118322926Y-112313500D01*
X118318886Y-112312696D01*
X118314775Y-112312427D01*
X118314771Y-112312426D01*
X118034119Y-112294031D01*
X118030000Y-112293761D01*
X118025881Y-112294031D01*
X117745229Y-112312426D01*
X117745225Y-112312427D01*
X117741114Y-112312696D01*
X117737074Y-112313500D01*
X117737071Y-112313500D01*
X117461222Y-112368369D01*
X117461216Y-112368371D01*
X117457172Y-112369175D01*
X117453266Y-112370501D01*
X117453262Y-112370502D01*
X117341183Y-112408548D01*
X117183030Y-112462234D01*
X117179337Y-112464055D01*
X117179335Y-112464056D01*
X117131376Y-112487707D01*
X116923381Y-112590279D01*
X116682665Y-112751119D01*
X116679573Y-112753831D01*
X116679566Y-112753836D01*
X116525541Y-112888914D01*
X116465004Y-112942004D01*
X116462295Y-112945093D01*
X116276836Y-113156566D01*
X116276831Y-113156573D01*
X116274119Y-113159665D01*
X116113279Y-113400381D01*
X116098809Y-113429723D01*
X115998074Y-113633994D01*
X115985234Y-113660030D01*
X115983911Y-113663928D01*
X115983910Y-113663930D01*
X115894509Y-113927297D01*
X115892175Y-113934172D01*
X115891371Y-113938216D01*
X115891369Y-113938222D01*
X115836500Y-114214071D01*
X115835696Y-114218114D01*
X115835427Y-114222225D01*
X115835426Y-114222229D01*
X115826821Y-114353516D01*
X115818805Y-114475810D01*
X115816761Y-114507000D01*
X113538500Y-114507000D01*
X113538500Y-108202514D01*
X117690500Y-108202514D01*
X117697255Y-108264696D01*
X117748385Y-108401085D01*
X117835739Y-108517641D01*
X117952295Y-108604995D01*
X118088684Y-108656125D01*
X118150866Y-108662880D01*
X118519786Y-108662880D01*
X118587907Y-108682882D01*
X118608881Y-108699785D01*
X125446848Y-115537752D01*
X125480874Y-115600064D01*
X125479459Y-115659459D01*
X125463882Y-115717591D01*
X125463881Y-115717598D01*
X125462457Y-115722913D01*
X125442502Y-115951000D01*
X125462457Y-116179087D01*
X125521716Y-116400243D01*
X125524039Y-116405224D01*
X125524039Y-116405225D01*
X125616151Y-116602762D01*
X125616154Y-116602767D01*
X125618477Y-116607749D01*
X125683422Y-116700500D01*
X125697055Y-116719969D01*
X125749802Y-116795300D01*
X125911700Y-116957198D01*
X125916208Y-116960355D01*
X125916211Y-116960357D01*
X125994389Y-117015098D01*
X126099251Y-117088523D01*
X126104233Y-117090846D01*
X126104238Y-117090849D01*
X126301775Y-117182961D01*
X126306757Y-117185284D01*
X126312065Y-117186706D01*
X126312067Y-117186707D01*
X126522598Y-117243119D01*
X126522600Y-117243119D01*
X126527913Y-117244543D01*
X126756000Y-117264498D01*
X126984087Y-117244543D01*
X126989400Y-117243119D01*
X126989402Y-117243119D01*
X127199933Y-117186707D01*
X127199935Y-117186706D01*
X127205243Y-117185284D01*
X127210225Y-117182961D01*
X127407762Y-117090849D01*
X127407767Y-117090846D01*
X127412749Y-117088523D01*
X127517611Y-117015098D01*
X127595789Y-116960357D01*
X127595792Y-116960355D01*
X127600300Y-116957198D01*
X127762198Y-116795300D01*
X127814946Y-116719969D01*
X127828578Y-116700500D01*
X127893523Y-116607749D01*
X127895846Y-116602767D01*
X127895849Y-116602762D01*
X127987961Y-116405225D01*
X127987961Y-116405224D01*
X127990284Y-116400243D01*
X128049543Y-116179087D01*
X128069498Y-115951000D01*
X138142502Y-115951000D01*
X138162457Y-116179087D01*
X138221716Y-116400243D01*
X138224039Y-116405224D01*
X138224039Y-116405225D01*
X138316151Y-116602762D01*
X138316154Y-116602767D01*
X138318477Y-116607749D01*
X138383422Y-116700500D01*
X138397055Y-116719969D01*
X138449802Y-116795300D01*
X138611700Y-116957198D01*
X138616208Y-116960355D01*
X138616211Y-116960357D01*
X138694389Y-117015098D01*
X138799251Y-117088523D01*
X138804233Y-117090846D01*
X138804238Y-117090849D01*
X139001775Y-117182961D01*
X139006757Y-117185284D01*
X139012065Y-117186706D01*
X139012067Y-117186707D01*
X139222598Y-117243119D01*
X139222600Y-117243119D01*
X139227913Y-117244543D01*
X139456000Y-117264498D01*
X139684087Y-117244543D01*
X139689400Y-117243119D01*
X139689402Y-117243119D01*
X139899933Y-117186707D01*
X139899935Y-117186706D01*
X139905243Y-117185284D01*
X139910225Y-117182961D01*
X140107762Y-117090849D01*
X140107767Y-117090846D01*
X140112749Y-117088523D01*
X140217611Y-117015098D01*
X140295789Y-116960357D01*
X140295792Y-116960355D01*
X140300300Y-116957198D01*
X140462198Y-116795300D01*
X140514946Y-116719969D01*
X140528578Y-116700500D01*
X140593523Y-116607749D01*
X140595846Y-116602767D01*
X140595849Y-116602762D01*
X140687961Y-116405225D01*
X140687961Y-116405224D01*
X140690284Y-116400243D01*
X140749543Y-116179087D01*
X140769498Y-115951000D01*
X140749543Y-115722913D01*
X140734180Y-115665579D01*
X140691707Y-115507067D01*
X140691706Y-115507065D01*
X140690284Y-115501757D01*
X140665379Y-115448347D01*
X140595849Y-115299238D01*
X140595846Y-115299233D01*
X140593523Y-115294251D01*
X140462198Y-115106700D01*
X140300300Y-114944802D01*
X140295792Y-114941645D01*
X140295789Y-114941643D01*
X140217611Y-114886902D01*
X140112749Y-114813477D01*
X140107767Y-114811154D01*
X140107762Y-114811151D01*
X140073543Y-114795195D01*
X140020258Y-114748278D01*
X140000797Y-114680001D01*
X140021339Y-114612041D01*
X140062038Y-114576774D01*
X148221102Y-114576774D01*
X148229751Y-114807158D01*
X148277093Y-115032791D01*
X148279051Y-115037750D01*
X148279052Y-115037752D01*
X148335969Y-115181873D01*
X148361776Y-115247221D01*
X148364543Y-115251780D01*
X148364544Y-115251783D01*
X148393341Y-115299238D01*
X148481377Y-115444317D01*
X148484874Y-115448347D01*
X148625071Y-115609910D01*
X148632477Y-115618445D01*
X148636608Y-115621832D01*
X148806627Y-115761240D01*
X148806633Y-115761244D01*
X148810755Y-115764624D01*
X148815391Y-115767263D01*
X148815394Y-115767265D01*
X148924422Y-115829327D01*
X149011114Y-115878675D01*
X149227825Y-115957337D01*
X149233074Y-115958286D01*
X149233077Y-115958287D01*
X149450608Y-115997623D01*
X149450615Y-115997624D01*
X149454692Y-115998361D01*
X149472414Y-115999197D01*
X149477356Y-115999430D01*
X149477363Y-115999430D01*
X149478844Y-115999500D01*
X149940890Y-115999500D01*
X150007809Y-115993822D01*
X150107409Y-115985371D01*
X150107413Y-115985370D01*
X150112720Y-115984920D01*
X150117875Y-115983582D01*
X150117881Y-115983581D01*
X150330703Y-115928343D01*
X150330707Y-115928342D01*
X150335872Y-115927001D01*
X150340738Y-115924809D01*
X150340741Y-115924808D01*
X150541202Y-115834507D01*
X150546075Y-115832312D01*
X150737319Y-115703559D01*
X150904135Y-115544424D01*
X150931930Y-115507067D01*
X151038568Y-115363740D01*
X151041754Y-115359458D01*
X151044545Y-115353970D01*
X151101342Y-115242256D01*
X151146240Y-115153949D01*
X151160912Y-115106700D01*
X151213024Y-114938871D01*
X151214607Y-114933773D01*
X151218456Y-114904731D01*
X151244198Y-114710511D01*
X151244198Y-114710506D01*
X151244898Y-114705226D01*
X151237456Y-114507000D01*
X176816761Y-114507000D01*
X176817031Y-114511119D01*
X176832686Y-114749959D01*
X176835696Y-114795886D01*
X176836500Y-114799926D01*
X176836500Y-114799929D01*
X176883806Y-115037752D01*
X176892175Y-115079828D01*
X176893501Y-115083734D01*
X176893502Y-115083738D01*
X176917336Y-115153949D01*
X176985234Y-115353970D01*
X176987055Y-115357663D01*
X176987056Y-115357665D01*
X177029788Y-115444317D01*
X177113279Y-115613619D01*
X177274119Y-115854335D01*
X177276831Y-115857427D01*
X177276836Y-115857434D01*
X177388640Y-115984920D01*
X177465004Y-116071996D01*
X177468093Y-116074705D01*
X177679565Y-116260163D01*
X177679571Y-116260168D01*
X177682665Y-116262881D01*
X177923380Y-116423721D01*
X177927079Y-116425545D01*
X177927084Y-116425548D01*
X178179335Y-116549944D01*
X178183030Y-116551766D01*
X178186928Y-116553089D01*
X178186930Y-116553090D01*
X178453262Y-116643498D01*
X178453266Y-116643499D01*
X178457172Y-116644825D01*
X178461216Y-116645629D01*
X178461222Y-116645631D01*
X178737071Y-116700500D01*
X178737074Y-116700500D01*
X178741114Y-116701304D01*
X178745225Y-116701573D01*
X178745229Y-116701574D01*
X179025881Y-116719969D01*
X179030000Y-116720239D01*
X179034119Y-116719969D01*
X179314771Y-116701574D01*
X179314775Y-116701573D01*
X179318886Y-116701304D01*
X179322926Y-116700500D01*
X179322929Y-116700500D01*
X179598778Y-116645631D01*
X179598784Y-116645629D01*
X179602828Y-116644825D01*
X179606734Y-116643499D01*
X179606738Y-116643498D01*
X179873070Y-116553090D01*
X179873072Y-116553089D01*
X179876970Y-116551766D01*
X179880665Y-116549944D01*
X180132916Y-116425548D01*
X180132921Y-116425545D01*
X180136620Y-116423721D01*
X180377335Y-116262881D01*
X180380429Y-116260168D01*
X180380435Y-116260163D01*
X180591907Y-116074705D01*
X180594996Y-116071996D01*
X180671360Y-115984920D01*
X180783164Y-115857434D01*
X180783169Y-115857427D01*
X180785881Y-115854335D01*
X180946721Y-115613619D01*
X181030212Y-115444317D01*
X181072944Y-115357665D01*
X181072945Y-115357663D01*
X181074766Y-115353970D01*
X181142664Y-115153949D01*
X181166498Y-115083738D01*
X181166499Y-115083734D01*
X181167825Y-115079828D01*
X181176195Y-115037752D01*
X181223500Y-114799929D01*
X181223500Y-114799926D01*
X181224304Y-114795886D01*
X181227315Y-114749959D01*
X181242969Y-114511119D01*
X181243239Y-114507000D01*
X181226997Y-114259197D01*
X181224574Y-114222229D01*
X181224573Y-114222225D01*
X181224304Y-114218114D01*
X181223500Y-114214071D01*
X181168631Y-113938222D01*
X181168629Y-113938216D01*
X181167825Y-113934172D01*
X181165492Y-113927297D01*
X181076090Y-113663930D01*
X181076089Y-113663928D01*
X181074766Y-113660030D01*
X181061927Y-113633994D01*
X180961191Y-113429723D01*
X180946721Y-113400381D01*
X180785881Y-113159665D01*
X180783169Y-113156573D01*
X180783164Y-113156566D01*
X180597705Y-112945093D01*
X180594996Y-112942004D01*
X180534459Y-112888914D01*
X180380435Y-112753837D01*
X180380429Y-112753832D01*
X180377335Y-112751119D01*
X180136620Y-112590279D01*
X180132921Y-112588455D01*
X180132916Y-112588452D01*
X179880665Y-112464056D01*
X179880663Y-112464055D01*
X179876970Y-112462234D01*
X179718817Y-112408548D01*
X179606738Y-112370502D01*
X179606734Y-112370501D01*
X179602828Y-112369175D01*
X179598784Y-112368371D01*
X179598778Y-112368369D01*
X179322929Y-112313500D01*
X179322926Y-112313500D01*
X179318886Y-112312696D01*
X179314775Y-112312427D01*
X179314771Y-112312426D01*
X179034119Y-112294031D01*
X179030000Y-112293761D01*
X179025881Y-112294031D01*
X178745229Y-112312426D01*
X178745225Y-112312427D01*
X178741114Y-112312696D01*
X178737074Y-112313500D01*
X178737071Y-112313500D01*
X178461222Y-112368369D01*
X178461216Y-112368371D01*
X178457172Y-112369175D01*
X178453266Y-112370501D01*
X178453262Y-112370502D01*
X178341183Y-112408548D01*
X178183030Y-112462234D01*
X178179337Y-112464055D01*
X178179335Y-112464056D01*
X178131376Y-112487707D01*
X177923381Y-112590279D01*
X177682665Y-112751119D01*
X177679573Y-112753831D01*
X177679566Y-112753836D01*
X177525541Y-112888914D01*
X177465004Y-112942004D01*
X177462295Y-112945093D01*
X177276836Y-113156566D01*
X177276831Y-113156573D01*
X177274119Y-113159665D01*
X177113279Y-113400381D01*
X177098809Y-113429723D01*
X176998074Y-113633994D01*
X176985234Y-113660030D01*
X176983911Y-113663928D01*
X176983910Y-113663930D01*
X176894509Y-113927297D01*
X176892175Y-113934172D01*
X176891371Y-113938216D01*
X176891369Y-113938222D01*
X176836500Y-114214071D01*
X176835696Y-114218114D01*
X176835427Y-114222225D01*
X176835426Y-114222229D01*
X176826821Y-114353516D01*
X176818805Y-114475810D01*
X176816761Y-114507000D01*
X151237456Y-114507000D01*
X151236249Y-114474842D01*
X151188907Y-114249209D01*
X151104224Y-114034779D01*
X151040802Y-113930262D01*
X150987390Y-113842243D01*
X150984623Y-113837683D01*
X150897755Y-113737576D01*
X150837023Y-113667588D01*
X150837021Y-113667586D01*
X150833523Y-113663555D01*
X150810164Y-113644402D01*
X150797471Y-113633994D01*
X150757476Y-113575334D01*
X150755545Y-113504364D01*
X150792290Y-113443616D01*
X150811059Y-113429416D01*
X150950807Y-113342937D01*
X150962208Y-113333901D01*
X151076739Y-113219171D01*
X151085751Y-113207760D01*
X151170816Y-113069757D01*
X151176963Y-113056576D01*
X151228138Y-112902290D01*
X151231005Y-112888914D01*
X151240672Y-112794562D01*
X151241000Y-112788146D01*
X151241000Y-112413115D01*
X151236525Y-112397876D01*
X151235135Y-112396671D01*
X151227452Y-112395000D01*
X148243116Y-112395000D01*
X148227877Y-112399475D01*
X148226672Y-112400865D01*
X148225001Y-112408548D01*
X148225001Y-112788095D01*
X148225338Y-112794614D01*
X148235257Y-112890206D01*
X148238149Y-112903600D01*
X148289588Y-113057784D01*
X148295761Y-113070962D01*
X148381063Y-113208807D01*
X148390099Y-113220208D01*
X148504829Y-113334739D01*
X148516243Y-113343753D01*
X148655713Y-113429723D01*
X148703207Y-113482495D01*
X148714631Y-113552566D01*
X148686357Y-113617690D01*
X148676574Y-113628149D01*
X148561865Y-113737576D01*
X148424246Y-113922542D01*
X148319760Y-114128051D01*
X148318178Y-114133145D01*
X148318177Y-114133148D01*
X148280248Y-114255300D01*
X148251393Y-114348227D01*
X148250692Y-114353516D01*
X148222085Y-114569358D01*
X148221102Y-114576774D01*
X140062038Y-114576774D01*
X140073543Y-114566805D01*
X140107762Y-114550849D01*
X140107767Y-114550846D01*
X140112749Y-114548523D01*
X140225430Y-114469623D01*
X140295789Y-114420357D01*
X140295792Y-114420355D01*
X140300300Y-114417198D01*
X140462198Y-114255300D01*
X140593523Y-114067749D01*
X140595846Y-114062767D01*
X140595849Y-114062762D01*
X140687961Y-113865225D01*
X140687961Y-113865224D01*
X140690284Y-113860243D01*
X140722007Y-113741854D01*
X140748119Y-113644402D01*
X140748119Y-113644400D01*
X140749543Y-113639087D01*
X140769498Y-113411000D01*
X140749543Y-113182913D01*
X140690284Y-112961757D01*
X140663165Y-112903600D01*
X140595849Y-112759238D01*
X140595846Y-112759233D01*
X140593523Y-112754251D01*
X140480315Y-112592573D01*
X140465357Y-112571211D01*
X140465355Y-112571208D01*
X140462198Y-112566700D01*
X140300300Y-112404802D01*
X140295792Y-112401645D01*
X140295789Y-112401643D01*
X140217611Y-112346902D01*
X140112749Y-112273477D01*
X140107767Y-112271154D01*
X140107762Y-112271151D01*
X140073543Y-112255195D01*
X140020258Y-112208278D01*
X140000797Y-112140001D01*
X140021339Y-112072041D01*
X140073543Y-112026805D01*
X140107762Y-112010849D01*
X140107767Y-112010846D01*
X140112749Y-112008523D01*
X140262363Y-111903762D01*
X140295789Y-111880357D01*
X140295792Y-111880355D01*
X140300300Y-111877198D01*
X140308613Y-111868885D01*
X148225000Y-111868885D01*
X148229475Y-111884124D01*
X148230865Y-111885329D01*
X148238548Y-111887000D01*
X149460885Y-111887000D01*
X149476124Y-111882525D01*
X149477329Y-111881135D01*
X149479000Y-111873452D01*
X149479000Y-111868885D01*
X149987000Y-111868885D01*
X149991475Y-111884124D01*
X149992865Y-111885329D01*
X150000548Y-111887000D01*
X151222884Y-111887000D01*
X151238123Y-111882525D01*
X151239328Y-111881135D01*
X151240999Y-111873452D01*
X151240999Y-111493905D01*
X151240662Y-111487386D01*
X151230743Y-111391794D01*
X151227851Y-111378400D01*
X151176412Y-111224216D01*
X151170239Y-111211038D01*
X151084937Y-111073193D01*
X151075901Y-111061792D01*
X150961171Y-110947261D01*
X150949760Y-110938249D01*
X150811757Y-110853184D01*
X150798576Y-110847037D01*
X150644290Y-110795862D01*
X150630914Y-110792995D01*
X150536562Y-110783328D01*
X150530145Y-110783000D01*
X150005115Y-110783000D01*
X149989876Y-110787475D01*
X149988671Y-110788865D01*
X149987000Y-110796548D01*
X149987000Y-111868885D01*
X149479000Y-111868885D01*
X149479000Y-110801116D01*
X149474525Y-110785877D01*
X149473135Y-110784672D01*
X149465452Y-110783001D01*
X148935905Y-110783001D01*
X148929386Y-110783338D01*
X148833794Y-110793257D01*
X148820400Y-110796149D01*
X148666216Y-110847588D01*
X148653038Y-110853761D01*
X148515193Y-110939063D01*
X148503792Y-110948099D01*
X148389261Y-111062829D01*
X148380249Y-111074240D01*
X148295184Y-111212243D01*
X148289037Y-111225424D01*
X148237862Y-111379710D01*
X148234995Y-111393086D01*
X148225328Y-111487438D01*
X148225000Y-111493855D01*
X148225000Y-111868885D01*
X140308613Y-111868885D01*
X140462198Y-111715300D01*
X140468553Y-111706225D01*
X140590366Y-111532257D01*
X140593523Y-111527749D01*
X140595846Y-111522767D01*
X140595849Y-111522762D01*
X140687961Y-111325225D01*
X140687961Y-111325224D01*
X140690284Y-111320243D01*
X140749543Y-111099087D01*
X140769498Y-110871000D01*
X140749543Y-110642913D01*
X140735564Y-110590743D01*
X140691707Y-110427067D01*
X140691706Y-110427065D01*
X140690284Y-110421757D01*
X140610053Y-110249699D01*
X140595849Y-110219238D01*
X140595846Y-110219233D01*
X140593523Y-110214251D01*
X140510859Y-110096195D01*
X140465357Y-110031211D01*
X140465355Y-110031208D01*
X140462198Y-110026700D01*
X140300300Y-109864802D01*
X140295792Y-109861645D01*
X140295789Y-109861643D01*
X140217611Y-109806902D01*
X140112749Y-109733477D01*
X140107767Y-109731154D01*
X140107762Y-109731151D01*
X140073543Y-109715195D01*
X140020258Y-109668278D01*
X140000797Y-109600001D01*
X140021339Y-109532041D01*
X140073543Y-109486805D01*
X140107762Y-109470849D01*
X140107767Y-109470846D01*
X140112749Y-109468523D01*
X140262363Y-109363762D01*
X140295789Y-109340357D01*
X140295792Y-109340355D01*
X140300300Y-109337198D01*
X140462198Y-109175300D01*
X140467021Y-109168413D01*
X140590366Y-108992257D01*
X140593523Y-108987749D01*
X140595846Y-108982767D01*
X140595849Y-108982762D01*
X140687961Y-108785225D01*
X140687961Y-108785224D01*
X140690284Y-108780243D01*
X140721831Y-108662511D01*
X140748119Y-108564402D01*
X140748119Y-108564400D01*
X140749543Y-108559087D01*
X140769498Y-108331000D01*
X140749543Y-108102913D01*
X140735564Y-108050743D01*
X140691707Y-107887067D01*
X140691706Y-107887065D01*
X140690284Y-107881757D01*
X140681912Y-107863803D01*
X140595849Y-107679238D01*
X140595846Y-107679233D01*
X140593523Y-107674251D01*
X140493488Y-107531387D01*
X140465357Y-107491211D01*
X140465355Y-107491208D01*
X140462198Y-107486700D01*
X140300300Y-107324802D01*
X140295792Y-107321645D01*
X140295789Y-107321643D01*
X140175991Y-107237760D01*
X140112749Y-107193477D01*
X140107767Y-107191154D01*
X140107762Y-107191151D01*
X140073543Y-107175195D01*
X140020258Y-107128278D01*
X140000797Y-107060001D01*
X140021339Y-106992041D01*
X140073543Y-106946805D01*
X140107762Y-106930849D01*
X140107767Y-106930846D01*
X140112749Y-106928523D01*
X140288444Y-106805500D01*
X140295789Y-106800357D01*
X140295792Y-106800355D01*
X140300300Y-106797198D01*
X140462198Y-106635300D01*
X140468553Y-106626225D01*
X140542754Y-106520254D01*
X140593523Y-106447749D01*
X140595846Y-106442767D01*
X140595849Y-106442762D01*
X140687961Y-106245225D01*
X140687961Y-106245224D01*
X140690284Y-106240243D01*
X140713905Y-106152091D01*
X140748119Y-106024402D01*
X140748119Y-106024400D01*
X140749543Y-106019087D01*
X140769498Y-105791000D01*
X140749543Y-105562913D01*
X140747028Y-105553526D01*
X140691707Y-105347067D01*
X140691706Y-105347065D01*
X140690284Y-105341757D01*
X140669946Y-105298141D01*
X140595849Y-105139238D01*
X140595846Y-105139233D01*
X140593523Y-105134251D01*
X140510859Y-105016195D01*
X140465357Y-104951211D01*
X140465355Y-104951208D01*
X140462198Y-104946700D01*
X140300300Y-104784802D01*
X140295792Y-104781645D01*
X140295789Y-104781643D01*
X140143229Y-104674819D01*
X140098901Y-104619362D01*
X140089500Y-104571606D01*
X140089500Y-104470394D01*
X140109502Y-104402273D01*
X140143229Y-104367181D01*
X140295789Y-104260357D01*
X140295792Y-104260355D01*
X140300300Y-104257198D01*
X140462198Y-104095300D01*
X140468553Y-104086225D01*
X140579307Y-103928051D01*
X140593523Y-103907749D01*
X140595846Y-103902767D01*
X140595849Y-103902762D01*
X140687961Y-103705225D01*
X140687961Y-103705224D01*
X140690284Y-103700243D01*
X140713502Y-103613595D01*
X140748119Y-103484402D01*
X140748119Y-103484400D01*
X140749543Y-103479087D01*
X140769498Y-103251000D01*
X140769019Y-103245525D01*
X140769019Y-103245514D01*
X140767974Y-103233570D01*
X140781962Y-103163965D01*
X140831361Y-103112973D01*
X140900487Y-103096782D01*
X140967393Y-103120534D01*
X140982589Y-103133493D01*
X142458595Y-104609499D01*
X142492621Y-104671811D01*
X142495500Y-104698594D01*
X142495500Y-107109233D01*
X142494973Y-107120416D01*
X142493298Y-107127909D01*
X142493547Y-107135835D01*
X142493547Y-107135836D01*
X142495438Y-107195986D01*
X142495500Y-107199945D01*
X142495500Y-107227856D01*
X142495997Y-107231790D01*
X142495997Y-107231791D01*
X142496005Y-107231856D01*
X142496938Y-107243693D01*
X142498327Y-107287889D01*
X142503695Y-107306366D01*
X142503978Y-107307339D01*
X142507987Y-107326700D01*
X142510526Y-107346797D01*
X142513445Y-107354168D01*
X142513445Y-107354170D01*
X142526804Y-107387912D01*
X142530649Y-107399142D01*
X142542982Y-107441593D01*
X142547015Y-107448412D01*
X142547017Y-107448417D01*
X142553293Y-107459028D01*
X142561988Y-107476776D01*
X142569448Y-107495617D01*
X142574110Y-107502033D01*
X142574110Y-107502034D01*
X142595436Y-107531387D01*
X142601952Y-107541307D01*
X142624458Y-107579362D01*
X142638779Y-107593683D01*
X142651619Y-107608716D01*
X142663528Y-107625107D01*
X142669634Y-107630158D01*
X142697605Y-107653298D01*
X142706384Y-107661288D01*
X144149343Y-109104247D01*
X144156887Y-109112537D01*
X144161000Y-109119018D01*
X144166777Y-109124443D01*
X144210667Y-109165658D01*
X144213509Y-109168413D01*
X144233230Y-109188134D01*
X144236425Y-109190612D01*
X144245447Y-109198318D01*
X144277679Y-109228586D01*
X144284628Y-109232406D01*
X144295432Y-109238346D01*
X144311956Y-109249199D01*
X144327959Y-109261613D01*
X144368543Y-109279176D01*
X144379173Y-109284383D01*
X144417940Y-109305695D01*
X144425617Y-109307666D01*
X144425622Y-109307668D01*
X144437558Y-109310732D01*
X144456266Y-109317137D01*
X144474855Y-109325181D01*
X144482680Y-109326420D01*
X144482682Y-109326421D01*
X144518519Y-109332097D01*
X144530140Y-109334504D01*
X144565289Y-109343528D01*
X144572970Y-109345500D01*
X144593231Y-109345500D01*
X144612940Y-109347051D01*
X144632943Y-109350219D01*
X144640835Y-109349473D01*
X144646062Y-109348979D01*
X144676954Y-109346059D01*
X144688811Y-109345500D01*
X156397606Y-109345500D01*
X156465727Y-109365502D01*
X156500819Y-109399229D01*
X156607643Y-109551789D01*
X156610802Y-109556300D01*
X156772700Y-109718198D01*
X156777208Y-109721355D01*
X156777211Y-109721357D01*
X156799029Y-109736634D01*
X156960251Y-109849523D01*
X156965233Y-109851846D01*
X156965238Y-109851849D01*
X156999457Y-109867805D01*
X157052742Y-109914722D01*
X157072203Y-109982999D01*
X157051661Y-110050959D01*
X156999457Y-110096195D01*
X156965238Y-110112151D01*
X156965233Y-110112154D01*
X156960251Y-110114477D01*
X156855389Y-110187902D01*
X156777211Y-110242643D01*
X156777208Y-110242645D01*
X156772700Y-110245802D01*
X156610802Y-110407700D01*
X156607645Y-110412208D01*
X156607643Y-110412211D01*
X156600959Y-110421757D01*
X156479477Y-110595251D01*
X156477154Y-110600233D01*
X156477151Y-110600238D01*
X156391929Y-110783000D01*
X156382716Y-110802757D01*
X156381294Y-110808065D01*
X156381293Y-110808067D01*
X156343996Y-110947261D01*
X156323457Y-111023913D01*
X156303502Y-111252000D01*
X156323457Y-111480087D01*
X156324881Y-111485400D01*
X156324881Y-111485402D01*
X156327160Y-111493905D01*
X156382716Y-111701243D01*
X156385039Y-111706224D01*
X156385039Y-111706225D01*
X156477151Y-111903762D01*
X156477154Y-111903767D01*
X156479477Y-111908749D01*
X156482634Y-111913257D01*
X156594993Y-112073722D01*
X156610802Y-112096300D01*
X156772700Y-112258198D01*
X156777208Y-112261355D01*
X156777211Y-112261357D01*
X156850145Y-112312426D01*
X156960251Y-112389523D01*
X156965233Y-112391846D01*
X156965238Y-112391849D01*
X157162775Y-112483961D01*
X157167757Y-112486284D01*
X157173065Y-112487706D01*
X157173067Y-112487707D01*
X157383598Y-112544119D01*
X157383600Y-112544119D01*
X157388913Y-112545543D01*
X157617000Y-112565498D01*
X157845087Y-112545543D01*
X157850400Y-112544119D01*
X157850402Y-112544119D01*
X158060933Y-112487707D01*
X158060935Y-112487706D01*
X158066243Y-112486284D01*
X158071225Y-112483961D01*
X158268762Y-112391849D01*
X158268767Y-112391846D01*
X158273749Y-112389523D01*
X158383855Y-112312426D01*
X158456789Y-112261357D01*
X158456792Y-112261355D01*
X158461300Y-112258198D01*
X158623198Y-112096300D01*
X158639008Y-112073722D01*
X158751366Y-111913257D01*
X158754523Y-111908749D01*
X158756846Y-111903767D01*
X158756849Y-111903762D01*
X158848961Y-111706225D01*
X158848961Y-111706224D01*
X158851284Y-111701243D01*
X158906841Y-111493905D01*
X158909119Y-111485402D01*
X158909119Y-111485400D01*
X158910543Y-111480087D01*
X158930498Y-111252000D01*
X171543502Y-111252000D01*
X171563457Y-111480087D01*
X171564881Y-111485400D01*
X171564881Y-111485402D01*
X171567160Y-111493905D01*
X171622716Y-111701243D01*
X171625039Y-111706224D01*
X171625039Y-111706225D01*
X171717151Y-111903762D01*
X171717154Y-111903767D01*
X171719477Y-111908749D01*
X171722634Y-111913257D01*
X171834993Y-112073722D01*
X171850802Y-112096300D01*
X172012700Y-112258198D01*
X172017208Y-112261355D01*
X172017211Y-112261357D01*
X172090145Y-112312426D01*
X172200251Y-112389523D01*
X172205233Y-112391846D01*
X172205238Y-112391849D01*
X172402775Y-112483961D01*
X172407757Y-112486284D01*
X172413065Y-112487706D01*
X172413067Y-112487707D01*
X172623598Y-112544119D01*
X172623600Y-112544119D01*
X172628913Y-112545543D01*
X172857000Y-112565498D01*
X173085087Y-112545543D01*
X173090400Y-112544119D01*
X173090402Y-112544119D01*
X173300933Y-112487707D01*
X173300935Y-112487706D01*
X173306243Y-112486284D01*
X173311225Y-112483961D01*
X173508762Y-112391849D01*
X173508767Y-112391846D01*
X173513749Y-112389523D01*
X173623855Y-112312426D01*
X173696789Y-112261357D01*
X173696792Y-112261355D01*
X173701300Y-112258198D01*
X173863198Y-112096300D01*
X173879008Y-112073722D01*
X173991366Y-111913257D01*
X173994523Y-111908749D01*
X173996846Y-111903767D01*
X173996849Y-111903762D01*
X174088961Y-111706225D01*
X174088961Y-111706224D01*
X174091284Y-111701243D01*
X174146841Y-111493905D01*
X174149119Y-111485402D01*
X174149119Y-111485400D01*
X174150543Y-111480087D01*
X174170498Y-111252000D01*
X174150543Y-111023913D01*
X174130004Y-110947261D01*
X174092707Y-110808067D01*
X174092706Y-110808065D01*
X174091284Y-110802757D01*
X174082071Y-110783000D01*
X173996849Y-110600238D01*
X173996846Y-110600233D01*
X173994523Y-110595251D01*
X173873041Y-110421757D01*
X173866357Y-110412211D01*
X173866355Y-110412208D01*
X173863198Y-110407700D01*
X173701300Y-110245802D01*
X173696792Y-110242645D01*
X173696789Y-110242643D01*
X173618611Y-110187902D01*
X173513749Y-110114477D01*
X173508767Y-110112154D01*
X173508762Y-110112151D01*
X173474543Y-110096195D01*
X173421258Y-110049278D01*
X173401797Y-109981001D01*
X173422339Y-109913041D01*
X173474543Y-109867805D01*
X173508762Y-109851849D01*
X173508767Y-109851846D01*
X173513749Y-109849523D01*
X173674971Y-109736634D01*
X173696789Y-109721357D01*
X173696792Y-109721355D01*
X173701300Y-109718198D01*
X173863198Y-109556300D01*
X173879008Y-109533722D01*
X173926871Y-109465366D01*
X173994523Y-109368749D01*
X173996846Y-109363767D01*
X173996849Y-109363762D01*
X174088961Y-109166225D01*
X174088961Y-109166224D01*
X174091284Y-109161243D01*
X174150543Y-108940087D01*
X174170498Y-108712000D01*
X174150543Y-108483913D01*
X174132891Y-108418035D01*
X174092707Y-108268067D01*
X174092706Y-108268065D01*
X174091284Y-108262757D01*
X174088525Y-108256840D01*
X173996849Y-108060238D01*
X173996846Y-108060233D01*
X173994523Y-108055251D01*
X173873041Y-107881757D01*
X173866357Y-107872211D01*
X173866355Y-107872208D01*
X173863198Y-107867700D01*
X173701300Y-107705802D01*
X173696792Y-107702645D01*
X173696789Y-107702643D01*
X173576897Y-107618694D01*
X173513749Y-107574477D01*
X173508767Y-107572154D01*
X173508762Y-107572151D01*
X173474543Y-107556195D01*
X173421258Y-107509278D01*
X173401797Y-107441001D01*
X173422339Y-107373041D01*
X173474543Y-107327805D01*
X173508762Y-107311849D01*
X173508767Y-107311846D01*
X173513749Y-107309523D01*
X173624669Y-107231856D01*
X173696789Y-107181357D01*
X173696792Y-107181355D01*
X173701300Y-107178198D01*
X173863198Y-107016300D01*
X173879008Y-106993722D01*
X173926871Y-106925366D01*
X173994523Y-106828749D01*
X173996846Y-106823767D01*
X173996849Y-106823762D01*
X174088961Y-106626225D01*
X174088961Y-106626224D01*
X174091284Y-106621243D01*
X174109543Y-106553102D01*
X174149119Y-106405402D01*
X174149119Y-106405400D01*
X174150543Y-106400087D01*
X174170498Y-106172000D01*
X174150543Y-105943913D01*
X174144528Y-105921466D01*
X174092707Y-105728067D01*
X174092706Y-105728065D01*
X174091284Y-105722757D01*
X174081544Y-105701870D01*
X173996849Y-105520238D01*
X173996846Y-105520233D01*
X173994523Y-105515251D01*
X173880951Y-105353054D01*
X173866357Y-105332211D01*
X173866355Y-105332208D01*
X173863198Y-105327700D01*
X173701300Y-105165802D01*
X173696792Y-105162645D01*
X173696789Y-105162643D01*
X173618611Y-105107902D01*
X173513749Y-105034477D01*
X173508767Y-105032154D01*
X173508762Y-105032151D01*
X173474543Y-105016195D01*
X173421258Y-104969278D01*
X173401797Y-104901001D01*
X173422339Y-104833041D01*
X173474543Y-104787805D01*
X173508762Y-104771849D01*
X173508767Y-104771846D01*
X173513749Y-104769523D01*
X173674971Y-104656634D01*
X173696789Y-104641357D01*
X173696792Y-104641355D01*
X173701300Y-104638198D01*
X173863198Y-104476300D01*
X173867334Y-104470394D01*
X173939604Y-104367181D01*
X173994523Y-104288749D01*
X173996846Y-104283767D01*
X173996849Y-104283762D01*
X174088961Y-104086225D01*
X174088961Y-104086224D01*
X174091284Y-104081243D01*
X174150543Y-103860087D01*
X174170498Y-103632000D01*
X174150543Y-103403913D01*
X174139472Y-103362595D01*
X174092707Y-103188067D01*
X174092706Y-103188065D01*
X174091284Y-103182757D01*
X174082521Y-103163965D01*
X173996849Y-102980238D01*
X173996846Y-102980233D01*
X173994523Y-102975251D01*
X173869911Y-102797287D01*
X173866357Y-102792211D01*
X173866355Y-102792208D01*
X173863198Y-102787700D01*
X173701300Y-102625802D01*
X173696792Y-102622645D01*
X173696789Y-102622643D01*
X173581984Y-102542256D01*
X173513749Y-102494477D01*
X173508767Y-102492154D01*
X173508762Y-102492151D01*
X173474543Y-102476195D01*
X173421258Y-102429278D01*
X173401797Y-102361001D01*
X173422339Y-102293041D01*
X173474543Y-102247805D01*
X173508762Y-102231849D01*
X173508767Y-102231846D01*
X173513749Y-102229523D01*
X173632215Y-102146572D01*
X173696789Y-102101357D01*
X173696792Y-102101355D01*
X173701300Y-102098198D01*
X173863198Y-101936300D01*
X173878188Y-101914893D01*
X173967456Y-101787404D01*
X173994523Y-101748749D01*
X173996846Y-101743767D01*
X173996849Y-101743762D01*
X174088961Y-101546225D01*
X174088961Y-101546224D01*
X174091284Y-101541243D01*
X174150543Y-101320087D01*
X174170498Y-101092000D01*
X174150543Y-100863913D01*
X174141056Y-100828506D01*
X174092707Y-100648067D01*
X174092706Y-100648065D01*
X174091284Y-100642757D01*
X174062269Y-100580534D01*
X173996849Y-100440238D01*
X173996846Y-100440233D01*
X173994523Y-100435251D01*
X173869911Y-100257287D01*
X173866357Y-100252211D01*
X173866355Y-100252208D01*
X173863198Y-100247700D01*
X173701300Y-100085802D01*
X173696792Y-100082645D01*
X173696789Y-100082643D01*
X173618611Y-100027902D01*
X173513749Y-99954477D01*
X173508767Y-99952154D01*
X173508762Y-99952151D01*
X173474543Y-99936195D01*
X173421258Y-99889278D01*
X173401797Y-99821001D01*
X173422339Y-99753041D01*
X173474543Y-99707805D01*
X173508762Y-99691849D01*
X173508767Y-99691846D01*
X173513749Y-99689523D01*
X173676038Y-99575887D01*
X173696789Y-99561357D01*
X173696792Y-99561355D01*
X173701300Y-99558198D01*
X173863198Y-99396300D01*
X173873138Y-99382105D01*
X173967456Y-99247404D01*
X173994523Y-99208749D01*
X173996846Y-99203767D01*
X173996849Y-99203762D01*
X174088961Y-99006225D01*
X174088961Y-99006224D01*
X174091284Y-99001243D01*
X174150543Y-98780087D01*
X174170498Y-98552000D01*
X174150543Y-98323913D01*
X174130654Y-98249688D01*
X174092707Y-98108067D01*
X174092706Y-98108065D01*
X174091284Y-98102757D01*
X174088961Y-98097775D01*
X173996849Y-97900238D01*
X173996846Y-97900233D01*
X173994523Y-97895251D01*
X173910020Y-97774568D01*
X173866357Y-97712211D01*
X173866355Y-97712208D01*
X173863198Y-97707700D01*
X173701300Y-97545802D01*
X173696792Y-97542645D01*
X173696789Y-97542643D01*
X173618611Y-97487902D01*
X173513749Y-97414477D01*
X173508767Y-97412154D01*
X173508762Y-97412151D01*
X173474543Y-97396195D01*
X173421258Y-97349278D01*
X173401797Y-97281001D01*
X173422339Y-97213041D01*
X173474543Y-97167805D01*
X173508762Y-97151849D01*
X173508767Y-97151846D01*
X173513749Y-97149523D01*
X173674971Y-97036634D01*
X173696789Y-97021357D01*
X173696792Y-97021355D01*
X173701300Y-97018198D01*
X173863198Y-96856300D01*
X173994523Y-96668749D01*
X173996846Y-96663767D01*
X173996849Y-96663762D01*
X174088961Y-96466225D01*
X174088961Y-96466224D01*
X174091284Y-96461243D01*
X174150543Y-96240087D01*
X174170498Y-96012000D01*
X174150543Y-95783913D01*
X174136932Y-95733115D01*
X174092707Y-95568067D01*
X174092706Y-95568065D01*
X174091284Y-95562757D01*
X174066273Y-95509120D01*
X173996849Y-95360238D01*
X173996846Y-95360233D01*
X173994523Y-95355251D01*
X173894802Y-95212835D01*
X173866357Y-95172211D01*
X173866355Y-95172208D01*
X173863198Y-95167700D01*
X173701300Y-95005802D01*
X173696792Y-95002645D01*
X173696789Y-95002643D01*
X173618611Y-94947902D01*
X173513749Y-94874477D01*
X173508767Y-94872154D01*
X173508762Y-94872151D01*
X173474543Y-94856195D01*
X173421258Y-94809278D01*
X173401797Y-94741001D01*
X173422339Y-94673041D01*
X173474543Y-94627805D01*
X173508762Y-94611849D01*
X173508767Y-94611846D01*
X173513749Y-94609523D01*
X173618611Y-94536098D01*
X173696789Y-94481357D01*
X173696792Y-94481355D01*
X173701300Y-94478198D01*
X173863198Y-94316300D01*
X173891055Y-94276517D01*
X173922576Y-94231500D01*
X173994523Y-94128749D01*
X173996846Y-94123767D01*
X173996849Y-94123762D01*
X174031215Y-94050062D01*
X177987493Y-94050062D01*
X177996789Y-94062077D01*
X178047994Y-94097931D01*
X178057489Y-94103414D01*
X178254947Y-94195490D01*
X178265239Y-94199236D01*
X178475688Y-94255625D01*
X178486481Y-94257528D01*
X178703525Y-94276517D01*
X178714475Y-94276517D01*
X178931519Y-94257528D01*
X178942312Y-94255625D01*
X179152761Y-94199236D01*
X179163053Y-94195490D01*
X179360511Y-94103414D01*
X179370006Y-94097931D01*
X179422048Y-94061491D01*
X179430424Y-94051012D01*
X179423356Y-94037566D01*
X178721812Y-93336022D01*
X178707868Y-93328408D01*
X178706035Y-93328539D01*
X178699420Y-93332790D01*
X177993923Y-94038287D01*
X177987493Y-94050062D01*
X174031215Y-94050062D01*
X174088961Y-93926225D01*
X174088961Y-93926224D01*
X174091284Y-93921243D01*
X174150543Y-93700087D01*
X174170498Y-93472000D01*
X174150543Y-93243913D01*
X174125232Y-93149450D01*
X174092707Y-93028067D01*
X174092706Y-93028065D01*
X174091284Y-93022757D01*
X174078164Y-92994620D01*
X174066439Y-92969475D01*
X177396483Y-92969475D01*
X177415472Y-93186519D01*
X177417375Y-93197312D01*
X177473764Y-93407761D01*
X177477510Y-93418053D01*
X177569586Y-93615511D01*
X177575069Y-93625006D01*
X177611509Y-93677048D01*
X177621988Y-93685424D01*
X177635434Y-93678356D01*
X178336978Y-92976812D01*
X178343356Y-92965132D01*
X179073408Y-92965132D01*
X179073539Y-92966965D01*
X179077790Y-92973580D01*
X179783287Y-93679077D01*
X179795062Y-93685507D01*
X179807077Y-93676211D01*
X179842934Y-93625002D01*
X179849591Y-93613472D01*
X179900973Y-93564479D01*
X179970687Y-93551042D01*
X180036598Y-93577429D01*
X180067829Y-93613472D01*
X180069153Y-93615765D01*
X180071477Y-93620749D01*
X180202802Y-93808300D01*
X180364700Y-93970198D01*
X180369208Y-93973355D01*
X180369211Y-93973357D01*
X180447389Y-94028098D01*
X180552251Y-94101523D01*
X180557233Y-94103846D01*
X180557238Y-94103849D01*
X180684902Y-94163379D01*
X180759757Y-94198284D01*
X180765065Y-94199706D01*
X180765067Y-94199707D01*
X180975598Y-94256119D01*
X180975600Y-94256119D01*
X180980913Y-94257543D01*
X181209000Y-94277498D01*
X181437087Y-94257543D01*
X181442400Y-94256119D01*
X181442402Y-94256119D01*
X181652933Y-94199707D01*
X181652935Y-94199706D01*
X181658243Y-94198284D01*
X181733098Y-94163379D01*
X181860762Y-94103849D01*
X181860767Y-94103846D01*
X181865749Y-94101523D01*
X181970611Y-94028098D01*
X182048789Y-93973357D01*
X182048792Y-93973355D01*
X182053300Y-93970198D01*
X182215198Y-93808300D01*
X182346523Y-93620749D01*
X182348846Y-93615767D01*
X182348849Y-93615762D01*
X182440961Y-93418225D01*
X182440961Y-93418224D01*
X182443284Y-93413243D01*
X182453819Y-93373928D01*
X182501119Y-93197402D01*
X182501119Y-93197400D01*
X182502543Y-93192087D01*
X182522498Y-92964000D01*
X182502543Y-92735913D01*
X182465981Y-92599461D01*
X182444707Y-92520067D01*
X182444706Y-92520065D01*
X182443284Y-92514757D01*
X182418983Y-92462643D01*
X182348849Y-92312238D01*
X182348846Y-92312233D01*
X182346523Y-92307251D01*
X182225717Y-92134722D01*
X182218357Y-92124211D01*
X182218355Y-92124208D01*
X182215198Y-92119700D01*
X182053300Y-91957802D01*
X182048792Y-91954645D01*
X182048789Y-91954643D01*
X181922920Y-91866509D01*
X181865749Y-91826477D01*
X181860767Y-91824154D01*
X181860762Y-91824151D01*
X181663225Y-91732039D01*
X181663224Y-91732039D01*
X181658243Y-91729716D01*
X181652935Y-91728294D01*
X181652933Y-91728293D01*
X181442402Y-91671881D01*
X181442400Y-91671881D01*
X181437087Y-91670457D01*
X181209000Y-91650502D01*
X180980913Y-91670457D01*
X180975600Y-91671881D01*
X180975598Y-91671881D01*
X180765067Y-91728293D01*
X180765065Y-91728294D01*
X180759757Y-91729716D01*
X180754776Y-91732039D01*
X180754775Y-91732039D01*
X180557238Y-91824151D01*
X180557233Y-91824154D01*
X180552251Y-91826477D01*
X180495080Y-91866509D01*
X180369211Y-91954643D01*
X180369208Y-91954645D01*
X180364700Y-91957802D01*
X180202802Y-92119700D01*
X180199645Y-92124208D01*
X180199643Y-92124211D01*
X180192283Y-92134722D01*
X180071477Y-92307251D01*
X180069153Y-92312235D01*
X180067829Y-92314528D01*
X180016447Y-92363521D01*
X179946733Y-92376957D01*
X179880822Y-92350571D01*
X179849591Y-92314528D01*
X179842934Y-92302998D01*
X179806491Y-92250952D01*
X179796012Y-92242576D01*
X179782566Y-92249644D01*
X179081022Y-92951188D01*
X179073408Y-92965132D01*
X178343356Y-92965132D01*
X178344592Y-92962868D01*
X178344461Y-92961035D01*
X178340210Y-92954420D01*
X177634713Y-92248923D01*
X177622938Y-92242493D01*
X177610923Y-92251789D01*
X177575069Y-92302994D01*
X177569586Y-92312489D01*
X177477510Y-92509947D01*
X177473764Y-92520239D01*
X177417375Y-92730688D01*
X177415472Y-92741481D01*
X177396483Y-92958525D01*
X177396483Y-92969475D01*
X174066439Y-92969475D01*
X173996849Y-92820238D01*
X173996846Y-92820233D01*
X173994523Y-92815251D01*
X173863198Y-92627700D01*
X173701300Y-92465802D01*
X173696792Y-92462645D01*
X173696789Y-92462643D01*
X173618611Y-92407902D01*
X173513749Y-92334477D01*
X173508767Y-92332154D01*
X173508762Y-92332151D01*
X173474543Y-92316195D01*
X173421258Y-92269278D01*
X173401797Y-92201001D01*
X173422339Y-92133041D01*
X173474543Y-92087805D01*
X173508762Y-92071849D01*
X173508767Y-92071846D01*
X173513749Y-92069523D01*
X173618611Y-91996098D01*
X173696789Y-91941357D01*
X173696792Y-91941355D01*
X173701300Y-91938198D01*
X173762510Y-91876988D01*
X177987576Y-91876988D01*
X177994644Y-91890434D01*
X178696188Y-92591978D01*
X178710132Y-92599592D01*
X178711965Y-92599461D01*
X178718580Y-92595210D01*
X179424077Y-91889713D01*
X179430507Y-91877938D01*
X179421211Y-91865923D01*
X179370006Y-91830069D01*
X179360511Y-91824586D01*
X179163053Y-91732510D01*
X179152761Y-91728764D01*
X178942312Y-91672375D01*
X178931519Y-91670472D01*
X178714475Y-91651483D01*
X178703525Y-91651483D01*
X178486481Y-91670472D01*
X178475688Y-91672375D01*
X178265239Y-91728764D01*
X178254947Y-91732510D01*
X178057489Y-91824586D01*
X178047994Y-91830069D01*
X177995952Y-91866509D01*
X177987576Y-91876988D01*
X173762510Y-91876988D01*
X173863198Y-91776300D01*
X173994523Y-91588749D01*
X173996846Y-91583767D01*
X173996849Y-91583762D01*
X174088961Y-91386225D01*
X174088961Y-91386224D01*
X174091284Y-91381243D01*
X174150543Y-91160087D01*
X174170498Y-90932000D01*
X174150543Y-90703913D01*
X174149117Y-90698591D01*
X174092707Y-90488067D01*
X174092706Y-90488065D01*
X174091284Y-90482757D01*
X174088961Y-90477775D01*
X173996849Y-90280238D01*
X173996846Y-90280233D01*
X173994523Y-90275251D01*
X173863198Y-90087700D01*
X173701300Y-89925802D01*
X173696792Y-89922645D01*
X173696789Y-89922643D01*
X173618611Y-89867902D01*
X173513749Y-89794477D01*
X173508767Y-89792154D01*
X173508762Y-89792151D01*
X173474543Y-89776195D01*
X173421258Y-89729278D01*
X173401797Y-89661001D01*
X173422339Y-89593041D01*
X173474543Y-89547805D01*
X173508762Y-89531849D01*
X173508767Y-89531846D01*
X173513749Y-89529523D01*
X173618611Y-89456098D01*
X173696789Y-89401357D01*
X173696792Y-89401355D01*
X173701300Y-89398198D01*
X173863198Y-89236300D01*
X173994523Y-89048749D01*
X173996846Y-89043767D01*
X173996849Y-89043762D01*
X174088961Y-88846225D01*
X174088961Y-88846224D01*
X174091284Y-88841243D01*
X174150543Y-88620087D01*
X174170498Y-88392000D01*
X174150543Y-88163913D01*
X174149117Y-88158591D01*
X174092707Y-87948067D01*
X174092706Y-87948065D01*
X174091284Y-87942757D01*
X174040425Y-87833689D01*
X173996849Y-87740238D01*
X173996846Y-87740233D01*
X173994523Y-87735251D01*
X173863198Y-87547700D01*
X173701300Y-87385802D01*
X173696792Y-87382645D01*
X173696789Y-87382643D01*
X173572601Y-87295686D01*
X173513749Y-87254477D01*
X173508767Y-87252154D01*
X173508762Y-87252151D01*
X173474543Y-87236195D01*
X173421258Y-87189278D01*
X173401797Y-87121001D01*
X173422339Y-87053041D01*
X173474543Y-87007805D01*
X173508762Y-86991849D01*
X173508767Y-86991846D01*
X173513749Y-86989523D01*
X173618611Y-86916098D01*
X173696789Y-86861357D01*
X173696792Y-86861355D01*
X173701300Y-86858198D01*
X173863198Y-86696300D01*
X173867388Y-86690317D01*
X173945407Y-86578894D01*
X173994523Y-86508749D01*
X173996846Y-86503767D01*
X173996849Y-86503762D01*
X174088961Y-86306225D01*
X174088961Y-86306224D01*
X174091284Y-86301243D01*
X174094347Y-86289814D01*
X174149119Y-86085402D01*
X174149119Y-86085400D01*
X174150543Y-86080087D01*
X174164368Y-85922062D01*
X176777493Y-85922062D01*
X176786789Y-85934077D01*
X176837994Y-85969931D01*
X176847489Y-85975414D01*
X177044947Y-86067490D01*
X177055239Y-86071236D01*
X177265688Y-86127625D01*
X177276481Y-86129528D01*
X177493525Y-86148517D01*
X177504475Y-86148517D01*
X177721519Y-86129528D01*
X177732312Y-86127625D01*
X177942761Y-86071236D01*
X177953053Y-86067490D01*
X178150511Y-85975414D01*
X178160006Y-85969931D01*
X178212048Y-85933491D01*
X178220424Y-85923012D01*
X178213356Y-85909566D01*
X177511812Y-85208022D01*
X177497868Y-85200408D01*
X177496035Y-85200539D01*
X177489420Y-85204790D01*
X176783923Y-85910287D01*
X176777493Y-85922062D01*
X174164368Y-85922062D01*
X174170498Y-85852000D01*
X174150543Y-85623913D01*
X174144904Y-85602868D01*
X174092707Y-85408067D01*
X174092706Y-85408065D01*
X174091284Y-85402757D01*
X174077705Y-85373637D01*
X173996849Y-85200238D01*
X173996846Y-85200233D01*
X173994523Y-85195251D01*
X173863198Y-85007700D01*
X173701300Y-84845802D01*
X173696792Y-84842645D01*
X173696789Y-84842643D01*
X173695121Y-84841475D01*
X176186483Y-84841475D01*
X176205472Y-85058519D01*
X176207375Y-85069312D01*
X176263764Y-85279761D01*
X176267510Y-85290053D01*
X176359586Y-85487511D01*
X176365069Y-85497006D01*
X176401509Y-85549048D01*
X176411988Y-85557424D01*
X176425434Y-85550356D01*
X177126978Y-84848812D01*
X177133356Y-84837132D01*
X177863408Y-84837132D01*
X177863539Y-84838965D01*
X177867790Y-84845580D01*
X178573287Y-85551077D01*
X178585062Y-85557507D01*
X178597077Y-85548211D01*
X178632931Y-85497006D01*
X178638414Y-85487511D01*
X178730490Y-85290053D01*
X178734236Y-85279761D01*
X178790625Y-85069312D01*
X178792528Y-85058519D01*
X178811517Y-84841475D01*
X178811517Y-84830525D01*
X178792528Y-84613481D01*
X178790625Y-84602688D01*
X178734236Y-84392239D01*
X178730490Y-84381947D01*
X178638414Y-84184489D01*
X178632931Y-84174994D01*
X178596491Y-84122952D01*
X178586012Y-84114576D01*
X178572566Y-84121644D01*
X177871022Y-84823188D01*
X177863408Y-84837132D01*
X177133356Y-84837132D01*
X177134592Y-84834868D01*
X177134461Y-84833035D01*
X177130210Y-84826420D01*
X176424713Y-84120923D01*
X176412938Y-84114493D01*
X176400923Y-84123789D01*
X176365069Y-84174994D01*
X176359586Y-84184489D01*
X176267510Y-84381947D01*
X176263764Y-84392239D01*
X176207375Y-84602688D01*
X176205472Y-84613481D01*
X176186483Y-84830525D01*
X176186483Y-84841475D01*
X173695121Y-84841475D01*
X173607952Y-84780439D01*
X173513749Y-84714477D01*
X173508767Y-84712154D01*
X173508762Y-84712151D01*
X173474543Y-84696195D01*
X173421258Y-84649278D01*
X173401797Y-84581001D01*
X173422339Y-84513041D01*
X173474543Y-84467805D01*
X173508762Y-84451849D01*
X173508767Y-84451846D01*
X173513749Y-84449523D01*
X173690369Y-84325852D01*
X173696789Y-84321357D01*
X173696792Y-84321355D01*
X173701300Y-84318198D01*
X173863198Y-84156300D01*
X173882280Y-84129049D01*
X173947616Y-84035739D01*
X173994523Y-83968749D01*
X173996846Y-83963767D01*
X173996849Y-83963762D01*
X174088961Y-83766225D01*
X174088961Y-83766224D01*
X174091284Y-83761243D01*
X174094568Y-83748988D01*
X176777576Y-83748988D01*
X176784644Y-83762434D01*
X177486188Y-84463978D01*
X177500132Y-84471592D01*
X177501965Y-84471461D01*
X177508580Y-84467210D01*
X178214077Y-83761713D01*
X178220507Y-83749938D01*
X178211211Y-83737923D01*
X178160006Y-83702069D01*
X178150511Y-83696586D01*
X177953053Y-83604510D01*
X177942761Y-83600764D01*
X177732312Y-83544375D01*
X177721519Y-83542472D01*
X177504475Y-83523483D01*
X177493525Y-83523483D01*
X177276481Y-83542472D01*
X177265688Y-83544375D01*
X177055239Y-83600764D01*
X177044947Y-83604510D01*
X176847489Y-83696586D01*
X176837994Y-83702069D01*
X176785952Y-83738509D01*
X176777576Y-83748988D01*
X174094568Y-83748988D01*
X174104336Y-83712535D01*
X174149119Y-83545402D01*
X174149119Y-83545400D01*
X174150543Y-83540087D01*
X174170498Y-83312000D01*
X174150543Y-83083913D01*
X174145425Y-83064811D01*
X174092707Y-82868067D01*
X174092706Y-82868065D01*
X174091284Y-82862757D01*
X174028095Y-82727247D01*
X173996849Y-82660238D01*
X173996846Y-82660233D01*
X173994523Y-82655251D01*
X173876728Y-82487023D01*
X173866357Y-82472211D01*
X173866355Y-82472208D01*
X173863198Y-82467700D01*
X173701300Y-82305802D01*
X173696792Y-82302645D01*
X173696789Y-82302643D01*
X173618611Y-82247902D01*
X173513749Y-82174477D01*
X173508767Y-82172154D01*
X173508762Y-82172151D01*
X173474543Y-82156195D01*
X173421258Y-82109278D01*
X173401797Y-82041001D01*
X173422339Y-81973041D01*
X173474543Y-81927805D01*
X173508762Y-81911849D01*
X173508767Y-81911846D01*
X173513749Y-81909523D01*
X173633802Y-81825461D01*
X173696789Y-81781357D01*
X173696792Y-81781355D01*
X173701300Y-81778198D01*
X173863198Y-81616300D01*
X173886073Y-81583632D01*
X173932545Y-81517262D01*
X173994523Y-81428749D01*
X173996846Y-81423767D01*
X173996849Y-81423762D01*
X174088961Y-81226225D01*
X174088961Y-81226224D01*
X174091284Y-81221243D01*
X174150543Y-81000087D01*
X174170498Y-80772000D01*
X174150543Y-80543913D01*
X174149119Y-80538598D01*
X174092707Y-80328067D01*
X174092706Y-80328065D01*
X174091284Y-80322757D01*
X174063134Y-80262389D01*
X173996849Y-80120238D01*
X173996846Y-80120233D01*
X173994523Y-80115251D01*
X173863198Y-79927700D01*
X173701300Y-79765802D01*
X173696792Y-79762645D01*
X173696789Y-79762643D01*
X173589639Y-79687616D01*
X173513749Y-79634477D01*
X173508767Y-79632154D01*
X173508762Y-79632151D01*
X173473951Y-79615919D01*
X173420666Y-79569002D01*
X173401205Y-79500725D01*
X173421747Y-79432765D01*
X173473951Y-79387529D01*
X173508511Y-79371414D01*
X173518007Y-79365931D01*
X173696467Y-79240972D01*
X173704875Y-79233916D01*
X173858916Y-79079875D01*
X173865972Y-79071467D01*
X173990931Y-78893007D01*
X173996414Y-78883511D01*
X174088490Y-78686053D01*
X174092236Y-78675761D01*
X174138394Y-78503497D01*
X174138058Y-78489401D01*
X174130116Y-78486000D01*
X171589033Y-78486000D01*
X171575502Y-78489973D01*
X171574273Y-78498522D01*
X171621764Y-78675761D01*
X171625510Y-78686053D01*
X171717586Y-78883511D01*
X171723069Y-78893007D01*
X171848028Y-79071467D01*
X171855084Y-79079875D01*
X172009125Y-79233916D01*
X172017533Y-79240972D01*
X172195993Y-79365931D01*
X172205489Y-79371414D01*
X172240049Y-79387529D01*
X172293334Y-79434446D01*
X172312795Y-79502723D01*
X172292253Y-79570683D01*
X172240049Y-79615919D01*
X172205238Y-79632151D01*
X172205233Y-79632154D01*
X172200251Y-79634477D01*
X172124361Y-79687616D01*
X172017211Y-79762643D01*
X172017208Y-79762645D01*
X172012700Y-79765802D01*
X171850802Y-79927700D01*
X171719477Y-80115251D01*
X171717154Y-80120233D01*
X171717151Y-80120238D01*
X171650866Y-80262389D01*
X171622716Y-80322757D01*
X171621294Y-80328065D01*
X171621293Y-80328067D01*
X171564881Y-80538598D01*
X171563457Y-80543913D01*
X171543502Y-80772000D01*
X171563457Y-81000087D01*
X171622716Y-81221243D01*
X171625039Y-81226224D01*
X171625039Y-81226225D01*
X171717151Y-81423762D01*
X171717154Y-81423767D01*
X171719477Y-81428749D01*
X171781455Y-81517262D01*
X171827928Y-81583632D01*
X171850802Y-81616300D01*
X172012700Y-81778198D01*
X172017208Y-81781355D01*
X172017211Y-81781357D01*
X172080198Y-81825461D01*
X172200251Y-81909523D01*
X172205233Y-81911846D01*
X172205238Y-81911849D01*
X172239457Y-81927805D01*
X172292742Y-81974722D01*
X172312203Y-82042999D01*
X172291661Y-82110959D01*
X172239457Y-82156195D01*
X172205238Y-82172151D01*
X172205233Y-82172154D01*
X172200251Y-82174477D01*
X172095389Y-82247902D01*
X172017211Y-82302643D01*
X172017208Y-82302645D01*
X172012700Y-82305802D01*
X171850802Y-82467700D01*
X171847645Y-82472208D01*
X171847643Y-82472211D01*
X171837272Y-82487023D01*
X171719477Y-82655251D01*
X171717154Y-82660233D01*
X171717151Y-82660238D01*
X171685905Y-82727247D01*
X171622716Y-82862757D01*
X171621294Y-82868065D01*
X171621293Y-82868067D01*
X171568575Y-83064811D01*
X171563457Y-83083913D01*
X171543502Y-83312000D01*
X171563457Y-83540087D01*
X171564881Y-83545400D01*
X171564881Y-83545402D01*
X171609665Y-83712535D01*
X171622716Y-83761243D01*
X171625039Y-83766224D01*
X171625039Y-83766225D01*
X171717151Y-83963762D01*
X171717154Y-83963767D01*
X171719477Y-83968749D01*
X171766384Y-84035739D01*
X171831721Y-84129049D01*
X171850802Y-84156300D01*
X172012700Y-84318198D01*
X172017208Y-84321355D01*
X172017211Y-84321357D01*
X172023631Y-84325852D01*
X172200251Y-84449523D01*
X172205233Y-84451846D01*
X172205238Y-84451849D01*
X172239457Y-84467805D01*
X172292742Y-84514722D01*
X172312203Y-84582999D01*
X172291661Y-84650959D01*
X172239457Y-84696195D01*
X172205238Y-84712151D01*
X172205233Y-84712154D01*
X172200251Y-84714477D01*
X172106048Y-84780439D01*
X172017211Y-84842643D01*
X172017208Y-84842645D01*
X172012700Y-84845802D01*
X171850802Y-85007700D01*
X171719477Y-85195251D01*
X171717154Y-85200233D01*
X171717151Y-85200238D01*
X171636295Y-85373637D01*
X171622716Y-85402757D01*
X171621294Y-85408065D01*
X171621293Y-85408067D01*
X171569096Y-85602868D01*
X171563457Y-85623913D01*
X171543502Y-85852000D01*
X171563457Y-86080087D01*
X171564881Y-86085400D01*
X171564881Y-86085402D01*
X171619654Y-86289814D01*
X171622716Y-86301243D01*
X171625039Y-86306224D01*
X171625039Y-86306225D01*
X171717151Y-86503762D01*
X171717154Y-86503767D01*
X171719477Y-86508749D01*
X171768593Y-86578894D01*
X171846613Y-86690317D01*
X171850802Y-86696300D01*
X172012700Y-86858198D01*
X172017208Y-86861355D01*
X172017211Y-86861357D01*
X172095389Y-86916098D01*
X172200251Y-86989523D01*
X172205233Y-86991846D01*
X172205238Y-86991849D01*
X172239457Y-87007805D01*
X172292742Y-87054722D01*
X172312203Y-87122999D01*
X172291661Y-87190959D01*
X172239457Y-87236195D01*
X172205238Y-87252151D01*
X172205233Y-87252154D01*
X172200251Y-87254477D01*
X172141399Y-87295686D01*
X172017211Y-87382643D01*
X172017208Y-87382645D01*
X172012700Y-87385802D01*
X171850802Y-87547700D01*
X171719477Y-87735251D01*
X171717154Y-87740233D01*
X171717151Y-87740238D01*
X171673575Y-87833689D01*
X171622716Y-87942757D01*
X171621294Y-87948065D01*
X171621293Y-87948067D01*
X171564883Y-88158591D01*
X171563457Y-88163913D01*
X171543502Y-88392000D01*
X171563457Y-88620087D01*
X171622716Y-88841243D01*
X171625039Y-88846224D01*
X171625039Y-88846225D01*
X171717151Y-89043762D01*
X171717154Y-89043767D01*
X171719477Y-89048749D01*
X171850802Y-89236300D01*
X172012700Y-89398198D01*
X172017208Y-89401355D01*
X172017211Y-89401357D01*
X172095389Y-89456098D01*
X172200251Y-89529523D01*
X172205233Y-89531846D01*
X172205238Y-89531849D01*
X172239457Y-89547805D01*
X172292742Y-89594722D01*
X172312203Y-89662999D01*
X172291661Y-89730959D01*
X172239457Y-89776195D01*
X172205238Y-89792151D01*
X172205233Y-89792154D01*
X172200251Y-89794477D01*
X172095389Y-89867902D01*
X172017211Y-89922643D01*
X172017208Y-89922645D01*
X172012700Y-89925802D01*
X171850802Y-90087700D01*
X171719477Y-90275251D01*
X171717154Y-90280233D01*
X171717151Y-90280238D01*
X171625039Y-90477775D01*
X171622716Y-90482757D01*
X171621294Y-90488065D01*
X171621293Y-90488067D01*
X171564883Y-90698591D01*
X171563457Y-90703913D01*
X171543502Y-90932000D01*
X171563457Y-91160087D01*
X171622716Y-91381243D01*
X171625039Y-91386224D01*
X171625039Y-91386225D01*
X171717151Y-91583762D01*
X171717154Y-91583767D01*
X171719477Y-91588749D01*
X171850802Y-91776300D01*
X172012700Y-91938198D01*
X172017208Y-91941355D01*
X172017211Y-91941357D01*
X172095389Y-91996098D01*
X172200251Y-92069523D01*
X172205233Y-92071846D01*
X172205238Y-92071849D01*
X172239457Y-92087805D01*
X172292742Y-92134722D01*
X172312203Y-92202999D01*
X172291661Y-92270959D01*
X172239457Y-92316195D01*
X172205238Y-92332151D01*
X172205233Y-92332154D01*
X172200251Y-92334477D01*
X172095389Y-92407902D01*
X172017211Y-92462643D01*
X172017208Y-92462645D01*
X172012700Y-92465802D01*
X171850802Y-92627700D01*
X171719477Y-92815251D01*
X171717154Y-92820233D01*
X171717151Y-92820238D01*
X171635836Y-92994620D01*
X171622716Y-93022757D01*
X171621294Y-93028065D01*
X171621293Y-93028067D01*
X171588768Y-93149450D01*
X171563457Y-93243913D01*
X171543502Y-93472000D01*
X171563457Y-93700087D01*
X171622716Y-93921243D01*
X171625039Y-93926224D01*
X171625039Y-93926225D01*
X171717151Y-94123762D01*
X171717154Y-94123767D01*
X171719477Y-94128749D01*
X171791424Y-94231500D01*
X171822946Y-94276517D01*
X171850802Y-94316300D01*
X172012700Y-94478198D01*
X172017208Y-94481355D01*
X172017211Y-94481357D01*
X172095389Y-94536098D01*
X172200251Y-94609523D01*
X172205233Y-94611846D01*
X172205238Y-94611849D01*
X172239457Y-94627805D01*
X172292742Y-94674722D01*
X172312203Y-94742999D01*
X172291661Y-94810959D01*
X172239457Y-94856195D01*
X172205238Y-94872151D01*
X172205233Y-94872154D01*
X172200251Y-94874477D01*
X172095389Y-94947902D01*
X172017211Y-95002643D01*
X172017208Y-95002645D01*
X172012700Y-95005802D01*
X171850802Y-95167700D01*
X171847645Y-95172208D01*
X171847643Y-95172211D01*
X171819198Y-95212835D01*
X171719477Y-95355251D01*
X171717154Y-95360233D01*
X171717151Y-95360238D01*
X171647727Y-95509120D01*
X171622716Y-95562757D01*
X171621294Y-95568065D01*
X171621293Y-95568067D01*
X171577068Y-95733115D01*
X171563457Y-95783913D01*
X171543502Y-96012000D01*
X171563457Y-96240087D01*
X171622716Y-96461243D01*
X171625039Y-96466224D01*
X171625039Y-96466225D01*
X171717151Y-96663762D01*
X171717154Y-96663767D01*
X171719477Y-96668749D01*
X171850802Y-96856300D01*
X172012700Y-97018198D01*
X172017208Y-97021355D01*
X172017211Y-97021357D01*
X172039029Y-97036634D01*
X172200251Y-97149523D01*
X172205233Y-97151846D01*
X172205238Y-97151849D01*
X172239457Y-97167805D01*
X172292742Y-97214722D01*
X172312203Y-97282999D01*
X172291661Y-97350959D01*
X172239457Y-97396195D01*
X172205238Y-97412151D01*
X172205233Y-97412154D01*
X172200251Y-97414477D01*
X172095389Y-97487902D01*
X172017211Y-97542643D01*
X172017208Y-97542645D01*
X172012700Y-97545802D01*
X171850802Y-97707700D01*
X171847645Y-97712208D01*
X171847643Y-97712211D01*
X171803980Y-97774568D01*
X171719477Y-97895251D01*
X171717154Y-97900233D01*
X171717151Y-97900238D01*
X171625039Y-98097775D01*
X171622716Y-98102757D01*
X171621294Y-98108065D01*
X171621293Y-98108067D01*
X171583346Y-98249688D01*
X171563457Y-98323913D01*
X171543502Y-98552000D01*
X171563457Y-98780087D01*
X171622716Y-99001243D01*
X171625039Y-99006224D01*
X171625039Y-99006225D01*
X171717151Y-99203762D01*
X171717154Y-99203767D01*
X171719477Y-99208749D01*
X171746544Y-99247404D01*
X171840863Y-99382105D01*
X171850802Y-99396300D01*
X172012700Y-99558198D01*
X172017208Y-99561355D01*
X172017211Y-99561357D01*
X172037962Y-99575887D01*
X172200251Y-99689523D01*
X172205233Y-99691846D01*
X172205238Y-99691849D01*
X172239457Y-99707805D01*
X172292742Y-99754722D01*
X172312203Y-99822999D01*
X172291661Y-99890959D01*
X172239457Y-99936195D01*
X172205238Y-99952151D01*
X172205233Y-99952154D01*
X172200251Y-99954477D01*
X172095389Y-100027902D01*
X172017211Y-100082643D01*
X172017208Y-100082645D01*
X172012700Y-100085802D01*
X171850802Y-100247700D01*
X171847645Y-100252208D01*
X171847643Y-100252211D01*
X171844089Y-100257287D01*
X171719477Y-100435251D01*
X171717154Y-100440233D01*
X171717151Y-100440238D01*
X171651731Y-100580534D01*
X171622716Y-100642757D01*
X171621294Y-100648065D01*
X171621293Y-100648067D01*
X171572944Y-100828506D01*
X171563457Y-100863913D01*
X171543502Y-101092000D01*
X171563457Y-101320087D01*
X171622716Y-101541243D01*
X171625039Y-101546224D01*
X171625039Y-101546225D01*
X171717151Y-101743762D01*
X171717154Y-101743767D01*
X171719477Y-101748749D01*
X171746544Y-101787404D01*
X171835813Y-101914893D01*
X171850802Y-101936300D01*
X172012700Y-102098198D01*
X172017208Y-102101355D01*
X172017211Y-102101357D01*
X172081785Y-102146572D01*
X172200251Y-102229523D01*
X172205233Y-102231846D01*
X172205238Y-102231849D01*
X172239457Y-102247805D01*
X172292742Y-102294722D01*
X172312203Y-102362999D01*
X172291661Y-102430959D01*
X172239457Y-102476195D01*
X172205238Y-102492151D01*
X172205233Y-102492154D01*
X172200251Y-102494477D01*
X172132016Y-102542256D01*
X172017211Y-102622643D01*
X172017208Y-102622645D01*
X172012700Y-102625802D01*
X171850802Y-102787700D01*
X171847645Y-102792208D01*
X171847643Y-102792211D01*
X171844089Y-102797287D01*
X171719477Y-102975251D01*
X171717154Y-102980233D01*
X171717151Y-102980238D01*
X171631479Y-103163965D01*
X171622716Y-103182757D01*
X171621294Y-103188065D01*
X171621293Y-103188067D01*
X171574528Y-103362595D01*
X171563457Y-103403913D01*
X171543502Y-103632000D01*
X171563457Y-103860087D01*
X171622716Y-104081243D01*
X171625039Y-104086224D01*
X171625039Y-104086225D01*
X171717151Y-104283762D01*
X171717154Y-104283767D01*
X171719477Y-104288749D01*
X171774396Y-104367181D01*
X171846667Y-104470394D01*
X171850802Y-104476300D01*
X172012700Y-104638198D01*
X172017208Y-104641355D01*
X172017211Y-104641357D01*
X172039029Y-104656634D01*
X172200251Y-104769523D01*
X172205233Y-104771846D01*
X172205238Y-104771849D01*
X172239457Y-104787805D01*
X172292742Y-104834722D01*
X172312203Y-104902999D01*
X172291661Y-104970959D01*
X172239457Y-105016195D01*
X172205238Y-105032151D01*
X172205233Y-105032154D01*
X172200251Y-105034477D01*
X172095389Y-105107902D01*
X172017211Y-105162643D01*
X172017208Y-105162645D01*
X172012700Y-105165802D01*
X171850802Y-105327700D01*
X171847645Y-105332208D01*
X171847643Y-105332211D01*
X171833049Y-105353054D01*
X171719477Y-105515251D01*
X171717154Y-105520233D01*
X171717151Y-105520238D01*
X171632456Y-105701870D01*
X171622716Y-105722757D01*
X171621294Y-105728065D01*
X171621293Y-105728067D01*
X171569472Y-105921466D01*
X171563457Y-105943913D01*
X171543502Y-106172000D01*
X171563457Y-106400087D01*
X171564881Y-106405400D01*
X171564881Y-106405402D01*
X171604458Y-106553102D01*
X171622716Y-106621243D01*
X171625039Y-106626224D01*
X171625039Y-106626225D01*
X171717151Y-106823762D01*
X171717154Y-106823767D01*
X171719477Y-106828749D01*
X171787129Y-106925366D01*
X171834993Y-106993722D01*
X171850802Y-107016300D01*
X172012700Y-107178198D01*
X172017208Y-107181355D01*
X172017211Y-107181357D01*
X172089331Y-107231856D01*
X172200251Y-107309523D01*
X172205233Y-107311846D01*
X172205238Y-107311849D01*
X172239457Y-107327805D01*
X172292742Y-107374722D01*
X172312203Y-107442999D01*
X172291661Y-107510959D01*
X172239457Y-107556195D01*
X172205238Y-107572151D01*
X172205233Y-107572154D01*
X172200251Y-107574477D01*
X172137103Y-107618694D01*
X172017211Y-107702643D01*
X172017208Y-107702645D01*
X172012700Y-107705802D01*
X171850802Y-107867700D01*
X171847645Y-107872208D01*
X171847643Y-107872211D01*
X171840959Y-107881757D01*
X171719477Y-108055251D01*
X171717154Y-108060233D01*
X171717151Y-108060238D01*
X171625475Y-108256840D01*
X171622716Y-108262757D01*
X171621294Y-108268065D01*
X171621293Y-108268067D01*
X171581109Y-108418035D01*
X171563457Y-108483913D01*
X171543502Y-108712000D01*
X171563457Y-108940087D01*
X171622716Y-109161243D01*
X171625039Y-109166224D01*
X171625039Y-109166225D01*
X171717151Y-109363762D01*
X171717154Y-109363767D01*
X171719477Y-109368749D01*
X171787129Y-109465366D01*
X171834993Y-109533722D01*
X171850802Y-109556300D01*
X172012700Y-109718198D01*
X172017208Y-109721355D01*
X172017211Y-109721357D01*
X172039029Y-109736634D01*
X172200251Y-109849523D01*
X172205233Y-109851846D01*
X172205238Y-109851849D01*
X172239457Y-109867805D01*
X172292742Y-109914722D01*
X172312203Y-109982999D01*
X172291661Y-110050959D01*
X172239457Y-110096195D01*
X172205238Y-110112151D01*
X172205233Y-110112154D01*
X172200251Y-110114477D01*
X172095389Y-110187902D01*
X172017211Y-110242643D01*
X172017208Y-110242645D01*
X172012700Y-110245802D01*
X171850802Y-110407700D01*
X171847645Y-110412208D01*
X171847643Y-110412211D01*
X171840959Y-110421757D01*
X171719477Y-110595251D01*
X171717154Y-110600233D01*
X171717151Y-110600238D01*
X171631929Y-110783000D01*
X171622716Y-110802757D01*
X171621294Y-110808065D01*
X171621293Y-110808067D01*
X171583996Y-110947261D01*
X171563457Y-111023913D01*
X171543502Y-111252000D01*
X158930498Y-111252000D01*
X158910543Y-111023913D01*
X158890004Y-110947261D01*
X158852707Y-110808067D01*
X158852706Y-110808065D01*
X158851284Y-110802757D01*
X158842071Y-110783000D01*
X158756849Y-110600238D01*
X158756846Y-110600233D01*
X158754523Y-110595251D01*
X158633041Y-110421757D01*
X158626357Y-110412211D01*
X158626355Y-110412208D01*
X158623198Y-110407700D01*
X158461300Y-110245802D01*
X158456792Y-110242645D01*
X158456789Y-110242643D01*
X158378611Y-110187902D01*
X158273749Y-110114477D01*
X158268767Y-110112154D01*
X158268762Y-110112151D01*
X158234543Y-110096195D01*
X158181258Y-110049278D01*
X158161797Y-109981001D01*
X158182339Y-109913041D01*
X158234543Y-109867805D01*
X158268762Y-109851849D01*
X158268767Y-109851846D01*
X158273749Y-109849523D01*
X158434971Y-109736634D01*
X158456789Y-109721357D01*
X158456792Y-109721355D01*
X158461300Y-109718198D01*
X158623198Y-109556300D01*
X158639008Y-109533722D01*
X158686871Y-109465366D01*
X158754523Y-109368749D01*
X158756846Y-109363767D01*
X158756849Y-109363762D01*
X158848961Y-109166225D01*
X158848961Y-109166224D01*
X158851284Y-109161243D01*
X158910543Y-108940087D01*
X158930498Y-108712000D01*
X158910543Y-108483913D01*
X158892891Y-108418035D01*
X158852707Y-108268067D01*
X158852706Y-108268065D01*
X158851284Y-108262757D01*
X158848525Y-108256840D01*
X158756849Y-108060238D01*
X158756846Y-108060233D01*
X158754523Y-108055251D01*
X158633041Y-107881757D01*
X158626357Y-107872211D01*
X158626355Y-107872208D01*
X158623198Y-107867700D01*
X158461300Y-107705802D01*
X158456792Y-107702645D01*
X158456789Y-107702643D01*
X158336897Y-107618694D01*
X158273749Y-107574477D01*
X158268767Y-107572154D01*
X158268762Y-107572151D01*
X158234543Y-107556195D01*
X158181258Y-107509278D01*
X158161797Y-107441001D01*
X158182339Y-107373041D01*
X158234543Y-107327805D01*
X158268762Y-107311849D01*
X158268767Y-107311846D01*
X158273749Y-107309523D01*
X158384669Y-107231856D01*
X158456789Y-107181357D01*
X158456792Y-107181355D01*
X158461300Y-107178198D01*
X158623198Y-107016300D01*
X158639008Y-106993722D01*
X158686871Y-106925366D01*
X158754523Y-106828749D01*
X158756846Y-106823767D01*
X158756849Y-106823762D01*
X158848961Y-106626225D01*
X158848961Y-106626224D01*
X158851284Y-106621243D01*
X158869543Y-106553102D01*
X158909119Y-106405402D01*
X158909119Y-106405400D01*
X158910543Y-106400087D01*
X158930498Y-106172000D01*
X158910543Y-105943913D01*
X158904528Y-105921466D01*
X158852707Y-105728067D01*
X158852706Y-105728065D01*
X158851284Y-105722757D01*
X158841544Y-105701870D01*
X158756849Y-105520238D01*
X158756846Y-105520233D01*
X158754523Y-105515251D01*
X158640951Y-105353054D01*
X158626357Y-105332211D01*
X158626355Y-105332208D01*
X158623198Y-105327700D01*
X158461300Y-105165802D01*
X158456792Y-105162645D01*
X158456789Y-105162643D01*
X158378611Y-105107902D01*
X158273749Y-105034477D01*
X158268767Y-105032154D01*
X158268762Y-105032151D01*
X158234543Y-105016195D01*
X158181258Y-104969278D01*
X158161797Y-104901001D01*
X158182339Y-104833041D01*
X158234543Y-104787805D01*
X158268762Y-104771849D01*
X158268767Y-104771846D01*
X158273749Y-104769523D01*
X158434971Y-104656634D01*
X158456789Y-104641357D01*
X158456792Y-104641355D01*
X158461300Y-104638198D01*
X158623198Y-104476300D01*
X158627334Y-104470394D01*
X158699604Y-104367181D01*
X158754523Y-104288749D01*
X158756846Y-104283767D01*
X158756849Y-104283762D01*
X158848961Y-104086225D01*
X158848961Y-104086224D01*
X158851284Y-104081243D01*
X158910543Y-103860087D01*
X158930498Y-103632000D01*
X158910543Y-103403913D01*
X158899472Y-103362595D01*
X158852707Y-103188067D01*
X158852706Y-103188065D01*
X158851284Y-103182757D01*
X158842521Y-103163965D01*
X158756849Y-102980238D01*
X158756846Y-102980233D01*
X158754523Y-102975251D01*
X158629911Y-102797287D01*
X158626357Y-102792211D01*
X158626355Y-102792208D01*
X158623198Y-102787700D01*
X158461300Y-102625802D01*
X158456792Y-102622645D01*
X158456789Y-102622643D01*
X158341984Y-102542256D01*
X158273749Y-102494477D01*
X158268767Y-102492154D01*
X158268762Y-102492151D01*
X158234543Y-102476195D01*
X158181258Y-102429278D01*
X158161797Y-102361001D01*
X158182339Y-102293041D01*
X158234543Y-102247805D01*
X158268762Y-102231849D01*
X158268767Y-102231846D01*
X158273749Y-102229523D01*
X158392215Y-102146572D01*
X158456789Y-102101357D01*
X158456792Y-102101355D01*
X158461300Y-102098198D01*
X158623198Y-101936300D01*
X158638188Y-101914893D01*
X158727456Y-101787404D01*
X158754523Y-101748749D01*
X158756846Y-101743767D01*
X158756849Y-101743762D01*
X158848961Y-101546225D01*
X158848961Y-101546224D01*
X158851284Y-101541243D01*
X158910543Y-101320087D01*
X158930498Y-101092000D01*
X158910543Y-100863913D01*
X158901056Y-100828506D01*
X158852707Y-100648067D01*
X158852706Y-100648065D01*
X158851284Y-100642757D01*
X158822269Y-100580534D01*
X158756849Y-100440238D01*
X158756846Y-100440233D01*
X158754523Y-100435251D01*
X158629911Y-100257287D01*
X158626357Y-100252211D01*
X158626355Y-100252208D01*
X158623198Y-100247700D01*
X158461300Y-100085802D01*
X158456792Y-100082645D01*
X158456789Y-100082643D01*
X158378611Y-100027902D01*
X158273749Y-99954477D01*
X158268767Y-99952154D01*
X158268762Y-99952151D01*
X158234543Y-99936195D01*
X158181258Y-99889278D01*
X158161797Y-99821001D01*
X158182339Y-99753041D01*
X158234543Y-99707805D01*
X158268762Y-99691849D01*
X158268767Y-99691846D01*
X158273749Y-99689523D01*
X158436038Y-99575887D01*
X158456789Y-99561357D01*
X158456792Y-99561355D01*
X158461300Y-99558198D01*
X158623198Y-99396300D01*
X158633138Y-99382105D01*
X158727456Y-99247404D01*
X158754523Y-99208749D01*
X158756846Y-99203767D01*
X158756849Y-99203762D01*
X158848961Y-99006225D01*
X158848961Y-99006224D01*
X158851284Y-99001243D01*
X158910543Y-98780087D01*
X158930498Y-98552000D01*
X158910543Y-98323913D01*
X158890654Y-98249688D01*
X158852707Y-98108067D01*
X158852706Y-98108065D01*
X158851284Y-98102757D01*
X158848961Y-98097775D01*
X158756849Y-97900238D01*
X158756846Y-97900233D01*
X158754523Y-97895251D01*
X158670020Y-97774568D01*
X158626357Y-97712211D01*
X158626355Y-97712208D01*
X158623198Y-97707700D01*
X158461300Y-97545802D01*
X158456792Y-97542645D01*
X158456789Y-97542643D01*
X158378611Y-97487902D01*
X158273749Y-97414477D01*
X158268767Y-97412154D01*
X158268762Y-97412151D01*
X158234543Y-97396195D01*
X158181258Y-97349278D01*
X158161797Y-97281001D01*
X158182339Y-97213041D01*
X158234543Y-97167805D01*
X158268762Y-97151849D01*
X158268767Y-97151846D01*
X158273749Y-97149523D01*
X158434971Y-97036634D01*
X158456789Y-97021357D01*
X158456792Y-97021355D01*
X158461300Y-97018198D01*
X158623198Y-96856300D01*
X158754523Y-96668749D01*
X158756846Y-96663767D01*
X158756849Y-96663762D01*
X158848961Y-96466225D01*
X158848961Y-96466224D01*
X158851284Y-96461243D01*
X158910543Y-96240087D01*
X158930498Y-96012000D01*
X158910543Y-95783913D01*
X158896932Y-95733115D01*
X158852707Y-95568067D01*
X158852706Y-95568065D01*
X158851284Y-95562757D01*
X158826273Y-95509120D01*
X158756849Y-95360238D01*
X158756846Y-95360233D01*
X158754523Y-95355251D01*
X158654802Y-95212835D01*
X158626357Y-95172211D01*
X158626355Y-95172208D01*
X158623198Y-95167700D01*
X158461300Y-95005802D01*
X158456792Y-95002645D01*
X158456789Y-95002643D01*
X158378611Y-94947902D01*
X158273749Y-94874477D01*
X158268767Y-94872154D01*
X158268762Y-94872151D01*
X158234543Y-94856195D01*
X158181258Y-94809278D01*
X158161797Y-94741001D01*
X158182339Y-94673041D01*
X158234543Y-94627805D01*
X158268762Y-94611849D01*
X158268767Y-94611846D01*
X158273749Y-94609523D01*
X158378611Y-94536098D01*
X158456789Y-94481357D01*
X158456792Y-94481355D01*
X158461300Y-94478198D01*
X158623198Y-94316300D01*
X158651055Y-94276517D01*
X158682576Y-94231500D01*
X158754523Y-94128749D01*
X158756846Y-94123767D01*
X158756849Y-94123762D01*
X158848961Y-93926225D01*
X158848961Y-93926224D01*
X158851284Y-93921243D01*
X158910543Y-93700087D01*
X158930498Y-93472000D01*
X158910543Y-93243913D01*
X158885232Y-93149450D01*
X158852707Y-93028067D01*
X158852706Y-93028065D01*
X158851284Y-93022757D01*
X158838164Y-92994620D01*
X158756849Y-92820238D01*
X158756846Y-92820233D01*
X158754523Y-92815251D01*
X158623198Y-92627700D01*
X158461300Y-92465802D01*
X158456792Y-92462645D01*
X158456789Y-92462643D01*
X158378611Y-92407902D01*
X158273749Y-92334477D01*
X158268767Y-92332154D01*
X158268762Y-92332151D01*
X158234543Y-92316195D01*
X158181258Y-92269278D01*
X158161797Y-92201001D01*
X158182339Y-92133041D01*
X158234543Y-92087805D01*
X158268762Y-92071849D01*
X158268767Y-92071846D01*
X158273749Y-92069523D01*
X158378611Y-91996098D01*
X158456789Y-91941357D01*
X158456792Y-91941355D01*
X158461300Y-91938198D01*
X158623198Y-91776300D01*
X158754523Y-91588749D01*
X158756846Y-91583767D01*
X158756849Y-91583762D01*
X158848961Y-91386225D01*
X158848961Y-91386224D01*
X158851284Y-91381243D01*
X158910543Y-91160087D01*
X158930498Y-90932000D01*
X158910543Y-90703913D01*
X158909117Y-90698591D01*
X158852707Y-90488067D01*
X158852706Y-90488065D01*
X158851284Y-90482757D01*
X158848961Y-90477775D01*
X158756849Y-90280238D01*
X158756846Y-90280233D01*
X158754523Y-90275251D01*
X158623198Y-90087700D01*
X158461300Y-89925802D01*
X158456792Y-89922645D01*
X158456789Y-89922643D01*
X158378611Y-89867902D01*
X158273749Y-89794477D01*
X158268767Y-89792154D01*
X158268762Y-89792151D01*
X158234543Y-89776195D01*
X158181258Y-89729278D01*
X158161797Y-89661001D01*
X158182339Y-89593041D01*
X158234543Y-89547805D01*
X158268762Y-89531849D01*
X158268767Y-89531846D01*
X158273749Y-89529523D01*
X158378611Y-89456098D01*
X158456789Y-89401357D01*
X158456792Y-89401355D01*
X158461300Y-89398198D01*
X158623198Y-89236300D01*
X158754523Y-89048749D01*
X158756846Y-89043767D01*
X158756849Y-89043762D01*
X158848961Y-88846225D01*
X158848961Y-88846224D01*
X158851284Y-88841243D01*
X158910543Y-88620087D01*
X158930498Y-88392000D01*
X158910543Y-88163913D01*
X158909117Y-88158591D01*
X158852707Y-87948067D01*
X158852706Y-87948065D01*
X158851284Y-87942757D01*
X158800425Y-87833689D01*
X158756849Y-87740238D01*
X158756846Y-87740233D01*
X158754523Y-87735251D01*
X158623198Y-87547700D01*
X158461300Y-87385802D01*
X158456792Y-87382645D01*
X158456789Y-87382643D01*
X158332601Y-87295686D01*
X158273749Y-87254477D01*
X158268767Y-87252154D01*
X158268762Y-87252151D01*
X158234543Y-87236195D01*
X158181258Y-87189278D01*
X158161797Y-87121001D01*
X158182339Y-87053041D01*
X158234543Y-87007805D01*
X158268762Y-86991849D01*
X158268767Y-86991846D01*
X158273749Y-86989523D01*
X158378611Y-86916098D01*
X158456789Y-86861357D01*
X158456792Y-86861355D01*
X158461300Y-86858198D01*
X158623198Y-86696300D01*
X158627388Y-86690317D01*
X158705407Y-86578894D01*
X158754523Y-86508749D01*
X158756846Y-86503767D01*
X158756849Y-86503762D01*
X158848961Y-86306225D01*
X158848961Y-86306224D01*
X158851284Y-86301243D01*
X158854347Y-86289814D01*
X158909119Y-86085402D01*
X158909119Y-86085400D01*
X158910543Y-86080087D01*
X158930498Y-85852000D01*
X158910543Y-85623913D01*
X158904904Y-85602868D01*
X158852707Y-85408067D01*
X158852706Y-85408065D01*
X158851284Y-85402757D01*
X158837705Y-85373637D01*
X158756849Y-85200238D01*
X158756846Y-85200233D01*
X158754523Y-85195251D01*
X158623198Y-85007700D01*
X158461300Y-84845802D01*
X158456792Y-84842645D01*
X158456789Y-84842643D01*
X158367952Y-84780439D01*
X158273749Y-84714477D01*
X158268767Y-84712154D01*
X158268762Y-84712151D01*
X158233951Y-84695919D01*
X158180666Y-84649002D01*
X158161205Y-84580725D01*
X158181747Y-84512765D01*
X158233951Y-84467529D01*
X158268511Y-84451414D01*
X158278007Y-84445931D01*
X158456467Y-84320972D01*
X158464875Y-84313916D01*
X158618916Y-84159875D01*
X158625972Y-84151467D01*
X158750931Y-83973007D01*
X158756414Y-83963511D01*
X158848490Y-83766053D01*
X158852236Y-83755761D01*
X158898394Y-83583497D01*
X158898058Y-83569401D01*
X158890116Y-83566000D01*
X156349035Y-83566000D01*
X156326357Y-83572659D01*
X156255361Y-83572659D01*
X156201763Y-83540858D01*
X155102405Y-82441500D01*
X155068379Y-82379188D01*
X155065500Y-82352405D01*
X155065500Y-80772000D01*
X156303502Y-80772000D01*
X156323457Y-81000087D01*
X156382716Y-81221243D01*
X156385039Y-81226224D01*
X156385039Y-81226225D01*
X156477151Y-81423762D01*
X156477154Y-81423767D01*
X156479477Y-81428749D01*
X156541455Y-81517262D01*
X156587928Y-81583632D01*
X156610802Y-81616300D01*
X156772700Y-81778198D01*
X156777208Y-81781355D01*
X156777211Y-81781357D01*
X156840198Y-81825461D01*
X156960251Y-81909523D01*
X156965233Y-81911846D01*
X156965238Y-81911849D01*
X157000049Y-81928081D01*
X157053334Y-81974998D01*
X157072795Y-82043275D01*
X157052253Y-82111235D01*
X157000049Y-82156471D01*
X156965489Y-82172586D01*
X156955993Y-82178069D01*
X156777533Y-82303028D01*
X156769125Y-82310084D01*
X156615084Y-82464125D01*
X156608028Y-82472533D01*
X156483069Y-82650993D01*
X156477586Y-82660489D01*
X156385510Y-82857947D01*
X156381764Y-82868239D01*
X156335606Y-83040503D01*
X156335942Y-83054599D01*
X156343884Y-83058000D01*
X158884967Y-83058000D01*
X158898498Y-83054027D01*
X158899727Y-83045478D01*
X158852236Y-82868239D01*
X158848490Y-82857947D01*
X158756414Y-82660489D01*
X158750931Y-82650993D01*
X158625972Y-82472533D01*
X158618916Y-82464125D01*
X158464875Y-82310084D01*
X158456467Y-82303028D01*
X158278007Y-82178069D01*
X158268511Y-82172586D01*
X158233951Y-82156471D01*
X158180666Y-82109554D01*
X158161205Y-82041277D01*
X158181747Y-81973317D01*
X158233951Y-81928081D01*
X158268762Y-81911849D01*
X158268767Y-81911846D01*
X158273749Y-81909523D01*
X158393802Y-81825461D01*
X158456789Y-81781357D01*
X158456792Y-81781355D01*
X158461300Y-81778198D01*
X158623198Y-81616300D01*
X158646073Y-81583632D01*
X158692545Y-81517262D01*
X158754523Y-81428749D01*
X158756846Y-81423767D01*
X158756849Y-81423762D01*
X158848961Y-81226225D01*
X158848961Y-81226224D01*
X158851284Y-81221243D01*
X158910543Y-81000087D01*
X158930498Y-80772000D01*
X158910543Y-80543913D01*
X158909119Y-80538598D01*
X158852707Y-80328067D01*
X158852706Y-80328065D01*
X158851284Y-80322757D01*
X158823134Y-80262389D01*
X158756849Y-80120238D01*
X158756846Y-80120233D01*
X158754523Y-80115251D01*
X158623198Y-79927700D01*
X158461300Y-79765802D01*
X158456792Y-79762645D01*
X158456789Y-79762643D01*
X158349639Y-79687616D01*
X158273749Y-79634477D01*
X158268767Y-79632154D01*
X158268762Y-79632151D01*
X158234543Y-79616195D01*
X158181258Y-79569278D01*
X158161797Y-79501001D01*
X158182339Y-79433041D01*
X158234543Y-79387805D01*
X158268762Y-79371849D01*
X158268767Y-79371846D01*
X158273749Y-79369523D01*
X158445231Y-79249450D01*
X158456789Y-79241357D01*
X158456792Y-79241355D01*
X158461300Y-79238198D01*
X158623198Y-79076300D01*
X158631186Y-79064893D01*
X158751366Y-78893257D01*
X158754523Y-78888749D01*
X158756846Y-78883767D01*
X158756849Y-78883762D01*
X158848961Y-78686225D01*
X158848961Y-78686224D01*
X158851284Y-78681243D01*
X158910543Y-78460087D01*
X158930498Y-78232000D01*
X158910543Y-78003913D01*
X158864507Y-77832105D01*
X158852707Y-77788067D01*
X158852706Y-77788065D01*
X158851284Y-77782757D01*
X158848961Y-77777775D01*
X158756849Y-77580238D01*
X158756846Y-77580233D01*
X158754523Y-77575251D01*
X158623198Y-77387700D01*
X158461300Y-77225802D01*
X158456789Y-77222643D01*
X158452576Y-77219108D01*
X158453527Y-77217974D01*
X158413529Y-77167929D01*
X158406224Y-77097310D01*
X158438258Y-77033951D01*
X158499462Y-76997970D01*
X158516517Y-76994918D01*
X158527316Y-76993745D01*
X158663705Y-76942615D01*
X158780261Y-76855261D01*
X158867615Y-76738705D01*
X158918745Y-76602316D01*
X158925500Y-76540134D01*
X158925500Y-75692000D01*
X171543502Y-75692000D01*
X171563457Y-75920087D01*
X171564881Y-75925400D01*
X171564881Y-75925402D01*
X171565955Y-75929408D01*
X171622716Y-76141243D01*
X171625039Y-76146224D01*
X171625039Y-76146225D01*
X171717151Y-76343762D01*
X171717154Y-76343767D01*
X171719477Y-76348749D01*
X171850802Y-76536300D01*
X172012700Y-76698198D01*
X172017208Y-76701355D01*
X172017211Y-76701357D01*
X172021577Y-76704414D01*
X172200251Y-76829523D01*
X172205233Y-76831846D01*
X172205238Y-76831849D01*
X172240049Y-76848081D01*
X172293334Y-76894998D01*
X172312795Y-76963275D01*
X172292253Y-77031235D01*
X172240049Y-77076471D01*
X172205489Y-77092586D01*
X172195993Y-77098069D01*
X172017533Y-77223028D01*
X172009125Y-77230084D01*
X171855084Y-77384125D01*
X171848028Y-77392533D01*
X171723069Y-77570993D01*
X171717586Y-77580489D01*
X171625510Y-77777947D01*
X171621764Y-77788239D01*
X171575606Y-77960503D01*
X171575942Y-77974599D01*
X171583884Y-77978000D01*
X174124967Y-77978000D01*
X174138498Y-77974027D01*
X174139727Y-77965478D01*
X174092236Y-77788239D01*
X174088490Y-77777947D01*
X173996414Y-77580489D01*
X173990931Y-77570993D01*
X173865972Y-77392533D01*
X173858916Y-77384125D01*
X173704875Y-77230084D01*
X173696467Y-77223028D01*
X173518007Y-77098069D01*
X173508511Y-77092586D01*
X173473951Y-77076471D01*
X173420666Y-77029554D01*
X173401205Y-76961277D01*
X173421747Y-76893317D01*
X173473951Y-76848081D01*
X173508762Y-76831849D01*
X173508767Y-76831846D01*
X173513749Y-76829523D01*
X173692423Y-76704414D01*
X173696789Y-76701357D01*
X173696792Y-76701355D01*
X173701300Y-76698198D01*
X173748436Y-76651062D01*
X178261493Y-76651062D01*
X178270789Y-76663077D01*
X178321994Y-76698931D01*
X178331489Y-76704414D01*
X178528947Y-76796490D01*
X178539239Y-76800236D01*
X178749688Y-76856625D01*
X178760481Y-76858528D01*
X178977525Y-76877517D01*
X178988475Y-76877517D01*
X179205519Y-76858528D01*
X179216312Y-76856625D01*
X179426761Y-76800236D01*
X179437053Y-76796490D01*
X179634511Y-76704414D01*
X179644006Y-76698931D01*
X179696048Y-76662491D01*
X179704424Y-76652012D01*
X179697356Y-76638566D01*
X178995812Y-75937022D01*
X178981868Y-75929408D01*
X178980035Y-75929539D01*
X178973420Y-75933790D01*
X178267923Y-76639287D01*
X178261493Y-76651062D01*
X173748436Y-76651062D01*
X173863198Y-76536300D01*
X173994523Y-76348749D01*
X173996846Y-76343767D01*
X173996849Y-76343762D01*
X174088961Y-76146225D01*
X174088961Y-76146224D01*
X174091284Y-76141243D01*
X174148046Y-75929408D01*
X174149119Y-75925402D01*
X174149119Y-75925400D01*
X174150543Y-75920087D01*
X174170498Y-75692000D01*
X174159866Y-75570475D01*
X177670483Y-75570475D01*
X177689472Y-75787519D01*
X177691375Y-75798312D01*
X177747764Y-76008761D01*
X177751510Y-76019053D01*
X177843586Y-76216511D01*
X177849069Y-76226006D01*
X177885509Y-76278048D01*
X177895988Y-76286424D01*
X177909434Y-76279356D01*
X178610978Y-75577812D01*
X178617356Y-75566132D01*
X179347408Y-75566132D01*
X179347539Y-75567965D01*
X179351790Y-75574580D01*
X180057287Y-76280077D01*
X180099029Y-76302871D01*
X180109029Y-76305047D01*
X180159227Y-76355253D01*
X180174451Y-76408814D01*
X180174500Y-76409717D01*
X180174500Y-76413134D01*
X180181255Y-76475316D01*
X180232385Y-76611705D01*
X180319739Y-76728261D01*
X180436295Y-76815615D01*
X180572684Y-76866745D01*
X180634866Y-76873500D01*
X182331134Y-76873500D01*
X182393316Y-76866745D01*
X182529705Y-76815615D01*
X182646261Y-76728261D01*
X182733615Y-76611705D01*
X182784745Y-76475316D01*
X182791500Y-76413134D01*
X182791500Y-74716866D01*
X182784745Y-74654684D01*
X182733615Y-74518295D01*
X182646261Y-74401739D01*
X182529705Y-74314385D01*
X182393316Y-74263255D01*
X182331134Y-74256500D01*
X180634866Y-74256500D01*
X180572684Y-74263255D01*
X180436295Y-74314385D01*
X180319739Y-74401739D01*
X180232385Y-74518295D01*
X180181255Y-74654684D01*
X180174500Y-74716866D01*
X180174500Y-74720185D01*
X180150847Y-74787110D01*
X180104844Y-74822804D01*
X180105859Y-74824734D01*
X180095000Y-74830442D01*
X180094755Y-74830632D01*
X180094597Y-74830653D01*
X180056566Y-74850644D01*
X179355022Y-75552188D01*
X179347408Y-75566132D01*
X178617356Y-75566132D01*
X178618592Y-75563868D01*
X178618461Y-75562035D01*
X178614210Y-75555420D01*
X177908713Y-74849923D01*
X177896938Y-74843493D01*
X177884923Y-74852789D01*
X177849069Y-74903994D01*
X177843586Y-74913489D01*
X177751510Y-75110947D01*
X177747764Y-75121239D01*
X177691375Y-75331688D01*
X177689472Y-75342481D01*
X177670483Y-75559525D01*
X177670483Y-75570475D01*
X174159866Y-75570475D01*
X174150543Y-75463913D01*
X174091284Y-75242757D01*
X174071622Y-75200592D01*
X173996849Y-75040238D01*
X173996846Y-75040233D01*
X173994523Y-75035251D01*
X173902616Y-74903994D01*
X173866357Y-74852211D01*
X173866355Y-74852208D01*
X173863198Y-74847700D01*
X173701300Y-74685802D01*
X173696792Y-74682645D01*
X173696789Y-74682643D01*
X173618611Y-74627902D01*
X173513749Y-74554477D01*
X173508767Y-74552154D01*
X173508762Y-74552151D01*
X173349717Y-74477988D01*
X178261576Y-74477988D01*
X178268644Y-74491434D01*
X178970188Y-75192978D01*
X178984132Y-75200592D01*
X178985965Y-75200461D01*
X178992580Y-75196210D01*
X179698077Y-74490713D01*
X179704507Y-74478938D01*
X179695211Y-74466923D01*
X179644006Y-74431069D01*
X179634511Y-74425586D01*
X179437053Y-74333510D01*
X179426761Y-74329764D01*
X179216312Y-74273375D01*
X179205519Y-74271472D01*
X178988475Y-74252483D01*
X178977525Y-74252483D01*
X178760481Y-74271472D01*
X178749688Y-74273375D01*
X178539239Y-74329764D01*
X178528947Y-74333510D01*
X178331489Y-74425586D01*
X178321994Y-74431069D01*
X178269952Y-74467509D01*
X178261576Y-74477988D01*
X173349717Y-74477988D01*
X173311225Y-74460039D01*
X173311224Y-74460039D01*
X173306243Y-74457716D01*
X173300935Y-74456294D01*
X173300933Y-74456293D01*
X173090402Y-74399881D01*
X173090400Y-74399881D01*
X173085087Y-74398457D01*
X172857000Y-74378502D01*
X172628913Y-74398457D01*
X172623600Y-74399881D01*
X172623598Y-74399881D01*
X172413067Y-74456293D01*
X172413065Y-74456294D01*
X172407757Y-74457716D01*
X172402776Y-74460039D01*
X172402775Y-74460039D01*
X172205238Y-74552151D01*
X172205233Y-74552154D01*
X172200251Y-74554477D01*
X172095389Y-74627902D01*
X172017211Y-74682643D01*
X172017208Y-74682645D01*
X172012700Y-74685802D01*
X171850802Y-74847700D01*
X171847645Y-74852208D01*
X171847643Y-74852211D01*
X171811384Y-74903994D01*
X171719477Y-75035251D01*
X171717154Y-75040233D01*
X171717151Y-75040238D01*
X171642378Y-75200592D01*
X171622716Y-75242757D01*
X171563457Y-75463913D01*
X171543502Y-75692000D01*
X158925500Y-75692000D01*
X158925500Y-74843866D01*
X158918745Y-74781684D01*
X158867615Y-74645295D01*
X158780261Y-74528739D01*
X158663705Y-74441385D01*
X158527316Y-74390255D01*
X158465134Y-74383500D01*
X156768866Y-74383500D01*
X156706684Y-74390255D01*
X156570295Y-74441385D01*
X156453739Y-74528739D01*
X156366385Y-74645295D01*
X156315255Y-74781684D01*
X156308500Y-74843866D01*
X156308500Y-76540134D01*
X156315255Y-76602316D01*
X156366385Y-76738705D01*
X156453739Y-76855261D01*
X156570295Y-76942615D01*
X156706684Y-76993745D01*
X156717474Y-76994917D01*
X156719606Y-76995803D01*
X156722222Y-76996425D01*
X156722121Y-76996848D01*
X156783035Y-77022155D01*
X156823463Y-77080517D01*
X156825922Y-77151471D01*
X156789629Y-77212490D01*
X156780969Y-77219489D01*
X156777207Y-77222646D01*
X156772700Y-77225802D01*
X156610802Y-77387700D01*
X156479477Y-77575251D01*
X156477154Y-77580233D01*
X156477151Y-77580238D01*
X156385039Y-77777775D01*
X156382716Y-77782757D01*
X156381294Y-77788065D01*
X156381293Y-77788067D01*
X156369493Y-77832105D01*
X156323457Y-78003913D01*
X156303502Y-78232000D01*
X156323457Y-78460087D01*
X156382716Y-78681243D01*
X156385039Y-78686224D01*
X156385039Y-78686225D01*
X156477151Y-78883762D01*
X156477154Y-78883767D01*
X156479477Y-78888749D01*
X156482634Y-78893257D01*
X156602815Y-79064893D01*
X156610802Y-79076300D01*
X156772700Y-79238198D01*
X156777208Y-79241355D01*
X156777211Y-79241357D01*
X156788769Y-79249450D01*
X156960251Y-79369523D01*
X156965233Y-79371846D01*
X156965238Y-79371849D01*
X156999457Y-79387805D01*
X157052742Y-79434722D01*
X157072203Y-79502999D01*
X157051661Y-79570959D01*
X156999457Y-79616195D01*
X156965238Y-79632151D01*
X156965233Y-79632154D01*
X156960251Y-79634477D01*
X156884361Y-79687616D01*
X156777211Y-79762643D01*
X156777208Y-79762645D01*
X156772700Y-79765802D01*
X156610802Y-79927700D01*
X156479477Y-80115251D01*
X156477154Y-80120233D01*
X156477151Y-80120238D01*
X156410866Y-80262389D01*
X156382716Y-80322757D01*
X156381294Y-80328065D01*
X156381293Y-80328067D01*
X156324881Y-80538598D01*
X156323457Y-80543913D01*
X156303502Y-80772000D01*
X155065500Y-80772000D01*
X155065500Y-79580767D01*
X155066027Y-79569584D01*
X155067702Y-79562091D01*
X155065562Y-79494000D01*
X155065500Y-79490043D01*
X155065500Y-79462144D01*
X155064996Y-79458153D01*
X155064063Y-79446311D01*
X155063638Y-79432765D01*
X155062674Y-79402111D01*
X155060462Y-79394497D01*
X155060461Y-79394492D01*
X155057023Y-79382659D01*
X155053012Y-79363295D01*
X155051467Y-79351064D01*
X155050474Y-79343203D01*
X155047557Y-79335836D01*
X155047556Y-79335831D01*
X155034198Y-79302092D01*
X155030354Y-79290865D01*
X155028232Y-79283561D01*
X155018018Y-79248407D01*
X155007707Y-79230972D01*
X154999012Y-79213224D01*
X154991552Y-79194383D01*
X154965564Y-79158613D01*
X154959048Y-79148693D01*
X154940580Y-79117465D01*
X154940578Y-79117462D01*
X154936542Y-79110638D01*
X154922221Y-79096317D01*
X154909380Y-79081283D01*
X154908357Y-79079875D01*
X154897472Y-79064893D01*
X154863395Y-79036702D01*
X154854616Y-79028712D01*
X151026405Y-75200500D01*
X150992379Y-75138188D01*
X150989500Y-75111405D01*
X150989500Y-74740600D01*
X150987392Y-74720283D01*
X150979238Y-74641692D01*
X150979237Y-74641688D01*
X150978526Y-74634834D01*
X150922550Y-74467054D01*
X150829478Y-74316652D01*
X150786126Y-74273375D01*
X150709483Y-74196866D01*
X150704303Y-74191695D01*
X150659440Y-74164041D01*
X150559968Y-74102725D01*
X150559966Y-74102724D01*
X150553738Y-74098885D01*
X150439165Y-74060883D01*
X150392389Y-74045368D01*
X150392387Y-74045368D01*
X150385861Y-74043203D01*
X150379025Y-74042503D01*
X150379022Y-74042502D01*
X150335969Y-74038091D01*
X150281400Y-74032500D01*
X148730600Y-74032500D01*
X148727354Y-74032837D01*
X148727350Y-74032837D01*
X148631692Y-74042762D01*
X148631688Y-74042763D01*
X148624834Y-74043474D01*
X148618298Y-74045655D01*
X148618296Y-74045655D01*
X148572653Y-74060883D01*
X148457054Y-74099450D01*
X148306652Y-74192522D01*
X148181695Y-74317697D01*
X148177855Y-74323927D01*
X148177854Y-74323928D01*
X148095386Y-74457716D01*
X148088885Y-74468262D01*
X148033203Y-74636139D01*
X148022500Y-74740600D01*
X148022500Y-76041400D01*
X148033474Y-76147166D01*
X148089450Y-76314946D01*
X148182522Y-76465348D01*
X148307697Y-76590305D01*
X148313927Y-76594145D01*
X148313928Y-76594146D01*
X148327182Y-76602316D01*
X148453340Y-76680081D01*
X148500832Y-76732852D01*
X148512256Y-76802924D01*
X148483982Y-76868048D01*
X148474195Y-76878510D01*
X148456911Y-76894998D01*
X148359865Y-76987576D01*
X148222246Y-77172542D01*
X148219830Y-77177293D01*
X148219828Y-77177297D01*
X148196178Y-77223814D01*
X148117760Y-77378051D01*
X148049393Y-77598227D01*
X148019102Y-77826774D01*
X148027751Y-78057158D01*
X148075093Y-78282791D01*
X148077051Y-78287750D01*
X148077052Y-78287752D01*
X148156914Y-78489973D01*
X148159776Y-78497221D01*
X148279377Y-78694317D01*
X148282874Y-78698347D01*
X148356387Y-78783063D01*
X148430477Y-78868445D01*
X148460737Y-78893257D01*
X148604627Y-79011240D01*
X148604633Y-79011244D01*
X148608755Y-79014624D01*
X148640250Y-79032552D01*
X148689555Y-79083632D01*
X148703417Y-79153262D01*
X148677434Y-79219333D01*
X148648284Y-79246573D01*
X148526681Y-79328441D01*
X148359865Y-79487576D01*
X148356682Y-79491854D01*
X148350082Y-79500725D01*
X148222246Y-79672542D01*
X148219830Y-79677293D01*
X148219828Y-79677297D01*
X148174830Y-79765802D01*
X148117760Y-79878051D01*
X148116178Y-79883145D01*
X148116177Y-79883148D01*
X148076819Y-80009900D01*
X148049393Y-80098227D01*
X148048692Y-80103516D01*
X148020146Y-80318899D01*
X148019102Y-80326774D01*
X148027751Y-80557158D01*
X148075093Y-80782791D01*
X148077051Y-80787750D01*
X148077052Y-80787752D01*
X148137976Y-80942019D01*
X148159776Y-80997221D01*
X148279377Y-81194317D01*
X148430477Y-81368445D01*
X148434608Y-81371832D01*
X148604627Y-81511240D01*
X148604633Y-81511244D01*
X148608755Y-81514624D01*
X148640250Y-81532552D01*
X148689555Y-81583632D01*
X148703417Y-81653262D01*
X148677434Y-81719333D01*
X148648284Y-81746573D01*
X148526681Y-81828441D01*
X148359865Y-81987576D01*
X148222246Y-82172542D01*
X148219830Y-82177293D01*
X148219828Y-82177297D01*
X148170003Y-82275296D01*
X148117760Y-82378051D01*
X148116178Y-82383145D01*
X148116177Y-82383148D01*
X148099654Y-82436362D01*
X148049393Y-82598227D01*
X148048692Y-82603516D01*
X148027061Y-82766725D01*
X148019102Y-82826774D01*
X148027751Y-83057158D01*
X148028846Y-83062377D01*
X148034976Y-83091594D01*
X148075093Y-83282791D01*
X148159776Y-83497221D01*
X148162543Y-83501780D01*
X148162544Y-83501783D01*
X148223185Y-83601716D01*
X148279377Y-83694317D01*
X148282874Y-83698347D01*
X148369438Y-83798103D01*
X148430477Y-83868445D01*
X148434608Y-83871832D01*
X148604627Y-84011240D01*
X148604633Y-84011244D01*
X148608755Y-84014624D01*
X148613398Y-84017267D01*
X148640735Y-84032829D01*
X148690041Y-84083912D01*
X148703902Y-84153542D01*
X148677918Y-84219613D01*
X148648768Y-84246851D01*
X148531422Y-84325852D01*
X148523130Y-84332519D01*
X148364100Y-84484228D01*
X148357059Y-84492186D01*
X148225859Y-84668525D01*
X148220255Y-84677562D01*
X148120643Y-84873484D01*
X148116643Y-84883335D01*
X148051466Y-85093240D01*
X148049183Y-85103624D01*
X148047139Y-85119043D01*
X148049335Y-85133207D01*
X148062522Y-85137000D01*
X150947192Y-85137000D01*
X150960723Y-85133027D01*
X150962248Y-85122420D01*
X150937523Y-85004579D01*
X150934463Y-84994383D01*
X150853737Y-84789971D01*
X150849006Y-84780439D01*
X150734984Y-84592538D01*
X150728720Y-84583948D01*
X150584673Y-84417948D01*
X150577042Y-84410528D01*
X150407089Y-84271174D01*
X150398326Y-84265152D01*
X150371289Y-84249762D01*
X150321982Y-84198680D01*
X150308120Y-84129049D01*
X150334103Y-84062978D01*
X150363253Y-84035739D01*
X150421966Y-83996211D01*
X150485319Y-83953559D01*
X150652135Y-83794424D01*
X150789754Y-83609458D01*
X150792510Y-83604039D01*
X150891822Y-83408704D01*
X150894240Y-83403949D01*
X150930321Y-83287752D01*
X150961024Y-83188871D01*
X150962607Y-83183773D01*
X150968929Y-83136077D01*
X150976401Y-83079697D01*
X150980596Y-83048042D01*
X151009375Y-82983141D01*
X151068674Y-82944101D01*
X151139666Y-82943318D01*
X151194599Y-82975503D01*
X151221595Y-83002499D01*
X151255621Y-83064811D01*
X151258500Y-83091594D01*
X151258500Y-85128233D01*
X151257973Y-85139416D01*
X151256298Y-85146909D01*
X151256547Y-85154835D01*
X151256547Y-85154836D01*
X151258438Y-85214986D01*
X151258500Y-85218945D01*
X151258500Y-85246856D01*
X151258997Y-85250790D01*
X151258997Y-85250791D01*
X151259005Y-85250856D01*
X151259938Y-85262693D01*
X151261327Y-85306889D01*
X151266978Y-85326339D01*
X151270987Y-85345700D01*
X151273526Y-85365797D01*
X151276445Y-85373168D01*
X151276445Y-85373170D01*
X151289804Y-85406912D01*
X151293649Y-85418142D01*
X151305982Y-85460593D01*
X151310015Y-85467412D01*
X151310017Y-85467417D01*
X151316293Y-85478028D01*
X151324988Y-85495776D01*
X151332448Y-85514617D01*
X151337110Y-85521033D01*
X151337110Y-85521034D01*
X151358436Y-85550387D01*
X151364952Y-85560307D01*
X151387458Y-85598362D01*
X151401779Y-85612683D01*
X151414619Y-85627716D01*
X151426528Y-85644107D01*
X151432634Y-85649158D01*
X151460605Y-85672298D01*
X151469384Y-85680288D01*
X156307848Y-90518752D01*
X156341874Y-90581064D01*
X156340459Y-90640459D01*
X156324882Y-90698591D01*
X156324881Y-90698598D01*
X156323457Y-90703913D01*
X156303502Y-90932000D01*
X156323457Y-91160087D01*
X156382716Y-91381243D01*
X156385039Y-91386224D01*
X156385039Y-91386225D01*
X156477151Y-91583762D01*
X156477154Y-91583767D01*
X156479477Y-91588749D01*
X156610802Y-91776300D01*
X156772700Y-91938198D01*
X156777208Y-91941355D01*
X156777211Y-91941357D01*
X156855389Y-91996098D01*
X156960251Y-92069523D01*
X156965233Y-92071846D01*
X156965238Y-92071849D01*
X156999457Y-92087805D01*
X157052742Y-92134722D01*
X157072203Y-92202999D01*
X157051661Y-92270959D01*
X156999457Y-92316195D01*
X156965238Y-92332151D01*
X156965233Y-92332154D01*
X156960251Y-92334477D01*
X156855389Y-92407902D01*
X156777211Y-92462643D01*
X156777208Y-92462645D01*
X156772700Y-92465802D01*
X156610802Y-92627700D01*
X156607645Y-92632208D01*
X156607643Y-92632211D01*
X156500819Y-92784771D01*
X156445362Y-92829099D01*
X156397606Y-92838500D01*
X150807767Y-92838500D01*
X150796584Y-92837973D01*
X150789091Y-92836298D01*
X150781165Y-92836547D01*
X150781164Y-92836547D01*
X150721001Y-92838438D01*
X150717043Y-92838500D01*
X150689144Y-92838500D01*
X150685154Y-92839004D01*
X150673320Y-92839936D01*
X150629111Y-92841326D01*
X150621497Y-92843538D01*
X150621492Y-92843539D01*
X150609659Y-92846977D01*
X150590296Y-92850988D01*
X150570203Y-92853526D01*
X150562836Y-92856443D01*
X150562831Y-92856444D01*
X150529092Y-92869802D01*
X150517865Y-92873646D01*
X150475407Y-92885982D01*
X150468581Y-92890019D01*
X150457972Y-92896293D01*
X150440224Y-92904988D01*
X150421383Y-92912448D01*
X150414967Y-92917110D01*
X150414966Y-92917110D01*
X150385613Y-92938436D01*
X150375693Y-92944952D01*
X150344465Y-92963420D01*
X150344462Y-92963422D01*
X150337638Y-92967458D01*
X150323317Y-92981779D01*
X150308284Y-92994619D01*
X150291893Y-93006528D01*
X150286840Y-93012636D01*
X150286839Y-93012637D01*
X150266837Y-93036815D01*
X150208004Y-93076553D01*
X150169752Y-93082500D01*
X148984600Y-93082500D01*
X148981354Y-93082837D01*
X148981350Y-93082837D01*
X148885692Y-93092762D01*
X148885688Y-93092763D01*
X148878834Y-93093474D01*
X148872298Y-93095655D01*
X148872296Y-93095655D01*
X148740194Y-93139728D01*
X148711054Y-93149450D01*
X148560652Y-93242522D01*
X148435695Y-93367697D01*
X148431855Y-93373927D01*
X148431854Y-93373928D01*
X148368027Y-93477475D01*
X148342885Y-93518262D01*
X148327556Y-93564479D01*
X148307397Y-93625257D01*
X148287203Y-93686139D01*
X148276500Y-93790600D01*
X148276500Y-95091400D01*
X148276837Y-95094646D01*
X148276837Y-95094650D01*
X148284885Y-95172211D01*
X148287474Y-95197166D01*
X148289655Y-95203702D01*
X148289655Y-95203704D01*
X148333728Y-95335806D01*
X148343450Y-95364946D01*
X148436522Y-95515348D01*
X148561697Y-95640305D01*
X148707340Y-95730081D01*
X148754832Y-95782852D01*
X148766256Y-95852924D01*
X148737982Y-95918048D01*
X148728195Y-95928510D01*
X148613865Y-96037576D01*
X148476246Y-96222542D01*
X148473830Y-96227293D01*
X148473828Y-96227297D01*
X148464623Y-96245402D01*
X148371760Y-96428051D01*
X148370178Y-96433145D01*
X148370177Y-96433148D01*
X148308115Y-96633020D01*
X148303393Y-96648227D01*
X148302692Y-96653516D01*
X148274879Y-96863369D01*
X148273102Y-96876774D01*
X148273302Y-96882103D01*
X148273302Y-96882105D01*
X148277427Y-96991966D01*
X148281751Y-97107158D01*
X148329093Y-97332791D01*
X148331051Y-97337750D01*
X148331052Y-97337752D01*
X148361353Y-97414477D01*
X148413776Y-97547221D01*
X148533377Y-97744317D01*
X148536874Y-97748347D01*
X148678134Y-97911135D01*
X148684477Y-97918445D01*
X148688608Y-97921832D01*
X148858627Y-98061240D01*
X148858633Y-98061244D01*
X148862755Y-98064624D01*
X148894250Y-98082552D01*
X148943555Y-98133632D01*
X148957417Y-98203262D01*
X148931434Y-98269333D01*
X148902284Y-98296573D01*
X148780681Y-98378441D01*
X148776824Y-98382120D01*
X148776822Y-98382122D01*
X148731875Y-98425000D01*
X148613865Y-98537576D01*
X148476246Y-98722542D01*
X148473830Y-98727293D01*
X148473828Y-98727297D01*
X148444286Y-98785402D01*
X148371760Y-98928051D01*
X148370178Y-98933145D01*
X148370177Y-98933148D01*
X148344553Y-99015672D01*
X148303393Y-99148227D01*
X148302692Y-99153516D01*
X148278071Y-99339285D01*
X148273102Y-99376774D01*
X148273302Y-99382103D01*
X148273302Y-99382105D01*
X148276772Y-99474522D01*
X148281751Y-99607158D01*
X148329093Y-99832791D01*
X148413776Y-100047221D01*
X148416543Y-100051780D01*
X148416544Y-100051783D01*
X148439552Y-100089699D01*
X148533377Y-100244317D01*
X148684477Y-100418445D01*
X148721862Y-100449099D01*
X148858627Y-100561240D01*
X148858633Y-100561244D01*
X148862755Y-100564624D01*
X148894250Y-100582552D01*
X148943555Y-100633632D01*
X148957417Y-100703262D01*
X148931434Y-100769333D01*
X148902284Y-100796573D01*
X148780681Y-100878441D01*
X148613865Y-101037576D01*
X148476246Y-101222542D01*
X148371760Y-101428051D01*
X148370178Y-101433145D01*
X148370177Y-101433148D01*
X148332248Y-101555300D01*
X148303393Y-101648227D01*
X148302692Y-101653516D01*
X148277265Y-101845366D01*
X148273102Y-101876774D01*
X148273302Y-101882103D01*
X148273302Y-101882105D01*
X148276977Y-101980001D01*
X148281751Y-102107158D01*
X148329093Y-102332791D01*
X148331051Y-102337750D01*
X148331052Y-102337752D01*
X148392028Y-102492151D01*
X148413776Y-102547221D01*
X148416543Y-102551780D01*
X148416544Y-102551783D01*
X148445341Y-102599238D01*
X148533377Y-102744317D01*
X148536874Y-102748347D01*
X148659093Y-102889192D01*
X148684477Y-102918445D01*
X148688608Y-102921832D01*
X148858627Y-103061240D01*
X148858633Y-103061244D01*
X148862755Y-103064624D01*
X148894250Y-103082552D01*
X148943555Y-103133632D01*
X148957417Y-103203262D01*
X148931434Y-103269333D01*
X148902284Y-103296573D01*
X148780681Y-103378441D01*
X148776824Y-103382120D01*
X148776822Y-103382122D01*
X148748235Y-103409393D01*
X148613865Y-103537576D01*
X148476246Y-103722542D01*
X148371760Y-103928051D01*
X148370178Y-103933145D01*
X148370177Y-103933148D01*
X148338614Y-104034797D01*
X148303393Y-104148227D01*
X148302692Y-104153516D01*
X148284769Y-104288749D01*
X148273102Y-104376774D01*
X148273302Y-104382103D01*
X148273302Y-104382105D01*
X148274824Y-104422638D01*
X148281751Y-104607158D01*
X148329093Y-104832791D01*
X148331051Y-104837750D01*
X148331052Y-104837752D01*
X148407825Y-105032151D01*
X148413776Y-105047221D01*
X148533377Y-105244317D01*
X148536874Y-105248347D01*
X148659755Y-105389955D01*
X148684477Y-105418445D01*
X148688608Y-105421832D01*
X148858627Y-105561240D01*
X148858633Y-105561244D01*
X148862755Y-105564624D01*
X148867391Y-105567263D01*
X148867394Y-105567265D01*
X148976422Y-105629327D01*
X149063114Y-105678675D01*
X149279825Y-105757337D01*
X149285074Y-105758286D01*
X149285077Y-105758287D01*
X149502608Y-105797623D01*
X149502615Y-105797624D01*
X149506692Y-105798361D01*
X149524414Y-105799197D01*
X149529356Y-105799430D01*
X149529363Y-105799430D01*
X149530844Y-105799500D01*
X149942890Y-105799500D01*
X150024268Y-105792595D01*
X150109409Y-105785371D01*
X150109413Y-105785370D01*
X150114720Y-105784920D01*
X150119875Y-105783582D01*
X150119881Y-105783581D01*
X150332703Y-105728343D01*
X150332707Y-105728342D01*
X150337872Y-105727001D01*
X150342738Y-105724809D01*
X150342741Y-105724808D01*
X150543202Y-105634507D01*
X150548075Y-105632312D01*
X150739319Y-105503559D01*
X150906135Y-105344424D01*
X151043754Y-105159458D01*
X151054035Y-105139238D01*
X151105692Y-105037634D01*
X151148240Y-104953949D01*
X151184321Y-104837752D01*
X151215024Y-104738871D01*
X151216607Y-104733773D01*
X151227249Y-104653477D01*
X151246198Y-104510511D01*
X151246198Y-104510506D01*
X151246898Y-104505226D01*
X151242806Y-104396227D01*
X151260238Y-104327404D01*
X151312112Y-104278931D01*
X151368717Y-104265500D01*
X156397606Y-104265500D01*
X156465727Y-104285502D01*
X156500819Y-104319229D01*
X156607643Y-104471789D01*
X156610802Y-104476300D01*
X156772700Y-104638198D01*
X156777208Y-104641355D01*
X156777211Y-104641357D01*
X156799029Y-104656634D01*
X156960251Y-104769523D01*
X156965233Y-104771846D01*
X156965238Y-104771849D01*
X156999457Y-104787805D01*
X157052742Y-104834722D01*
X157072203Y-104902999D01*
X157051661Y-104970959D01*
X156999457Y-105016195D01*
X156965238Y-105032151D01*
X156965233Y-105032154D01*
X156960251Y-105034477D01*
X156855389Y-105107902D01*
X156777211Y-105162643D01*
X156777208Y-105162645D01*
X156772700Y-105165802D01*
X156610802Y-105327700D01*
X156607645Y-105332208D01*
X156607643Y-105332211D01*
X156500819Y-105484771D01*
X156445362Y-105529099D01*
X156397606Y-105538500D01*
X155907763Y-105538500D01*
X155896579Y-105537973D01*
X155889091Y-105536299D01*
X155881168Y-105536548D01*
X155821033Y-105538438D01*
X155817075Y-105538500D01*
X155789144Y-105538500D01*
X155785229Y-105538995D01*
X155785225Y-105538995D01*
X155785167Y-105539003D01*
X155785138Y-105539006D01*
X155773296Y-105539939D01*
X155729110Y-105541327D01*
X155711744Y-105546372D01*
X155709658Y-105546978D01*
X155690306Y-105550986D01*
X155678068Y-105552532D01*
X155678066Y-105552533D01*
X155670203Y-105553526D01*
X155629086Y-105569806D01*
X155617885Y-105573641D01*
X155575406Y-105585982D01*
X155568587Y-105590015D01*
X155568582Y-105590017D01*
X155557971Y-105596293D01*
X155540221Y-105604990D01*
X155521383Y-105612448D01*
X155514967Y-105617109D01*
X155514966Y-105617110D01*
X155485625Y-105638428D01*
X155475701Y-105644947D01*
X155444460Y-105663422D01*
X155444455Y-105663426D01*
X155437637Y-105667458D01*
X155423313Y-105681782D01*
X155408281Y-105694621D01*
X155391893Y-105706528D01*
X155363712Y-105740593D01*
X155355722Y-105749373D01*
X154079500Y-107025595D01*
X154017188Y-107059621D01*
X153990405Y-107062500D01*
X145475595Y-107062500D01*
X145407474Y-107042498D01*
X145386500Y-107025595D01*
X144307405Y-105946500D01*
X144273379Y-105884188D01*
X144270500Y-105857405D01*
X144270500Y-102430767D01*
X144271027Y-102419584D01*
X144272702Y-102412091D01*
X144270562Y-102344000D01*
X144270500Y-102340043D01*
X144270500Y-102312144D01*
X144269996Y-102308153D01*
X144269063Y-102296311D01*
X144268961Y-102293041D01*
X144267674Y-102252111D01*
X144265462Y-102244497D01*
X144265461Y-102244492D01*
X144262023Y-102232659D01*
X144258012Y-102213295D01*
X144256467Y-102201064D01*
X144255474Y-102193203D01*
X144252557Y-102185836D01*
X144252556Y-102185831D01*
X144239198Y-102152092D01*
X144235354Y-102140865D01*
X144233232Y-102133561D01*
X144223018Y-102098407D01*
X144212707Y-102080972D01*
X144204012Y-102063224D01*
X144196552Y-102044383D01*
X144170564Y-102008613D01*
X144164048Y-101998693D01*
X144145580Y-101967465D01*
X144145578Y-101967462D01*
X144141542Y-101960638D01*
X144127221Y-101946317D01*
X144114380Y-101931283D01*
X144107131Y-101921306D01*
X144102472Y-101914893D01*
X144068395Y-101886702D01*
X144059616Y-101878712D01*
X140765152Y-98584248D01*
X140731126Y-98521936D01*
X140732541Y-98462541D01*
X140748118Y-98404409D01*
X140748120Y-98404398D01*
X140749543Y-98399087D01*
X140769498Y-98171000D01*
X140749543Y-97942913D01*
X140740483Y-97909099D01*
X140691707Y-97727067D01*
X140691706Y-97727065D01*
X140690284Y-97721757D01*
X140681912Y-97703803D01*
X140595849Y-97519238D01*
X140595846Y-97519233D01*
X140593523Y-97514251D01*
X140510859Y-97396195D01*
X140465357Y-97331211D01*
X140465355Y-97331208D01*
X140462198Y-97326700D01*
X140300300Y-97164802D01*
X140295792Y-97161645D01*
X140295789Y-97161643D01*
X140210363Y-97101827D01*
X140112749Y-97033477D01*
X140107767Y-97031154D01*
X140107762Y-97031151D01*
X139910225Y-96939039D01*
X139910224Y-96939039D01*
X139905243Y-96936716D01*
X139899935Y-96935294D01*
X139899933Y-96935293D01*
X139689402Y-96878881D01*
X139689400Y-96878881D01*
X139684087Y-96877457D01*
X139456000Y-96857502D01*
X139227913Y-96877457D01*
X139222600Y-96878881D01*
X139222598Y-96878881D01*
X139012067Y-96935293D01*
X139012065Y-96935294D01*
X139006757Y-96936716D01*
X139001776Y-96939039D01*
X139001775Y-96939039D01*
X138804238Y-97031151D01*
X138804233Y-97031154D01*
X138799251Y-97033477D01*
X138701637Y-97101827D01*
X138616211Y-97161643D01*
X138616208Y-97161645D01*
X138611700Y-97164802D01*
X138449802Y-97326700D01*
X138446645Y-97331208D01*
X138446643Y-97331211D01*
X138401141Y-97396195D01*
X138318477Y-97514251D01*
X138316154Y-97519233D01*
X138316151Y-97519238D01*
X138230088Y-97703803D01*
X138221716Y-97721757D01*
X138220294Y-97727065D01*
X138220293Y-97727067D01*
X138171517Y-97909099D01*
X138162457Y-97942913D01*
X138142502Y-98171000D01*
X138162457Y-98399087D01*
X138163881Y-98404400D01*
X138163881Y-98404402D01*
X138200712Y-98541854D01*
X138221716Y-98620243D01*
X138224039Y-98625224D01*
X138224039Y-98625225D01*
X138316151Y-98822762D01*
X138316154Y-98822767D01*
X138318477Y-98827749D01*
X138321634Y-98832257D01*
X138443448Y-99006225D01*
X138449802Y-99015300D01*
X138611700Y-99177198D01*
X138616208Y-99180355D01*
X138616211Y-99180357D01*
X138623556Y-99185500D01*
X138799251Y-99308523D01*
X138804233Y-99310846D01*
X138804238Y-99310849D01*
X138838457Y-99326805D01*
X138891742Y-99373722D01*
X138911203Y-99441999D01*
X138890661Y-99509959D01*
X138838457Y-99555195D01*
X138804238Y-99571151D01*
X138804233Y-99571154D01*
X138799251Y-99573477D01*
X138696577Y-99645370D01*
X138616211Y-99701643D01*
X138616208Y-99701645D01*
X138611700Y-99704802D01*
X138449802Y-99866700D01*
X138446645Y-99871208D01*
X138446643Y-99871211D01*
X138401141Y-99936195D01*
X138318477Y-100054251D01*
X138316154Y-100059233D01*
X138316151Y-100059238D01*
X138257697Y-100184595D01*
X138221716Y-100261757D01*
X138162457Y-100482913D01*
X138142502Y-100711000D01*
X138162457Y-100939087D01*
X138163880Y-100944398D01*
X138163881Y-100944402D01*
X138189994Y-101041854D01*
X138221716Y-101160243D01*
X138224039Y-101165224D01*
X138224039Y-101165225D01*
X138316151Y-101362762D01*
X138316154Y-101362767D01*
X138318477Y-101367749D01*
X138357372Y-101423296D01*
X138443448Y-101546225D01*
X138449802Y-101555300D01*
X138611700Y-101717198D01*
X138616208Y-101720355D01*
X138616211Y-101720357D01*
X138623556Y-101725500D01*
X138799251Y-101848523D01*
X138804233Y-101850846D01*
X138804238Y-101850849D01*
X138838457Y-101866805D01*
X138891742Y-101913722D01*
X138911203Y-101981999D01*
X138890661Y-102049959D01*
X138838457Y-102095195D01*
X138804238Y-102111151D01*
X138804233Y-102111154D01*
X138799251Y-102113477D01*
X138695919Y-102185831D01*
X138616211Y-102241643D01*
X138616208Y-102241645D01*
X138611700Y-102244802D01*
X138449802Y-102406700D01*
X138446645Y-102411208D01*
X138446643Y-102411211D01*
X138420287Y-102448852D01*
X138318477Y-102594251D01*
X138316154Y-102599233D01*
X138316151Y-102599238D01*
X138246621Y-102748347D01*
X138221716Y-102801757D01*
X138220294Y-102807065D01*
X138220293Y-102807067D01*
X138176436Y-102970743D01*
X138162457Y-103022913D01*
X138142502Y-103251000D01*
X138162457Y-103479087D01*
X138163881Y-103484400D01*
X138163881Y-103484402D01*
X138198499Y-103613595D01*
X138221716Y-103700243D01*
X138224039Y-103705224D01*
X138224039Y-103705225D01*
X138316151Y-103902762D01*
X138316154Y-103902767D01*
X138318477Y-103907749D01*
X138332693Y-103928051D01*
X138443448Y-104086225D01*
X138449802Y-104095300D01*
X138611700Y-104257198D01*
X138616208Y-104260355D01*
X138616211Y-104260357D01*
X138768771Y-104367181D01*
X138813099Y-104422638D01*
X138822500Y-104470394D01*
X138822500Y-104571606D01*
X138802498Y-104639727D01*
X138768771Y-104674819D01*
X138616211Y-104781643D01*
X138616208Y-104781645D01*
X138611700Y-104784802D01*
X138449802Y-104946700D01*
X138446645Y-104951208D01*
X138446643Y-104951211D01*
X138401141Y-105016195D01*
X138318477Y-105134251D01*
X138316154Y-105139233D01*
X138316151Y-105139238D01*
X138242054Y-105298141D01*
X138221716Y-105341757D01*
X138220294Y-105347065D01*
X138220293Y-105347067D01*
X138164972Y-105553526D01*
X138162457Y-105562913D01*
X138142502Y-105791000D01*
X138162457Y-106019087D01*
X138163881Y-106024400D01*
X138163881Y-106024402D01*
X138198096Y-106152091D01*
X138221716Y-106240243D01*
X138224039Y-106245224D01*
X138224039Y-106245225D01*
X138316151Y-106442762D01*
X138316154Y-106442767D01*
X138318477Y-106447749D01*
X138369246Y-106520254D01*
X138443448Y-106626225D01*
X138449802Y-106635300D01*
X138611700Y-106797198D01*
X138616208Y-106800355D01*
X138616211Y-106800357D01*
X138623556Y-106805500D01*
X138799251Y-106928523D01*
X138804233Y-106930846D01*
X138804238Y-106930849D01*
X138838457Y-106946805D01*
X138891742Y-106993722D01*
X138911203Y-107061999D01*
X138890661Y-107129959D01*
X138838457Y-107175195D01*
X138804238Y-107191151D01*
X138804233Y-107191154D01*
X138799251Y-107193477D01*
X138736009Y-107237760D01*
X138616211Y-107321643D01*
X138616208Y-107321645D01*
X138611700Y-107324802D01*
X138449802Y-107486700D01*
X138446645Y-107491208D01*
X138446643Y-107491211D01*
X138418512Y-107531387D01*
X138318477Y-107674251D01*
X138316154Y-107679233D01*
X138316151Y-107679238D01*
X138230088Y-107863803D01*
X138221716Y-107881757D01*
X138220294Y-107887065D01*
X138220293Y-107887067D01*
X138176436Y-108050743D01*
X138162457Y-108102913D01*
X138142502Y-108331000D01*
X138162457Y-108559087D01*
X138163881Y-108564400D01*
X138163881Y-108564402D01*
X138190170Y-108662511D01*
X138221716Y-108780243D01*
X138224039Y-108785224D01*
X138224039Y-108785225D01*
X138316151Y-108982762D01*
X138316154Y-108982767D01*
X138318477Y-108987749D01*
X138321634Y-108992257D01*
X138444980Y-109168413D01*
X138449802Y-109175300D01*
X138611700Y-109337198D01*
X138616208Y-109340355D01*
X138616211Y-109340357D01*
X138649637Y-109363762D01*
X138799251Y-109468523D01*
X138804233Y-109470846D01*
X138804238Y-109470849D01*
X138838457Y-109486805D01*
X138891742Y-109533722D01*
X138911203Y-109601999D01*
X138890661Y-109669959D01*
X138838457Y-109715195D01*
X138804238Y-109731151D01*
X138804233Y-109731154D01*
X138799251Y-109733477D01*
X138694389Y-109806902D01*
X138616211Y-109861643D01*
X138616208Y-109861645D01*
X138611700Y-109864802D01*
X138449802Y-110026700D01*
X138446645Y-110031208D01*
X138446643Y-110031211D01*
X138401141Y-110096195D01*
X138318477Y-110214251D01*
X138316154Y-110219233D01*
X138316151Y-110219238D01*
X138301947Y-110249699D01*
X138221716Y-110421757D01*
X138220294Y-110427065D01*
X138220293Y-110427067D01*
X138176436Y-110590743D01*
X138162457Y-110642913D01*
X138142502Y-110871000D01*
X138162457Y-111099087D01*
X138221716Y-111320243D01*
X138224039Y-111325224D01*
X138224039Y-111325225D01*
X138316151Y-111522762D01*
X138316154Y-111522767D01*
X138318477Y-111527749D01*
X138321634Y-111532257D01*
X138443448Y-111706225D01*
X138449802Y-111715300D01*
X138611700Y-111877198D01*
X138616208Y-111880355D01*
X138616211Y-111880357D01*
X138649637Y-111903762D01*
X138799251Y-112008523D01*
X138804233Y-112010846D01*
X138804238Y-112010849D01*
X138838457Y-112026805D01*
X138891742Y-112073722D01*
X138911203Y-112141999D01*
X138890661Y-112209959D01*
X138838457Y-112255195D01*
X138804238Y-112271151D01*
X138804233Y-112271154D01*
X138799251Y-112273477D01*
X138694389Y-112346902D01*
X138616211Y-112401643D01*
X138616208Y-112401645D01*
X138611700Y-112404802D01*
X138449802Y-112566700D01*
X138446645Y-112571208D01*
X138446643Y-112571211D01*
X138431685Y-112592573D01*
X138318477Y-112754251D01*
X138316154Y-112759233D01*
X138316151Y-112759238D01*
X138248835Y-112903600D01*
X138221716Y-112961757D01*
X138162457Y-113182913D01*
X138142502Y-113411000D01*
X138162457Y-113639087D01*
X138163881Y-113644400D01*
X138163881Y-113644402D01*
X138189994Y-113741854D01*
X138221716Y-113860243D01*
X138224039Y-113865224D01*
X138224039Y-113865225D01*
X138316151Y-114062762D01*
X138316154Y-114062767D01*
X138318477Y-114067749D01*
X138449802Y-114255300D01*
X138611700Y-114417198D01*
X138616208Y-114420355D01*
X138616211Y-114420357D01*
X138686570Y-114469623D01*
X138799251Y-114548523D01*
X138804233Y-114550846D01*
X138804238Y-114550849D01*
X138838457Y-114566805D01*
X138891742Y-114613722D01*
X138911203Y-114681999D01*
X138890661Y-114749959D01*
X138838457Y-114795195D01*
X138804238Y-114811151D01*
X138804233Y-114811154D01*
X138799251Y-114813477D01*
X138694389Y-114886902D01*
X138616211Y-114941643D01*
X138616208Y-114941645D01*
X138611700Y-114944802D01*
X138449802Y-115106700D01*
X138318477Y-115294251D01*
X138316154Y-115299233D01*
X138316151Y-115299238D01*
X138246621Y-115448347D01*
X138221716Y-115501757D01*
X138220294Y-115507065D01*
X138220293Y-115507067D01*
X138177820Y-115665579D01*
X138162457Y-115722913D01*
X138142502Y-115951000D01*
X128069498Y-115951000D01*
X128049543Y-115722913D01*
X128048119Y-115717598D01*
X128048118Y-115717591D01*
X128032541Y-115659459D01*
X128034230Y-115588483D01*
X128065152Y-115537752D01*
X136795048Y-106807856D01*
X136837758Y-106779800D01*
X136863012Y-106769801D01*
X136870461Y-106767119D01*
X136923875Y-106749764D01*
X136930572Y-106745514D01*
X136930831Y-106745350D01*
X136951958Y-106734585D01*
X136952246Y-106734471D01*
X136952251Y-106734468D01*
X136959617Y-106731552D01*
X136966025Y-106726896D01*
X136966031Y-106726893D01*
X137005052Y-106698542D01*
X137011589Y-106694099D01*
X137059018Y-106664000D01*
X137064659Y-106657993D01*
X137082446Y-106642312D01*
X137082691Y-106642134D01*
X137082693Y-106642132D01*
X137089107Y-106637472D01*
X137106926Y-106615933D01*
X137124903Y-106594204D01*
X137130134Y-106588270D01*
X137163158Y-106553102D01*
X137163160Y-106553099D01*
X137168586Y-106547321D01*
X137172558Y-106540097D01*
X137185881Y-106520494D01*
X137186080Y-106520254D01*
X137186084Y-106520247D01*
X137191133Y-106514144D01*
X137215047Y-106463324D01*
X137218629Y-106456292D01*
X137245695Y-106407060D01*
X137247665Y-106399385D01*
X137247668Y-106399379D01*
X137247744Y-106399081D01*
X137255776Y-106376772D01*
X137255906Y-106376497D01*
X137255909Y-106376489D01*
X137259283Y-106369318D01*
X137269806Y-106314151D01*
X137271532Y-106306429D01*
X137273058Y-106300489D01*
X137285500Y-106252030D01*
X137285500Y-106243793D01*
X137287732Y-106220184D01*
X137287790Y-106219881D01*
X137287790Y-106219877D01*
X137289275Y-106212094D01*
X137285749Y-106156049D01*
X137285500Y-106148138D01*
X137285500Y-85659580D01*
X148049752Y-85659580D01*
X148074477Y-85777421D01*
X148077537Y-85787617D01*
X148158263Y-85992029D01*
X148162994Y-86001561D01*
X148277016Y-86189462D01*
X148283280Y-86198052D01*
X148427327Y-86364052D01*
X148434958Y-86371472D01*
X148604911Y-86510826D01*
X148613678Y-86516850D01*
X148804682Y-86625576D01*
X148814346Y-86630041D01*
X149020941Y-86705031D01*
X149031208Y-86707802D01*
X149234174Y-86744504D01*
X149247414Y-86743085D01*
X149252000Y-86728450D01*
X149252000Y-86724849D01*
X149760000Y-86724849D01*
X149764310Y-86739527D01*
X149776193Y-86741590D01*
X149855325Y-86734876D01*
X149865797Y-86733086D01*
X150078535Y-86677870D01*
X150088575Y-86674335D01*
X150288970Y-86584063D01*
X150298256Y-86578894D01*
X150480575Y-86456150D01*
X150488870Y-86449481D01*
X150647900Y-86297772D01*
X150654941Y-86289814D01*
X150786141Y-86113475D01*
X150791745Y-86104438D01*
X150891357Y-85908516D01*
X150895357Y-85898665D01*
X150960534Y-85688760D01*
X150962817Y-85678376D01*
X150964861Y-85662957D01*
X150962665Y-85648793D01*
X150949478Y-85645000D01*
X149778115Y-85645000D01*
X149762876Y-85649475D01*
X149761671Y-85650865D01*
X149760000Y-85658548D01*
X149760000Y-86724849D01*
X149252000Y-86724849D01*
X149252000Y-85663115D01*
X149247525Y-85647876D01*
X149246135Y-85646671D01*
X149238452Y-85645000D01*
X148064808Y-85645000D01*
X148051277Y-85648973D01*
X148049752Y-85659580D01*
X137285500Y-85659580D01*
X137285500Y-80705594D01*
X137305502Y-80637473D01*
X137322405Y-80616499D01*
X149871247Y-68067657D01*
X149879537Y-68060113D01*
X149886018Y-68056000D01*
X149932659Y-68006332D01*
X149935413Y-68003491D01*
X149955134Y-67983770D01*
X149957612Y-67980575D01*
X149965318Y-67971553D01*
X149990158Y-67945101D01*
X149995586Y-67939321D01*
X150005346Y-67921568D01*
X150016199Y-67905045D01*
X150023753Y-67895306D01*
X150028613Y-67889041D01*
X150046176Y-67848457D01*
X150051383Y-67837827D01*
X150072695Y-67799060D01*
X150074666Y-67791383D01*
X150074668Y-67791378D01*
X150077732Y-67779442D01*
X150084138Y-67760730D01*
X150089034Y-67749417D01*
X150092181Y-67742145D01*
X150099097Y-67698481D01*
X150101504Y-67686860D01*
X150110528Y-67651711D01*
X150110528Y-67651710D01*
X150112500Y-67644030D01*
X150112500Y-67623769D01*
X150114051Y-67604058D01*
X150115979Y-67591885D01*
X150117219Y-67584057D01*
X150113059Y-67540046D01*
X150112500Y-67528189D01*
X150112500Y-64742856D01*
X150129260Y-64685777D01*
X156912777Y-64685777D01*
X156922074Y-64697793D01*
X156965069Y-64727898D01*
X156974555Y-64733376D01*
X157165993Y-64822645D01*
X157176285Y-64826391D01*
X157380309Y-64881059D01*
X157391104Y-64882962D01*
X157601525Y-64901372D01*
X157612475Y-64901372D01*
X157822896Y-64882962D01*
X157833691Y-64881059D01*
X158037715Y-64826391D01*
X158048007Y-64822645D01*
X158239445Y-64733376D01*
X158248931Y-64727898D01*
X158292764Y-64697207D01*
X158301139Y-64686729D01*
X158300639Y-64685777D01*
X179772777Y-64685777D01*
X179782074Y-64697793D01*
X179825069Y-64727898D01*
X179834555Y-64733376D01*
X180025993Y-64822645D01*
X180036285Y-64826391D01*
X180240309Y-64881059D01*
X180251104Y-64882962D01*
X180461525Y-64901372D01*
X180472475Y-64901372D01*
X180682896Y-64882962D01*
X180693691Y-64881059D01*
X180897715Y-64826391D01*
X180908007Y-64822645D01*
X181099445Y-64733376D01*
X181108931Y-64727898D01*
X181152764Y-64697207D01*
X181161139Y-64686729D01*
X181154071Y-64673281D01*
X180479812Y-63999022D01*
X180465868Y-63991408D01*
X180464035Y-63991539D01*
X180457420Y-63995790D01*
X179779207Y-64674003D01*
X179772777Y-64685777D01*
X158300639Y-64685777D01*
X158294071Y-64673281D01*
X157619812Y-63999022D01*
X157605868Y-63991408D01*
X157604035Y-63991539D01*
X157597420Y-63995790D01*
X156919207Y-64674003D01*
X156912777Y-64685777D01*
X150129260Y-64685777D01*
X150132502Y-64674735D01*
X150186158Y-64628242D01*
X150225496Y-64617529D01*
X150235166Y-64616526D01*
X150241702Y-64614345D01*
X150241704Y-64614345D01*
X150373806Y-64570272D01*
X150402946Y-64560550D01*
X150553348Y-64467478D01*
X150678305Y-64342303D01*
X150691350Y-64321140D01*
X150767275Y-64197968D01*
X150767276Y-64197966D01*
X150771115Y-64191738D01*
X150826797Y-64023861D01*
X150837500Y-63919400D01*
X150837500Y-63878500D01*
X150857502Y-63810379D01*
X150911158Y-63763886D01*
X150963500Y-63752500D01*
X152321233Y-63752500D01*
X152332416Y-63753027D01*
X152339909Y-63754702D01*
X152347835Y-63754453D01*
X152347836Y-63754453D01*
X152407986Y-63752562D01*
X152411945Y-63752500D01*
X152439856Y-63752500D01*
X152443791Y-63752003D01*
X152443856Y-63751995D01*
X152455693Y-63751062D01*
X152487951Y-63750048D01*
X152491970Y-63749922D01*
X152499889Y-63749673D01*
X152519343Y-63744021D01*
X152538700Y-63740013D01*
X152550930Y-63738468D01*
X152550931Y-63738468D01*
X152558797Y-63737474D01*
X152566168Y-63734555D01*
X152566170Y-63734555D01*
X152599912Y-63721196D01*
X152611142Y-63717351D01*
X152645983Y-63707229D01*
X152645984Y-63707229D01*
X152653593Y-63705018D01*
X152660412Y-63700985D01*
X152660417Y-63700983D01*
X152671028Y-63694707D01*
X152688776Y-63686012D01*
X152707617Y-63678552D01*
X152743387Y-63652564D01*
X152753307Y-63646048D01*
X152776258Y-63632475D01*
X156332628Y-63632475D01*
X156351038Y-63842896D01*
X156352941Y-63853691D01*
X156407609Y-64057715D01*
X156411355Y-64068007D01*
X156500623Y-64259441D01*
X156506103Y-64268932D01*
X156536794Y-64312765D01*
X156547271Y-64321140D01*
X156560718Y-64314072D01*
X157234978Y-63639812D01*
X157241356Y-63628132D01*
X157971408Y-63628132D01*
X157971539Y-63629965D01*
X157975790Y-63636580D01*
X158654003Y-64314793D01*
X158665777Y-64321223D01*
X158677793Y-64311926D01*
X158707897Y-64268932D01*
X158713377Y-64259441D01*
X158802645Y-64068007D01*
X158806391Y-64057715D01*
X158861059Y-63853691D01*
X158862962Y-63842896D01*
X158881372Y-63632475D01*
X179192628Y-63632475D01*
X179211038Y-63842896D01*
X179212941Y-63853691D01*
X179267609Y-64057715D01*
X179271355Y-64068007D01*
X179360623Y-64259441D01*
X179366103Y-64268932D01*
X179396794Y-64312765D01*
X179407271Y-64321140D01*
X179420718Y-64314072D01*
X180094978Y-63639812D01*
X180101356Y-63628132D01*
X180831408Y-63628132D01*
X180831539Y-63629965D01*
X180835790Y-63636580D01*
X181514003Y-64314793D01*
X181525777Y-64321223D01*
X181537793Y-64311926D01*
X181567897Y-64268932D01*
X181573377Y-64259441D01*
X181662645Y-64068007D01*
X181666391Y-64057715D01*
X181721059Y-63853691D01*
X181722962Y-63842896D01*
X181741372Y-63632475D01*
X181741372Y-63621525D01*
X181722962Y-63411104D01*
X181721059Y-63400309D01*
X181666391Y-63196285D01*
X181662645Y-63185993D01*
X181573377Y-62994559D01*
X181567897Y-62985068D01*
X181537206Y-62941235D01*
X181526729Y-62932860D01*
X181513282Y-62939928D01*
X180839022Y-63614188D01*
X180831408Y-63628132D01*
X180101356Y-63628132D01*
X180102592Y-63625868D01*
X180102461Y-63624035D01*
X180098210Y-63617420D01*
X179419997Y-62939207D01*
X179408223Y-62932777D01*
X179396207Y-62942074D01*
X179366103Y-62985068D01*
X179360623Y-62994559D01*
X179271355Y-63185993D01*
X179267609Y-63196285D01*
X179212941Y-63400309D01*
X179211038Y-63411104D01*
X179192628Y-63621525D01*
X179192628Y-63632475D01*
X158881372Y-63632475D01*
X158881372Y-63621525D01*
X158862962Y-63411104D01*
X158861059Y-63400309D01*
X158806391Y-63196285D01*
X158802645Y-63185993D01*
X158713377Y-62994559D01*
X158707897Y-62985068D01*
X158677206Y-62941235D01*
X158666729Y-62932860D01*
X158653282Y-62939928D01*
X157979022Y-63614188D01*
X157971408Y-63628132D01*
X157241356Y-63628132D01*
X157242592Y-63625868D01*
X157242461Y-63624035D01*
X157238210Y-63617420D01*
X156559997Y-62939207D01*
X156548223Y-62932777D01*
X156536207Y-62942074D01*
X156506103Y-62985068D01*
X156500623Y-62994559D01*
X156411355Y-63185993D01*
X156407609Y-63196285D01*
X156352941Y-63400309D01*
X156351038Y-63411104D01*
X156332628Y-63621525D01*
X156332628Y-63632475D01*
X152776258Y-63632475D01*
X152784535Y-63627580D01*
X152784538Y-63627578D01*
X152791362Y-63623542D01*
X152805683Y-63609221D01*
X152820717Y-63596380D01*
X152830694Y-63589131D01*
X152837107Y-63584472D01*
X152865298Y-63550395D01*
X152873288Y-63541616D01*
X154657500Y-61757405D01*
X154719812Y-61723379D01*
X154746595Y-61720500D01*
X156210500Y-61720500D01*
X156278621Y-61740502D01*
X156325114Y-61794158D01*
X156336500Y-61846500D01*
X156336500Y-61897134D01*
X156343255Y-61959316D01*
X156394385Y-62095705D01*
X156481739Y-62212261D01*
X156598295Y-62299615D01*
X156734684Y-62350745D01*
X156796866Y-62357500D01*
X156818515Y-62357500D01*
X156886636Y-62377502D01*
X156933129Y-62431158D01*
X156943233Y-62501432D01*
X156916936Y-62562172D01*
X156912860Y-62567271D01*
X156919928Y-62580718D01*
X157594188Y-63254978D01*
X157608132Y-63262592D01*
X157609965Y-63262461D01*
X157616580Y-63258210D01*
X158294793Y-62579997D01*
X158301223Y-62568223D01*
X158295326Y-62560601D01*
X158269463Y-62494483D01*
X158283451Y-62424878D01*
X158332850Y-62373885D01*
X158394983Y-62357500D01*
X158417134Y-62357500D01*
X158479316Y-62350745D01*
X158615705Y-62299615D01*
X158732261Y-62212261D01*
X158819615Y-62095705D01*
X158870745Y-61959316D01*
X158877500Y-61897134D01*
X158877500Y-60276866D01*
X158870745Y-60214684D01*
X158819615Y-60078295D01*
X158732261Y-59961739D01*
X158615705Y-59874385D01*
X158479316Y-59823255D01*
X158417134Y-59816500D01*
X156796866Y-59816500D01*
X156734684Y-59823255D01*
X156598295Y-59874385D01*
X156481739Y-59961739D01*
X156394385Y-60078295D01*
X156343255Y-60214684D01*
X156336500Y-60276866D01*
X156336500Y-60327500D01*
X156316498Y-60395621D01*
X156262842Y-60442114D01*
X156210500Y-60453500D01*
X154510767Y-60453500D01*
X154499584Y-60452973D01*
X154492091Y-60451298D01*
X154484165Y-60451547D01*
X154484164Y-60451547D01*
X154424001Y-60453438D01*
X154420043Y-60453500D01*
X154392144Y-60453500D01*
X154388154Y-60454004D01*
X154376320Y-60454936D01*
X154332111Y-60456326D01*
X154324497Y-60458538D01*
X154324492Y-60458539D01*
X154312659Y-60461977D01*
X154293296Y-60465988D01*
X154273203Y-60468526D01*
X154265836Y-60471443D01*
X154265831Y-60471444D01*
X154232092Y-60484802D01*
X154220865Y-60488646D01*
X154178407Y-60500982D01*
X154171581Y-60505019D01*
X154160972Y-60511293D01*
X154143224Y-60519988D01*
X154124383Y-60527448D01*
X154117967Y-60532110D01*
X154117966Y-60532110D01*
X154088613Y-60553436D01*
X154078693Y-60559952D01*
X154047465Y-60578420D01*
X154047462Y-60578422D01*
X154040638Y-60582458D01*
X154026317Y-60596779D01*
X154011284Y-60609619D01*
X153994893Y-60621528D01*
X153989842Y-60627634D01*
X153966702Y-60655605D01*
X153958712Y-60664384D01*
X152174500Y-62448595D01*
X152112188Y-62482621D01*
X152085405Y-62485500D01*
X150963500Y-62485500D01*
X150895379Y-62465498D01*
X150848886Y-62411842D01*
X150837500Y-62359500D01*
X150837500Y-62318600D01*
X150835530Y-62299615D01*
X150827238Y-62219692D01*
X150827237Y-62219688D01*
X150826526Y-62212834D01*
X150823940Y-62205081D01*
X150772868Y-62052002D01*
X150770550Y-62045054D01*
X150677478Y-61894652D01*
X150552303Y-61769695D01*
X150532365Y-61757405D01*
X150407968Y-61680725D01*
X150407966Y-61680724D01*
X150401738Y-61676885D01*
X150321995Y-61650436D01*
X150240389Y-61623368D01*
X150240387Y-61623368D01*
X150233861Y-61621203D01*
X150227025Y-61620503D01*
X150227022Y-61620502D01*
X150183969Y-61616091D01*
X150129400Y-61610500D01*
X148828600Y-61610500D01*
X148825354Y-61610837D01*
X148825350Y-61610837D01*
X148729692Y-61620762D01*
X148729688Y-61620763D01*
X148722834Y-61621474D01*
X148716298Y-61623655D01*
X148716296Y-61623655D01*
X148677220Y-61636692D01*
X148555054Y-61677450D01*
X148404652Y-61770522D01*
X148279695Y-61895697D01*
X148275855Y-61901927D01*
X148275854Y-61901928D01*
X148253843Y-61937637D01*
X148206170Y-62014977D01*
X148189920Y-62041339D01*
X148137148Y-62088832D01*
X148067076Y-62100256D01*
X148001952Y-62071982D01*
X147991490Y-62062195D01*
X147900406Y-61966715D01*
X147882424Y-61947865D01*
X147697458Y-61810246D01*
X147692707Y-61807830D01*
X147692703Y-61807828D01*
X147570731Y-61745815D01*
X147491949Y-61705760D01*
X147486855Y-61704178D01*
X147486852Y-61704177D01*
X147276871Y-61638976D01*
X147271773Y-61637393D01*
X147266484Y-61636692D01*
X147048511Y-61607802D01*
X147048506Y-61607802D01*
X147043226Y-61607102D01*
X147037897Y-61607302D01*
X147037895Y-61607302D01*
X146928034Y-61611427D01*
X146812842Y-61615751D01*
X146807623Y-61616846D01*
X146785566Y-61621474D01*
X146587209Y-61663093D01*
X146582250Y-61665051D01*
X146582248Y-61665052D01*
X146377744Y-61745815D01*
X146377742Y-61745816D01*
X146372779Y-61747776D01*
X146368220Y-61750543D01*
X146368217Y-61750544D01*
X146269832Y-61810246D01*
X146175683Y-61867377D01*
X146171653Y-61870874D01*
X146061206Y-61966715D01*
X146001555Y-62018477D01*
X145982809Y-62041339D01*
X145858760Y-62192627D01*
X145858756Y-62192633D01*
X145855376Y-62196755D01*
X145852737Y-62201391D01*
X145852735Y-62201394D01*
X145796825Y-62299615D01*
X145741325Y-62397114D01*
X145662663Y-62613825D01*
X145661714Y-62619074D01*
X145661713Y-62619077D01*
X145622377Y-62836608D01*
X145622376Y-62836615D01*
X145621639Y-62840692D01*
X145620500Y-62864844D01*
X145620500Y-63326890D01*
X145635080Y-63498720D01*
X145636418Y-63503875D01*
X145636419Y-63503881D01*
X145689198Y-63707229D01*
X145692999Y-63721872D01*
X145695191Y-63726738D01*
X145695192Y-63726741D01*
X145711925Y-63763886D01*
X145787688Y-63932075D01*
X145916441Y-64123319D01*
X145920120Y-64127176D01*
X145920122Y-64127178D01*
X145981710Y-64191738D01*
X146075576Y-64290135D01*
X146260542Y-64427754D01*
X146265294Y-64430170D01*
X146265302Y-64430175D01*
X146276606Y-64435922D01*
X146328263Y-64484625D01*
X146345500Y-64548238D01*
X146345500Y-66066405D01*
X146325498Y-66134526D01*
X146308595Y-66155500D01*
X133052747Y-79411348D01*
X133044461Y-79418888D01*
X133037982Y-79423000D01*
X133032557Y-79428777D01*
X132991357Y-79472651D01*
X132988602Y-79475493D01*
X132968865Y-79495230D01*
X132966385Y-79498427D01*
X132958682Y-79507447D01*
X132928414Y-79539679D01*
X132924595Y-79546625D01*
X132924593Y-79546628D01*
X132918652Y-79557434D01*
X132907801Y-79573953D01*
X132895386Y-79589959D01*
X132892241Y-79597228D01*
X132892238Y-79597232D01*
X132877826Y-79630537D01*
X132872609Y-79641187D01*
X132851305Y-79679940D01*
X132849334Y-79687615D01*
X132849334Y-79687616D01*
X132846267Y-79699562D01*
X132839863Y-79718266D01*
X132831819Y-79736855D01*
X132830580Y-79744678D01*
X132830577Y-79744688D01*
X132824901Y-79780524D01*
X132822495Y-79792144D01*
X132811500Y-79834970D01*
X132811500Y-79855224D01*
X132809949Y-79874934D01*
X132806780Y-79894943D01*
X132807526Y-79902835D01*
X132810941Y-79938961D01*
X132811500Y-79950819D01*
X132811500Y-85259362D01*
X132791498Y-85327483D01*
X132734935Y-85375259D01*
X132534982Y-85460546D01*
X132534978Y-85460548D01*
X132531030Y-85462232D01*
X132412414Y-85533222D01*
X132299725Y-85600664D01*
X132299721Y-85600667D01*
X132296043Y-85602868D01*
X132082318Y-85774094D01*
X132065717Y-85791588D01*
X131925797Y-85939033D01*
X131893808Y-85972742D01*
X131734002Y-86195136D01*
X131605857Y-86437161D01*
X131604385Y-86441184D01*
X131604383Y-86441188D01*
X131552098Y-86584063D01*
X131511743Y-86694337D01*
X131453404Y-86961907D01*
X131431917Y-87234918D01*
X131447682Y-87508320D01*
X131448507Y-87512525D01*
X131448508Y-87512533D01*
X131454643Y-87543803D01*
X131500405Y-87777053D01*
X131501792Y-87781103D01*
X131501793Y-87781108D01*
X131557138Y-87942757D01*
X131589112Y-88036144D01*
X131712160Y-88280799D01*
X131714586Y-88284328D01*
X131714589Y-88284334D01*
X131864843Y-88502953D01*
X131867274Y-88506490D01*
X132051582Y-88709043D01*
X132261675Y-88884707D01*
X132265316Y-88886991D01*
X132490024Y-89027951D01*
X132490028Y-89027953D01*
X132493664Y-89030234D01*
X132561544Y-89060883D01*
X132739345Y-89141164D01*
X132739349Y-89141166D01*
X132743257Y-89142930D01*
X132747377Y-89144150D01*
X132747376Y-89144150D01*
X133001723Y-89219491D01*
X133001727Y-89219492D01*
X133005836Y-89220709D01*
X133010070Y-89221357D01*
X133010075Y-89221358D01*
X133272298Y-89261483D01*
X133272300Y-89261483D01*
X133276540Y-89262132D01*
X133415912Y-89264322D01*
X133546071Y-89266367D01*
X133546077Y-89266367D01*
X133550362Y-89266434D01*
X133822235Y-89233534D01*
X134087127Y-89164041D01*
X134091087Y-89162401D01*
X134091092Y-89162399D01*
X134213632Y-89111641D01*
X134340136Y-89059241D01*
X134576582Y-88921073D01*
X134792089Y-88752094D01*
X134833809Y-88709043D01*
X134979686Y-88558509D01*
X134982669Y-88555431D01*
X134985202Y-88551983D01*
X134985206Y-88551978D01*
X135142257Y-88338178D01*
X135144795Y-88334723D01*
X135172154Y-88284334D01*
X135273418Y-88097830D01*
X135273419Y-88097828D01*
X135275468Y-88094054D01*
X135372269Y-87837877D01*
X135433407Y-87570933D01*
X135435481Y-87547700D01*
X135457531Y-87300627D01*
X135457531Y-87300625D01*
X135457751Y-87298161D01*
X135458193Y-87256000D01*
X135453759Y-87190959D01*
X135439859Y-86987055D01*
X135439858Y-86987049D01*
X135439567Y-86982778D01*
X135413768Y-86858198D01*
X135390222Y-86744504D01*
X135384032Y-86714612D01*
X135292617Y-86456465D01*
X135167013Y-86213112D01*
X135157040Y-86198921D01*
X135012008Y-85992562D01*
X135009545Y-85989057D01*
X134876011Y-85845357D01*
X134826046Y-85791588D01*
X134826043Y-85791585D01*
X134823125Y-85788445D01*
X134819810Y-85785731D01*
X134819806Y-85785728D01*
X134662553Y-85657018D01*
X134611205Y-85614990D01*
X134377704Y-85471901D01*
X134373768Y-85470173D01*
X134153854Y-85373637D01*
X134099519Y-85327941D01*
X134078500Y-85258264D01*
X134078500Y-80229594D01*
X134098502Y-80161473D01*
X134115405Y-80140499D01*
X147371247Y-66884657D01*
X147379537Y-66877113D01*
X147386018Y-66873000D01*
X147432659Y-66823332D01*
X147435413Y-66820491D01*
X147455134Y-66800770D01*
X147457612Y-66797575D01*
X147465318Y-66788553D01*
X147490158Y-66762101D01*
X147495586Y-66756321D01*
X147505346Y-66738568D01*
X147516199Y-66722045D01*
X147523753Y-66712306D01*
X147528613Y-66706041D01*
X147546176Y-66665457D01*
X147551383Y-66654827D01*
X147572695Y-66616060D01*
X147574666Y-66608383D01*
X147574668Y-66608378D01*
X147577732Y-66596442D01*
X147584138Y-66577730D01*
X147589034Y-66566417D01*
X147592181Y-66559145D01*
X147599097Y-66515481D01*
X147601504Y-66503860D01*
X147610528Y-66468711D01*
X147610528Y-66468710D01*
X147612500Y-66461030D01*
X147612500Y-66440769D01*
X147614051Y-66421058D01*
X147615979Y-66408885D01*
X147617219Y-66401057D01*
X147613059Y-66357046D01*
X147612500Y-66345189D01*
X147612500Y-64544596D01*
X147632502Y-64476475D01*
X147673134Y-64436877D01*
X147777757Y-64373390D01*
X147782317Y-64370623D01*
X147849960Y-64311926D01*
X147952412Y-64223023D01*
X147952414Y-64223021D01*
X147956445Y-64219523D01*
X147985670Y-64183880D01*
X148044329Y-64143886D01*
X148115299Y-64141954D01*
X148176048Y-64178698D01*
X148190248Y-64197468D01*
X148234472Y-64268932D01*
X148280522Y-64343348D01*
X148405697Y-64468305D01*
X148411927Y-64472145D01*
X148411928Y-64472146D01*
X148549090Y-64556694D01*
X148556262Y-64561115D01*
X148636005Y-64587564D01*
X148717611Y-64614632D01*
X148717613Y-64614632D01*
X148724139Y-64616797D01*
X148730980Y-64617498D01*
X148730985Y-64617499D01*
X148732349Y-64617639D01*
X148733136Y-64617960D01*
X148737710Y-64618941D01*
X148737535Y-64619757D01*
X148798075Y-64644483D01*
X148838854Y-64702600D01*
X148845500Y-64742982D01*
X148845500Y-67249405D01*
X148825498Y-67317526D01*
X148808595Y-67338500D01*
X136259747Y-79887348D01*
X136251461Y-79894888D01*
X136244982Y-79899000D01*
X136239557Y-79904777D01*
X136198357Y-79948651D01*
X136195602Y-79951493D01*
X136175865Y-79971230D01*
X136173385Y-79974427D01*
X136165682Y-79983447D01*
X136135414Y-80015679D01*
X136131595Y-80022625D01*
X136131593Y-80022628D01*
X136125652Y-80033434D01*
X136114801Y-80049953D01*
X136102386Y-80065959D01*
X136099241Y-80073228D01*
X136099238Y-80073232D01*
X136084826Y-80106537D01*
X136079609Y-80117187D01*
X136058305Y-80155940D01*
X136056334Y-80163615D01*
X136056334Y-80163616D01*
X136053267Y-80175562D01*
X136046863Y-80194266D01*
X136038819Y-80212855D01*
X136037580Y-80220678D01*
X136037577Y-80220688D01*
X136031901Y-80256524D01*
X136029495Y-80268144D01*
X136018500Y-80310970D01*
X136018500Y-80331224D01*
X136016949Y-80350934D01*
X136013780Y-80370943D01*
X136014526Y-80378835D01*
X136017941Y-80414961D01*
X136018500Y-80426819D01*
X136018500Y-105740405D01*
X135998498Y-105808526D01*
X135981595Y-105829500D01*
X128171323Y-113639772D01*
X128109011Y-113673798D01*
X128032629Y-113666504D01*
X128029117Y-113665000D01*
X125488035Y-113665000D01*
X125465357Y-113671659D01*
X125394361Y-113671659D01*
X125340763Y-113639858D01*
X120263223Y-108562318D01*
X120229197Y-108500006D01*
X120234262Y-108429191D01*
X120241797Y-108412715D01*
X120244232Y-108408268D01*
X120249615Y-108401085D01*
X120300745Y-108264696D01*
X120307500Y-108202514D01*
X120307500Y-106506246D01*
X120300745Y-106444064D01*
X120249615Y-106307675D01*
X120162261Y-106191119D01*
X120045705Y-106103765D01*
X119909316Y-106052635D01*
X119865748Y-106047902D01*
X119850514Y-106046247D01*
X119850511Y-106046247D01*
X119847134Y-106045880D01*
X119843815Y-106045880D01*
X119776890Y-106022227D01*
X119741196Y-105976224D01*
X119739266Y-105977239D01*
X119733558Y-105966380D01*
X119733368Y-105966135D01*
X119733347Y-105965977D01*
X119713356Y-105927946D01*
X119011812Y-105226402D01*
X118997868Y-105218788D01*
X118996035Y-105218919D01*
X118989420Y-105223170D01*
X118283923Y-105928667D01*
X118261129Y-105970409D01*
X118258953Y-105980409D01*
X118208747Y-106030607D01*
X118155186Y-106045831D01*
X118154281Y-106045880D01*
X118150866Y-106045880D01*
X118147470Y-106046249D01*
X118147468Y-106046249D01*
X118135121Y-106047590D01*
X118088684Y-106052635D01*
X117952295Y-106103765D01*
X117835739Y-106191119D01*
X117748385Y-106307675D01*
X117697255Y-106444064D01*
X117690500Y-106506246D01*
X117690500Y-108202514D01*
X113538500Y-108202514D01*
X113538500Y-104859855D01*
X117686483Y-104859855D01*
X117705472Y-105076899D01*
X117707375Y-105087692D01*
X117763764Y-105298141D01*
X117767510Y-105308433D01*
X117859586Y-105505891D01*
X117865069Y-105515386D01*
X117901509Y-105567428D01*
X117911988Y-105575804D01*
X117925434Y-105568736D01*
X118626978Y-104867192D01*
X118634592Y-104853248D01*
X118634461Y-104851415D01*
X118630210Y-104844800D01*
X117924713Y-104139303D01*
X117912938Y-104132873D01*
X117900923Y-104142169D01*
X117865069Y-104193374D01*
X117859586Y-104202869D01*
X117767510Y-104400327D01*
X117763764Y-104410619D01*
X117707375Y-104621068D01*
X117705472Y-104631861D01*
X117686483Y-104848905D01*
X117686483Y-104859855D01*
X113538500Y-104859855D01*
X113538500Y-56049774D01*
X116733102Y-56049774D01*
X116733302Y-56055103D01*
X116733302Y-56055105D01*
X116735451Y-56112356D01*
X116741751Y-56280158D01*
X116789093Y-56505791D01*
X116791051Y-56510750D01*
X116791052Y-56510752D01*
X116861992Y-56690381D01*
X116873776Y-56720221D01*
X116993377Y-56917317D01*
X116996874Y-56921347D01*
X117092459Y-57031499D01*
X117144477Y-57091445D01*
X117180120Y-57120670D01*
X117220114Y-57179329D01*
X117222046Y-57250299D01*
X117185302Y-57311048D01*
X117166532Y-57325248D01*
X117035579Y-57406285D01*
X117020652Y-57415522D01*
X116895695Y-57540697D01*
X116891855Y-57546927D01*
X116891854Y-57546928D01*
X116859064Y-57600124D01*
X116802885Y-57691262D01*
X116747203Y-57859139D01*
X116736500Y-57963600D01*
X116736500Y-59264400D01*
X116736837Y-59267646D01*
X116736837Y-59267650D01*
X116739708Y-59295316D01*
X116747474Y-59370166D01*
X116749655Y-59376702D01*
X116749655Y-59376704D01*
X116793728Y-59508806D01*
X116803450Y-59537946D01*
X116896522Y-59688348D01*
X117021697Y-59813305D01*
X117027927Y-59817145D01*
X117027928Y-59817146D01*
X117143783Y-59888560D01*
X117172262Y-59906115D01*
X117252005Y-59932564D01*
X117333611Y-59959632D01*
X117333613Y-59959632D01*
X117340139Y-59961797D01*
X117346975Y-59962497D01*
X117346978Y-59962498D01*
X117390031Y-59966909D01*
X117444600Y-59972500D01*
X118630405Y-59972500D01*
X118698526Y-59992502D01*
X118719500Y-60009405D01*
X119090595Y-60380500D01*
X119124621Y-60442812D01*
X119127500Y-60469595D01*
X119127500Y-103415863D01*
X119107498Y-103483984D01*
X119053842Y-103530477D01*
X119001500Y-103541863D01*
X118993525Y-103541863D01*
X118776481Y-103560852D01*
X118765688Y-103562755D01*
X118555239Y-103619144D01*
X118544947Y-103622890D01*
X118347489Y-103714966D01*
X118337994Y-103720449D01*
X118285952Y-103756889D01*
X118277576Y-103767368D01*
X118284644Y-103780814D01*
X120073287Y-105569457D01*
X120085062Y-105575887D01*
X120097077Y-105566591D01*
X120132931Y-105515386D01*
X120138414Y-105505890D01*
X120175761Y-105425800D01*
X120222679Y-105372515D01*
X120290956Y-105353054D01*
X120358916Y-105373596D01*
X120379051Y-105389955D01*
X125446848Y-110457752D01*
X125480874Y-110520064D01*
X125479459Y-110579459D01*
X125463882Y-110637591D01*
X125463881Y-110637598D01*
X125462457Y-110642913D01*
X125442502Y-110871000D01*
X125462457Y-111099087D01*
X125521716Y-111320243D01*
X125524039Y-111325224D01*
X125524039Y-111325225D01*
X125616151Y-111522762D01*
X125616154Y-111522767D01*
X125618477Y-111527749D01*
X125621634Y-111532257D01*
X125743448Y-111706225D01*
X125749802Y-111715300D01*
X125911700Y-111877198D01*
X125916208Y-111880355D01*
X125916211Y-111880357D01*
X125949637Y-111903762D01*
X126099251Y-112008523D01*
X126104233Y-112010846D01*
X126104238Y-112010849D01*
X126139049Y-112027081D01*
X126192334Y-112073998D01*
X126211795Y-112142275D01*
X126191253Y-112210235D01*
X126139049Y-112255471D01*
X126104489Y-112271586D01*
X126094993Y-112277069D01*
X125916533Y-112402028D01*
X125908125Y-112409084D01*
X125754084Y-112563125D01*
X125747028Y-112571533D01*
X125622069Y-112749993D01*
X125616586Y-112759489D01*
X125524510Y-112956947D01*
X125520764Y-112967239D01*
X125474606Y-113139503D01*
X125474942Y-113153599D01*
X125482884Y-113157000D01*
X128023967Y-113157000D01*
X128037498Y-113153027D01*
X128038727Y-113144478D01*
X127991236Y-112967239D01*
X127987490Y-112956947D01*
X127895414Y-112759489D01*
X127889931Y-112749993D01*
X127764972Y-112571533D01*
X127757916Y-112563125D01*
X127603875Y-112409084D01*
X127595467Y-112402028D01*
X127417007Y-112277069D01*
X127407511Y-112271586D01*
X127372951Y-112255471D01*
X127319666Y-112208554D01*
X127300205Y-112140277D01*
X127320747Y-112072317D01*
X127372951Y-112027081D01*
X127407762Y-112010849D01*
X127407767Y-112010846D01*
X127412749Y-112008523D01*
X127562363Y-111903762D01*
X127595789Y-111880357D01*
X127595792Y-111880355D01*
X127600300Y-111877198D01*
X127762198Y-111715300D01*
X127768553Y-111706225D01*
X127890366Y-111532257D01*
X127893523Y-111527749D01*
X127895846Y-111522767D01*
X127895849Y-111522762D01*
X127987961Y-111325225D01*
X127987961Y-111325224D01*
X127990284Y-111320243D01*
X128049543Y-111099087D01*
X128069498Y-110871000D01*
X128049543Y-110642913D01*
X128035564Y-110590743D01*
X127991707Y-110427067D01*
X127991706Y-110427065D01*
X127990284Y-110421757D01*
X127910053Y-110249699D01*
X127895849Y-110219238D01*
X127895846Y-110219233D01*
X127893523Y-110214251D01*
X127810859Y-110096195D01*
X127765357Y-110031211D01*
X127765355Y-110031208D01*
X127762198Y-110026700D01*
X127600300Y-109864802D01*
X127595792Y-109861645D01*
X127595789Y-109861643D01*
X127517611Y-109806902D01*
X127412749Y-109733477D01*
X127407767Y-109731154D01*
X127407762Y-109731151D01*
X127373543Y-109715195D01*
X127320258Y-109668278D01*
X127300797Y-109600001D01*
X127321339Y-109532041D01*
X127373543Y-109486805D01*
X127407762Y-109470849D01*
X127407767Y-109470846D01*
X127412749Y-109468523D01*
X127562363Y-109363762D01*
X127595789Y-109340357D01*
X127595792Y-109340355D01*
X127600300Y-109337198D01*
X127762198Y-109175300D01*
X127767021Y-109168413D01*
X127890366Y-108992257D01*
X127893523Y-108987749D01*
X127895846Y-108982767D01*
X127895849Y-108982762D01*
X127987961Y-108785225D01*
X127987961Y-108785224D01*
X127990284Y-108780243D01*
X128021831Y-108662511D01*
X128048119Y-108564402D01*
X128048119Y-108564400D01*
X128049543Y-108559087D01*
X128069498Y-108331000D01*
X128049543Y-108102913D01*
X128035564Y-108050743D01*
X127991707Y-107887067D01*
X127991706Y-107887065D01*
X127990284Y-107881757D01*
X127981912Y-107863803D01*
X127895849Y-107679238D01*
X127895846Y-107679233D01*
X127893523Y-107674251D01*
X127793488Y-107531387D01*
X127765357Y-107491211D01*
X127765355Y-107491208D01*
X127762198Y-107486700D01*
X127600300Y-107324802D01*
X127595792Y-107321645D01*
X127595789Y-107321643D01*
X127475991Y-107237760D01*
X127412749Y-107193477D01*
X127407767Y-107191154D01*
X127407762Y-107191151D01*
X127373543Y-107175195D01*
X127320258Y-107128278D01*
X127300797Y-107060001D01*
X127321339Y-106992041D01*
X127373543Y-106946805D01*
X127407762Y-106930849D01*
X127407767Y-106930846D01*
X127412749Y-106928523D01*
X127588444Y-106805500D01*
X127595789Y-106800357D01*
X127595792Y-106800355D01*
X127600300Y-106797198D01*
X127762198Y-106635300D01*
X127768553Y-106626225D01*
X127842754Y-106520254D01*
X127893523Y-106447749D01*
X127895846Y-106442767D01*
X127895849Y-106442762D01*
X127987961Y-106245225D01*
X127987961Y-106245224D01*
X127990284Y-106240243D01*
X128013905Y-106152091D01*
X128048119Y-106024402D01*
X128048119Y-106024400D01*
X128049543Y-106019087D01*
X128069498Y-105791000D01*
X128049543Y-105562913D01*
X128047028Y-105553526D01*
X127991707Y-105347067D01*
X127991706Y-105347065D01*
X127990284Y-105341757D01*
X127969946Y-105298141D01*
X127895849Y-105139238D01*
X127895846Y-105139233D01*
X127893523Y-105134251D01*
X127810859Y-105016195D01*
X127765357Y-104951211D01*
X127765355Y-104951208D01*
X127762198Y-104946700D01*
X127600300Y-104784802D01*
X127595792Y-104781645D01*
X127595789Y-104781643D01*
X127517611Y-104726902D01*
X127412749Y-104653477D01*
X127407767Y-104651154D01*
X127407762Y-104651151D01*
X127373543Y-104635195D01*
X127320258Y-104588278D01*
X127300797Y-104520001D01*
X127321339Y-104452041D01*
X127373543Y-104406805D01*
X127407762Y-104390849D01*
X127407767Y-104390846D01*
X127412749Y-104388523D01*
X127575102Y-104274842D01*
X127595789Y-104260357D01*
X127595792Y-104260355D01*
X127600300Y-104257198D01*
X127762198Y-104095300D01*
X127768553Y-104086225D01*
X127879307Y-103928051D01*
X127893523Y-103907749D01*
X127895846Y-103902767D01*
X127895849Y-103902762D01*
X127987961Y-103705225D01*
X127987961Y-103705224D01*
X127990284Y-103700243D01*
X128013502Y-103613595D01*
X128048119Y-103484402D01*
X128048119Y-103484400D01*
X128049543Y-103479087D01*
X128069498Y-103251000D01*
X128049543Y-103022913D01*
X128035564Y-102970743D01*
X127991707Y-102807067D01*
X127991706Y-102807065D01*
X127990284Y-102801757D01*
X127965379Y-102748347D01*
X127895849Y-102599238D01*
X127895846Y-102599233D01*
X127893523Y-102594251D01*
X127791713Y-102448852D01*
X127765357Y-102411211D01*
X127765355Y-102411208D01*
X127762198Y-102406700D01*
X127600300Y-102244802D01*
X127595792Y-102241645D01*
X127595789Y-102241643D01*
X127516081Y-102185831D01*
X127412749Y-102113477D01*
X127407767Y-102111154D01*
X127407762Y-102111151D01*
X127373543Y-102095195D01*
X127320258Y-102048278D01*
X127300797Y-101980001D01*
X127321339Y-101912041D01*
X127373543Y-101866805D01*
X127407762Y-101850849D01*
X127407767Y-101850846D01*
X127412749Y-101848523D01*
X127588444Y-101725500D01*
X127595789Y-101720357D01*
X127595792Y-101720355D01*
X127600300Y-101717198D01*
X127762198Y-101555300D01*
X127768553Y-101546225D01*
X127854628Y-101423296D01*
X127893523Y-101367749D01*
X127895846Y-101362767D01*
X127895849Y-101362762D01*
X127987961Y-101165225D01*
X127987961Y-101165224D01*
X127990284Y-101160243D01*
X128022007Y-101041854D01*
X128048119Y-100944402D01*
X128048120Y-100944398D01*
X128049543Y-100939087D01*
X128069498Y-100711000D01*
X128049543Y-100482913D01*
X127990284Y-100261757D01*
X127954303Y-100184595D01*
X127895849Y-100059238D01*
X127895846Y-100059233D01*
X127893523Y-100054251D01*
X127810859Y-99936195D01*
X127765357Y-99871211D01*
X127765355Y-99871208D01*
X127762198Y-99866700D01*
X127600300Y-99704802D01*
X127595789Y-99701643D01*
X127591576Y-99698108D01*
X127592388Y-99697140D01*
X127551910Y-99646506D01*
X127544596Y-99575887D01*
X127576624Y-99512524D01*
X127637823Y-99476536D01*
X127654901Y-99473480D01*
X127658352Y-99473105D01*
X127673604Y-99469479D01*
X127794054Y-99424324D01*
X127809649Y-99415786D01*
X127911724Y-99339285D01*
X127924285Y-99326724D01*
X128000786Y-99224649D01*
X128009324Y-99209054D01*
X128054478Y-99088606D01*
X128058105Y-99073351D01*
X128063631Y-99022486D01*
X128064000Y-99015672D01*
X128064000Y-98443115D01*
X128059525Y-98427876D01*
X128058135Y-98426671D01*
X128050452Y-98425000D01*
X125466116Y-98425000D01*
X125450877Y-98429475D01*
X125449672Y-98430865D01*
X125448001Y-98438548D01*
X125448001Y-99015669D01*
X125448371Y-99022490D01*
X125453895Y-99073352D01*
X125457521Y-99088604D01*
X125502676Y-99209054D01*
X125511214Y-99224649D01*
X125587715Y-99326724D01*
X125600276Y-99339285D01*
X125702351Y-99415786D01*
X125717946Y-99424324D01*
X125838394Y-99469478D01*
X125853643Y-99473104D01*
X125857096Y-99473479D01*
X125859606Y-99474522D01*
X125861331Y-99474932D01*
X125861265Y-99475211D01*
X125922659Y-99500719D01*
X125963088Y-99559080D01*
X125965546Y-99630034D01*
X125929253Y-99691054D01*
X125917760Y-99700344D01*
X125916214Y-99701641D01*
X125911700Y-99704802D01*
X125749802Y-99866700D01*
X125746645Y-99871208D01*
X125746643Y-99871211D01*
X125701141Y-99936195D01*
X125618477Y-100054251D01*
X125616154Y-100059233D01*
X125616151Y-100059238D01*
X125557697Y-100184595D01*
X125521716Y-100261757D01*
X125462457Y-100482913D01*
X125442502Y-100711000D01*
X125442981Y-100716475D01*
X125442981Y-100716485D01*
X125444026Y-100728428D01*
X125430038Y-100798033D01*
X125380639Y-100849026D01*
X125311514Y-100865217D01*
X125244608Y-100841465D01*
X125229411Y-100828506D01*
X123098405Y-98697500D01*
X123064379Y-98635188D01*
X123061500Y-98608405D01*
X123061500Y-97898885D01*
X125448000Y-97898885D01*
X125452475Y-97914124D01*
X125453865Y-97915329D01*
X125461548Y-97917000D01*
X126483885Y-97917000D01*
X126499124Y-97912525D01*
X126500329Y-97911135D01*
X126502000Y-97903452D01*
X126502000Y-97898885D01*
X127010000Y-97898885D01*
X127014475Y-97914124D01*
X127015865Y-97915329D01*
X127023548Y-97917000D01*
X128045884Y-97917000D01*
X128061123Y-97912525D01*
X128062328Y-97911135D01*
X128063999Y-97903452D01*
X128063999Y-97326331D01*
X128063629Y-97319510D01*
X128058105Y-97268648D01*
X128054479Y-97253396D01*
X128009324Y-97132946D01*
X128000786Y-97117351D01*
X127924285Y-97015276D01*
X127911724Y-97002715D01*
X127809649Y-96926214D01*
X127794054Y-96917676D01*
X127673606Y-96872522D01*
X127658351Y-96868895D01*
X127607486Y-96863369D01*
X127600672Y-96863000D01*
X127028115Y-96863000D01*
X127012876Y-96867475D01*
X127011671Y-96868865D01*
X127010000Y-96876548D01*
X127010000Y-97898885D01*
X126502000Y-97898885D01*
X126502000Y-96881116D01*
X126497525Y-96865877D01*
X126496135Y-96864672D01*
X126488452Y-96863001D01*
X125911331Y-96863001D01*
X125904510Y-96863371D01*
X125853648Y-96868895D01*
X125838396Y-96872521D01*
X125717946Y-96917676D01*
X125702351Y-96926214D01*
X125600276Y-97002715D01*
X125587715Y-97015276D01*
X125511214Y-97117351D01*
X125502676Y-97132946D01*
X125457522Y-97253394D01*
X125453895Y-97268649D01*
X125448369Y-97319514D01*
X125448000Y-97326328D01*
X125448000Y-97898885D01*
X123061500Y-97898885D01*
X123061500Y-55402364D01*
X126587000Y-55402364D01*
X126587091Y-55404037D01*
X126587091Y-55404052D01*
X126588946Y-55438295D01*
X126590119Y-55459957D01*
X126590956Y-55464243D01*
X126624004Y-55633469D01*
X126635120Y-55690393D01*
X126718304Y-55909952D01*
X126764425Y-55988406D01*
X126831803Y-56103020D01*
X126837291Y-56112356D01*
X126988681Y-56291819D01*
X127168144Y-56443209D01*
X127370548Y-56562196D01*
X127590107Y-56645380D01*
X127820543Y-56690381D01*
X127824901Y-56690617D01*
X127876448Y-56693409D01*
X127876463Y-56693409D01*
X127878136Y-56693500D01*
X129812864Y-56693500D01*
X129814537Y-56693409D01*
X129814552Y-56693409D01*
X129866099Y-56690617D01*
X129870457Y-56690381D01*
X130100893Y-56645380D01*
X130320452Y-56562196D01*
X130522856Y-56443209D01*
X130702319Y-56291819D01*
X130853709Y-56112356D01*
X130859198Y-56103020D01*
X130926575Y-55988406D01*
X130972696Y-55909952D01*
X131043173Y-55723932D01*
X131086012Y-55667317D01*
X131152660Y-55642849D01*
X131221955Y-55658298D01*
X131271898Y-55708759D01*
X131287000Y-55768573D01*
X131287000Y-59233134D01*
X131293755Y-59295316D01*
X131344885Y-59431705D01*
X131432239Y-59548261D01*
X131548795Y-59635615D01*
X131685184Y-59686745D01*
X131747366Y-59693500D01*
X132786000Y-59693500D01*
X132854121Y-59713502D01*
X132900614Y-59767158D01*
X132912000Y-59819500D01*
X132912000Y-70223318D01*
X132891998Y-70291439D01*
X132838342Y-70337932D01*
X132819248Y-70344852D01*
X132782928Y-70354788D01*
X132778980Y-70356472D01*
X132534982Y-70460546D01*
X132534978Y-70460548D01*
X132531030Y-70462232D01*
X132511130Y-70474142D01*
X132299725Y-70600664D01*
X132299721Y-70600667D01*
X132296043Y-70602868D01*
X132082318Y-70774094D01*
X131893808Y-70972742D01*
X131734002Y-71195136D01*
X131605857Y-71437161D01*
X131604385Y-71441184D01*
X131604383Y-71441188D01*
X131597314Y-71460506D01*
X131511743Y-71694337D01*
X131453404Y-71961907D01*
X131431917Y-72234918D01*
X131447682Y-72508320D01*
X131448507Y-72512525D01*
X131448508Y-72512533D01*
X131459127Y-72566657D01*
X131500405Y-72777053D01*
X131501792Y-72781103D01*
X131501793Y-72781108D01*
X131522605Y-72841895D01*
X131589112Y-73036144D01*
X131712160Y-73280799D01*
X131714586Y-73284328D01*
X131714589Y-73284334D01*
X131864843Y-73502953D01*
X131867274Y-73506490D01*
X132051582Y-73709043D01*
X132261675Y-73884707D01*
X132265316Y-73886991D01*
X132490024Y-74027951D01*
X132490028Y-74027953D01*
X132493664Y-74030234D01*
X132561544Y-74060883D01*
X132739345Y-74141164D01*
X132739349Y-74141166D01*
X132743257Y-74142930D01*
X132747377Y-74144150D01*
X132747376Y-74144150D01*
X133001723Y-74219491D01*
X133001727Y-74219492D01*
X133005836Y-74220709D01*
X133010070Y-74221357D01*
X133010075Y-74221358D01*
X133272298Y-74261483D01*
X133272300Y-74261483D01*
X133276540Y-74262132D01*
X133415912Y-74264322D01*
X133546071Y-74266367D01*
X133546077Y-74266367D01*
X133550362Y-74266434D01*
X133822235Y-74233534D01*
X134087127Y-74164041D01*
X134091087Y-74162401D01*
X134091092Y-74162399D01*
X134233754Y-74103306D01*
X134340136Y-74059241D01*
X134576582Y-73921073D01*
X134792089Y-73752094D01*
X134833809Y-73709043D01*
X134979686Y-73558509D01*
X134982669Y-73555431D01*
X134985202Y-73551983D01*
X134985206Y-73551978D01*
X135142257Y-73338178D01*
X135144795Y-73334723D01*
X135172154Y-73284334D01*
X135273418Y-73097830D01*
X135273419Y-73097828D01*
X135275468Y-73094054D01*
X135372269Y-72837877D01*
X135433407Y-72570933D01*
X135457751Y-72298161D01*
X135458193Y-72256000D01*
X135439567Y-71982778D01*
X135384032Y-71714612D01*
X135292617Y-71456465D01*
X135167013Y-71213112D01*
X135157040Y-71198921D01*
X135012008Y-70992562D01*
X135009545Y-70989057D01*
X134823125Y-70788445D01*
X134819810Y-70785731D01*
X134819806Y-70785728D01*
X134614523Y-70617706D01*
X134611205Y-70614990D01*
X134377704Y-70471901D01*
X134254351Y-70417753D01*
X134200019Y-70372060D01*
X134179000Y-70302382D01*
X134179000Y-59819500D01*
X134199002Y-59751379D01*
X134252658Y-59704886D01*
X134305000Y-59693500D01*
X135343634Y-59693500D01*
X135405816Y-59686745D01*
X135542205Y-59635615D01*
X135658761Y-59548261D01*
X135746115Y-59431705D01*
X135797245Y-59295316D01*
X135804000Y-59233134D01*
X135804000Y-55636866D01*
X135797245Y-55574684D01*
X135746115Y-55438295D01*
X135658761Y-55321739D01*
X135542205Y-55234385D01*
X135405816Y-55183255D01*
X135343634Y-55176500D01*
X131747366Y-55176500D01*
X131685184Y-55183255D01*
X131548795Y-55234385D01*
X131432239Y-55321739D01*
X131344885Y-55438295D01*
X131341736Y-55446696D01*
X131340519Y-55448918D01*
X131290260Y-55499064D01*
X131220869Y-55514077D01*
X131154377Y-55489191D01*
X131111895Y-55432307D01*
X131104000Y-55388408D01*
X131104000Y-53467636D01*
X131103490Y-53458206D01*
X131101117Y-53414401D01*
X131100881Y-53410043D01*
X131072142Y-53262881D01*
X131056902Y-53184840D01*
X131056902Y-53184839D01*
X131055880Y-53179607D01*
X130972696Y-52960048D01*
X130853709Y-52757644D01*
X130702319Y-52578181D01*
X130522856Y-52426791D01*
X130472626Y-52397262D01*
X130417802Y-52365033D01*
X130320452Y-52307804D01*
X130154582Y-52244961D01*
X131287501Y-52244961D01*
X131287709Y-52250071D01*
X131298582Y-52383767D01*
X131300352Y-52394320D01*
X131353467Y-52601185D01*
X131357201Y-52611731D01*
X131446010Y-52805705D01*
X131451546Y-52815412D01*
X131573303Y-52990597D01*
X131580476Y-52999176D01*
X131731324Y-53150024D01*
X131739903Y-53157197D01*
X131915088Y-53278954D01*
X131924795Y-53284490D01*
X132118769Y-53373299D01*
X132129315Y-53377033D01*
X132336179Y-53430147D01*
X132346734Y-53431918D01*
X132480430Y-53442793D01*
X132485536Y-53443000D01*
X133273385Y-53443000D01*
X133288624Y-53438525D01*
X133289829Y-53437135D01*
X133291500Y-53429452D01*
X133291500Y-53424884D01*
X133799500Y-53424884D01*
X133803975Y-53440123D01*
X133805365Y-53441328D01*
X133813048Y-53442999D01*
X134605461Y-53442999D01*
X134610571Y-53442791D01*
X134744267Y-53431918D01*
X134754820Y-53430148D01*
X134961685Y-53377033D01*
X134972231Y-53373299D01*
X135009807Y-53356095D01*
X143699001Y-53356095D01*
X143699338Y-53362614D01*
X143709257Y-53458206D01*
X143712149Y-53471600D01*
X143763588Y-53625784D01*
X143769761Y-53638962D01*
X143855063Y-53776807D01*
X143864099Y-53788208D01*
X143978829Y-53902739D01*
X143990240Y-53911751D01*
X144128243Y-53996816D01*
X144141424Y-54002963D01*
X144295710Y-54054138D01*
X144309086Y-54057005D01*
X144403438Y-54066672D01*
X144409854Y-54067000D01*
X144634885Y-54067000D01*
X144650124Y-54062525D01*
X144651329Y-54061135D01*
X144653000Y-54053452D01*
X144653000Y-54048884D01*
X145161000Y-54048884D01*
X145165475Y-54064123D01*
X145166865Y-54065328D01*
X145174548Y-54066999D01*
X145404095Y-54066999D01*
X145410614Y-54066662D01*
X145506206Y-54056743D01*
X145519600Y-54053851D01*
X145673784Y-54002412D01*
X145686962Y-53996239D01*
X145824807Y-53910937D01*
X145836208Y-53901901D01*
X145950739Y-53787171D01*
X145959751Y-53775760D01*
X146044816Y-53637757D01*
X146050963Y-53624576D01*
X146102138Y-53470290D01*
X146105005Y-53456914D01*
X146114672Y-53362562D01*
X146115000Y-53356146D01*
X146115000Y-53231115D01*
X146110525Y-53215876D01*
X146109135Y-53214671D01*
X146101452Y-53213000D01*
X145179115Y-53213000D01*
X145163876Y-53217475D01*
X145162671Y-53218865D01*
X145161000Y-53226548D01*
X145161000Y-54048884D01*
X144653000Y-54048884D01*
X144653000Y-53231115D01*
X144648525Y-53215876D01*
X144647135Y-53214671D01*
X144639452Y-53213000D01*
X143717116Y-53213000D01*
X143701877Y-53217475D01*
X143700672Y-53218865D01*
X143699001Y-53226548D01*
X143699001Y-53356095D01*
X135009807Y-53356095D01*
X135166205Y-53284490D01*
X135175912Y-53278954D01*
X135351097Y-53157197D01*
X135359676Y-53150024D01*
X135510524Y-52999176D01*
X135517697Y-52990597D01*
X135639454Y-52815412D01*
X135644990Y-52805705D01*
X135733799Y-52611731D01*
X135737533Y-52601185D01*
X135790647Y-52394321D01*
X135792418Y-52383766D01*
X135803293Y-52250070D01*
X135803500Y-52244964D01*
X135803500Y-51707115D01*
X135799025Y-51691876D01*
X135797635Y-51690671D01*
X135789952Y-51689000D01*
X133817615Y-51689000D01*
X133802376Y-51693475D01*
X133801171Y-51694865D01*
X133799500Y-51702548D01*
X133799500Y-53424884D01*
X133291500Y-53424884D01*
X133291500Y-51707115D01*
X133287025Y-51691876D01*
X133285635Y-51690671D01*
X133277952Y-51689000D01*
X131305616Y-51689000D01*
X131290377Y-51693475D01*
X131289172Y-51694865D01*
X131287501Y-51702548D01*
X131287501Y-52244961D01*
X130154582Y-52244961D01*
X130100893Y-52224620D01*
X129953935Y-52195921D01*
X129874743Y-52180456D01*
X129870457Y-52179619D01*
X129864727Y-52179309D01*
X129814552Y-52176591D01*
X129814537Y-52176591D01*
X129812864Y-52176500D01*
X127878136Y-52176500D01*
X127876463Y-52176591D01*
X127876448Y-52176591D01*
X127826273Y-52179309D01*
X127820543Y-52179619D01*
X127816257Y-52180456D01*
X127737066Y-52195921D01*
X127590107Y-52224620D01*
X127370548Y-52307804D01*
X127273198Y-52365033D01*
X127218375Y-52397262D01*
X127168144Y-52426791D01*
X126988681Y-52578181D01*
X126837291Y-52757644D01*
X126718304Y-52960048D01*
X126635120Y-53179607D01*
X126634098Y-53184839D01*
X126634098Y-53184840D01*
X126618858Y-53262881D01*
X126590119Y-53410043D01*
X126589883Y-53414401D01*
X126587511Y-53458206D01*
X126587000Y-53467636D01*
X126587000Y-55402364D01*
X123061500Y-55402364D01*
X123061500Y-55400768D01*
X123062027Y-55389585D01*
X123063702Y-55382092D01*
X123061562Y-55314001D01*
X123061500Y-55310044D01*
X123061500Y-55282144D01*
X123060996Y-55278153D01*
X123060063Y-55266311D01*
X123059154Y-55237367D01*
X123058674Y-55222111D01*
X123055323Y-55210576D01*
X123053021Y-55202652D01*
X123049012Y-55183293D01*
X123048200Y-55176869D01*
X123046474Y-55163203D01*
X123043558Y-55155837D01*
X123043556Y-55155831D01*
X123030200Y-55122098D01*
X123026355Y-55110868D01*
X123016230Y-55076017D01*
X123016230Y-55076016D01*
X123014019Y-55068407D01*
X123003705Y-55050966D01*
X122995008Y-55033213D01*
X122990472Y-55021758D01*
X122987552Y-55014383D01*
X122961563Y-54978612D01*
X122955047Y-54968692D01*
X122947607Y-54956112D01*
X122932542Y-54930638D01*
X122918221Y-54916317D01*
X122905380Y-54901283D01*
X122893472Y-54884893D01*
X122859395Y-54856702D01*
X122850616Y-54848712D01*
X119666923Y-51665018D01*
X119632897Y-51602706D01*
X119635686Y-51538558D01*
X119646765Y-51502880D01*
X119676607Y-51406773D01*
X119682886Y-51359400D01*
X143698500Y-51359400D01*
X143698837Y-51362646D01*
X143698837Y-51362650D01*
X143702867Y-51401484D01*
X143709474Y-51465166D01*
X143711655Y-51471702D01*
X143711655Y-51471704D01*
X143744235Y-51569358D01*
X143765450Y-51632946D01*
X143858522Y-51783348D01*
X143863704Y-51788521D01*
X143945463Y-51870138D01*
X143979542Y-51932421D01*
X143974539Y-52003241D01*
X143945618Y-52048329D01*
X143863261Y-52130829D01*
X143854249Y-52142240D01*
X143769184Y-52280243D01*
X143763037Y-52293424D01*
X143711862Y-52447710D01*
X143708995Y-52461086D01*
X143699328Y-52555438D01*
X143699000Y-52561855D01*
X143699000Y-52686885D01*
X143703475Y-52702124D01*
X143704865Y-52703329D01*
X143712548Y-52705000D01*
X146096884Y-52705000D01*
X146112123Y-52700525D01*
X146113328Y-52699135D01*
X146114999Y-52691452D01*
X146114999Y-52561905D01*
X146114662Y-52555386D01*
X146104743Y-52459794D01*
X146101851Y-52446400D01*
X146050412Y-52292216D01*
X146044239Y-52279038D01*
X145958937Y-52141193D01*
X145949901Y-52129792D01*
X145868538Y-52048570D01*
X145834459Y-51986287D01*
X145839462Y-51915467D01*
X145868380Y-51870382D01*
X145887243Y-51851485D01*
X145949525Y-51817404D01*
X145976419Y-51814500D01*
X148828500Y-51814500D01*
X148896621Y-51834502D01*
X148943114Y-51888158D01*
X148954500Y-51940500D01*
X148954500Y-52129134D01*
X148961255Y-52191316D01*
X149012385Y-52327705D01*
X149099739Y-52444261D01*
X149216295Y-52531615D01*
X149352684Y-52582745D01*
X149414866Y-52589500D01*
X151311134Y-52589500D01*
X151373316Y-52582745D01*
X151509705Y-52531615D01*
X151626261Y-52444261D01*
X151713615Y-52327705D01*
X151738180Y-52262178D01*
X151780822Y-52205414D01*
X151847383Y-52180714D01*
X151916732Y-52195921D01*
X151936647Y-52209464D01*
X152052823Y-52305915D01*
X152092349Y-52338730D01*
X152292322Y-52455584D01*
X152508694Y-52538209D01*
X152513760Y-52539240D01*
X152513761Y-52539240D01*
X152559084Y-52548461D01*
X152735656Y-52584385D01*
X152865089Y-52589131D01*
X152961949Y-52592683D01*
X152961953Y-52592683D01*
X152967113Y-52592872D01*
X152972233Y-52592216D01*
X152972235Y-52592216D01*
X153050006Y-52582253D01*
X153196847Y-52563442D01*
X153201795Y-52561957D01*
X153201802Y-52561956D01*
X153413747Y-52498369D01*
X153418690Y-52496886D01*
X153474443Y-52469573D01*
X153622049Y-52397262D01*
X153622052Y-52397260D01*
X153626684Y-52394991D01*
X153815243Y-52260494D01*
X153979303Y-52097005D01*
X153982317Y-52092811D01*
X153982326Y-52092800D01*
X154037344Y-52016234D01*
X154093338Y-51972586D01*
X154164042Y-51966140D01*
X154228761Y-52000665D01*
X156129580Y-53901485D01*
X157865348Y-55637253D01*
X157872888Y-55645539D01*
X157877000Y-55652018D01*
X157882777Y-55657443D01*
X157926651Y-55698643D01*
X157929493Y-55701398D01*
X157949230Y-55721135D01*
X157952427Y-55723615D01*
X157961447Y-55731318D01*
X157993679Y-55761586D01*
X158000625Y-55765405D01*
X158000628Y-55765407D01*
X158011434Y-55771348D01*
X158027953Y-55782199D01*
X158043959Y-55794614D01*
X158051228Y-55797759D01*
X158051232Y-55797762D01*
X158084537Y-55812174D01*
X158095187Y-55817391D01*
X158133940Y-55838695D01*
X158141615Y-55840666D01*
X158141616Y-55840666D01*
X158153562Y-55843733D01*
X158172267Y-55850137D01*
X158190855Y-55858181D01*
X158198678Y-55859420D01*
X158198688Y-55859423D01*
X158234524Y-55865099D01*
X158246144Y-55867505D01*
X158281289Y-55876528D01*
X158288970Y-55878500D01*
X158309224Y-55878500D01*
X158328934Y-55880051D01*
X158348943Y-55883220D01*
X158356835Y-55882474D01*
X158392961Y-55879059D01*
X158404819Y-55878500D01*
X174307474Y-55878500D01*
X174375595Y-55898502D01*
X174402973Y-55924359D01*
X174403444Y-55923917D01*
X174408868Y-55929693D01*
X174413528Y-55936107D01*
X174419634Y-55941158D01*
X174447605Y-55964298D01*
X174456384Y-55972288D01*
X179188874Y-60704778D01*
X179222900Y-60767090D01*
X179221486Y-60826484D01*
X179211022Y-60865537D01*
X179191647Y-61087000D01*
X179211022Y-61308463D01*
X179268560Y-61523196D01*
X179270882Y-61528177D01*
X179270883Y-61528178D01*
X179360186Y-61719689D01*
X179360189Y-61719694D01*
X179362512Y-61724676D01*
X179365668Y-61729183D01*
X179365669Y-61729185D01*
X179485647Y-61900531D01*
X179490023Y-61906781D01*
X179647219Y-62063977D01*
X179651727Y-62067134D01*
X179651730Y-62067136D01*
X179702794Y-62102891D01*
X179829323Y-62191488D01*
X179834305Y-62193811D01*
X179834310Y-62193814D01*
X179939965Y-62243081D01*
X179993250Y-62289998D01*
X180012711Y-62358275D01*
X179992169Y-62426235D01*
X179939965Y-62471471D01*
X179834559Y-62520623D01*
X179825068Y-62526103D01*
X179781235Y-62556794D01*
X179772860Y-62567271D01*
X179779928Y-62580718D01*
X180454188Y-63254978D01*
X180468132Y-63262592D01*
X180469965Y-63262461D01*
X180476580Y-63258210D01*
X181154793Y-62579997D01*
X181161223Y-62568223D01*
X181151926Y-62556207D01*
X181108931Y-62526102D01*
X181099445Y-62520624D01*
X180994035Y-62471471D01*
X180940750Y-62424554D01*
X180921289Y-62356277D01*
X180941831Y-62288317D01*
X180994035Y-62243081D01*
X181099690Y-62193814D01*
X181099695Y-62193811D01*
X181104677Y-62191488D01*
X181231206Y-62102891D01*
X181282270Y-62067136D01*
X181282273Y-62067134D01*
X181286781Y-62063977D01*
X181443977Y-61906781D01*
X181448354Y-61900531D01*
X181568331Y-61729185D01*
X181568332Y-61729183D01*
X181571488Y-61724676D01*
X181573811Y-61719694D01*
X181573814Y-61719689D01*
X181663117Y-61528178D01*
X181663118Y-61528177D01*
X181665440Y-61523196D01*
X181722978Y-61308463D01*
X181742353Y-61087000D01*
X181722978Y-60865537D01*
X181669079Y-60664384D01*
X181666863Y-60656114D01*
X181666862Y-60656112D01*
X181665440Y-60650804D01*
X181654636Y-60627634D01*
X181573814Y-60454311D01*
X181573811Y-60454306D01*
X181571488Y-60449324D01*
X181486186Y-60327500D01*
X181447136Y-60271730D01*
X181447134Y-60271727D01*
X181443977Y-60267219D01*
X181286781Y-60110023D01*
X181282273Y-60106866D01*
X181282270Y-60106864D01*
X181118944Y-59992502D01*
X181104677Y-59982512D01*
X181099695Y-59980189D01*
X181099690Y-59980186D01*
X180908178Y-59890883D01*
X180908177Y-59890882D01*
X180903196Y-59888560D01*
X180897888Y-59887138D01*
X180897886Y-59887137D01*
X180797781Y-59860314D01*
X180688463Y-59831022D01*
X180467000Y-59811647D01*
X180245537Y-59831022D01*
X180240223Y-59832446D01*
X180240217Y-59832447D01*
X180206486Y-59841485D01*
X180135510Y-59839796D01*
X180084779Y-59808874D01*
X175547552Y-55271647D01*
X175513526Y-55209335D01*
X175511641Y-55198348D01*
X175510494Y-55189267D01*
X175509751Y-55181402D01*
X175506723Y-55133263D01*
X175506723Y-55133262D01*
X175506225Y-55125350D01*
X175503679Y-55117513D01*
X175498506Y-55094369D01*
X175498468Y-55094065D01*
X175498467Y-55094060D01*
X175497474Y-55086203D01*
X175494558Y-55078838D01*
X175494557Y-55078834D01*
X175476801Y-55033989D01*
X175474129Y-55026570D01*
X175456764Y-54973125D01*
X175452514Y-54966428D01*
X175452350Y-54966169D01*
X175441585Y-54945042D01*
X175441471Y-54944754D01*
X175441468Y-54944749D01*
X175438552Y-54937383D01*
X175433896Y-54930975D01*
X175433893Y-54930969D01*
X175405542Y-54891948D01*
X175401092Y-54885401D01*
X175400770Y-54884893D01*
X175371000Y-54837982D01*
X175364993Y-54832341D01*
X175349312Y-54814554D01*
X175349134Y-54814309D01*
X175349132Y-54814307D01*
X175344472Y-54807893D01*
X175338362Y-54802838D01*
X175301204Y-54772097D01*
X175295270Y-54766866D01*
X175260102Y-54733842D01*
X175260099Y-54733840D01*
X175254321Y-54728414D01*
X175247097Y-54724442D01*
X175227494Y-54711119D01*
X175227254Y-54710920D01*
X175227247Y-54710916D01*
X175221144Y-54705867D01*
X175170324Y-54681953D01*
X175163292Y-54678371D01*
X175114060Y-54651305D01*
X175106385Y-54649335D01*
X175106379Y-54649332D01*
X175106081Y-54649256D01*
X175083772Y-54641224D01*
X175083497Y-54641094D01*
X175083489Y-54641091D01*
X175076318Y-54637717D01*
X175021151Y-54627194D01*
X175013442Y-54625471D01*
X174979449Y-54616743D01*
X174966707Y-54613471D01*
X174966706Y-54613471D01*
X174959030Y-54611500D01*
X174950793Y-54611500D01*
X174927184Y-54609268D01*
X174926881Y-54609210D01*
X174926877Y-54609210D01*
X174919094Y-54607725D01*
X174863049Y-54611251D01*
X174855138Y-54611500D01*
X158683594Y-54611500D01*
X158615473Y-54591498D01*
X158594499Y-54574595D01*
X156716772Y-52696867D01*
X155526905Y-51507000D01*
X176816761Y-51507000D01*
X176817031Y-51511119D01*
X176831036Y-51724783D01*
X176835696Y-51795886D01*
X176836500Y-51799926D01*
X176836500Y-51799929D01*
X176889723Y-52067500D01*
X176892175Y-52079828D01*
X176893501Y-52083734D01*
X176893502Y-52083738D01*
X176978939Y-52335425D01*
X176985234Y-52353970D01*
X176987055Y-52357663D01*
X176987056Y-52357665D01*
X177056444Y-52498369D01*
X177113279Y-52613619D01*
X177274119Y-52854335D01*
X177276831Y-52857427D01*
X177276836Y-52857434D01*
X177371200Y-52965034D01*
X177465004Y-53071996D01*
X177468093Y-53074705D01*
X177679565Y-53260163D01*
X177679571Y-53260168D01*
X177682665Y-53262881D01*
X177923380Y-53423721D01*
X177927079Y-53425545D01*
X177927084Y-53425548D01*
X178179335Y-53549944D01*
X178183030Y-53551766D01*
X178186928Y-53553089D01*
X178186930Y-53553090D01*
X178453262Y-53643498D01*
X178453266Y-53643499D01*
X178457172Y-53644825D01*
X178461216Y-53645629D01*
X178461222Y-53645631D01*
X178737071Y-53700500D01*
X178737074Y-53700500D01*
X178741114Y-53701304D01*
X178745225Y-53701573D01*
X178745229Y-53701574D01*
X179025881Y-53719969D01*
X179030000Y-53720239D01*
X179034119Y-53719969D01*
X179314771Y-53701574D01*
X179314775Y-53701573D01*
X179318886Y-53701304D01*
X179322926Y-53700500D01*
X179322929Y-53700500D01*
X179598778Y-53645631D01*
X179598784Y-53645629D01*
X179602828Y-53644825D01*
X179606734Y-53643499D01*
X179606738Y-53643498D01*
X179873070Y-53553090D01*
X179873072Y-53553089D01*
X179876970Y-53551766D01*
X179880665Y-53549944D01*
X180132916Y-53425548D01*
X180132921Y-53425545D01*
X180136620Y-53423721D01*
X180377335Y-53262881D01*
X180380429Y-53260168D01*
X180380435Y-53260163D01*
X180591907Y-53074705D01*
X180594996Y-53071996D01*
X180688800Y-52965034D01*
X180783164Y-52857434D01*
X180783169Y-52857427D01*
X180785881Y-52854335D01*
X180946721Y-52613619D01*
X181003556Y-52498369D01*
X181072944Y-52357665D01*
X181072945Y-52357663D01*
X181074766Y-52353970D01*
X181081061Y-52335425D01*
X181166498Y-52083738D01*
X181166499Y-52083734D01*
X181167825Y-52079828D01*
X181170278Y-52067500D01*
X181223500Y-51799929D01*
X181223500Y-51799926D01*
X181224304Y-51795886D01*
X181228965Y-51724783D01*
X181242969Y-51511119D01*
X181243239Y-51507000D01*
X181240497Y-51465166D01*
X181224574Y-51222229D01*
X181224573Y-51222225D01*
X181224304Y-51218114D01*
X181215755Y-51175135D01*
X181168631Y-50938222D01*
X181168629Y-50938216D01*
X181167825Y-50934172D01*
X181141990Y-50858063D01*
X181076090Y-50663930D01*
X181076089Y-50663928D01*
X181074766Y-50660030D01*
X181049406Y-50608604D01*
X180948550Y-50404090D01*
X180946721Y-50400381D01*
X180785881Y-50159665D01*
X180783169Y-50156573D01*
X180783164Y-50156566D01*
X180597705Y-49945093D01*
X180594996Y-49942004D01*
X180575514Y-49924919D01*
X180380435Y-49753837D01*
X180380429Y-49753832D01*
X180377335Y-49751119D01*
X180136620Y-49590279D01*
X180132921Y-49588455D01*
X180132916Y-49588452D01*
X179880665Y-49464056D01*
X179880663Y-49464055D01*
X179876970Y-49462234D01*
X179873070Y-49460910D01*
X179606738Y-49370502D01*
X179606734Y-49370501D01*
X179602828Y-49369175D01*
X179598784Y-49368371D01*
X179598778Y-49368369D01*
X179322929Y-49313500D01*
X179322926Y-49313500D01*
X179318886Y-49312696D01*
X179314775Y-49312427D01*
X179314771Y-49312426D01*
X179034119Y-49294031D01*
X179030000Y-49293761D01*
X179025881Y-49294031D01*
X178745229Y-49312426D01*
X178745225Y-49312427D01*
X178741114Y-49312696D01*
X178737074Y-49313500D01*
X178737071Y-49313500D01*
X178461222Y-49368369D01*
X178461216Y-49368371D01*
X178457172Y-49369175D01*
X178453266Y-49370501D01*
X178453262Y-49370502D01*
X178186930Y-49460910D01*
X178183030Y-49462234D01*
X177923381Y-49590279D01*
X177682665Y-49751119D01*
X177679573Y-49753831D01*
X177679566Y-49753836D01*
X177483626Y-49925673D01*
X177465004Y-49942004D01*
X177462295Y-49945093D01*
X177276836Y-50156566D01*
X177276831Y-50156573D01*
X177274119Y-50159665D01*
X177113279Y-50400381D01*
X177111450Y-50404090D01*
X177010595Y-50608604D01*
X176985234Y-50660030D01*
X176983911Y-50663928D01*
X176983910Y-50663930D01*
X176918011Y-50858063D01*
X176892175Y-50934172D01*
X176891371Y-50938216D01*
X176891369Y-50938222D01*
X176844245Y-51175135D01*
X176835696Y-51218114D01*
X176835427Y-51222225D01*
X176835426Y-51222229D01*
X176831629Y-51280158D01*
X176818805Y-51475810D01*
X176816761Y-51507000D01*
X155526905Y-51507000D01*
X154808652Y-50788747D01*
X154801112Y-50780461D01*
X154797000Y-50773982D01*
X154747348Y-50727356D01*
X154744507Y-50724602D01*
X154724770Y-50704865D01*
X154721573Y-50702385D01*
X154712551Y-50694680D01*
X154686100Y-50669841D01*
X154680321Y-50664414D01*
X154673375Y-50660595D01*
X154673372Y-50660593D01*
X154662566Y-50654652D01*
X154646047Y-50643801D01*
X154645583Y-50643441D01*
X154630041Y-50631386D01*
X154622772Y-50628241D01*
X154622768Y-50628238D01*
X154589463Y-50613826D01*
X154578813Y-50608609D01*
X154540060Y-50587305D01*
X154520437Y-50582267D01*
X154501734Y-50575863D01*
X154490420Y-50570967D01*
X154490419Y-50570967D01*
X154483145Y-50567819D01*
X154475322Y-50566580D01*
X154475312Y-50566577D01*
X154439476Y-50560901D01*
X154427856Y-50558495D01*
X154392711Y-50549472D01*
X154392710Y-50549472D01*
X154385030Y-50547500D01*
X154364776Y-50547500D01*
X154345065Y-50545949D01*
X154332886Y-50544020D01*
X154325057Y-50542780D01*
X154317165Y-50543526D01*
X154281039Y-50546941D01*
X154269181Y-50547500D01*
X154239359Y-50547500D01*
X154171238Y-50527498D01*
X154133567Y-50489940D01*
X154133361Y-50489621D01*
X154022764Y-50318665D01*
X153992181Y-50285054D01*
X153891481Y-50174387D01*
X153866887Y-50147358D01*
X153862836Y-50144159D01*
X153862832Y-50144155D01*
X153689177Y-50007011D01*
X153689172Y-50007008D01*
X153685123Y-50003810D01*
X153680607Y-50001317D01*
X153680604Y-50001315D01*
X153486879Y-49894373D01*
X153486875Y-49894371D01*
X153482355Y-49891876D01*
X153477486Y-49890152D01*
X153477482Y-49890150D01*
X153268903Y-49816288D01*
X153268899Y-49816287D01*
X153264028Y-49814562D01*
X153258935Y-49813655D01*
X153258932Y-49813654D01*
X153041095Y-49774851D01*
X153041089Y-49774850D01*
X153036006Y-49773945D01*
X152963096Y-49773054D01*
X152809581Y-49771179D01*
X152809579Y-49771179D01*
X152804411Y-49771116D01*
X152575464Y-49806150D01*
X152355314Y-49878106D01*
X152350726Y-49880494D01*
X152350722Y-49880496D01*
X152154461Y-49982663D01*
X152149872Y-49985052D01*
X152145739Y-49988155D01*
X152145736Y-49988157D01*
X152044330Y-50064295D01*
X151964655Y-50124117D01*
X151956006Y-50133168D01*
X151947170Y-50142414D01*
X151885646Y-50177844D01*
X151814733Y-50174387D01*
X151756947Y-50133141D01*
X151738094Y-50099592D01*
X151716768Y-50042705D01*
X151716767Y-50042703D01*
X151713615Y-50034295D01*
X151626261Y-49917739D01*
X151509705Y-49830385D01*
X151373316Y-49779255D01*
X151311134Y-49772500D01*
X149414866Y-49772500D01*
X149352684Y-49779255D01*
X149216295Y-49830385D01*
X149099739Y-49917739D01*
X149012385Y-50034295D01*
X148961255Y-50170684D01*
X148954500Y-50232866D01*
X148954500Y-50421500D01*
X148934498Y-50489621D01*
X148880842Y-50536114D01*
X148828500Y-50547500D01*
X146225895Y-50547500D01*
X146157774Y-50527498D01*
X146111281Y-50473842D01*
X146104626Y-50453796D01*
X146104526Y-50452834D01*
X146102035Y-50445366D01*
X146050868Y-50292002D01*
X146048550Y-50285054D01*
X145955478Y-50134652D01*
X145830303Y-50009695D01*
X145795362Y-49988157D01*
X145685968Y-49920725D01*
X145685966Y-49920724D01*
X145679738Y-49916885D01*
X145565421Y-49878968D01*
X145518389Y-49863368D01*
X145518387Y-49863368D01*
X145511861Y-49861203D01*
X145505025Y-49860503D01*
X145505022Y-49860502D01*
X145461969Y-49856091D01*
X145407400Y-49850500D01*
X144406600Y-49850500D01*
X144403354Y-49850837D01*
X144403350Y-49850837D01*
X144307692Y-49860762D01*
X144307688Y-49860763D01*
X144300834Y-49861474D01*
X144294298Y-49863655D01*
X144294296Y-49863655D01*
X144248398Y-49878968D01*
X144133054Y-49917450D01*
X143982652Y-50010522D01*
X143857695Y-50135697D01*
X143853855Y-50141927D01*
X143853854Y-50141928D01*
X143775640Y-50268815D01*
X143764885Y-50286262D01*
X143709203Y-50454139D01*
X143708503Y-50460975D01*
X143708502Y-50460978D01*
X143704091Y-50504031D01*
X143698500Y-50558600D01*
X143698500Y-51359400D01*
X119682886Y-51359400D01*
X119692102Y-51289866D01*
X119706198Y-51183511D01*
X119706198Y-51183506D01*
X119706898Y-51178226D01*
X119706322Y-51162885D01*
X131287500Y-51162885D01*
X131291975Y-51178124D01*
X131293365Y-51179329D01*
X131301048Y-51181000D01*
X133273385Y-51181000D01*
X133288624Y-51176525D01*
X133289829Y-51175135D01*
X133291500Y-51167452D01*
X133291500Y-51162885D01*
X133799500Y-51162885D01*
X133803975Y-51178124D01*
X133805365Y-51179329D01*
X133813048Y-51181000D01*
X135785384Y-51181000D01*
X135800623Y-51176525D01*
X135801828Y-51175135D01*
X135803499Y-51167452D01*
X135803499Y-50625039D01*
X135803291Y-50619929D01*
X135792418Y-50486233D01*
X135790648Y-50475680D01*
X135737533Y-50268815D01*
X135733799Y-50258269D01*
X135644990Y-50064295D01*
X135639454Y-50054588D01*
X135517697Y-49879403D01*
X135510524Y-49870824D01*
X135359676Y-49719976D01*
X135351097Y-49712803D01*
X135175912Y-49591046D01*
X135166205Y-49585510D01*
X134972231Y-49496701D01*
X134961685Y-49492967D01*
X134754821Y-49439853D01*
X134744266Y-49438082D01*
X134610570Y-49427207D01*
X134605464Y-49427000D01*
X133817615Y-49427000D01*
X133802376Y-49431475D01*
X133801171Y-49432865D01*
X133799500Y-49440548D01*
X133799500Y-51162885D01*
X133291500Y-51162885D01*
X133291500Y-49445116D01*
X133287025Y-49429877D01*
X133285635Y-49428672D01*
X133277952Y-49427001D01*
X132485539Y-49427001D01*
X132480429Y-49427209D01*
X132346733Y-49438082D01*
X132336180Y-49439852D01*
X132129315Y-49492967D01*
X132118769Y-49496701D01*
X131924795Y-49585510D01*
X131915088Y-49591046D01*
X131739903Y-49712803D01*
X131731324Y-49719976D01*
X131580476Y-49870824D01*
X131573303Y-49879403D01*
X131451546Y-50054588D01*
X131446010Y-50064295D01*
X131357201Y-50258269D01*
X131353467Y-50268815D01*
X131300353Y-50475679D01*
X131298582Y-50486234D01*
X131287707Y-50619930D01*
X131287500Y-50625036D01*
X131287500Y-51162885D01*
X119706322Y-51162885D01*
X119698249Y-50947842D01*
X119650907Y-50722209D01*
X119645165Y-50707669D01*
X119568185Y-50512744D01*
X119568184Y-50512742D01*
X119566224Y-50507779D01*
X119555206Y-50489621D01*
X119449390Y-50315243D01*
X119446623Y-50310683D01*
X119430413Y-50292002D01*
X119299023Y-50140588D01*
X119299021Y-50140586D01*
X119295523Y-50136555D01*
X119207396Y-50064295D01*
X119121373Y-49993760D01*
X119121367Y-49993756D01*
X119117245Y-49990376D01*
X119112609Y-49987737D01*
X119112606Y-49987735D01*
X118921529Y-49878968D01*
X118916886Y-49876325D01*
X118700175Y-49797663D01*
X118694926Y-49796714D01*
X118694923Y-49796713D01*
X118477392Y-49757377D01*
X118477385Y-49757376D01*
X118473308Y-49756639D01*
X118455586Y-49755803D01*
X118450644Y-49755570D01*
X118450637Y-49755570D01*
X118449156Y-49755500D01*
X118037110Y-49755500D01*
X117970191Y-49761178D01*
X117870591Y-49769629D01*
X117870587Y-49769630D01*
X117865280Y-49770080D01*
X117860125Y-49771418D01*
X117860119Y-49771419D01*
X117647297Y-49826657D01*
X117647293Y-49826658D01*
X117642128Y-49827999D01*
X117637262Y-49830191D01*
X117637259Y-49830192D01*
X117534461Y-49876499D01*
X117431925Y-49922688D01*
X117240681Y-50051441D01*
X117236824Y-50055120D01*
X117236822Y-50055122D01*
X117190206Y-50099592D01*
X117073865Y-50210576D01*
X116936246Y-50395542D01*
X116933830Y-50400293D01*
X116933828Y-50400297D01*
X116907117Y-50452834D01*
X116831760Y-50601051D01*
X116830178Y-50606145D01*
X116830177Y-50606148D01*
X116773478Y-50788747D01*
X116763393Y-50821227D01*
X116762692Y-50826516D01*
X116747304Y-50942623D01*
X116733102Y-51049774D01*
X116741751Y-51280158D01*
X116789093Y-51505791D01*
X116791051Y-51510750D01*
X116791052Y-51510752D01*
X116866797Y-51702548D01*
X116873776Y-51720221D01*
X116876543Y-51724780D01*
X116876544Y-51724783D01*
X116953429Y-51851485D01*
X116993377Y-51917317D01*
X116996874Y-51921347D01*
X117123699Y-52067500D01*
X117144477Y-52091445D01*
X117186030Y-52125516D01*
X117318627Y-52234240D01*
X117318633Y-52234244D01*
X117322755Y-52237624D01*
X117354250Y-52255552D01*
X117403555Y-52306632D01*
X117417417Y-52376262D01*
X117391434Y-52442333D01*
X117362284Y-52469573D01*
X117240681Y-52551441D01*
X117236824Y-52555120D01*
X117236822Y-52555122D01*
X117206972Y-52583598D01*
X117073865Y-52710576D01*
X116936246Y-52895542D01*
X116933830Y-52900293D01*
X116933828Y-52900297D01*
X116887918Y-52990597D01*
X116831760Y-53101051D01*
X116830178Y-53106145D01*
X116830177Y-53106148D01*
X116795609Y-53217475D01*
X116763393Y-53321227D01*
X116762692Y-53326516D01*
X116741061Y-53489725D01*
X116733102Y-53549774D01*
X116733302Y-53555103D01*
X116733302Y-53555105D01*
X116736405Y-53637757D01*
X116741751Y-53780158D01*
X116789093Y-54005791D01*
X116791051Y-54010750D01*
X116791052Y-54010752D01*
X116812130Y-54064123D01*
X116873776Y-54220221D01*
X116993377Y-54417317D01*
X117144477Y-54591445D01*
X117148608Y-54594832D01*
X117318627Y-54734240D01*
X117318633Y-54734244D01*
X117322755Y-54737624D01*
X117354250Y-54755552D01*
X117403555Y-54806632D01*
X117417417Y-54876262D01*
X117391434Y-54942333D01*
X117362284Y-54969573D01*
X117240681Y-55051441D01*
X117236824Y-55055120D01*
X117236822Y-55055122D01*
X117178386Y-55110868D01*
X117073865Y-55210576D01*
X117070682Y-55214854D01*
X117059386Y-55230036D01*
X116936246Y-55395542D01*
X116933830Y-55400293D01*
X116933828Y-55400297D01*
X116914509Y-55438295D01*
X116831760Y-55601051D01*
X116830178Y-55606145D01*
X116830177Y-55606148D01*
X116793720Y-55723559D01*
X116763393Y-55821227D01*
X116762692Y-55826516D01*
X116741061Y-55989725D01*
X116733102Y-56049774D01*
X113538500Y-56049774D01*
X113538500Y-47141500D01*
X113558502Y-47073379D01*
X113612158Y-47026886D01*
X113664500Y-47015500D01*
X183395500Y-47015500D01*
X183463621Y-47035502D01*
G37*
%TD.AperFunction*%
%TD*%
M02*
