M48
; DRILL file {KiCad (6.0.9)} date Sun Jul 14 14:50:27 2024
; FORMAT={-:-/ absolute / metric / decimal}
; #@! TF.CreationDate,2024-07-14T14:50:27-07:00
; #@! TF.GenerationSoftware,Kicad,Pcbnew,(6.0.9)
; #@! TF.FileFunction,Plated,1,2,PTH
FMAT,2
METRIC
; #@! TA.AperFunction,Plated,PTH,ComponentDrill
T1C0.762
; #@! TA.AperFunction,Plated,PTH,ComponentDrill
T2C0.800
; #@! TA.AperFunction,Plated,PTH,ComponentDrill
T3C0.900
; #@! TA.AperFunction,Plated,PTH,ComponentDrill
T4C0.950
; #@! TA.AperFunction,Plated,PTH,ComponentDrill
T5C1.000
; #@! TA.AperFunction,Plated,PTH,ComponentDrill
T6C1.500
%
G90
G05
T1
X157.607Y-61.087
X157.607Y-63.627
X180.467Y-61.087
X180.467Y-63.627
T2
X118.999Y-104.854
X118.999Y-107.354
X126.756Y-98.171
X126.756Y-100.711
X126.756Y-103.251
X126.756Y-105.791
X126.756Y-108.331
X126.756Y-110.871
X126.756Y-113.411
X126.756Y-115.951
X139.456Y-98.171
X139.456Y-100.711
X139.456Y-103.251
X139.456Y-105.791
X139.456Y-108.331
X139.456Y-110.871
X139.456Y-113.411
X139.456Y-115.951
X177.499Y-84.836
X178.709Y-92.964
X178.983Y-75.565
X181.209Y-92.964
X181.483Y-75.565
X182.499Y-84.836
T3
X150.363Y-51.181
X152.903Y-51.181
T4
X118.22Y-51.114
X118.22Y-53.614
X118.22Y-56.114
X118.22Y-58.614
X149.506Y-75.391
X149.506Y-77.891
X149.506Y-80.391
X149.506Y-82.891
X149.506Y-85.391
X149.76Y-94.441
X149.76Y-96.941
X149.76Y-99.441
X149.76Y-101.941
X149.76Y-104.441
T5
X146.979Y-63.119
X149.479Y-63.119
X149.733Y-112.141
X149.733Y-114.641
X157.617Y-75.692
X157.617Y-78.232
X157.617Y-80.772
X157.617Y-83.312
X157.617Y-85.852
X157.617Y-88.392
X157.617Y-90.932
X157.617Y-93.472
X157.617Y-96.012
X157.617Y-98.552
X157.617Y-101.092
X157.617Y-103.632
X157.617Y-106.172
X157.617Y-108.712
X157.617Y-111.252
X172.857Y-75.692
X172.857Y-78.232
X172.857Y-80.772
X172.857Y-83.312
X172.857Y-85.852
X172.857Y-88.392
X172.857Y-90.932
X172.857Y-93.472
X172.857Y-96.012
X172.857Y-98.552
X172.857Y-101.092
X172.857Y-103.632
X172.857Y-106.172
X172.857Y-108.712
X172.857Y-111.252
T6
X133.445Y-72.256
X133.445Y-87.256
T5
X128.845Y-53.435G85X128.845Y-55.435
G05
X134.546Y-51.435G85X132.546Y-51.435
G05
X134.546Y-57.435G85X132.546Y-57.435
G05
T0
M30
