%TF.GenerationSoftware,KiCad,Pcbnew,(6.0.9)*%
%TF.CreationDate,2024-07-14T14:50:05-07:00*%
%TF.ProjectId,RA_Controller,52415f43-6f6e-4747-926f-6c6c65722e6b,rev?*%
%TF.SameCoordinates,Original*%
%TF.FileFunction,Copper,L2,Bot*%
%TF.FilePolarity,Positive*%
%FSLAX46Y46*%
G04 Gerber Fmt 4.6, Leading zero omitted, Abs format (unit mm)*
G04 Created by KiCad (PCBNEW (6.0.9)) date 2024-07-14 14:50:05*
%MOMM*%
%LPD*%
G01*
G04 APERTURE LIST*
G04 Aperture macros list*
%AMRoundRect*
0 Rectangle with rounded corners*
0 $1 Rounding radius*
0 $2 $3 $4 $5 $6 $7 $8 $9 X,Y pos of 4 corners*
0 Add a 4 corners polygon primitive as box body*
4,1,4,$2,$3,$4,$5,$6,$7,$8,$9,$2,$3,0*
0 Add four circle primitives for the rounded corners*
1,1,$1+$1,$2,$3*
1,1,$1+$1,$4,$5*
1,1,$1+$1,$6,$7*
1,1,$1+$1,$8,$9*
0 Add four rect primitives between the rounded corners*
20,1,$1+$1,$2,$3,$4,$5,0*
20,1,$1+$1,$4,$5,$6,$7,0*
20,1,$1+$1,$6,$7,$8,$9,0*
20,1,$1+$1,$8,$9,$2,$3,0*%
G04 Aperture macros list end*
%TA.AperFunction,ComponentPad*%
%ADD10R,1.600000X1.600000*%
%TD*%
%TA.AperFunction,ComponentPad*%
%ADD11C,1.600000*%
%TD*%
%TA.AperFunction,ComponentPad*%
%ADD12O,1.600000X1.600000*%
%TD*%
%TA.AperFunction,ComponentPad*%
%ADD13RoundRect,0.250000X-0.750000X0.600000X-0.750000X-0.600000X0.750000X-0.600000X0.750000X0.600000X0*%
%TD*%
%TA.AperFunction,ComponentPad*%
%ADD14O,2.000000X1.700000*%
%TD*%
%TA.AperFunction,ComponentPad*%
%ADD15C,3.000000*%
%TD*%
%TA.AperFunction,ComponentPad*%
%ADD16RoundRect,0.250000X-0.725000X0.600000X-0.725000X-0.600000X0.725000X-0.600000X0.725000X0.600000X0*%
%TD*%
%TA.AperFunction,ComponentPad*%
%ADD17O,1.950000X1.700000*%
%TD*%
%TA.AperFunction,ComponentPad*%
%ADD18R,1.524000X1.524000*%
%TD*%
%TA.AperFunction,ComponentPad*%
%ADD19C,1.524000*%
%TD*%
%TA.AperFunction,ComponentPad*%
%ADD20RoundRect,0.250000X0.600000X0.750000X-0.600000X0.750000X-0.600000X-0.750000X0.600000X-0.750000X0*%
%TD*%
%TA.AperFunction,ComponentPad*%
%ADD21O,1.700000X2.000000*%
%TD*%
%TA.AperFunction,ComponentPad*%
%ADD22R,3.500000X3.500000*%
%TD*%
%TA.AperFunction,ComponentPad*%
%ADD23RoundRect,0.750000X-1.000000X0.750000X-1.000000X-0.750000X1.000000X-0.750000X1.000000X0.750000X0*%
%TD*%
%TA.AperFunction,ComponentPad*%
%ADD24RoundRect,0.875000X-0.875000X0.875000X-0.875000X-0.875000X0.875000X-0.875000X0.875000X0.875000X0*%
%TD*%
%TA.AperFunction,ComponentPad*%
%ADD25RoundRect,0.250000X0.725000X-0.600000X0.725000X0.600000X-0.725000X0.600000X-0.725000X-0.600000X0*%
%TD*%
%TA.AperFunction,ComponentPad*%
%ADD26R,1.800000X1.800000*%
%TD*%
%TA.AperFunction,ComponentPad*%
%ADD27C,1.800000*%
%TD*%
G04 APERTURE END LIST*
D10*
%TO.P,C1,1*%
%TO.N,+12V*%
X118999000Y-107354380D03*
D11*
%TO.P,C1,2*%
%TO.N,GND*%
X118999000Y-104854380D03*
%TD*%
%TO.P,C3,1*%
%TO.N,+5V*%
X182499000Y-84836000D03*
%TO.P,C3,2*%
%TO.N,GND*%
X177499000Y-84836000D03*
%TD*%
D10*
%TO.P,A2,1,GND*%
%TO.N,GND*%
X126756000Y-98171000D03*
D12*
%TO.P,A2,2,VDD*%
%TO.N,+5V*%
X126756000Y-100711000D03*
%TO.P,A2,3,1B*%
%TO.N,/1B*%
X126756000Y-103251000D03*
%TO.P,A2,4,1A*%
%TO.N,/1A*%
X126756000Y-105791000D03*
%TO.P,A2,5,2A*%
%TO.N,/2A*%
X126756000Y-108331000D03*
%TO.P,A2,6,2B*%
%TO.N,/2B*%
X126756000Y-110871000D03*
%TO.P,A2,7,GND*%
%TO.N,GND*%
X126756000Y-113411000D03*
%TO.P,A2,8,VMOT*%
%TO.N,+12V*%
X126756000Y-115951000D03*
%TO.P,A2,9,~{ENABLE}*%
%TO.N,unconnected-(A2-Pad9)*%
X139456000Y-115951000D03*
%TO.P,A2,10,MS1*%
%TO.N,unconnected-(A2-Pad10)*%
X139456000Y-113411000D03*
%TO.P,A2,11,MS2*%
%TO.N,unconnected-(A2-Pad11)*%
X139456000Y-110871000D03*
%TO.P,A2,12,MS3*%
%TO.N,unconnected-(A2-Pad12)*%
X139456000Y-108331000D03*
%TO.P,A2,13,~{RESET}*%
%TO.N,Net-(A2-Pad13)*%
X139456000Y-105791000D03*
%TO.P,A2,14,~{SLEEP}*%
X139456000Y-103251000D03*
%TO.P,A2,15,STEP*%
%TO.N,/STEP*%
X139456000Y-100711000D03*
%TO.P,A2,16,DIR*%
%TO.N,/DIR*%
X139456000Y-98171000D03*
%TD*%
D13*
%TO.P,J3,1,Pin_1*%
%TO.N,GND*%
X149733000Y-112141000D03*
D14*
%TO.P,J3,2,Pin_2*%
%TO.N,+5V*%
X149733000Y-114641000D03*
%TD*%
D15*
%TO.P,F1,1*%
%TO.N,Net-(F1-Pad1)*%
X133445000Y-72256000D03*
%TO.P,F1,2*%
%TO.N,Net-(F1-Pad2)*%
X133445000Y-87256000D03*
%TD*%
D10*
%TO.P,C2,1*%
%TO.N,+5V*%
X181483000Y-75565000D03*
D11*
%TO.P,C2,2*%
%TO.N,GND*%
X178983000Y-75565000D03*
%TD*%
D16*
%TO.P,J1,1,Pin_1*%
%TO.N,/RotCLK*%
X149506000Y-75391000D03*
D17*
%TO.P,J1,2,Pin_2*%
%TO.N,/RotDT*%
X149506000Y-77891000D03*
%TO.P,J1,3,Pin_3*%
%TO.N,/RotSW*%
X149506000Y-80391000D03*
%TO.P,J1,4,Pin_4*%
%TO.N,+5V*%
X149506000Y-82891000D03*
%TO.P,J1,5,Pin_5*%
%TO.N,GND*%
X149506000Y-85391000D03*
%TD*%
D10*
%TO.P,A1,1,D1/TX*%
%TO.N,unconnected-(A1-Pad1)*%
X157617000Y-75692000D03*
D12*
%TO.P,A1,2,D0/RX*%
%TO.N,unconnected-(A1-Pad2)*%
X157617000Y-78232000D03*
%TO.P,A1,3,~{RESET}*%
%TO.N,unconnected-(A1-Pad3)*%
X157617000Y-80772000D03*
%TO.P,A1,4,GND*%
%TO.N,GND*%
X157617000Y-83312000D03*
%TO.P,A1,5,D2*%
%TO.N,/RotCLK*%
X157617000Y-85852000D03*
%TO.P,A1,6,D3*%
%TO.N,/RotDT*%
X157617000Y-88392000D03*
%TO.P,A1,7,D4*%
%TO.N,/RotSW*%
X157617000Y-90932000D03*
%TO.P,A1,8,D5*%
%TO.N,/LEDBL*%
X157617000Y-93472000D03*
%TO.P,A1,9,D6*%
%TO.N,/LEDRD*%
X157617000Y-96012000D03*
%TO.P,A1,10,D7*%
%TO.N,/LEDGR*%
X157617000Y-98552000D03*
%TO.P,A1,11,D8*%
%TO.N,/TRKSW*%
X157617000Y-101092000D03*
%TO.P,A1,12,D9*%
%TO.N,/SLEWSW*%
X157617000Y-103632000D03*
%TO.P,A1,13,D10*%
%TO.N,/DIR*%
X157617000Y-106172000D03*
%TO.P,A1,14,D11*%
%TO.N,/STEP*%
X157617000Y-108712000D03*
%TO.P,A1,15,D12*%
%TO.N,unconnected-(A1-Pad15)*%
X157617000Y-111252000D03*
%TO.P,A1,16,D13*%
%TO.N,unconnected-(A1-Pad16)*%
X172857000Y-111252000D03*
%TO.P,A1,17,3V3*%
%TO.N,unconnected-(A1-Pad17)*%
X172857000Y-108712000D03*
%TO.P,A1,18,AREF*%
%TO.N,unconnected-(A1-Pad18)*%
X172857000Y-106172000D03*
%TO.P,A1,19,A0*%
%TO.N,unconnected-(A1-Pad19)*%
X172857000Y-103632000D03*
%TO.P,A1,20,A1*%
%TO.N,unconnected-(A1-Pad20)*%
X172857000Y-101092000D03*
%TO.P,A1,21,A2*%
%TO.N,unconnected-(A1-Pad21)*%
X172857000Y-98552000D03*
%TO.P,A1,22,A3*%
%TO.N,unconnected-(A1-Pad22)*%
X172857000Y-96012000D03*
%TO.P,A1,23,A4*%
%TO.N,unconnected-(A1-Pad23)*%
X172857000Y-93472000D03*
%TO.P,A1,24,A5*%
%TO.N,unconnected-(A1-Pad24)*%
X172857000Y-90932000D03*
%TO.P,A1,25,A6*%
%TO.N,unconnected-(A1-Pad25)*%
X172857000Y-88392000D03*
%TO.P,A1,26,A7*%
%TO.N,unconnected-(A1-Pad26)*%
X172857000Y-85852000D03*
%TO.P,A1,27,+5V*%
%TO.N,+5V*%
X172857000Y-83312000D03*
%TO.P,A1,28,~{RESET}*%
%TO.N,unconnected-(A1-Pad28)*%
X172857000Y-80772000D03*
%TO.P,A1,29,GND*%
%TO.N,GND*%
X172857000Y-78232000D03*
%TO.P,A1,30,VIN*%
%TO.N,unconnected-(A1-Pad30)*%
X172857000Y-75692000D03*
%TD*%
D11*
%TO.P,C4,1*%
%TO.N,+5V*%
X181209000Y-92964000D03*
%TO.P,C4,2*%
%TO.N,GND*%
X178709000Y-92964000D03*
%TD*%
D18*
%TO.P,U1,1,Vin*%
%TO.N,+12V*%
X157607000Y-61087000D03*
D19*
%TO.P,U1,2,GND*%
%TO.N,GND*%
X157607000Y-63627000D03*
%TO.P,U1,3,Vout*%
%TO.N,+5V*%
X180467000Y-61087000D03*
%TO.P,U1,4,GND*%
%TO.N,GND*%
X180467000Y-63627000D03*
%TD*%
D20*
%TO.P,J6,1,Pin_1*%
%TO.N,+12V*%
X149479000Y-63119000D03*
D21*
%TO.P,J6,2,Pin_2*%
%TO.N,Net-(F1-Pad2)*%
X146979000Y-63119000D03*
%TD*%
D22*
%TO.P,J5,1*%
%TO.N,Net-(F1-Pad1)*%
X133545500Y-57435000D03*
D23*
%TO.P,J5,2*%
%TO.N,GND*%
X133545500Y-51435000D03*
D24*
%TO.P,J5,3*%
%TO.N,N/C*%
X128845500Y-54435000D03*
%TD*%
D16*
%TO.P,J2,1,Pin_1*%
%TO.N,/LEDBL*%
X149760000Y-94441000D03*
D17*
%TO.P,J2,2,Pin_2*%
%TO.N,/LEDRD*%
X149760000Y-96941000D03*
%TO.P,J2,3,Pin_3*%
%TO.N,/LEDGR*%
X149760000Y-99441000D03*
%TO.P,J2,4,Pin_4*%
%TO.N,/TRKSW*%
X149760000Y-101941000D03*
%TO.P,J2,5,Pin_5*%
%TO.N,/SLEWSW*%
X149760000Y-104441000D03*
%TD*%
D25*
%TO.P,J4,1,Pin_1*%
%TO.N,/2B*%
X118220000Y-58614000D03*
D17*
%TO.P,J4,2,Pin_2*%
%TO.N,/2A*%
X118220000Y-56114000D03*
%TO.P,J4,3,Pin_3*%
%TO.N,/1A*%
X118220000Y-53614000D03*
%TO.P,J4,4,Pin_4*%
%TO.N,/1B*%
X118220000Y-51114000D03*
%TD*%
D26*
%TO.P,D1,1,K*%
%TO.N,Net-(D1-Pad1)*%
X150363000Y-51181000D03*
D27*
%TO.P,D1,2,A*%
%TO.N,+5V*%
X152903000Y-51181000D03*
%TD*%
%TA.AperFunction,Conductor*%
%TO.N,+5V*%
G36*
X183463621Y-47035502D02*
G01*
X183510114Y-47089158D01*
X183521500Y-47141500D01*
X183521500Y-83713146D01*
X183501498Y-83781267D01*
X183447842Y-83827760D01*
X183377568Y-83837864D01*
X183323229Y-83816359D01*
X183160006Y-83702069D01*
X183150511Y-83696586D01*
X182953053Y-83604510D01*
X182942761Y-83600764D01*
X182732312Y-83544375D01*
X182721519Y-83542472D01*
X182504475Y-83523483D01*
X182493525Y-83523483D01*
X182276481Y-83542472D01*
X182265688Y-83544375D01*
X182055239Y-83600764D01*
X182044947Y-83604510D01*
X181847489Y-83696586D01*
X181837994Y-83702069D01*
X181785952Y-83738509D01*
X181777576Y-83748988D01*
X181784644Y-83762434D01*
X182769115Y-84746905D01*
X182803141Y-84809217D01*
X182798076Y-84880032D01*
X182769115Y-84925095D01*
X181783923Y-85910287D01*
X181777493Y-85922062D01*
X181786789Y-85934077D01*
X181837994Y-85969931D01*
X181847489Y-85975414D01*
X182044947Y-86067490D01*
X182055239Y-86071236D01*
X182265688Y-86127625D01*
X182276481Y-86129528D01*
X182493525Y-86148517D01*
X182504475Y-86148517D01*
X182721519Y-86129528D01*
X182732312Y-86127625D01*
X182942761Y-86071236D01*
X182953053Y-86067490D01*
X183150511Y-85975414D01*
X183160006Y-85969931D01*
X183323229Y-85855641D01*
X183390503Y-85832953D01*
X183459363Y-85850238D01*
X183507948Y-85902008D01*
X183521500Y-85958854D01*
X183521500Y-118872500D01*
X183501498Y-118940621D01*
X183447842Y-118987114D01*
X183395500Y-118998500D01*
X113664500Y-118998500D01*
X113596379Y-118978498D01*
X113549886Y-118924842D01*
X113538500Y-118872500D01*
X113538500Y-114507000D01*
X115816761Y-114507000D01*
X115817031Y-114511119D01*
X115832686Y-114749959D01*
X115835696Y-114795886D01*
X115836500Y-114799926D01*
X115836500Y-114799929D01*
X115883779Y-115037617D01*
X115892175Y-115079828D01*
X115985234Y-115353970D01*
X116113279Y-115613619D01*
X116274119Y-115854335D01*
X116276831Y-115857427D01*
X116276836Y-115857434D01*
X116400160Y-115998056D01*
X116465004Y-116071996D01*
X116468093Y-116074705D01*
X116679565Y-116260163D01*
X116679571Y-116260168D01*
X116682665Y-116262881D01*
X116923380Y-116423721D01*
X116927079Y-116425545D01*
X116927084Y-116425548D01*
X117179335Y-116549944D01*
X117183030Y-116551766D01*
X117186928Y-116553089D01*
X117186930Y-116553090D01*
X117453262Y-116643498D01*
X117453266Y-116643499D01*
X117457172Y-116644825D01*
X117461216Y-116645629D01*
X117461222Y-116645631D01*
X117737071Y-116700500D01*
X117737074Y-116700500D01*
X117741114Y-116701304D01*
X117745225Y-116701573D01*
X117745229Y-116701574D01*
X118025881Y-116719969D01*
X118030000Y-116720239D01*
X118034119Y-116719969D01*
X118314771Y-116701574D01*
X118314775Y-116701573D01*
X118318886Y-116701304D01*
X118322926Y-116700500D01*
X118322929Y-116700500D01*
X118598778Y-116645631D01*
X118598784Y-116645629D01*
X118602828Y-116644825D01*
X118606734Y-116643499D01*
X118606738Y-116643498D01*
X118873070Y-116553090D01*
X118873072Y-116553089D01*
X118876970Y-116551766D01*
X118880665Y-116549944D01*
X119132916Y-116425548D01*
X119132921Y-116425545D01*
X119136620Y-116423721D01*
X119377335Y-116262881D01*
X119380429Y-116260168D01*
X119380435Y-116260163D01*
X119591907Y-116074705D01*
X119594996Y-116071996D01*
X119659840Y-115998056D01*
X119701108Y-115951000D01*
X125442502Y-115951000D01*
X125462457Y-116179087D01*
X125521716Y-116400243D01*
X125524039Y-116405224D01*
X125524039Y-116405225D01*
X125616151Y-116602762D01*
X125616154Y-116602767D01*
X125618477Y-116607749D01*
X125683422Y-116700500D01*
X125697055Y-116719969D01*
X125749802Y-116795300D01*
X125911700Y-116957198D01*
X125916208Y-116960355D01*
X125916211Y-116960357D01*
X125994389Y-117015098D01*
X126099251Y-117088523D01*
X126104233Y-117090846D01*
X126104238Y-117090849D01*
X126301775Y-117182961D01*
X126306757Y-117185284D01*
X126312065Y-117186706D01*
X126312067Y-117186707D01*
X126522598Y-117243119D01*
X126522600Y-117243119D01*
X126527913Y-117244543D01*
X126756000Y-117264498D01*
X126984087Y-117244543D01*
X126989400Y-117243119D01*
X126989402Y-117243119D01*
X127199933Y-117186707D01*
X127199935Y-117186706D01*
X127205243Y-117185284D01*
X127210225Y-117182961D01*
X127407762Y-117090849D01*
X127407767Y-117090846D01*
X127412749Y-117088523D01*
X127517611Y-117015098D01*
X127595789Y-116960357D01*
X127595792Y-116960355D01*
X127600300Y-116957198D01*
X127762198Y-116795300D01*
X127814946Y-116719969D01*
X127828578Y-116700500D01*
X127893523Y-116607749D01*
X127895846Y-116602767D01*
X127895849Y-116602762D01*
X127987961Y-116405225D01*
X127987961Y-116405224D01*
X127990284Y-116400243D01*
X128049543Y-116179087D01*
X128069498Y-115951000D01*
X138142502Y-115951000D01*
X138162457Y-116179087D01*
X138221716Y-116400243D01*
X138224039Y-116405224D01*
X138224039Y-116405225D01*
X138316151Y-116602762D01*
X138316154Y-116602767D01*
X138318477Y-116607749D01*
X138383422Y-116700500D01*
X138397055Y-116719969D01*
X138449802Y-116795300D01*
X138611700Y-116957198D01*
X138616208Y-116960355D01*
X138616211Y-116960357D01*
X138694389Y-117015098D01*
X138799251Y-117088523D01*
X138804233Y-117090846D01*
X138804238Y-117090849D01*
X139001775Y-117182961D01*
X139006757Y-117185284D01*
X139012065Y-117186706D01*
X139012067Y-117186707D01*
X139222598Y-117243119D01*
X139222600Y-117243119D01*
X139227913Y-117244543D01*
X139456000Y-117264498D01*
X139684087Y-117244543D01*
X139689400Y-117243119D01*
X139689402Y-117243119D01*
X139899933Y-117186707D01*
X139899935Y-117186706D01*
X139905243Y-117185284D01*
X139910225Y-117182961D01*
X140107762Y-117090849D01*
X140107767Y-117090846D01*
X140112749Y-117088523D01*
X140217611Y-117015098D01*
X140295789Y-116960357D01*
X140295792Y-116960355D01*
X140300300Y-116957198D01*
X140462198Y-116795300D01*
X140514946Y-116719969D01*
X140528578Y-116700500D01*
X140593523Y-116607749D01*
X140595846Y-116602767D01*
X140595849Y-116602762D01*
X140687961Y-116405225D01*
X140687961Y-116405224D01*
X140690284Y-116400243D01*
X140749543Y-116179087D01*
X140769498Y-115951000D01*
X140749543Y-115722913D01*
X140745051Y-115706150D01*
X140691707Y-115507067D01*
X140691706Y-115507065D01*
X140690284Y-115501757D01*
X140658208Y-115432969D01*
X140595849Y-115299238D01*
X140595846Y-115299233D01*
X140593523Y-115294251D01*
X140462198Y-115106700D01*
X140300300Y-114944802D01*
X140295792Y-114941645D01*
X140295789Y-114941643D01*
X140249998Y-114909580D01*
X148251752Y-114909580D01*
X148276477Y-115027421D01*
X148279537Y-115037617D01*
X148360263Y-115242029D01*
X148364994Y-115251561D01*
X148479016Y-115439462D01*
X148485280Y-115448052D01*
X148629327Y-115614052D01*
X148636958Y-115621472D01*
X148806911Y-115760826D01*
X148815678Y-115766850D01*
X149006682Y-115875576D01*
X149016346Y-115880041D01*
X149222941Y-115955031D01*
X149233208Y-115957802D01*
X149450655Y-115997123D01*
X149458884Y-115998056D01*
X149463376Y-115998268D01*
X149476124Y-115994525D01*
X149477329Y-115993135D01*
X149479000Y-115985452D01*
X149479000Y-115976970D01*
X149987000Y-115976970D01*
X149991310Y-115991648D01*
X150003193Y-115993711D01*
X150107325Y-115984876D01*
X150117797Y-115983086D01*
X150330535Y-115927870D01*
X150340575Y-115924335D01*
X150540970Y-115834063D01*
X150550256Y-115828894D01*
X150732575Y-115706150D01*
X150740870Y-115699481D01*
X150899900Y-115547772D01*
X150906941Y-115539814D01*
X151038141Y-115363475D01*
X151043745Y-115354438D01*
X151143357Y-115158516D01*
X151147357Y-115148665D01*
X151212534Y-114938760D01*
X151214817Y-114928376D01*
X151216861Y-114912957D01*
X151214665Y-114898793D01*
X151201478Y-114895000D01*
X150005115Y-114895000D01*
X149989876Y-114899475D01*
X149988671Y-114900865D01*
X149987000Y-114908548D01*
X149987000Y-115976970D01*
X149479000Y-115976970D01*
X149479000Y-114913115D01*
X149474525Y-114897876D01*
X149473135Y-114896671D01*
X149465452Y-114895000D01*
X148266808Y-114895000D01*
X148253277Y-114898973D01*
X148251752Y-114909580D01*
X140249998Y-114909580D01*
X140217611Y-114886902D01*
X140112749Y-114813477D01*
X140107767Y-114811154D01*
X140107762Y-114811151D01*
X140073543Y-114795195D01*
X140020258Y-114748278D01*
X140000797Y-114680001D01*
X140021339Y-114612041D01*
X140073543Y-114566805D01*
X140107762Y-114550849D01*
X140107767Y-114550846D01*
X140112749Y-114548523D01*
X140172050Y-114507000D01*
X176816761Y-114507000D01*
X176817031Y-114511119D01*
X176832686Y-114749959D01*
X176835696Y-114795886D01*
X176836500Y-114799926D01*
X176836500Y-114799929D01*
X176883779Y-115037617D01*
X176892175Y-115079828D01*
X176985234Y-115353970D01*
X177113279Y-115613619D01*
X177274119Y-115854335D01*
X177276831Y-115857427D01*
X177276836Y-115857434D01*
X177400160Y-115998056D01*
X177465004Y-116071996D01*
X177468093Y-116074705D01*
X177679565Y-116260163D01*
X177679571Y-116260168D01*
X177682665Y-116262881D01*
X177923380Y-116423721D01*
X177927079Y-116425545D01*
X177927084Y-116425548D01*
X178179335Y-116549944D01*
X178183030Y-116551766D01*
X178186928Y-116553089D01*
X178186930Y-116553090D01*
X178453262Y-116643498D01*
X178453266Y-116643499D01*
X178457172Y-116644825D01*
X178461216Y-116645629D01*
X178461222Y-116645631D01*
X178737071Y-116700500D01*
X178737074Y-116700500D01*
X178741114Y-116701304D01*
X178745225Y-116701573D01*
X178745229Y-116701574D01*
X179025881Y-116719969D01*
X179030000Y-116720239D01*
X179034119Y-116719969D01*
X179314771Y-116701574D01*
X179314775Y-116701573D01*
X179318886Y-116701304D01*
X179322926Y-116700500D01*
X179322929Y-116700500D01*
X179598778Y-116645631D01*
X179598784Y-116645629D01*
X179602828Y-116644825D01*
X179606734Y-116643499D01*
X179606738Y-116643498D01*
X179873070Y-116553090D01*
X179873072Y-116553089D01*
X179876970Y-116551766D01*
X179880665Y-116549944D01*
X180132916Y-116425548D01*
X180132921Y-116425545D01*
X180136620Y-116423721D01*
X180377335Y-116262881D01*
X180380429Y-116260168D01*
X180380435Y-116260163D01*
X180591907Y-116074705D01*
X180594996Y-116071996D01*
X180659840Y-115998056D01*
X180783164Y-115857434D01*
X180783169Y-115857427D01*
X180785881Y-115854335D01*
X180946721Y-115613619D01*
X181074766Y-115353970D01*
X181167825Y-115079828D01*
X181176222Y-115037617D01*
X181223500Y-114799929D01*
X181223500Y-114799926D01*
X181224304Y-114795886D01*
X181227315Y-114749959D01*
X181242969Y-114511119D01*
X181243239Y-114507000D01*
X181233186Y-114353624D01*
X181224574Y-114222229D01*
X181224573Y-114222225D01*
X181224304Y-114218114D01*
X181167825Y-113934172D01*
X181142730Y-113860243D01*
X181076090Y-113663930D01*
X181076089Y-113663928D01*
X181074766Y-113660030D01*
X180946721Y-113400381D01*
X180785881Y-113159665D01*
X180783169Y-113156573D01*
X180783164Y-113156566D01*
X180597705Y-112945093D01*
X180594996Y-112942004D01*
X180549824Y-112902389D01*
X180380435Y-112753837D01*
X180380429Y-112753832D01*
X180377335Y-112751119D01*
X180136620Y-112590279D01*
X180132921Y-112588455D01*
X180132916Y-112588452D01*
X179880665Y-112464056D01*
X179880663Y-112464055D01*
X179876970Y-112462234D01*
X179719262Y-112408699D01*
X179606738Y-112370502D01*
X179606734Y-112370501D01*
X179602828Y-112369175D01*
X179598784Y-112368371D01*
X179598778Y-112368369D01*
X179322929Y-112313500D01*
X179322926Y-112313500D01*
X179318886Y-112312696D01*
X179314775Y-112312427D01*
X179314771Y-112312426D01*
X179034119Y-112294031D01*
X179030000Y-112293761D01*
X179025881Y-112294031D01*
X178745229Y-112312426D01*
X178745225Y-112312427D01*
X178741114Y-112312696D01*
X178737074Y-112313500D01*
X178737071Y-112313500D01*
X178461222Y-112368369D01*
X178461216Y-112368371D01*
X178457172Y-112369175D01*
X178453266Y-112370501D01*
X178453262Y-112370502D01*
X178340738Y-112408699D01*
X178183030Y-112462234D01*
X178179337Y-112464055D01*
X178179335Y-112464056D01*
X178131376Y-112487707D01*
X177923381Y-112590279D01*
X177682665Y-112751119D01*
X177679573Y-112753831D01*
X177679566Y-112753836D01*
X177510176Y-112902389D01*
X177465004Y-112942004D01*
X177462295Y-112945093D01*
X177276836Y-113156566D01*
X177276831Y-113156573D01*
X177274119Y-113159665D01*
X177113279Y-113400381D01*
X176985234Y-113660030D01*
X176983911Y-113663928D01*
X176983910Y-113663930D01*
X176917271Y-113860243D01*
X176892175Y-113934172D01*
X176835696Y-114218114D01*
X176835427Y-114222225D01*
X176835426Y-114222229D01*
X176824875Y-114383207D01*
X176818805Y-114475810D01*
X176816761Y-114507000D01*
X140172050Y-114507000D01*
X140217611Y-114475098D01*
X140295789Y-114420357D01*
X140295792Y-114420355D01*
X140300300Y-114417198D01*
X140462198Y-114255300D01*
X140469843Y-114244383D01*
X140590366Y-114072257D01*
X140593523Y-114067749D01*
X140595846Y-114062767D01*
X140595849Y-114062762D01*
X140687961Y-113865225D01*
X140687961Y-113865224D01*
X140690284Y-113860243D01*
X140744922Y-113656335D01*
X140748119Y-113644402D01*
X140748119Y-113644400D01*
X140749543Y-113639087D01*
X140769498Y-113411000D01*
X140749543Y-113182913D01*
X140716072Y-113057998D01*
X140691707Y-112967067D01*
X140691706Y-112967065D01*
X140690284Y-112961757D01*
X140663214Y-112903704D01*
X140610846Y-112791400D01*
X148224500Y-112791400D01*
X148235474Y-112897166D01*
X148291450Y-113064946D01*
X148384522Y-113215348D01*
X148509697Y-113340305D01*
X148655258Y-113430030D01*
X148655780Y-113430352D01*
X148703273Y-113483124D01*
X148714697Y-113553196D01*
X148686423Y-113618320D01*
X148676636Y-113628782D01*
X148566094Y-113734234D01*
X148559059Y-113742186D01*
X148427859Y-113918525D01*
X148422255Y-113927562D01*
X148322643Y-114123484D01*
X148318643Y-114133335D01*
X148253466Y-114343240D01*
X148251183Y-114353624D01*
X148249139Y-114369043D01*
X148251335Y-114383207D01*
X148264522Y-114387000D01*
X151199192Y-114387000D01*
X151212723Y-114383027D01*
X151214248Y-114372420D01*
X151189523Y-114254579D01*
X151186463Y-114244383D01*
X151105737Y-114039971D01*
X151101006Y-114030439D01*
X150986984Y-113842538D01*
X150980720Y-113833948D01*
X150836673Y-113667948D01*
X150829044Y-113660530D01*
X150797431Y-113634609D01*
X150757436Y-113575949D01*
X150755504Y-113504979D01*
X150792248Y-113444230D01*
X150811018Y-113430030D01*
X150852937Y-113404090D01*
X150957348Y-113339478D01*
X151082305Y-113214303D01*
X151101654Y-113182913D01*
X151171275Y-113069968D01*
X151171276Y-113069966D01*
X151175115Y-113063738D01*
X151230797Y-112895861D01*
X151241500Y-112791400D01*
X151241500Y-111490600D01*
X151230526Y-111384834D01*
X151186209Y-111252000D01*
X156303502Y-111252000D01*
X156323457Y-111480087D01*
X156382716Y-111701243D01*
X156385039Y-111706224D01*
X156385039Y-111706225D01*
X156477151Y-111903762D01*
X156477154Y-111903767D01*
X156479477Y-111908749D01*
X156482634Y-111913257D01*
X156594993Y-112073722D01*
X156610802Y-112096300D01*
X156772700Y-112258198D01*
X156777208Y-112261355D01*
X156777211Y-112261357D01*
X156850145Y-112312426D01*
X156960251Y-112389523D01*
X156965233Y-112391846D01*
X156965238Y-112391849D01*
X157162775Y-112483961D01*
X157167757Y-112486284D01*
X157173065Y-112487706D01*
X157173067Y-112487707D01*
X157383598Y-112544119D01*
X157383600Y-112544119D01*
X157388913Y-112545543D01*
X157617000Y-112565498D01*
X157845087Y-112545543D01*
X157850400Y-112544119D01*
X157850402Y-112544119D01*
X158060933Y-112487707D01*
X158060935Y-112487706D01*
X158066243Y-112486284D01*
X158071225Y-112483961D01*
X158268762Y-112391849D01*
X158268767Y-112391846D01*
X158273749Y-112389523D01*
X158383855Y-112312426D01*
X158456789Y-112261357D01*
X158456792Y-112261355D01*
X158461300Y-112258198D01*
X158623198Y-112096300D01*
X158639008Y-112073722D01*
X158751366Y-111913257D01*
X158754523Y-111908749D01*
X158756846Y-111903767D01*
X158756849Y-111903762D01*
X158848961Y-111706225D01*
X158848961Y-111706224D01*
X158851284Y-111701243D01*
X158910543Y-111480087D01*
X158930498Y-111252000D01*
X171543502Y-111252000D01*
X171563457Y-111480087D01*
X171622716Y-111701243D01*
X171625039Y-111706224D01*
X171625039Y-111706225D01*
X171717151Y-111903762D01*
X171717154Y-111903767D01*
X171719477Y-111908749D01*
X171722634Y-111913257D01*
X171834993Y-112073722D01*
X171850802Y-112096300D01*
X172012700Y-112258198D01*
X172017208Y-112261355D01*
X172017211Y-112261357D01*
X172090145Y-112312426D01*
X172200251Y-112389523D01*
X172205233Y-112391846D01*
X172205238Y-112391849D01*
X172402775Y-112483961D01*
X172407757Y-112486284D01*
X172413065Y-112487706D01*
X172413067Y-112487707D01*
X172623598Y-112544119D01*
X172623600Y-112544119D01*
X172628913Y-112545543D01*
X172857000Y-112565498D01*
X173085087Y-112545543D01*
X173090400Y-112544119D01*
X173090402Y-112544119D01*
X173300933Y-112487707D01*
X173300935Y-112487706D01*
X173306243Y-112486284D01*
X173311225Y-112483961D01*
X173508762Y-112391849D01*
X173508767Y-112391846D01*
X173513749Y-112389523D01*
X173623855Y-112312426D01*
X173696789Y-112261357D01*
X173696792Y-112261355D01*
X173701300Y-112258198D01*
X173863198Y-112096300D01*
X173879008Y-112073722D01*
X173991366Y-111913257D01*
X173994523Y-111908749D01*
X173996846Y-111903767D01*
X173996849Y-111903762D01*
X174088961Y-111706225D01*
X174088961Y-111706224D01*
X174091284Y-111701243D01*
X174150543Y-111480087D01*
X174170498Y-111252000D01*
X174150543Y-111023913D01*
X174127702Y-110938668D01*
X174092707Y-110808067D01*
X174092706Y-110808065D01*
X174091284Y-110802757D01*
X174087972Y-110795655D01*
X173996849Y-110600238D01*
X173996846Y-110600233D01*
X173994523Y-110595251D01*
X173873041Y-110421757D01*
X173866357Y-110412211D01*
X173866355Y-110412208D01*
X173863198Y-110407700D01*
X173701300Y-110245802D01*
X173696792Y-110242645D01*
X173696789Y-110242643D01*
X173618611Y-110187902D01*
X173513749Y-110114477D01*
X173508767Y-110112154D01*
X173508762Y-110112151D01*
X173474543Y-110096195D01*
X173421258Y-110049278D01*
X173401797Y-109981001D01*
X173422339Y-109913041D01*
X173474543Y-109867805D01*
X173508762Y-109851849D01*
X173508767Y-109851846D01*
X173513749Y-109849523D01*
X173674971Y-109736634D01*
X173696789Y-109721357D01*
X173696792Y-109721355D01*
X173701300Y-109718198D01*
X173863198Y-109556300D01*
X173879008Y-109533722D01*
X173991366Y-109373257D01*
X173994523Y-109368749D01*
X173996846Y-109363767D01*
X173996849Y-109363762D01*
X174088961Y-109166225D01*
X174088961Y-109166224D01*
X174091284Y-109161243D01*
X174150543Y-108940087D01*
X174170498Y-108712000D01*
X174150543Y-108483913D01*
X174091284Y-108262757D01*
X174088525Y-108256840D01*
X173996849Y-108060238D01*
X173996846Y-108060233D01*
X173994523Y-108055251D01*
X173873041Y-107881757D01*
X173866357Y-107872211D01*
X173866355Y-107872208D01*
X173863198Y-107867700D01*
X173701300Y-107705802D01*
X173696792Y-107702645D01*
X173696789Y-107702643D01*
X173618611Y-107647902D01*
X173513749Y-107574477D01*
X173508767Y-107572154D01*
X173508762Y-107572151D01*
X173474543Y-107556195D01*
X173421258Y-107509278D01*
X173401797Y-107441001D01*
X173422339Y-107373041D01*
X173474543Y-107327805D01*
X173508762Y-107311849D01*
X173508767Y-107311846D01*
X173513749Y-107309523D01*
X173674971Y-107196634D01*
X173696789Y-107181357D01*
X173696792Y-107181355D01*
X173701300Y-107178198D01*
X173863198Y-107016300D01*
X173879008Y-106993722D01*
X173991366Y-106833257D01*
X173994523Y-106828749D01*
X173996846Y-106823767D01*
X173996849Y-106823762D01*
X174088961Y-106626225D01*
X174088961Y-106626224D01*
X174091284Y-106621243D01*
X174150543Y-106400087D01*
X174170498Y-106172000D01*
X174150543Y-105943913D01*
X174140570Y-105906692D01*
X174092707Y-105728067D01*
X174092706Y-105728065D01*
X174091284Y-105722757D01*
X174071578Y-105680497D01*
X173996849Y-105520238D01*
X173996846Y-105520233D01*
X173994523Y-105515251D01*
X173921098Y-105410389D01*
X173866357Y-105332211D01*
X173866355Y-105332208D01*
X173863198Y-105327700D01*
X173701300Y-105165802D01*
X173696792Y-105162645D01*
X173696789Y-105162643D01*
X173589876Y-105087782D01*
X173513749Y-105034477D01*
X173508767Y-105032154D01*
X173508762Y-105032151D01*
X173474543Y-105016195D01*
X173421258Y-104969278D01*
X173401797Y-104901001D01*
X173422339Y-104833041D01*
X173474543Y-104787805D01*
X173508762Y-104771849D01*
X173508767Y-104771846D01*
X173513749Y-104769523D01*
X173674971Y-104656634D01*
X173696789Y-104641357D01*
X173696792Y-104641355D01*
X173701300Y-104638198D01*
X173863198Y-104476300D01*
X173879008Y-104453722D01*
X173991366Y-104293257D01*
X173994523Y-104288749D01*
X173996846Y-104283767D01*
X173996849Y-104283762D01*
X174088961Y-104086225D01*
X174088961Y-104086224D01*
X174091284Y-104081243D01*
X174109144Y-104014591D01*
X174149119Y-103865402D01*
X174149119Y-103865400D01*
X174150543Y-103860087D01*
X174170498Y-103632000D01*
X174150543Y-103403913D01*
X174127355Y-103317376D01*
X174092707Y-103188067D01*
X174092706Y-103188065D01*
X174091284Y-103182757D01*
X174044557Y-103082550D01*
X173996849Y-102980238D01*
X173996846Y-102980233D01*
X173994523Y-102975251D01*
X173873041Y-102801757D01*
X173866357Y-102792211D01*
X173866355Y-102792208D01*
X173863198Y-102787700D01*
X173701300Y-102625802D01*
X173696792Y-102622645D01*
X173696789Y-102622643D01*
X173581984Y-102542256D01*
X173513749Y-102494477D01*
X173508767Y-102492154D01*
X173508762Y-102492151D01*
X173474543Y-102476195D01*
X173421258Y-102429278D01*
X173401797Y-102361001D01*
X173422339Y-102293041D01*
X173474543Y-102247805D01*
X173508762Y-102231849D01*
X173508767Y-102231846D01*
X173513749Y-102229523D01*
X173674971Y-102116634D01*
X173696789Y-102101357D01*
X173696792Y-102101355D01*
X173701300Y-102098198D01*
X173863198Y-101936300D01*
X173879008Y-101913722D01*
X173927175Y-101844931D01*
X173994523Y-101748749D01*
X173996846Y-101743767D01*
X173996849Y-101743762D01*
X174088961Y-101546225D01*
X174088961Y-101546224D01*
X174091284Y-101541243D01*
X174139176Y-101362511D01*
X174149119Y-101325402D01*
X174149119Y-101325400D01*
X174150543Y-101320087D01*
X174170498Y-101092000D01*
X174150543Y-100863913D01*
X174138980Y-100820760D01*
X174092707Y-100648067D01*
X174092706Y-100648065D01*
X174091284Y-100642757D01*
X174087029Y-100633632D01*
X173996849Y-100440238D01*
X173996846Y-100440233D01*
X173994523Y-100435251D01*
X173921098Y-100330389D01*
X173866357Y-100252211D01*
X173866355Y-100252208D01*
X173863198Y-100247700D01*
X173701300Y-100085802D01*
X173696792Y-100082645D01*
X173696789Y-100082643D01*
X173618611Y-100027902D01*
X173513749Y-99954477D01*
X173508767Y-99952154D01*
X173508762Y-99952151D01*
X173474543Y-99936195D01*
X173421258Y-99889278D01*
X173401797Y-99821001D01*
X173422339Y-99753041D01*
X173474543Y-99707805D01*
X173508762Y-99691849D01*
X173508767Y-99691846D01*
X173513749Y-99689523D01*
X173674971Y-99576634D01*
X173696789Y-99561357D01*
X173696792Y-99561355D01*
X173701300Y-99558198D01*
X173863198Y-99396300D01*
X173873138Y-99382105D01*
X173983220Y-99224891D01*
X173994523Y-99208749D01*
X173996846Y-99203767D01*
X173996849Y-99203762D01*
X174088961Y-99006225D01*
X174088961Y-99006224D01*
X174091284Y-99001243D01*
X174150543Y-98780087D01*
X174170498Y-98552000D01*
X174150543Y-98323913D01*
X174149119Y-98318598D01*
X174092707Y-98108067D01*
X174092706Y-98108065D01*
X174091284Y-98102757D01*
X174083203Y-98085427D01*
X173996849Y-97900238D01*
X173996846Y-97900233D01*
X173994523Y-97895251D01*
X173921098Y-97790389D01*
X173866357Y-97712211D01*
X173866355Y-97712208D01*
X173863198Y-97707700D01*
X173701300Y-97545802D01*
X173696792Y-97542645D01*
X173696789Y-97542643D01*
X173618611Y-97487902D01*
X173513749Y-97414477D01*
X173508767Y-97412154D01*
X173508762Y-97412151D01*
X173474543Y-97396195D01*
X173421258Y-97349278D01*
X173401797Y-97281001D01*
X173422339Y-97213041D01*
X173474543Y-97167805D01*
X173508762Y-97151849D01*
X173508767Y-97151846D01*
X173513749Y-97149523D01*
X173674971Y-97036634D01*
X173696789Y-97021357D01*
X173696792Y-97021355D01*
X173701300Y-97018198D01*
X173863198Y-96856300D01*
X173994523Y-96668749D01*
X173996846Y-96663767D01*
X173996849Y-96663762D01*
X174088961Y-96466225D01*
X174088961Y-96466224D01*
X174091284Y-96461243D01*
X174150543Y-96240087D01*
X174170498Y-96012000D01*
X174150543Y-95783913D01*
X174149119Y-95778598D01*
X174092707Y-95568067D01*
X174092706Y-95568065D01*
X174091284Y-95562757D01*
X173998481Y-95363738D01*
X173996849Y-95360238D01*
X173996846Y-95360233D01*
X173994523Y-95355251D01*
X173921098Y-95250389D01*
X173866357Y-95172211D01*
X173866355Y-95172208D01*
X173863198Y-95167700D01*
X173701300Y-95005802D01*
X173696792Y-95002645D01*
X173696789Y-95002643D01*
X173618611Y-94947902D01*
X173513749Y-94874477D01*
X173508767Y-94872154D01*
X173508762Y-94872151D01*
X173474543Y-94856195D01*
X173421258Y-94809278D01*
X173401797Y-94741001D01*
X173422339Y-94673041D01*
X173474543Y-94627805D01*
X173508762Y-94611849D01*
X173508767Y-94611846D01*
X173513749Y-94609523D01*
X173618611Y-94536098D01*
X173696789Y-94481357D01*
X173696792Y-94481355D01*
X173701300Y-94478198D01*
X173863198Y-94316300D01*
X173891055Y-94276517D01*
X173921098Y-94233611D01*
X173994523Y-94128749D01*
X173996846Y-94123767D01*
X173996849Y-94123762D01*
X174088961Y-93926225D01*
X174088961Y-93926224D01*
X174091284Y-93921243D01*
X174150543Y-93700087D01*
X174170498Y-93472000D01*
X174150543Y-93243913D01*
X174149119Y-93238598D01*
X174092707Y-93028067D01*
X174092706Y-93028065D01*
X174091284Y-93022757D01*
X174068353Y-92973580D01*
X174063886Y-92964000D01*
X177395502Y-92964000D01*
X177415457Y-93192087D01*
X177416881Y-93197400D01*
X177416881Y-93197402D01*
X177464182Y-93373928D01*
X177474716Y-93413243D01*
X177477039Y-93418224D01*
X177477039Y-93418225D01*
X177569151Y-93615762D01*
X177569154Y-93615767D01*
X177571477Y-93620749D01*
X177623193Y-93694607D01*
X177688133Y-93787350D01*
X177702802Y-93808300D01*
X177864700Y-93970198D01*
X177869208Y-93973355D01*
X177869211Y-93973357D01*
X177947389Y-94028098D01*
X178052251Y-94101523D01*
X178057233Y-94103846D01*
X178057238Y-94103849D01*
X178253765Y-94195490D01*
X178259757Y-94198284D01*
X178265065Y-94199706D01*
X178265067Y-94199707D01*
X178475598Y-94256119D01*
X178475600Y-94256119D01*
X178480913Y-94257543D01*
X178709000Y-94277498D01*
X178937087Y-94257543D01*
X178942400Y-94256119D01*
X178942402Y-94256119D01*
X179152933Y-94199707D01*
X179152935Y-94199706D01*
X179158243Y-94198284D01*
X179164235Y-94195490D01*
X179360762Y-94103849D01*
X179360767Y-94103846D01*
X179365749Y-94101523D01*
X179439243Y-94050062D01*
X180487493Y-94050062D01*
X180496789Y-94062077D01*
X180547994Y-94097931D01*
X180557489Y-94103414D01*
X180754947Y-94195490D01*
X180765239Y-94199236D01*
X180975688Y-94255625D01*
X180986481Y-94257528D01*
X181203525Y-94276517D01*
X181214475Y-94276517D01*
X181431519Y-94257528D01*
X181442312Y-94255625D01*
X181652761Y-94199236D01*
X181663053Y-94195490D01*
X181860511Y-94103414D01*
X181870006Y-94097931D01*
X181922048Y-94061491D01*
X181930424Y-94051012D01*
X181923356Y-94037566D01*
X181221812Y-93336022D01*
X181207868Y-93328408D01*
X181206035Y-93328539D01*
X181199420Y-93332790D01*
X180493923Y-94038287D01*
X180487493Y-94050062D01*
X179439243Y-94050062D01*
X179470611Y-94028098D01*
X179548789Y-93973357D01*
X179548792Y-93973355D01*
X179553300Y-93970198D01*
X179715198Y-93808300D01*
X179729868Y-93787350D01*
X179843369Y-93625253D01*
X179846523Y-93620749D01*
X179848847Y-93615765D01*
X179850171Y-93613472D01*
X179901553Y-93564479D01*
X179971267Y-93551043D01*
X180037178Y-93577429D01*
X180068409Y-93613472D01*
X180075066Y-93625002D01*
X180111509Y-93677048D01*
X180121988Y-93685424D01*
X180135434Y-93678356D01*
X180836978Y-92976812D01*
X180843356Y-92965132D01*
X181573408Y-92965132D01*
X181573539Y-92966965D01*
X181577790Y-92973580D01*
X182283287Y-93679077D01*
X182295062Y-93685507D01*
X182307077Y-93676211D01*
X182342931Y-93625006D01*
X182348414Y-93615511D01*
X182440490Y-93418053D01*
X182444236Y-93407761D01*
X182500625Y-93197312D01*
X182502528Y-93186519D01*
X182521517Y-92969475D01*
X182521517Y-92958525D01*
X182502528Y-92741481D01*
X182500625Y-92730688D01*
X182444236Y-92520239D01*
X182440490Y-92509947D01*
X182348414Y-92312489D01*
X182342931Y-92302994D01*
X182306491Y-92250952D01*
X182296012Y-92242576D01*
X182282566Y-92249644D01*
X181581022Y-92951188D01*
X181573408Y-92965132D01*
X180843356Y-92965132D01*
X180844592Y-92962868D01*
X180844461Y-92961035D01*
X180840210Y-92954420D01*
X180134713Y-92248923D01*
X180122938Y-92242493D01*
X180110923Y-92251789D01*
X180075066Y-92302998D01*
X180068409Y-92314528D01*
X180017027Y-92363521D01*
X179947313Y-92376958D01*
X179881402Y-92350571D01*
X179850171Y-92314528D01*
X179848847Y-92312235D01*
X179846523Y-92307251D01*
X179725717Y-92134722D01*
X179718357Y-92124211D01*
X179718355Y-92124208D01*
X179715198Y-92119700D01*
X179553300Y-91957802D01*
X179548792Y-91954645D01*
X179548789Y-91954643D01*
X179437886Y-91876988D01*
X180487576Y-91876988D01*
X180494644Y-91890434D01*
X181196188Y-92591978D01*
X181210132Y-92599592D01*
X181211965Y-92599461D01*
X181218580Y-92595210D01*
X181924077Y-91889713D01*
X181930507Y-91877938D01*
X181921211Y-91865923D01*
X181870006Y-91830069D01*
X181860511Y-91824586D01*
X181663053Y-91732510D01*
X181652761Y-91728764D01*
X181442312Y-91672375D01*
X181431519Y-91670472D01*
X181214475Y-91651483D01*
X181203525Y-91651483D01*
X180986481Y-91670472D01*
X180975688Y-91672375D01*
X180765239Y-91728764D01*
X180754947Y-91732510D01*
X180557489Y-91824586D01*
X180547994Y-91830069D01*
X180495952Y-91866509D01*
X180487576Y-91876988D01*
X179437886Y-91876988D01*
X179422920Y-91866509D01*
X179365749Y-91826477D01*
X179360767Y-91824154D01*
X179360762Y-91824151D01*
X179163225Y-91732039D01*
X179163224Y-91732039D01*
X179158243Y-91729716D01*
X179152935Y-91728294D01*
X179152933Y-91728293D01*
X178942402Y-91671881D01*
X178942400Y-91671881D01*
X178937087Y-91670457D01*
X178709000Y-91650502D01*
X178480913Y-91670457D01*
X178475600Y-91671881D01*
X178475598Y-91671881D01*
X178265067Y-91728293D01*
X178265065Y-91728294D01*
X178259757Y-91729716D01*
X178254776Y-91732039D01*
X178254775Y-91732039D01*
X178057238Y-91824151D01*
X178057233Y-91824154D01*
X178052251Y-91826477D01*
X177995080Y-91866509D01*
X177869211Y-91954643D01*
X177869208Y-91954645D01*
X177864700Y-91957802D01*
X177702802Y-92119700D01*
X177699645Y-92124208D01*
X177699643Y-92124211D01*
X177692283Y-92134722D01*
X177571477Y-92307251D01*
X177569154Y-92312233D01*
X177569151Y-92312238D01*
X177545238Y-92363521D01*
X177474716Y-92514757D01*
X177473294Y-92520065D01*
X177473293Y-92520067D01*
X177452019Y-92599461D01*
X177415457Y-92735913D01*
X177395502Y-92964000D01*
X174063886Y-92964000D01*
X173996849Y-92820238D01*
X173996846Y-92820233D01*
X173994523Y-92815251D01*
X173863198Y-92627700D01*
X173701300Y-92465802D01*
X173696792Y-92462645D01*
X173696789Y-92462643D01*
X173555228Y-92363521D01*
X173513749Y-92334477D01*
X173508767Y-92332154D01*
X173508762Y-92332151D01*
X173474543Y-92316195D01*
X173421258Y-92269278D01*
X173401797Y-92201001D01*
X173422339Y-92133041D01*
X173474543Y-92087805D01*
X173508762Y-92071849D01*
X173508767Y-92071846D01*
X173513749Y-92069523D01*
X173618611Y-91996098D01*
X173696789Y-91941357D01*
X173696792Y-91941355D01*
X173701300Y-91938198D01*
X173863198Y-91776300D01*
X173994523Y-91588749D01*
X173996846Y-91583767D01*
X173996849Y-91583762D01*
X174088961Y-91386225D01*
X174088961Y-91386224D01*
X174091284Y-91381243D01*
X174150543Y-91160087D01*
X174170498Y-90932000D01*
X174150543Y-90703913D01*
X174091284Y-90482757D01*
X174088961Y-90477775D01*
X173996849Y-90280238D01*
X173996846Y-90280233D01*
X173994523Y-90275251D01*
X173863198Y-90087700D01*
X173701300Y-89925802D01*
X173696792Y-89922645D01*
X173696789Y-89922643D01*
X173618611Y-89867902D01*
X173513749Y-89794477D01*
X173508767Y-89792154D01*
X173508762Y-89792151D01*
X173474543Y-89776195D01*
X173421258Y-89729278D01*
X173401797Y-89661001D01*
X173422339Y-89593041D01*
X173474543Y-89547805D01*
X173508762Y-89531849D01*
X173508767Y-89531846D01*
X173513749Y-89529523D01*
X173618611Y-89456098D01*
X173696789Y-89401357D01*
X173696792Y-89401355D01*
X173701300Y-89398198D01*
X173863198Y-89236300D01*
X173994523Y-89048749D01*
X173996846Y-89043767D01*
X173996849Y-89043762D01*
X174088961Y-88846225D01*
X174088961Y-88846224D01*
X174091284Y-88841243D01*
X174150543Y-88620087D01*
X174170498Y-88392000D01*
X174150543Y-88163913D01*
X174116307Y-88036144D01*
X174092707Y-87948067D01*
X174092706Y-87948065D01*
X174091284Y-87942757D01*
X174040425Y-87833689D01*
X173996849Y-87740238D01*
X173996846Y-87740233D01*
X173994523Y-87735251D01*
X173863198Y-87547700D01*
X173701300Y-87385802D01*
X173696792Y-87382645D01*
X173696789Y-87382643D01*
X173572601Y-87295686D01*
X173513749Y-87254477D01*
X173508767Y-87252154D01*
X173508762Y-87252151D01*
X173474543Y-87236195D01*
X173421258Y-87189278D01*
X173401797Y-87121001D01*
X173422339Y-87053041D01*
X173474543Y-87007805D01*
X173508762Y-86991849D01*
X173508767Y-86991846D01*
X173513749Y-86989523D01*
X173618611Y-86916098D01*
X173696789Y-86861357D01*
X173696792Y-86861355D01*
X173701300Y-86858198D01*
X173863198Y-86696300D01*
X173867388Y-86690317D01*
X173921098Y-86613611D01*
X173994523Y-86508749D01*
X173996846Y-86503767D01*
X173996849Y-86503762D01*
X174088961Y-86306225D01*
X174088961Y-86306224D01*
X174091284Y-86301243D01*
X174094258Y-86290146D01*
X174149119Y-86085402D01*
X174149119Y-86085400D01*
X174150543Y-86080087D01*
X174170498Y-85852000D01*
X174150543Y-85623913D01*
X174144904Y-85602868D01*
X174092707Y-85408067D01*
X174092706Y-85408065D01*
X174091284Y-85402757D01*
X174072197Y-85361825D01*
X173996849Y-85200238D01*
X173996846Y-85200233D01*
X173994523Y-85195251D01*
X173863198Y-85007700D01*
X173701300Y-84845802D01*
X173696792Y-84842645D01*
X173696789Y-84842643D01*
X173687302Y-84836000D01*
X176185502Y-84836000D01*
X176205457Y-85064087D01*
X176206881Y-85069400D01*
X176206881Y-85069402D01*
X176254560Y-85247339D01*
X176264716Y-85285243D01*
X176267039Y-85290224D01*
X176267039Y-85290225D01*
X176359151Y-85487762D01*
X176359154Y-85487767D01*
X176361477Y-85492749D01*
X176364634Y-85497257D01*
X176445504Y-85612751D01*
X176492802Y-85680300D01*
X176654700Y-85842198D01*
X176659208Y-85845355D01*
X176659211Y-85845357D01*
X176735610Y-85898852D01*
X176842251Y-85973523D01*
X176847233Y-85975846D01*
X176847238Y-85975849D01*
X177043765Y-86067490D01*
X177049757Y-86070284D01*
X177055065Y-86071706D01*
X177055067Y-86071707D01*
X177265598Y-86128119D01*
X177265600Y-86128119D01*
X177270913Y-86129543D01*
X177499000Y-86149498D01*
X177727087Y-86129543D01*
X177732400Y-86128119D01*
X177732402Y-86128119D01*
X177942933Y-86071707D01*
X177942935Y-86071706D01*
X177948243Y-86070284D01*
X177954235Y-86067490D01*
X178150762Y-85975849D01*
X178150767Y-85975846D01*
X178155749Y-85973523D01*
X178262390Y-85898852D01*
X178338789Y-85845357D01*
X178338792Y-85845355D01*
X178343300Y-85842198D01*
X178505198Y-85680300D01*
X178552497Y-85612751D01*
X178633366Y-85497257D01*
X178636523Y-85492749D01*
X178638846Y-85487767D01*
X178638849Y-85487762D01*
X178730961Y-85290225D01*
X178730961Y-85290224D01*
X178733284Y-85285243D01*
X178743441Y-85247339D01*
X178791119Y-85069402D01*
X178791119Y-85069400D01*
X178792543Y-85064087D01*
X178812019Y-84841475D01*
X181186483Y-84841475D01*
X181205472Y-85058519D01*
X181207375Y-85069312D01*
X181263764Y-85279761D01*
X181267510Y-85290053D01*
X181359586Y-85487511D01*
X181365069Y-85497006D01*
X181401509Y-85549048D01*
X181411988Y-85557424D01*
X181425434Y-85550356D01*
X182126978Y-84848812D01*
X182134592Y-84834868D01*
X182134461Y-84833035D01*
X182130210Y-84826420D01*
X181424713Y-84120923D01*
X181412938Y-84114493D01*
X181400923Y-84123789D01*
X181365069Y-84174994D01*
X181359586Y-84184489D01*
X181267510Y-84381947D01*
X181263764Y-84392239D01*
X181207375Y-84602688D01*
X181205472Y-84613481D01*
X181186483Y-84830525D01*
X181186483Y-84841475D01*
X178812019Y-84841475D01*
X178812498Y-84836000D01*
X178792543Y-84607913D01*
X178788344Y-84592243D01*
X178734707Y-84392067D01*
X178734706Y-84392065D01*
X178733284Y-84386757D01*
X178730961Y-84381775D01*
X178638849Y-84184238D01*
X178638846Y-84184233D01*
X178636523Y-84179251D01*
X178543976Y-84047080D01*
X178508357Y-83996211D01*
X178508355Y-83996208D01*
X178505198Y-83991700D01*
X178343300Y-83829802D01*
X178338792Y-83826645D01*
X178338789Y-83826643D01*
X178176698Y-83713146D01*
X178155749Y-83698477D01*
X178150767Y-83696154D01*
X178150762Y-83696151D01*
X177953225Y-83604039D01*
X177953224Y-83604039D01*
X177948243Y-83601716D01*
X177942935Y-83600294D01*
X177942933Y-83600293D01*
X177732402Y-83543881D01*
X177732400Y-83543881D01*
X177727087Y-83542457D01*
X177499000Y-83522502D01*
X177270913Y-83542457D01*
X177265600Y-83543881D01*
X177265598Y-83543881D01*
X177055067Y-83600293D01*
X177055065Y-83600294D01*
X177049757Y-83601716D01*
X177044776Y-83604039D01*
X177044775Y-83604039D01*
X176847238Y-83696151D01*
X176847233Y-83696154D01*
X176842251Y-83698477D01*
X176821302Y-83713146D01*
X176659211Y-83826643D01*
X176659208Y-83826645D01*
X176654700Y-83829802D01*
X176492802Y-83991700D01*
X176489645Y-83996208D01*
X176489643Y-83996211D01*
X176454024Y-84047080D01*
X176361477Y-84179251D01*
X176359154Y-84184233D01*
X176359151Y-84184238D01*
X176267039Y-84381775D01*
X176264716Y-84386757D01*
X176263294Y-84392065D01*
X176263293Y-84392067D01*
X176209656Y-84592243D01*
X176205457Y-84607913D01*
X176185502Y-84836000D01*
X173687302Y-84836000D01*
X173607635Y-84780217D01*
X173513749Y-84714477D01*
X173508767Y-84712154D01*
X173508762Y-84712151D01*
X173473951Y-84695919D01*
X173420666Y-84649002D01*
X173401205Y-84580725D01*
X173421747Y-84512765D01*
X173473951Y-84467529D01*
X173508511Y-84451414D01*
X173518007Y-84445931D01*
X173696467Y-84320972D01*
X173704875Y-84313916D01*
X173858916Y-84159875D01*
X173865972Y-84151467D01*
X173990931Y-83973007D01*
X173996414Y-83963511D01*
X174088490Y-83766053D01*
X174092236Y-83755761D01*
X174138394Y-83583497D01*
X174138058Y-83569401D01*
X174130116Y-83566000D01*
X171589033Y-83566000D01*
X171575502Y-83569973D01*
X171574273Y-83578522D01*
X171621764Y-83755761D01*
X171625510Y-83766053D01*
X171717586Y-83963511D01*
X171723069Y-83973007D01*
X171848028Y-84151467D01*
X171855084Y-84159875D01*
X172009125Y-84313916D01*
X172017533Y-84320972D01*
X172195993Y-84445931D01*
X172205489Y-84451414D01*
X172240049Y-84467529D01*
X172293334Y-84514446D01*
X172312795Y-84582723D01*
X172292253Y-84650683D01*
X172240049Y-84695919D01*
X172205238Y-84712151D01*
X172205233Y-84712154D01*
X172200251Y-84714477D01*
X172106365Y-84780217D01*
X172017211Y-84842643D01*
X172017208Y-84842645D01*
X172012700Y-84845802D01*
X171850802Y-85007700D01*
X171719477Y-85195251D01*
X171717154Y-85200233D01*
X171717151Y-85200238D01*
X171641803Y-85361825D01*
X171622716Y-85402757D01*
X171621294Y-85408065D01*
X171621293Y-85408067D01*
X171569096Y-85602868D01*
X171563457Y-85623913D01*
X171543502Y-85852000D01*
X171563457Y-86080087D01*
X171564881Y-86085400D01*
X171564881Y-86085402D01*
X171619743Y-86290146D01*
X171622716Y-86301243D01*
X171625039Y-86306224D01*
X171625039Y-86306225D01*
X171717151Y-86503762D01*
X171717154Y-86503767D01*
X171719477Y-86508749D01*
X171792902Y-86613611D01*
X171846613Y-86690317D01*
X171850802Y-86696300D01*
X172012700Y-86858198D01*
X172017208Y-86861355D01*
X172017211Y-86861357D01*
X172095389Y-86916098D01*
X172200251Y-86989523D01*
X172205233Y-86991846D01*
X172205238Y-86991849D01*
X172239457Y-87007805D01*
X172292742Y-87054722D01*
X172312203Y-87122999D01*
X172291661Y-87190959D01*
X172239457Y-87236195D01*
X172205238Y-87252151D01*
X172205233Y-87252154D01*
X172200251Y-87254477D01*
X172141399Y-87295686D01*
X172017211Y-87382643D01*
X172017208Y-87382645D01*
X172012700Y-87385802D01*
X171850802Y-87547700D01*
X171719477Y-87735251D01*
X171717154Y-87740233D01*
X171717151Y-87740238D01*
X171673575Y-87833689D01*
X171622716Y-87942757D01*
X171621294Y-87948065D01*
X171621293Y-87948067D01*
X171597693Y-88036144D01*
X171563457Y-88163913D01*
X171543502Y-88392000D01*
X171563457Y-88620087D01*
X171622716Y-88841243D01*
X171625039Y-88846224D01*
X171625039Y-88846225D01*
X171717151Y-89043762D01*
X171717154Y-89043767D01*
X171719477Y-89048749D01*
X171850802Y-89236300D01*
X172012700Y-89398198D01*
X172017208Y-89401355D01*
X172017211Y-89401357D01*
X172095389Y-89456098D01*
X172200251Y-89529523D01*
X172205233Y-89531846D01*
X172205238Y-89531849D01*
X172239457Y-89547805D01*
X172292742Y-89594722D01*
X172312203Y-89662999D01*
X172291661Y-89730959D01*
X172239457Y-89776195D01*
X172205238Y-89792151D01*
X172205233Y-89792154D01*
X172200251Y-89794477D01*
X172095389Y-89867902D01*
X172017211Y-89922643D01*
X172017208Y-89922645D01*
X172012700Y-89925802D01*
X171850802Y-90087700D01*
X171719477Y-90275251D01*
X171717154Y-90280233D01*
X171717151Y-90280238D01*
X171625039Y-90477775D01*
X171622716Y-90482757D01*
X171563457Y-90703913D01*
X171543502Y-90932000D01*
X171563457Y-91160087D01*
X171622716Y-91381243D01*
X171625039Y-91386224D01*
X171625039Y-91386225D01*
X171717151Y-91583762D01*
X171717154Y-91583767D01*
X171719477Y-91588749D01*
X171850802Y-91776300D01*
X172012700Y-91938198D01*
X172017208Y-91941355D01*
X172017211Y-91941357D01*
X172095389Y-91996098D01*
X172200251Y-92069523D01*
X172205233Y-92071846D01*
X172205238Y-92071849D01*
X172239457Y-92087805D01*
X172292742Y-92134722D01*
X172312203Y-92202999D01*
X172291661Y-92270959D01*
X172239457Y-92316195D01*
X172205238Y-92332151D01*
X172205233Y-92332154D01*
X172200251Y-92334477D01*
X172158772Y-92363521D01*
X172017211Y-92462643D01*
X172017208Y-92462645D01*
X172012700Y-92465802D01*
X171850802Y-92627700D01*
X171719477Y-92815251D01*
X171717154Y-92820233D01*
X171717151Y-92820238D01*
X171645647Y-92973580D01*
X171622716Y-93022757D01*
X171621294Y-93028065D01*
X171621293Y-93028067D01*
X171564881Y-93238598D01*
X171563457Y-93243913D01*
X171543502Y-93472000D01*
X171563457Y-93700087D01*
X171622716Y-93921243D01*
X171625039Y-93926224D01*
X171625039Y-93926225D01*
X171717151Y-94123762D01*
X171717154Y-94123767D01*
X171719477Y-94128749D01*
X171792902Y-94233611D01*
X171822946Y-94276517D01*
X171850802Y-94316300D01*
X172012700Y-94478198D01*
X172017208Y-94481355D01*
X172017211Y-94481357D01*
X172095389Y-94536098D01*
X172200251Y-94609523D01*
X172205233Y-94611846D01*
X172205238Y-94611849D01*
X172239457Y-94627805D01*
X172292742Y-94674722D01*
X172312203Y-94742999D01*
X172291661Y-94810959D01*
X172239457Y-94856195D01*
X172205238Y-94872151D01*
X172205233Y-94872154D01*
X172200251Y-94874477D01*
X172095389Y-94947902D01*
X172017211Y-95002643D01*
X172017208Y-95002645D01*
X172012700Y-95005802D01*
X171850802Y-95167700D01*
X171847645Y-95172208D01*
X171847643Y-95172211D01*
X171792902Y-95250389D01*
X171719477Y-95355251D01*
X171717154Y-95360233D01*
X171717151Y-95360238D01*
X171715519Y-95363738D01*
X171622716Y-95562757D01*
X171621294Y-95568065D01*
X171621293Y-95568067D01*
X171564881Y-95778598D01*
X171563457Y-95783913D01*
X171543502Y-96012000D01*
X171563457Y-96240087D01*
X171622716Y-96461243D01*
X171625039Y-96466224D01*
X171625039Y-96466225D01*
X171717151Y-96663762D01*
X171717154Y-96663767D01*
X171719477Y-96668749D01*
X171850802Y-96856300D01*
X172012700Y-97018198D01*
X172017208Y-97021355D01*
X172017211Y-97021357D01*
X172039029Y-97036634D01*
X172200251Y-97149523D01*
X172205233Y-97151846D01*
X172205238Y-97151849D01*
X172239457Y-97167805D01*
X172292742Y-97214722D01*
X172312203Y-97282999D01*
X172291661Y-97350959D01*
X172239457Y-97396195D01*
X172205238Y-97412151D01*
X172205233Y-97412154D01*
X172200251Y-97414477D01*
X172095389Y-97487902D01*
X172017211Y-97542643D01*
X172017208Y-97542645D01*
X172012700Y-97545802D01*
X171850802Y-97707700D01*
X171847645Y-97712208D01*
X171847643Y-97712211D01*
X171792902Y-97790389D01*
X171719477Y-97895251D01*
X171717154Y-97900233D01*
X171717151Y-97900238D01*
X171630797Y-98085427D01*
X171622716Y-98102757D01*
X171621294Y-98108065D01*
X171621293Y-98108067D01*
X171564881Y-98318598D01*
X171563457Y-98323913D01*
X171543502Y-98552000D01*
X171563457Y-98780087D01*
X171622716Y-99001243D01*
X171625039Y-99006224D01*
X171625039Y-99006225D01*
X171717151Y-99203762D01*
X171717154Y-99203767D01*
X171719477Y-99208749D01*
X171730780Y-99224891D01*
X171840863Y-99382105D01*
X171850802Y-99396300D01*
X172012700Y-99558198D01*
X172017208Y-99561355D01*
X172017211Y-99561357D01*
X172039029Y-99576634D01*
X172200251Y-99689523D01*
X172205233Y-99691846D01*
X172205238Y-99691849D01*
X172239457Y-99707805D01*
X172292742Y-99754722D01*
X172312203Y-99822999D01*
X172291661Y-99890959D01*
X172239457Y-99936195D01*
X172205238Y-99952151D01*
X172205233Y-99952154D01*
X172200251Y-99954477D01*
X172095389Y-100027902D01*
X172017211Y-100082643D01*
X172017208Y-100082645D01*
X172012700Y-100085802D01*
X171850802Y-100247700D01*
X171847645Y-100252208D01*
X171847643Y-100252211D01*
X171792902Y-100330389D01*
X171719477Y-100435251D01*
X171717154Y-100440233D01*
X171717151Y-100440238D01*
X171626971Y-100633632D01*
X171622716Y-100642757D01*
X171621294Y-100648065D01*
X171621293Y-100648067D01*
X171575020Y-100820760D01*
X171563457Y-100863913D01*
X171543502Y-101092000D01*
X171563457Y-101320087D01*
X171564881Y-101325400D01*
X171564881Y-101325402D01*
X171574825Y-101362511D01*
X171622716Y-101541243D01*
X171625039Y-101546224D01*
X171625039Y-101546225D01*
X171717151Y-101743762D01*
X171717154Y-101743767D01*
X171719477Y-101748749D01*
X171786825Y-101844931D01*
X171834993Y-101913722D01*
X171850802Y-101936300D01*
X172012700Y-102098198D01*
X172017208Y-102101355D01*
X172017211Y-102101357D01*
X172039029Y-102116634D01*
X172200251Y-102229523D01*
X172205233Y-102231846D01*
X172205238Y-102231849D01*
X172239457Y-102247805D01*
X172292742Y-102294722D01*
X172312203Y-102362999D01*
X172291661Y-102430959D01*
X172239457Y-102476195D01*
X172205238Y-102492151D01*
X172205233Y-102492154D01*
X172200251Y-102494477D01*
X172132016Y-102542256D01*
X172017211Y-102622643D01*
X172017208Y-102622645D01*
X172012700Y-102625802D01*
X171850802Y-102787700D01*
X171847645Y-102792208D01*
X171847643Y-102792211D01*
X171840959Y-102801757D01*
X171719477Y-102975251D01*
X171717154Y-102980233D01*
X171717151Y-102980238D01*
X171669443Y-103082550D01*
X171622716Y-103182757D01*
X171621294Y-103188065D01*
X171621293Y-103188067D01*
X171586645Y-103317376D01*
X171563457Y-103403913D01*
X171543502Y-103632000D01*
X171563457Y-103860087D01*
X171564881Y-103865400D01*
X171564881Y-103865402D01*
X171604857Y-104014591D01*
X171622716Y-104081243D01*
X171625039Y-104086224D01*
X171625039Y-104086225D01*
X171717151Y-104283762D01*
X171717154Y-104283767D01*
X171719477Y-104288749D01*
X171722634Y-104293257D01*
X171834993Y-104453722D01*
X171850802Y-104476300D01*
X172012700Y-104638198D01*
X172017208Y-104641355D01*
X172017211Y-104641357D01*
X172039029Y-104656634D01*
X172200251Y-104769523D01*
X172205233Y-104771846D01*
X172205238Y-104771849D01*
X172239457Y-104787805D01*
X172292742Y-104834722D01*
X172312203Y-104902999D01*
X172291661Y-104970959D01*
X172239457Y-105016195D01*
X172205238Y-105032151D01*
X172205233Y-105032154D01*
X172200251Y-105034477D01*
X172124124Y-105087782D01*
X172017211Y-105162643D01*
X172017208Y-105162645D01*
X172012700Y-105165802D01*
X171850802Y-105327700D01*
X171847645Y-105332208D01*
X171847643Y-105332211D01*
X171792902Y-105410389D01*
X171719477Y-105515251D01*
X171717154Y-105520233D01*
X171717151Y-105520238D01*
X171642422Y-105680497D01*
X171622716Y-105722757D01*
X171621294Y-105728065D01*
X171621293Y-105728067D01*
X171573430Y-105906692D01*
X171563457Y-105943913D01*
X171543502Y-106172000D01*
X171563457Y-106400087D01*
X171622716Y-106621243D01*
X171625039Y-106626224D01*
X171625039Y-106626225D01*
X171717151Y-106823762D01*
X171717154Y-106823767D01*
X171719477Y-106828749D01*
X171722634Y-106833257D01*
X171834993Y-106993722D01*
X171850802Y-107016300D01*
X172012700Y-107178198D01*
X172017208Y-107181355D01*
X172017211Y-107181357D01*
X172039029Y-107196634D01*
X172200251Y-107309523D01*
X172205233Y-107311846D01*
X172205238Y-107311849D01*
X172239457Y-107327805D01*
X172292742Y-107374722D01*
X172312203Y-107442999D01*
X172291661Y-107510959D01*
X172239457Y-107556195D01*
X172205238Y-107572151D01*
X172205233Y-107572154D01*
X172200251Y-107574477D01*
X172095389Y-107647902D01*
X172017211Y-107702643D01*
X172017208Y-107702645D01*
X172012700Y-107705802D01*
X171850802Y-107867700D01*
X171847645Y-107872208D01*
X171847643Y-107872211D01*
X171840959Y-107881757D01*
X171719477Y-108055251D01*
X171717154Y-108060233D01*
X171717151Y-108060238D01*
X171625475Y-108256840D01*
X171622716Y-108262757D01*
X171563457Y-108483913D01*
X171543502Y-108712000D01*
X171563457Y-108940087D01*
X171622716Y-109161243D01*
X171625039Y-109166224D01*
X171625039Y-109166225D01*
X171717151Y-109363762D01*
X171717154Y-109363767D01*
X171719477Y-109368749D01*
X171722634Y-109373257D01*
X171834993Y-109533722D01*
X171850802Y-109556300D01*
X172012700Y-109718198D01*
X172017208Y-109721355D01*
X172017211Y-109721357D01*
X172039029Y-109736634D01*
X172200251Y-109849523D01*
X172205233Y-109851846D01*
X172205238Y-109851849D01*
X172239457Y-109867805D01*
X172292742Y-109914722D01*
X172312203Y-109982999D01*
X172291661Y-110050959D01*
X172239457Y-110096195D01*
X172205238Y-110112151D01*
X172205233Y-110112154D01*
X172200251Y-110114477D01*
X172095389Y-110187902D01*
X172017211Y-110242643D01*
X172017208Y-110242645D01*
X172012700Y-110245802D01*
X171850802Y-110407700D01*
X171847645Y-110412208D01*
X171847643Y-110412211D01*
X171840959Y-110421757D01*
X171719477Y-110595251D01*
X171717154Y-110600233D01*
X171717151Y-110600238D01*
X171626028Y-110795655D01*
X171622716Y-110802757D01*
X171621294Y-110808065D01*
X171621293Y-110808067D01*
X171586298Y-110938668D01*
X171563457Y-111023913D01*
X171543502Y-111252000D01*
X158930498Y-111252000D01*
X158910543Y-111023913D01*
X158887702Y-110938668D01*
X158852707Y-110808067D01*
X158852706Y-110808065D01*
X158851284Y-110802757D01*
X158847972Y-110795655D01*
X158756849Y-110600238D01*
X158756846Y-110600233D01*
X158754523Y-110595251D01*
X158633041Y-110421757D01*
X158626357Y-110412211D01*
X158626355Y-110412208D01*
X158623198Y-110407700D01*
X158461300Y-110245802D01*
X158456792Y-110242645D01*
X158456789Y-110242643D01*
X158378611Y-110187902D01*
X158273749Y-110114477D01*
X158268767Y-110112154D01*
X158268762Y-110112151D01*
X158234543Y-110096195D01*
X158181258Y-110049278D01*
X158161797Y-109981001D01*
X158182339Y-109913041D01*
X158234543Y-109867805D01*
X158268762Y-109851849D01*
X158268767Y-109851846D01*
X158273749Y-109849523D01*
X158434971Y-109736634D01*
X158456789Y-109721357D01*
X158456792Y-109721355D01*
X158461300Y-109718198D01*
X158623198Y-109556300D01*
X158639008Y-109533722D01*
X158751366Y-109373257D01*
X158754523Y-109368749D01*
X158756846Y-109363767D01*
X158756849Y-109363762D01*
X158848961Y-109166225D01*
X158848961Y-109166224D01*
X158851284Y-109161243D01*
X158910543Y-108940087D01*
X158930498Y-108712000D01*
X158910543Y-108483913D01*
X158851284Y-108262757D01*
X158848525Y-108256840D01*
X158756849Y-108060238D01*
X158756846Y-108060233D01*
X158754523Y-108055251D01*
X158633041Y-107881757D01*
X158626357Y-107872211D01*
X158626355Y-107872208D01*
X158623198Y-107867700D01*
X158461300Y-107705802D01*
X158456792Y-107702645D01*
X158456789Y-107702643D01*
X158378611Y-107647902D01*
X158273749Y-107574477D01*
X158268767Y-107572154D01*
X158268762Y-107572151D01*
X158234543Y-107556195D01*
X158181258Y-107509278D01*
X158161797Y-107441001D01*
X158182339Y-107373041D01*
X158234543Y-107327805D01*
X158268762Y-107311849D01*
X158268767Y-107311846D01*
X158273749Y-107309523D01*
X158434971Y-107196634D01*
X158456789Y-107181357D01*
X158456792Y-107181355D01*
X158461300Y-107178198D01*
X158623198Y-107016300D01*
X158639008Y-106993722D01*
X158751366Y-106833257D01*
X158754523Y-106828749D01*
X158756846Y-106823767D01*
X158756849Y-106823762D01*
X158848961Y-106626225D01*
X158848961Y-106626224D01*
X158851284Y-106621243D01*
X158910543Y-106400087D01*
X158930498Y-106172000D01*
X158910543Y-105943913D01*
X158900570Y-105906692D01*
X158852707Y-105728067D01*
X158852706Y-105728065D01*
X158851284Y-105722757D01*
X158831578Y-105680497D01*
X158756849Y-105520238D01*
X158756846Y-105520233D01*
X158754523Y-105515251D01*
X158681098Y-105410389D01*
X158626357Y-105332211D01*
X158626355Y-105332208D01*
X158623198Y-105327700D01*
X158461300Y-105165802D01*
X158456792Y-105162645D01*
X158456789Y-105162643D01*
X158349876Y-105087782D01*
X158273749Y-105034477D01*
X158268767Y-105032154D01*
X158268762Y-105032151D01*
X158234543Y-105016195D01*
X158181258Y-104969278D01*
X158161797Y-104901001D01*
X158182339Y-104833041D01*
X158234543Y-104787805D01*
X158268762Y-104771849D01*
X158268767Y-104771846D01*
X158273749Y-104769523D01*
X158434971Y-104656634D01*
X158456789Y-104641357D01*
X158456792Y-104641355D01*
X158461300Y-104638198D01*
X158623198Y-104476300D01*
X158639008Y-104453722D01*
X158751366Y-104293257D01*
X158754523Y-104288749D01*
X158756846Y-104283767D01*
X158756849Y-104283762D01*
X158848961Y-104086225D01*
X158848961Y-104086224D01*
X158851284Y-104081243D01*
X158869144Y-104014591D01*
X158909119Y-103865402D01*
X158909119Y-103865400D01*
X158910543Y-103860087D01*
X158930498Y-103632000D01*
X158910543Y-103403913D01*
X158887355Y-103317376D01*
X158852707Y-103188067D01*
X158852706Y-103188065D01*
X158851284Y-103182757D01*
X158804557Y-103082550D01*
X158756849Y-102980238D01*
X158756846Y-102980233D01*
X158754523Y-102975251D01*
X158633041Y-102801757D01*
X158626357Y-102792211D01*
X158626355Y-102792208D01*
X158623198Y-102787700D01*
X158461300Y-102625802D01*
X158456792Y-102622645D01*
X158456789Y-102622643D01*
X158341984Y-102542256D01*
X158273749Y-102494477D01*
X158268767Y-102492154D01*
X158268762Y-102492151D01*
X158234543Y-102476195D01*
X158181258Y-102429278D01*
X158161797Y-102361001D01*
X158182339Y-102293041D01*
X158234543Y-102247805D01*
X158268762Y-102231849D01*
X158268767Y-102231846D01*
X158273749Y-102229523D01*
X158434971Y-102116634D01*
X158456789Y-102101357D01*
X158456792Y-102101355D01*
X158461300Y-102098198D01*
X158623198Y-101936300D01*
X158639008Y-101913722D01*
X158687175Y-101844931D01*
X158754523Y-101748749D01*
X158756846Y-101743767D01*
X158756849Y-101743762D01*
X158848961Y-101546225D01*
X158848961Y-101546224D01*
X158851284Y-101541243D01*
X158899176Y-101362511D01*
X158909119Y-101325402D01*
X158909119Y-101325400D01*
X158910543Y-101320087D01*
X158930498Y-101092000D01*
X158910543Y-100863913D01*
X158898980Y-100820760D01*
X158852707Y-100648067D01*
X158852706Y-100648065D01*
X158851284Y-100642757D01*
X158847029Y-100633632D01*
X158756849Y-100440238D01*
X158756846Y-100440233D01*
X158754523Y-100435251D01*
X158681098Y-100330389D01*
X158626357Y-100252211D01*
X158626355Y-100252208D01*
X158623198Y-100247700D01*
X158461300Y-100085802D01*
X158456792Y-100082645D01*
X158456789Y-100082643D01*
X158378611Y-100027902D01*
X158273749Y-99954477D01*
X158268767Y-99952154D01*
X158268762Y-99952151D01*
X158234543Y-99936195D01*
X158181258Y-99889278D01*
X158161797Y-99821001D01*
X158182339Y-99753041D01*
X158234543Y-99707805D01*
X158268762Y-99691849D01*
X158268767Y-99691846D01*
X158273749Y-99689523D01*
X158434971Y-99576634D01*
X158456789Y-99561357D01*
X158456792Y-99561355D01*
X158461300Y-99558198D01*
X158623198Y-99396300D01*
X158633138Y-99382105D01*
X158743220Y-99224891D01*
X158754523Y-99208749D01*
X158756846Y-99203767D01*
X158756849Y-99203762D01*
X158848961Y-99006225D01*
X158848961Y-99006224D01*
X158851284Y-99001243D01*
X158910543Y-98780087D01*
X158930498Y-98552000D01*
X158910543Y-98323913D01*
X158909119Y-98318598D01*
X158852707Y-98108067D01*
X158852706Y-98108065D01*
X158851284Y-98102757D01*
X158843203Y-98085427D01*
X158756849Y-97900238D01*
X158756846Y-97900233D01*
X158754523Y-97895251D01*
X158681098Y-97790389D01*
X158626357Y-97712211D01*
X158626355Y-97712208D01*
X158623198Y-97707700D01*
X158461300Y-97545802D01*
X158456792Y-97542645D01*
X158456789Y-97542643D01*
X158378611Y-97487902D01*
X158273749Y-97414477D01*
X158268767Y-97412154D01*
X158268762Y-97412151D01*
X158234543Y-97396195D01*
X158181258Y-97349278D01*
X158161797Y-97281001D01*
X158182339Y-97213041D01*
X158234543Y-97167805D01*
X158268762Y-97151849D01*
X158268767Y-97151846D01*
X158273749Y-97149523D01*
X158434971Y-97036634D01*
X158456789Y-97021357D01*
X158456792Y-97021355D01*
X158461300Y-97018198D01*
X158623198Y-96856300D01*
X158754523Y-96668749D01*
X158756846Y-96663767D01*
X158756849Y-96663762D01*
X158848961Y-96466225D01*
X158848961Y-96466224D01*
X158851284Y-96461243D01*
X158910543Y-96240087D01*
X158930498Y-96012000D01*
X158910543Y-95783913D01*
X158909119Y-95778598D01*
X158852707Y-95568067D01*
X158852706Y-95568065D01*
X158851284Y-95562757D01*
X158758481Y-95363738D01*
X158756849Y-95360238D01*
X158756846Y-95360233D01*
X158754523Y-95355251D01*
X158681098Y-95250389D01*
X158626357Y-95172211D01*
X158626355Y-95172208D01*
X158623198Y-95167700D01*
X158461300Y-95005802D01*
X158456792Y-95002645D01*
X158456789Y-95002643D01*
X158378611Y-94947902D01*
X158273749Y-94874477D01*
X158268767Y-94872154D01*
X158268762Y-94872151D01*
X158234543Y-94856195D01*
X158181258Y-94809278D01*
X158161797Y-94741001D01*
X158182339Y-94673041D01*
X158234543Y-94627805D01*
X158268762Y-94611849D01*
X158268767Y-94611846D01*
X158273749Y-94609523D01*
X158378611Y-94536098D01*
X158456789Y-94481357D01*
X158456792Y-94481355D01*
X158461300Y-94478198D01*
X158623198Y-94316300D01*
X158651055Y-94276517D01*
X158681098Y-94233611D01*
X158754523Y-94128749D01*
X158756846Y-94123767D01*
X158756849Y-94123762D01*
X158848961Y-93926225D01*
X158848961Y-93926224D01*
X158851284Y-93921243D01*
X158910543Y-93700087D01*
X158930498Y-93472000D01*
X158910543Y-93243913D01*
X158909119Y-93238598D01*
X158852707Y-93028067D01*
X158852706Y-93028065D01*
X158851284Y-93022757D01*
X158828353Y-92973580D01*
X158756849Y-92820238D01*
X158756846Y-92820233D01*
X158754523Y-92815251D01*
X158623198Y-92627700D01*
X158461300Y-92465802D01*
X158456792Y-92462645D01*
X158456789Y-92462643D01*
X158315228Y-92363521D01*
X158273749Y-92334477D01*
X158268767Y-92332154D01*
X158268762Y-92332151D01*
X158234543Y-92316195D01*
X158181258Y-92269278D01*
X158161797Y-92201001D01*
X158182339Y-92133041D01*
X158234543Y-92087805D01*
X158268762Y-92071849D01*
X158268767Y-92071846D01*
X158273749Y-92069523D01*
X158378611Y-91996098D01*
X158456789Y-91941357D01*
X158456792Y-91941355D01*
X158461300Y-91938198D01*
X158623198Y-91776300D01*
X158754523Y-91588749D01*
X158756846Y-91583767D01*
X158756849Y-91583762D01*
X158848961Y-91386225D01*
X158848961Y-91386224D01*
X158851284Y-91381243D01*
X158910543Y-91160087D01*
X158930498Y-90932000D01*
X158910543Y-90703913D01*
X158851284Y-90482757D01*
X158848961Y-90477775D01*
X158756849Y-90280238D01*
X158756846Y-90280233D01*
X158754523Y-90275251D01*
X158623198Y-90087700D01*
X158461300Y-89925802D01*
X158456792Y-89922645D01*
X158456789Y-89922643D01*
X158378611Y-89867902D01*
X158273749Y-89794477D01*
X158268767Y-89792154D01*
X158268762Y-89792151D01*
X158234543Y-89776195D01*
X158181258Y-89729278D01*
X158161797Y-89661001D01*
X158182339Y-89593041D01*
X158234543Y-89547805D01*
X158268762Y-89531849D01*
X158268767Y-89531846D01*
X158273749Y-89529523D01*
X158378611Y-89456098D01*
X158456789Y-89401357D01*
X158456792Y-89401355D01*
X158461300Y-89398198D01*
X158623198Y-89236300D01*
X158754523Y-89048749D01*
X158756846Y-89043767D01*
X158756849Y-89043762D01*
X158848961Y-88846225D01*
X158848961Y-88846224D01*
X158851284Y-88841243D01*
X158910543Y-88620087D01*
X158930498Y-88392000D01*
X158910543Y-88163913D01*
X158876307Y-88036144D01*
X158852707Y-87948067D01*
X158852706Y-87948065D01*
X158851284Y-87942757D01*
X158800425Y-87833689D01*
X158756849Y-87740238D01*
X158756846Y-87740233D01*
X158754523Y-87735251D01*
X158623198Y-87547700D01*
X158461300Y-87385802D01*
X158456792Y-87382645D01*
X158456789Y-87382643D01*
X158332601Y-87295686D01*
X158273749Y-87254477D01*
X158268767Y-87252154D01*
X158268762Y-87252151D01*
X158234543Y-87236195D01*
X158181258Y-87189278D01*
X158161797Y-87121001D01*
X158182339Y-87053041D01*
X158234543Y-87007805D01*
X158268762Y-86991849D01*
X158268767Y-86991846D01*
X158273749Y-86989523D01*
X158378611Y-86916098D01*
X158456789Y-86861357D01*
X158456792Y-86861355D01*
X158461300Y-86858198D01*
X158623198Y-86696300D01*
X158627388Y-86690317D01*
X158681098Y-86613611D01*
X158754523Y-86508749D01*
X158756846Y-86503767D01*
X158756849Y-86503762D01*
X158848961Y-86306225D01*
X158848961Y-86306224D01*
X158851284Y-86301243D01*
X158854258Y-86290146D01*
X158909119Y-86085402D01*
X158909119Y-86085400D01*
X158910543Y-86080087D01*
X158930498Y-85852000D01*
X158910543Y-85623913D01*
X158904904Y-85602868D01*
X158852707Y-85408067D01*
X158852706Y-85408065D01*
X158851284Y-85402757D01*
X158832197Y-85361825D01*
X158756849Y-85200238D01*
X158756846Y-85200233D01*
X158754523Y-85195251D01*
X158623198Y-85007700D01*
X158461300Y-84845802D01*
X158456792Y-84842645D01*
X158456789Y-84842643D01*
X158367635Y-84780217D01*
X158273749Y-84714477D01*
X158268767Y-84712154D01*
X158268762Y-84712151D01*
X158234543Y-84696195D01*
X158181258Y-84649278D01*
X158161797Y-84581001D01*
X158182339Y-84513041D01*
X158234543Y-84467805D01*
X158268762Y-84451849D01*
X158268767Y-84451846D01*
X158273749Y-84449523D01*
X158446672Y-84328441D01*
X158456789Y-84321357D01*
X158456792Y-84321355D01*
X158461300Y-84318198D01*
X158623198Y-84156300D01*
X158647970Y-84120923D01*
X158710067Y-84032238D01*
X158754523Y-83968749D01*
X158756846Y-83963767D01*
X158756849Y-83963762D01*
X158848961Y-83766225D01*
X158848961Y-83766224D01*
X158851284Y-83761243D01*
X158868726Y-83696151D01*
X158909119Y-83545402D01*
X158909119Y-83545400D01*
X158910543Y-83540087D01*
X158930498Y-83312000D01*
X158910543Y-83083913D01*
X158851284Y-82862757D01*
X158848961Y-82857775D01*
X158756849Y-82660238D01*
X158756846Y-82660233D01*
X158754523Y-82655251D01*
X158623198Y-82467700D01*
X158461300Y-82305802D01*
X158456792Y-82302645D01*
X158456789Y-82302643D01*
X158378611Y-82247902D01*
X158273749Y-82174477D01*
X158268767Y-82172154D01*
X158268762Y-82172151D01*
X158234543Y-82156195D01*
X158181258Y-82109278D01*
X158161797Y-82041001D01*
X158182339Y-81973041D01*
X158234543Y-81927805D01*
X158268762Y-81911849D01*
X158268767Y-81911846D01*
X158273749Y-81909523D01*
X158393243Y-81825852D01*
X158456789Y-81781357D01*
X158456792Y-81781355D01*
X158461300Y-81778198D01*
X158623198Y-81616300D01*
X158645877Y-81583912D01*
X158692542Y-81517267D01*
X158754523Y-81428749D01*
X158756846Y-81423767D01*
X158756849Y-81423762D01*
X158848961Y-81226225D01*
X158848961Y-81226224D01*
X158851284Y-81221243D01*
X158910543Y-81000087D01*
X158930498Y-80772000D01*
X171543502Y-80772000D01*
X171563457Y-81000087D01*
X171622716Y-81221243D01*
X171625039Y-81226224D01*
X171625039Y-81226225D01*
X171717151Y-81423762D01*
X171717154Y-81423767D01*
X171719477Y-81428749D01*
X171781458Y-81517267D01*
X171828124Y-81583912D01*
X171850802Y-81616300D01*
X172012700Y-81778198D01*
X172017208Y-81781355D01*
X172017211Y-81781357D01*
X172080757Y-81825852D01*
X172200251Y-81909523D01*
X172205233Y-81911846D01*
X172205238Y-81911849D01*
X172240049Y-81928081D01*
X172293334Y-81974998D01*
X172312795Y-82043275D01*
X172292253Y-82111235D01*
X172240049Y-82156471D01*
X172205489Y-82172586D01*
X172195993Y-82178069D01*
X172017533Y-82303028D01*
X172009125Y-82310084D01*
X171855084Y-82464125D01*
X171848028Y-82472533D01*
X171723069Y-82650993D01*
X171717588Y-82660486D01*
X171625510Y-82857947D01*
X171621764Y-82868239D01*
X171575606Y-83040503D01*
X171575942Y-83054599D01*
X171583884Y-83058000D01*
X174124967Y-83058000D01*
X174138498Y-83054027D01*
X174139727Y-83045478D01*
X174092236Y-82868239D01*
X174088490Y-82857947D01*
X173996412Y-82660486D01*
X173990931Y-82650993D01*
X173865972Y-82472533D01*
X173858916Y-82464125D01*
X173704875Y-82310084D01*
X173696467Y-82303028D01*
X173518007Y-82178069D01*
X173508511Y-82172586D01*
X173473951Y-82156471D01*
X173420666Y-82109554D01*
X173401205Y-82041277D01*
X173421747Y-81973317D01*
X173473951Y-81928081D01*
X173508762Y-81911849D01*
X173508767Y-81911846D01*
X173513749Y-81909523D01*
X173633243Y-81825852D01*
X173696789Y-81781357D01*
X173696792Y-81781355D01*
X173701300Y-81778198D01*
X173863198Y-81616300D01*
X173885877Y-81583912D01*
X173932542Y-81517267D01*
X173994523Y-81428749D01*
X173996846Y-81423767D01*
X173996849Y-81423762D01*
X174088961Y-81226225D01*
X174088961Y-81226224D01*
X174091284Y-81221243D01*
X174150543Y-81000087D01*
X174170498Y-80772000D01*
X174150543Y-80543913D01*
X174149119Y-80538598D01*
X174092707Y-80328067D01*
X174092706Y-80328065D01*
X174091284Y-80322757D01*
X174043192Y-80219623D01*
X173996849Y-80120238D01*
X173996846Y-80120233D01*
X173994523Y-80115251D01*
X173863198Y-79927700D01*
X173701300Y-79765802D01*
X173696792Y-79762645D01*
X173696789Y-79762643D01*
X173561996Y-79668260D01*
X173513749Y-79634477D01*
X173508767Y-79632154D01*
X173508762Y-79632151D01*
X173474543Y-79616195D01*
X173421258Y-79569278D01*
X173401797Y-79501001D01*
X173422339Y-79433041D01*
X173474543Y-79387805D01*
X173508762Y-79371849D01*
X173508767Y-79371846D01*
X173513749Y-79369523D01*
X173685231Y-79249450D01*
X173696789Y-79241357D01*
X173696792Y-79241355D01*
X173701300Y-79238198D01*
X173863198Y-79076300D01*
X173994523Y-78888749D01*
X173996846Y-78883767D01*
X173996849Y-78883762D01*
X174088961Y-78686225D01*
X174088961Y-78686224D01*
X174091284Y-78681243D01*
X174150543Y-78460087D01*
X174170498Y-78232000D01*
X174150543Y-78003913D01*
X174149119Y-77998598D01*
X174092707Y-77788067D01*
X174092706Y-77788065D01*
X174091284Y-77782757D01*
X174064278Y-77724842D01*
X173996849Y-77580238D01*
X173996846Y-77580233D01*
X173994523Y-77575251D01*
X173863198Y-77387700D01*
X173701300Y-77225802D01*
X173696792Y-77222645D01*
X173696789Y-77222643D01*
X173618611Y-77167902D01*
X173513749Y-77094477D01*
X173508767Y-77092154D01*
X173508762Y-77092151D01*
X173474543Y-77076195D01*
X173421258Y-77029278D01*
X173401797Y-76961001D01*
X173422339Y-76893041D01*
X173474543Y-76847805D01*
X173508762Y-76831849D01*
X173508767Y-76831846D01*
X173513749Y-76829523D01*
X173669130Y-76720724D01*
X173696789Y-76701357D01*
X173696792Y-76701355D01*
X173701300Y-76698198D01*
X173863198Y-76536300D01*
X173994523Y-76348749D01*
X173996846Y-76343767D01*
X173996849Y-76343762D01*
X174088961Y-76146225D01*
X174088961Y-76146224D01*
X174091284Y-76141243D01*
X174150543Y-75920087D01*
X174170498Y-75692000D01*
X174159387Y-75565000D01*
X177669502Y-75565000D01*
X177689457Y-75793087D01*
X177690881Y-75798400D01*
X177690881Y-75798402D01*
X177700031Y-75832548D01*
X177748716Y-76014243D01*
X177751039Y-76019224D01*
X177751039Y-76019225D01*
X177843151Y-76216762D01*
X177843154Y-76216767D01*
X177845477Y-76221749D01*
X177848634Y-76226257D01*
X177964025Y-76391052D01*
X177976802Y-76409300D01*
X178138700Y-76571198D01*
X178143208Y-76574355D01*
X178143211Y-76574357D01*
X178171473Y-76594146D01*
X178326251Y-76702523D01*
X178331233Y-76704846D01*
X178331238Y-76704849D01*
X178528775Y-76796961D01*
X178533757Y-76799284D01*
X178539065Y-76800706D01*
X178539067Y-76800707D01*
X178749598Y-76857119D01*
X178749600Y-76857119D01*
X178754913Y-76858543D01*
X178983000Y-76878498D01*
X179211087Y-76858543D01*
X179216400Y-76857119D01*
X179216402Y-76857119D01*
X179426933Y-76800707D01*
X179426935Y-76800706D01*
X179432243Y-76799284D01*
X179437225Y-76796961D01*
X179634762Y-76704849D01*
X179634767Y-76704846D01*
X179639749Y-76702523D01*
X179794527Y-76594146D01*
X179822789Y-76574357D01*
X179822792Y-76574355D01*
X179827300Y-76571198D01*
X179973420Y-76425078D01*
X180035732Y-76391052D01*
X180106547Y-76396117D01*
X180163383Y-76438664D01*
X180180683Y-76475606D01*
X180181748Y-76475207D01*
X180229676Y-76603054D01*
X180238214Y-76618649D01*
X180314715Y-76720724D01*
X180327276Y-76733285D01*
X180429351Y-76809786D01*
X180444946Y-76818324D01*
X180565394Y-76863478D01*
X180580649Y-76867105D01*
X180631514Y-76872631D01*
X180638328Y-76873000D01*
X181210885Y-76873000D01*
X181226124Y-76868525D01*
X181227329Y-76867135D01*
X181229000Y-76859452D01*
X181229000Y-76854884D01*
X181737000Y-76854884D01*
X181741475Y-76870123D01*
X181742865Y-76871328D01*
X181750548Y-76872999D01*
X182327669Y-76872999D01*
X182334490Y-76872629D01*
X182385352Y-76867105D01*
X182400604Y-76863479D01*
X182521054Y-76818324D01*
X182536649Y-76809786D01*
X182638724Y-76733285D01*
X182651285Y-76720724D01*
X182727786Y-76618649D01*
X182736324Y-76603054D01*
X182781478Y-76482606D01*
X182785105Y-76467351D01*
X182790631Y-76416486D01*
X182791000Y-76409672D01*
X182791000Y-75837115D01*
X182786525Y-75821876D01*
X182785135Y-75820671D01*
X182777452Y-75819000D01*
X181755115Y-75819000D01*
X181739876Y-75823475D01*
X181738671Y-75824865D01*
X181737000Y-75832548D01*
X181737000Y-76854884D01*
X181229000Y-76854884D01*
X181229000Y-75292885D01*
X181737000Y-75292885D01*
X181741475Y-75308124D01*
X181742865Y-75309329D01*
X181750548Y-75311000D01*
X182772884Y-75311000D01*
X182788123Y-75306525D01*
X182789328Y-75305135D01*
X182790999Y-75297452D01*
X182790999Y-74720331D01*
X182790629Y-74713510D01*
X182785105Y-74662648D01*
X182781479Y-74647396D01*
X182736324Y-74526946D01*
X182727786Y-74511351D01*
X182651285Y-74409276D01*
X182638724Y-74396715D01*
X182536649Y-74320214D01*
X182521054Y-74311676D01*
X182400606Y-74266522D01*
X182385351Y-74262895D01*
X182334486Y-74257369D01*
X182327672Y-74257000D01*
X181755115Y-74257000D01*
X181739876Y-74261475D01*
X181738671Y-74262865D01*
X181737000Y-74270548D01*
X181737000Y-75292885D01*
X181229000Y-75292885D01*
X181229000Y-74275116D01*
X181224525Y-74259877D01*
X181223135Y-74258672D01*
X181215452Y-74257001D01*
X180638331Y-74257001D01*
X180631510Y-74257371D01*
X180580648Y-74262895D01*
X180565396Y-74266521D01*
X180444946Y-74311676D01*
X180429351Y-74320214D01*
X180327276Y-74396715D01*
X180314715Y-74409276D01*
X180238214Y-74511351D01*
X180229676Y-74526946D01*
X180181748Y-74654793D01*
X180179888Y-74654096D01*
X180149869Y-74706628D01*
X180086910Y-74739442D01*
X180016206Y-74733008D01*
X179973419Y-74704921D01*
X179827300Y-74558802D01*
X179822792Y-74555645D01*
X179822789Y-74555643D01*
X179697996Y-74468262D01*
X179639749Y-74427477D01*
X179634767Y-74425154D01*
X179634762Y-74425151D01*
X179437225Y-74333039D01*
X179437224Y-74333039D01*
X179432243Y-74330716D01*
X179426935Y-74329294D01*
X179426933Y-74329293D01*
X179216402Y-74272881D01*
X179216400Y-74272881D01*
X179211087Y-74271457D01*
X178983000Y-74251502D01*
X178754913Y-74271457D01*
X178749600Y-74272881D01*
X178749598Y-74272881D01*
X178539067Y-74329293D01*
X178539065Y-74329294D01*
X178533757Y-74330716D01*
X178528776Y-74333039D01*
X178528775Y-74333039D01*
X178331238Y-74425151D01*
X178331233Y-74425154D01*
X178326251Y-74427477D01*
X178268004Y-74468262D01*
X178143211Y-74555643D01*
X178143208Y-74555645D01*
X178138700Y-74558802D01*
X177976802Y-74720700D01*
X177973645Y-74725208D01*
X177973643Y-74725211D01*
X177962868Y-74740600D01*
X177845477Y-74908251D01*
X177843154Y-74913233D01*
X177843151Y-74913238D01*
X177788358Y-75030743D01*
X177748716Y-75115757D01*
X177747294Y-75121065D01*
X177747293Y-75121067D01*
X177697972Y-75305135D01*
X177689457Y-75336913D01*
X177669502Y-75565000D01*
X174159387Y-75565000D01*
X174150543Y-75463913D01*
X174091284Y-75242757D01*
X174088961Y-75237775D01*
X173996849Y-75040238D01*
X173996846Y-75040233D01*
X173994523Y-75035251D01*
X173863198Y-74847700D01*
X173701300Y-74685802D01*
X173696792Y-74682645D01*
X173696789Y-74682643D01*
X173525491Y-74562699D01*
X173513749Y-74554477D01*
X173508767Y-74552154D01*
X173508762Y-74552151D01*
X173311225Y-74460039D01*
X173311224Y-74460039D01*
X173306243Y-74457716D01*
X173300935Y-74456294D01*
X173300933Y-74456293D01*
X173090402Y-74399881D01*
X173090400Y-74399881D01*
X173085087Y-74398457D01*
X172857000Y-74378502D01*
X172628913Y-74398457D01*
X172623600Y-74399881D01*
X172623598Y-74399881D01*
X172413067Y-74456293D01*
X172413065Y-74456294D01*
X172407757Y-74457716D01*
X172402776Y-74460039D01*
X172402775Y-74460039D01*
X172205238Y-74552151D01*
X172205233Y-74552154D01*
X172200251Y-74554477D01*
X172188509Y-74562699D01*
X172017211Y-74682643D01*
X172017208Y-74682645D01*
X172012700Y-74685802D01*
X171850802Y-74847700D01*
X171719477Y-75035251D01*
X171717154Y-75040233D01*
X171717151Y-75040238D01*
X171625039Y-75237775D01*
X171622716Y-75242757D01*
X171563457Y-75463913D01*
X171543502Y-75692000D01*
X171563457Y-75920087D01*
X171622716Y-76141243D01*
X171625039Y-76146224D01*
X171625039Y-76146225D01*
X171717151Y-76343762D01*
X171717154Y-76343767D01*
X171719477Y-76348749D01*
X171850802Y-76536300D01*
X172012700Y-76698198D01*
X172017208Y-76701355D01*
X172017211Y-76701357D01*
X172044870Y-76720724D01*
X172200251Y-76829523D01*
X172205233Y-76831846D01*
X172205238Y-76831849D01*
X172239457Y-76847805D01*
X172292742Y-76894722D01*
X172312203Y-76962999D01*
X172291661Y-77030959D01*
X172239457Y-77076195D01*
X172205238Y-77092151D01*
X172205233Y-77092154D01*
X172200251Y-77094477D01*
X172095389Y-77167902D01*
X172017211Y-77222643D01*
X172017208Y-77222645D01*
X172012700Y-77225802D01*
X171850802Y-77387700D01*
X171719477Y-77575251D01*
X171717154Y-77580233D01*
X171717151Y-77580238D01*
X171649722Y-77724842D01*
X171622716Y-77782757D01*
X171621294Y-77788065D01*
X171621293Y-77788067D01*
X171564881Y-77998598D01*
X171563457Y-78003913D01*
X171543502Y-78232000D01*
X171563457Y-78460087D01*
X171622716Y-78681243D01*
X171625039Y-78686224D01*
X171625039Y-78686225D01*
X171717151Y-78883762D01*
X171717154Y-78883767D01*
X171719477Y-78888749D01*
X171850802Y-79076300D01*
X172012700Y-79238198D01*
X172017208Y-79241355D01*
X172017211Y-79241357D01*
X172028769Y-79249450D01*
X172200251Y-79369523D01*
X172205233Y-79371846D01*
X172205238Y-79371849D01*
X172239457Y-79387805D01*
X172292742Y-79434722D01*
X172312203Y-79502999D01*
X172291661Y-79570959D01*
X172239457Y-79616195D01*
X172205238Y-79632151D01*
X172205233Y-79632154D01*
X172200251Y-79634477D01*
X172152004Y-79668260D01*
X172017211Y-79762643D01*
X172017208Y-79762645D01*
X172012700Y-79765802D01*
X171850802Y-79927700D01*
X171719477Y-80115251D01*
X171717154Y-80120233D01*
X171717151Y-80120238D01*
X171670808Y-80219623D01*
X171622716Y-80322757D01*
X171621294Y-80328065D01*
X171621293Y-80328067D01*
X171564881Y-80538598D01*
X171563457Y-80543913D01*
X171543502Y-80772000D01*
X158930498Y-80772000D01*
X158910543Y-80543913D01*
X158909119Y-80538598D01*
X158852707Y-80328067D01*
X158852706Y-80328065D01*
X158851284Y-80322757D01*
X158803192Y-80219623D01*
X158756849Y-80120238D01*
X158756846Y-80120233D01*
X158754523Y-80115251D01*
X158623198Y-79927700D01*
X158461300Y-79765802D01*
X158456792Y-79762645D01*
X158456789Y-79762643D01*
X158321996Y-79668260D01*
X158273749Y-79634477D01*
X158268767Y-79632154D01*
X158268762Y-79632151D01*
X158234543Y-79616195D01*
X158181258Y-79569278D01*
X158161797Y-79501001D01*
X158182339Y-79433041D01*
X158234543Y-79387805D01*
X158268762Y-79371849D01*
X158268767Y-79371846D01*
X158273749Y-79369523D01*
X158445231Y-79249450D01*
X158456789Y-79241357D01*
X158456792Y-79241355D01*
X158461300Y-79238198D01*
X158623198Y-79076300D01*
X158754523Y-78888749D01*
X158756846Y-78883767D01*
X158756849Y-78883762D01*
X158848961Y-78686225D01*
X158848961Y-78686224D01*
X158851284Y-78681243D01*
X158910543Y-78460087D01*
X158930498Y-78232000D01*
X158910543Y-78003913D01*
X158909119Y-77998598D01*
X158852707Y-77788067D01*
X158852706Y-77788065D01*
X158851284Y-77782757D01*
X158824278Y-77724842D01*
X158756849Y-77580238D01*
X158756846Y-77580233D01*
X158754523Y-77575251D01*
X158623198Y-77387700D01*
X158461300Y-77225802D01*
X158456789Y-77222643D01*
X158452576Y-77219108D01*
X158453527Y-77217974D01*
X158413529Y-77167929D01*
X158406224Y-77097310D01*
X158438258Y-77033951D01*
X158499462Y-76997970D01*
X158516517Y-76994918D01*
X158527316Y-76993745D01*
X158663705Y-76942615D01*
X158780261Y-76855261D01*
X158867615Y-76738705D01*
X158918745Y-76602316D01*
X158925500Y-76540134D01*
X158925500Y-74843866D01*
X158918745Y-74781684D01*
X158867615Y-74645295D01*
X158780261Y-74528739D01*
X158663705Y-74441385D01*
X158527316Y-74390255D01*
X158465134Y-74383500D01*
X156768866Y-74383500D01*
X156706684Y-74390255D01*
X156570295Y-74441385D01*
X156453739Y-74528739D01*
X156366385Y-74645295D01*
X156315255Y-74781684D01*
X156308500Y-74843866D01*
X156308500Y-76540134D01*
X156315255Y-76602316D01*
X156366385Y-76738705D01*
X156453739Y-76855261D01*
X156570295Y-76942615D01*
X156706684Y-76993745D01*
X156717474Y-76994917D01*
X156719606Y-76995803D01*
X156722222Y-76996425D01*
X156722121Y-76996848D01*
X156783035Y-77022155D01*
X156823463Y-77080517D01*
X156825922Y-77151471D01*
X156789629Y-77212490D01*
X156780969Y-77219489D01*
X156777207Y-77222646D01*
X156772700Y-77225802D01*
X156610802Y-77387700D01*
X156479477Y-77575251D01*
X156477154Y-77580233D01*
X156477151Y-77580238D01*
X156409722Y-77724842D01*
X156382716Y-77782757D01*
X156381294Y-77788065D01*
X156381293Y-77788067D01*
X156324881Y-77998598D01*
X156323457Y-78003913D01*
X156303502Y-78232000D01*
X156323457Y-78460087D01*
X156382716Y-78681243D01*
X156385039Y-78686224D01*
X156385039Y-78686225D01*
X156477151Y-78883762D01*
X156477154Y-78883767D01*
X156479477Y-78888749D01*
X156610802Y-79076300D01*
X156772700Y-79238198D01*
X156777208Y-79241355D01*
X156777211Y-79241357D01*
X156788769Y-79249450D01*
X156960251Y-79369523D01*
X156965233Y-79371846D01*
X156965238Y-79371849D01*
X156999457Y-79387805D01*
X157052742Y-79434722D01*
X157072203Y-79502999D01*
X157051661Y-79570959D01*
X156999457Y-79616195D01*
X156965238Y-79632151D01*
X156965233Y-79632154D01*
X156960251Y-79634477D01*
X156912004Y-79668260D01*
X156777211Y-79762643D01*
X156777208Y-79762645D01*
X156772700Y-79765802D01*
X156610802Y-79927700D01*
X156479477Y-80115251D01*
X156477154Y-80120233D01*
X156477151Y-80120238D01*
X156430808Y-80219623D01*
X156382716Y-80322757D01*
X156381294Y-80328065D01*
X156381293Y-80328067D01*
X156324881Y-80538598D01*
X156323457Y-80543913D01*
X156303502Y-80772000D01*
X156323457Y-81000087D01*
X156382716Y-81221243D01*
X156385039Y-81226224D01*
X156385039Y-81226225D01*
X156477151Y-81423762D01*
X156477154Y-81423767D01*
X156479477Y-81428749D01*
X156541458Y-81517267D01*
X156588124Y-81583912D01*
X156610802Y-81616300D01*
X156772700Y-81778198D01*
X156777208Y-81781355D01*
X156777211Y-81781357D01*
X156840757Y-81825852D01*
X156960251Y-81909523D01*
X156965233Y-81911846D01*
X156965238Y-81911849D01*
X156999457Y-81927805D01*
X157052742Y-81974722D01*
X157072203Y-82042999D01*
X157051661Y-82110959D01*
X156999457Y-82156195D01*
X156965238Y-82172151D01*
X156965233Y-82172154D01*
X156960251Y-82174477D01*
X156855389Y-82247902D01*
X156777211Y-82302643D01*
X156777208Y-82302645D01*
X156772700Y-82305802D01*
X156610802Y-82467700D01*
X156479477Y-82655251D01*
X156477154Y-82660233D01*
X156477151Y-82660238D01*
X156385039Y-82857775D01*
X156382716Y-82862757D01*
X156323457Y-83083913D01*
X156303502Y-83312000D01*
X156323457Y-83540087D01*
X156324881Y-83545400D01*
X156324881Y-83545402D01*
X156365275Y-83696151D01*
X156382716Y-83761243D01*
X156385039Y-83766224D01*
X156385039Y-83766225D01*
X156477151Y-83963762D01*
X156477154Y-83963767D01*
X156479477Y-83968749D01*
X156523933Y-84032238D01*
X156586031Y-84120923D01*
X156610802Y-84156300D01*
X156772700Y-84318198D01*
X156777208Y-84321355D01*
X156777211Y-84321357D01*
X156787328Y-84328441D01*
X156960251Y-84449523D01*
X156965233Y-84451846D01*
X156965238Y-84451849D01*
X156999457Y-84467805D01*
X157052742Y-84514722D01*
X157072203Y-84582999D01*
X157051661Y-84650959D01*
X156999457Y-84696195D01*
X156965238Y-84712151D01*
X156965233Y-84712154D01*
X156960251Y-84714477D01*
X156866365Y-84780217D01*
X156777211Y-84842643D01*
X156777208Y-84842645D01*
X156772700Y-84845802D01*
X156610802Y-85007700D01*
X156479477Y-85195251D01*
X156477154Y-85200233D01*
X156477151Y-85200238D01*
X156401803Y-85361825D01*
X156382716Y-85402757D01*
X156381294Y-85408065D01*
X156381293Y-85408067D01*
X156329096Y-85602868D01*
X156323457Y-85623913D01*
X156303502Y-85852000D01*
X156323457Y-86080087D01*
X156324881Y-86085400D01*
X156324881Y-86085402D01*
X156379743Y-86290146D01*
X156382716Y-86301243D01*
X156385039Y-86306224D01*
X156385039Y-86306225D01*
X156477151Y-86503762D01*
X156477154Y-86503767D01*
X156479477Y-86508749D01*
X156552902Y-86613611D01*
X156606613Y-86690317D01*
X156610802Y-86696300D01*
X156772700Y-86858198D01*
X156777208Y-86861355D01*
X156777211Y-86861357D01*
X156855389Y-86916098D01*
X156960251Y-86989523D01*
X156965233Y-86991846D01*
X156965238Y-86991849D01*
X156999457Y-87007805D01*
X157052742Y-87054722D01*
X157072203Y-87122999D01*
X157051661Y-87190959D01*
X156999457Y-87236195D01*
X156965238Y-87252151D01*
X156965233Y-87252154D01*
X156960251Y-87254477D01*
X156901399Y-87295686D01*
X156777211Y-87382643D01*
X156777208Y-87382645D01*
X156772700Y-87385802D01*
X156610802Y-87547700D01*
X156479477Y-87735251D01*
X156477154Y-87740233D01*
X156477151Y-87740238D01*
X156433575Y-87833689D01*
X156382716Y-87942757D01*
X156381294Y-87948065D01*
X156381293Y-87948067D01*
X156357693Y-88036144D01*
X156323457Y-88163913D01*
X156303502Y-88392000D01*
X156323457Y-88620087D01*
X156382716Y-88841243D01*
X156385039Y-88846224D01*
X156385039Y-88846225D01*
X156477151Y-89043762D01*
X156477154Y-89043767D01*
X156479477Y-89048749D01*
X156610802Y-89236300D01*
X156772700Y-89398198D01*
X156777208Y-89401355D01*
X156777211Y-89401357D01*
X156855389Y-89456098D01*
X156960251Y-89529523D01*
X156965233Y-89531846D01*
X156965238Y-89531849D01*
X156999457Y-89547805D01*
X157052742Y-89594722D01*
X157072203Y-89662999D01*
X157051661Y-89730959D01*
X156999457Y-89776195D01*
X156965238Y-89792151D01*
X156965233Y-89792154D01*
X156960251Y-89794477D01*
X156855389Y-89867902D01*
X156777211Y-89922643D01*
X156777208Y-89922645D01*
X156772700Y-89925802D01*
X156610802Y-90087700D01*
X156479477Y-90275251D01*
X156477154Y-90280233D01*
X156477151Y-90280238D01*
X156385039Y-90477775D01*
X156382716Y-90482757D01*
X156323457Y-90703913D01*
X156303502Y-90932000D01*
X156323457Y-91160087D01*
X156382716Y-91381243D01*
X156385039Y-91386224D01*
X156385039Y-91386225D01*
X156477151Y-91583762D01*
X156477154Y-91583767D01*
X156479477Y-91588749D01*
X156610802Y-91776300D01*
X156772700Y-91938198D01*
X156777208Y-91941355D01*
X156777211Y-91941357D01*
X156855389Y-91996098D01*
X156960251Y-92069523D01*
X156965233Y-92071846D01*
X156965238Y-92071849D01*
X156999457Y-92087805D01*
X157052742Y-92134722D01*
X157072203Y-92202999D01*
X157051661Y-92270959D01*
X156999457Y-92316195D01*
X156965238Y-92332151D01*
X156965233Y-92332154D01*
X156960251Y-92334477D01*
X156918772Y-92363521D01*
X156777211Y-92462643D01*
X156777208Y-92462645D01*
X156772700Y-92465802D01*
X156610802Y-92627700D01*
X156479477Y-92815251D01*
X156477154Y-92820233D01*
X156477151Y-92820238D01*
X156405647Y-92973580D01*
X156382716Y-93022757D01*
X156381294Y-93028065D01*
X156381293Y-93028067D01*
X156324881Y-93238598D01*
X156323457Y-93243913D01*
X156303502Y-93472000D01*
X156323457Y-93700087D01*
X156382716Y-93921243D01*
X156385039Y-93926224D01*
X156385039Y-93926225D01*
X156477151Y-94123762D01*
X156477154Y-94123767D01*
X156479477Y-94128749D01*
X156552902Y-94233611D01*
X156582946Y-94276517D01*
X156610802Y-94316300D01*
X156772700Y-94478198D01*
X156777208Y-94481355D01*
X156777211Y-94481357D01*
X156855389Y-94536098D01*
X156960251Y-94609523D01*
X156965233Y-94611846D01*
X156965238Y-94611849D01*
X156999457Y-94627805D01*
X157052742Y-94674722D01*
X157072203Y-94742999D01*
X157051661Y-94810959D01*
X156999457Y-94856195D01*
X156965238Y-94872151D01*
X156965233Y-94872154D01*
X156960251Y-94874477D01*
X156855389Y-94947902D01*
X156777211Y-95002643D01*
X156777208Y-95002645D01*
X156772700Y-95005802D01*
X156610802Y-95167700D01*
X156607645Y-95172208D01*
X156607643Y-95172211D01*
X156552902Y-95250389D01*
X156479477Y-95355251D01*
X156477154Y-95360233D01*
X156477151Y-95360238D01*
X156475519Y-95363738D01*
X156382716Y-95562757D01*
X156381294Y-95568065D01*
X156381293Y-95568067D01*
X156324881Y-95778598D01*
X156323457Y-95783913D01*
X156303502Y-96012000D01*
X156323457Y-96240087D01*
X156382716Y-96461243D01*
X156385039Y-96466224D01*
X156385039Y-96466225D01*
X156477151Y-96663762D01*
X156477154Y-96663767D01*
X156479477Y-96668749D01*
X156610802Y-96856300D01*
X156772700Y-97018198D01*
X156777208Y-97021355D01*
X156777211Y-97021357D01*
X156799029Y-97036634D01*
X156960251Y-97149523D01*
X156965233Y-97151846D01*
X156965238Y-97151849D01*
X156999457Y-97167805D01*
X157052742Y-97214722D01*
X157072203Y-97282999D01*
X157051661Y-97350959D01*
X156999457Y-97396195D01*
X156965238Y-97412151D01*
X156965233Y-97412154D01*
X156960251Y-97414477D01*
X156855389Y-97487902D01*
X156777211Y-97542643D01*
X156777208Y-97542645D01*
X156772700Y-97545802D01*
X156610802Y-97707700D01*
X156607645Y-97712208D01*
X156607643Y-97712211D01*
X156552902Y-97790389D01*
X156479477Y-97895251D01*
X156477154Y-97900233D01*
X156477151Y-97900238D01*
X156390797Y-98085427D01*
X156382716Y-98102757D01*
X156381294Y-98108065D01*
X156381293Y-98108067D01*
X156324881Y-98318598D01*
X156323457Y-98323913D01*
X156303502Y-98552000D01*
X156323457Y-98780087D01*
X156382716Y-99001243D01*
X156385039Y-99006224D01*
X156385039Y-99006225D01*
X156477151Y-99203762D01*
X156477154Y-99203767D01*
X156479477Y-99208749D01*
X156490780Y-99224891D01*
X156600863Y-99382105D01*
X156610802Y-99396300D01*
X156772700Y-99558198D01*
X156777208Y-99561355D01*
X156777211Y-99561357D01*
X156799029Y-99576634D01*
X156960251Y-99689523D01*
X156965233Y-99691846D01*
X156965238Y-99691849D01*
X156999457Y-99707805D01*
X157052742Y-99754722D01*
X157072203Y-99822999D01*
X157051661Y-99890959D01*
X156999457Y-99936195D01*
X156965238Y-99952151D01*
X156965233Y-99952154D01*
X156960251Y-99954477D01*
X156855389Y-100027902D01*
X156777211Y-100082643D01*
X156777208Y-100082645D01*
X156772700Y-100085802D01*
X156610802Y-100247700D01*
X156607645Y-100252208D01*
X156607643Y-100252211D01*
X156552902Y-100330389D01*
X156479477Y-100435251D01*
X156477154Y-100440233D01*
X156477151Y-100440238D01*
X156386971Y-100633632D01*
X156382716Y-100642757D01*
X156381294Y-100648065D01*
X156381293Y-100648067D01*
X156335020Y-100820760D01*
X156323457Y-100863913D01*
X156303502Y-101092000D01*
X156323457Y-101320087D01*
X156324881Y-101325400D01*
X156324881Y-101325402D01*
X156334825Y-101362511D01*
X156382716Y-101541243D01*
X156385039Y-101546224D01*
X156385039Y-101546225D01*
X156477151Y-101743762D01*
X156477154Y-101743767D01*
X156479477Y-101748749D01*
X156546825Y-101844931D01*
X156594993Y-101913722D01*
X156610802Y-101936300D01*
X156772700Y-102098198D01*
X156777208Y-102101355D01*
X156777211Y-102101357D01*
X156799029Y-102116634D01*
X156960251Y-102229523D01*
X156965233Y-102231846D01*
X156965238Y-102231849D01*
X156999457Y-102247805D01*
X157052742Y-102294722D01*
X157072203Y-102362999D01*
X157051661Y-102430959D01*
X156999457Y-102476195D01*
X156965238Y-102492151D01*
X156965233Y-102492154D01*
X156960251Y-102494477D01*
X156892016Y-102542256D01*
X156777211Y-102622643D01*
X156777208Y-102622645D01*
X156772700Y-102625802D01*
X156610802Y-102787700D01*
X156607645Y-102792208D01*
X156607643Y-102792211D01*
X156600959Y-102801757D01*
X156479477Y-102975251D01*
X156477154Y-102980233D01*
X156477151Y-102980238D01*
X156429443Y-103082550D01*
X156382716Y-103182757D01*
X156381294Y-103188065D01*
X156381293Y-103188067D01*
X156346645Y-103317376D01*
X156323457Y-103403913D01*
X156303502Y-103632000D01*
X156323457Y-103860087D01*
X156324881Y-103865400D01*
X156324881Y-103865402D01*
X156364857Y-104014591D01*
X156382716Y-104081243D01*
X156385039Y-104086224D01*
X156385039Y-104086225D01*
X156477151Y-104283762D01*
X156477154Y-104283767D01*
X156479477Y-104288749D01*
X156482634Y-104293257D01*
X156594993Y-104453722D01*
X156610802Y-104476300D01*
X156772700Y-104638198D01*
X156777208Y-104641355D01*
X156777211Y-104641357D01*
X156799029Y-104656634D01*
X156960251Y-104769523D01*
X156965233Y-104771846D01*
X156965238Y-104771849D01*
X156999457Y-104787805D01*
X157052742Y-104834722D01*
X157072203Y-104902999D01*
X157051661Y-104970959D01*
X156999457Y-105016195D01*
X156965238Y-105032151D01*
X156965233Y-105032154D01*
X156960251Y-105034477D01*
X156884124Y-105087782D01*
X156777211Y-105162643D01*
X156777208Y-105162645D01*
X156772700Y-105165802D01*
X156610802Y-105327700D01*
X156607645Y-105332208D01*
X156607643Y-105332211D01*
X156552902Y-105410389D01*
X156479477Y-105515251D01*
X156477154Y-105520233D01*
X156477151Y-105520238D01*
X156402422Y-105680497D01*
X156382716Y-105722757D01*
X156381294Y-105728065D01*
X156381293Y-105728067D01*
X156333430Y-105906692D01*
X156323457Y-105943913D01*
X156303502Y-106172000D01*
X156323457Y-106400087D01*
X156382716Y-106621243D01*
X156385039Y-106626224D01*
X156385039Y-106626225D01*
X156477151Y-106823762D01*
X156477154Y-106823767D01*
X156479477Y-106828749D01*
X156482634Y-106833257D01*
X156594993Y-106993722D01*
X156610802Y-107016300D01*
X156772700Y-107178198D01*
X156777208Y-107181355D01*
X156777211Y-107181357D01*
X156799029Y-107196634D01*
X156960251Y-107309523D01*
X156965233Y-107311846D01*
X156965238Y-107311849D01*
X156999457Y-107327805D01*
X157052742Y-107374722D01*
X157072203Y-107442999D01*
X157051661Y-107510959D01*
X156999457Y-107556195D01*
X156965238Y-107572151D01*
X156965233Y-107572154D01*
X156960251Y-107574477D01*
X156855389Y-107647902D01*
X156777211Y-107702643D01*
X156777208Y-107702645D01*
X156772700Y-107705802D01*
X156610802Y-107867700D01*
X156607645Y-107872208D01*
X156607643Y-107872211D01*
X156600959Y-107881757D01*
X156479477Y-108055251D01*
X156477154Y-108060233D01*
X156477151Y-108060238D01*
X156385475Y-108256840D01*
X156382716Y-108262757D01*
X156323457Y-108483913D01*
X156303502Y-108712000D01*
X156323457Y-108940087D01*
X156382716Y-109161243D01*
X156385039Y-109166224D01*
X156385039Y-109166225D01*
X156477151Y-109363762D01*
X156477154Y-109363767D01*
X156479477Y-109368749D01*
X156482634Y-109373257D01*
X156594993Y-109533722D01*
X156610802Y-109556300D01*
X156772700Y-109718198D01*
X156777208Y-109721355D01*
X156777211Y-109721357D01*
X156799029Y-109736634D01*
X156960251Y-109849523D01*
X156965233Y-109851846D01*
X156965238Y-109851849D01*
X156999457Y-109867805D01*
X157052742Y-109914722D01*
X157072203Y-109982999D01*
X157051661Y-110050959D01*
X156999457Y-110096195D01*
X156965238Y-110112151D01*
X156965233Y-110112154D01*
X156960251Y-110114477D01*
X156855389Y-110187902D01*
X156777211Y-110242643D01*
X156777208Y-110242645D01*
X156772700Y-110245802D01*
X156610802Y-110407700D01*
X156607645Y-110412208D01*
X156607643Y-110412211D01*
X156600959Y-110421757D01*
X156479477Y-110595251D01*
X156477154Y-110600233D01*
X156477151Y-110600238D01*
X156386028Y-110795655D01*
X156382716Y-110802757D01*
X156381294Y-110808065D01*
X156381293Y-110808067D01*
X156346298Y-110938668D01*
X156323457Y-111023913D01*
X156303502Y-111252000D01*
X151186209Y-111252000D01*
X151174550Y-111217054D01*
X151081478Y-111066652D01*
X150956303Y-110941695D01*
X150832733Y-110865525D01*
X150811968Y-110852725D01*
X150811966Y-110852724D01*
X150805738Y-110848885D01*
X150666666Y-110802757D01*
X150644389Y-110795368D01*
X150644387Y-110795368D01*
X150637861Y-110793203D01*
X150631025Y-110792503D01*
X150631022Y-110792502D01*
X150587969Y-110788091D01*
X150533400Y-110782500D01*
X148932600Y-110782500D01*
X148929354Y-110782837D01*
X148929350Y-110782837D01*
X148833692Y-110792762D01*
X148833688Y-110792763D01*
X148826834Y-110793474D01*
X148820298Y-110795655D01*
X148820296Y-110795655D01*
X148688194Y-110839728D01*
X148659054Y-110849450D01*
X148508652Y-110942522D01*
X148383695Y-111067697D01*
X148379855Y-111073927D01*
X148379854Y-111073928D01*
X148361070Y-111104402D01*
X148290885Y-111218262D01*
X148235203Y-111386139D01*
X148224500Y-111490600D01*
X148224500Y-112791400D01*
X140610846Y-112791400D01*
X140595849Y-112759238D01*
X140595846Y-112759233D01*
X140593523Y-112754251D01*
X140480315Y-112592573D01*
X140465357Y-112571211D01*
X140465355Y-112571208D01*
X140462198Y-112566700D01*
X140300300Y-112404802D01*
X140295792Y-112401645D01*
X140295789Y-112401643D01*
X140217611Y-112346902D01*
X140112749Y-112273477D01*
X140107767Y-112271154D01*
X140107762Y-112271151D01*
X140073543Y-112255195D01*
X140020258Y-112208278D01*
X140000797Y-112140001D01*
X140021339Y-112072041D01*
X140073543Y-112026805D01*
X140107762Y-112010849D01*
X140107767Y-112010846D01*
X140112749Y-112008523D01*
X140262363Y-111903762D01*
X140295789Y-111880357D01*
X140295792Y-111880355D01*
X140300300Y-111877198D01*
X140462198Y-111715300D01*
X140468553Y-111706225D01*
X140590366Y-111532257D01*
X140593523Y-111527749D01*
X140595846Y-111522767D01*
X140595849Y-111522762D01*
X140687961Y-111325225D01*
X140687961Y-111325224D01*
X140690284Y-111320243D01*
X140715749Y-111225209D01*
X140748119Y-111104402D01*
X140748119Y-111104400D01*
X140749543Y-111099087D01*
X140769498Y-110871000D01*
X140749543Y-110642913D01*
X140690284Y-110421757D01*
X140610053Y-110249699D01*
X140595849Y-110219238D01*
X140595846Y-110219233D01*
X140593523Y-110214251D01*
X140510859Y-110096195D01*
X140465357Y-110031211D01*
X140465355Y-110031208D01*
X140462198Y-110026700D01*
X140300300Y-109864802D01*
X140295792Y-109861645D01*
X140295789Y-109861643D01*
X140217611Y-109806902D01*
X140112749Y-109733477D01*
X140107767Y-109731154D01*
X140107762Y-109731151D01*
X140073543Y-109715195D01*
X140020258Y-109668278D01*
X140000797Y-109600001D01*
X140021339Y-109532041D01*
X140073543Y-109486805D01*
X140107762Y-109470849D01*
X140107767Y-109470846D01*
X140112749Y-109468523D01*
X140262363Y-109363762D01*
X140295789Y-109340357D01*
X140295792Y-109340355D01*
X140300300Y-109337198D01*
X140462198Y-109175300D01*
X140468553Y-109166225D01*
X140590366Y-108992257D01*
X140593523Y-108987749D01*
X140595846Y-108982767D01*
X140595849Y-108982762D01*
X140687961Y-108785225D01*
X140687961Y-108785224D01*
X140690284Y-108780243D01*
X140721831Y-108662511D01*
X140748119Y-108564402D01*
X140748119Y-108564400D01*
X140749543Y-108559087D01*
X140769498Y-108331000D01*
X140749543Y-108102913D01*
X140690284Y-107881757D01*
X140610053Y-107709699D01*
X140595849Y-107679238D01*
X140595846Y-107679233D01*
X140593523Y-107674251D01*
X140510859Y-107556195D01*
X140465357Y-107491211D01*
X140465355Y-107491208D01*
X140462198Y-107486700D01*
X140300300Y-107324802D01*
X140295792Y-107321645D01*
X140295789Y-107321643D01*
X140217611Y-107266902D01*
X140112749Y-107193477D01*
X140107767Y-107191154D01*
X140107762Y-107191151D01*
X140073543Y-107175195D01*
X140020258Y-107128278D01*
X140000797Y-107060001D01*
X140021339Y-106992041D01*
X140073543Y-106946805D01*
X140107762Y-106930849D01*
X140107767Y-106930846D01*
X140112749Y-106928523D01*
X140262363Y-106823762D01*
X140295789Y-106800357D01*
X140295792Y-106800355D01*
X140300300Y-106797198D01*
X140462198Y-106635300D01*
X140468553Y-106626225D01*
X140590366Y-106452257D01*
X140593523Y-106447749D01*
X140595846Y-106442767D01*
X140595849Y-106442762D01*
X140687961Y-106245225D01*
X140687961Y-106245224D01*
X140690284Y-106240243D01*
X140726854Y-106103765D01*
X140748119Y-106024402D01*
X140748119Y-106024400D01*
X140749543Y-106019087D01*
X140769498Y-105791000D01*
X140749543Y-105562913D01*
X140738108Y-105520238D01*
X140691707Y-105347067D01*
X140691706Y-105347065D01*
X140690284Y-105341757D01*
X140670026Y-105298313D01*
X140595849Y-105139238D01*
X140595846Y-105139233D01*
X140593523Y-105134251D01*
X140510859Y-105016195D01*
X140465357Y-104951211D01*
X140465355Y-104951208D01*
X140462198Y-104946700D01*
X140300300Y-104784802D01*
X140295792Y-104781645D01*
X140295789Y-104781643D01*
X140217611Y-104726902D01*
X140112749Y-104653477D01*
X140107767Y-104651154D01*
X140107762Y-104651151D01*
X140073543Y-104635195D01*
X140020258Y-104588278D01*
X140000797Y-104520001D01*
X140021339Y-104452041D01*
X140073543Y-104406805D01*
X140107762Y-104390849D01*
X140107767Y-104390846D01*
X140112749Y-104388523D01*
X140129528Y-104376774D01*
X148273102Y-104376774D01*
X148273302Y-104382103D01*
X148273302Y-104382105D01*
X148273543Y-104388523D01*
X148281751Y-104607158D01*
X148329093Y-104832791D01*
X148331051Y-104837750D01*
X148331052Y-104837752D01*
X148407825Y-105032151D01*
X148413776Y-105047221D01*
X148533377Y-105244317D01*
X148536874Y-105248347D01*
X148623438Y-105348103D01*
X148684477Y-105418445D01*
X148688608Y-105421832D01*
X148858627Y-105561240D01*
X148858633Y-105561244D01*
X148862755Y-105564624D01*
X148867391Y-105567263D01*
X148867394Y-105567265D01*
X148869376Y-105568393D01*
X149063114Y-105678675D01*
X149279825Y-105757337D01*
X149285074Y-105758286D01*
X149285077Y-105758287D01*
X149502608Y-105797623D01*
X149502615Y-105797624D01*
X149506692Y-105798361D01*
X149524414Y-105799197D01*
X149529356Y-105799430D01*
X149529363Y-105799430D01*
X149530844Y-105799500D01*
X149942890Y-105799500D01*
X150009809Y-105793822D01*
X150109409Y-105785371D01*
X150109413Y-105785370D01*
X150114720Y-105784920D01*
X150119875Y-105783582D01*
X150119881Y-105783581D01*
X150332703Y-105728343D01*
X150332707Y-105728342D01*
X150337872Y-105727001D01*
X150342738Y-105724809D01*
X150342741Y-105724808D01*
X150543202Y-105634507D01*
X150548075Y-105632312D01*
X150739319Y-105503559D01*
X150906135Y-105344424D01*
X151043754Y-105159458D01*
X151054035Y-105139238D01*
X151105692Y-105037634D01*
X151148240Y-104953949D01*
X151184321Y-104837752D01*
X151215024Y-104738871D01*
X151216607Y-104733773D01*
X151227249Y-104653477D01*
X151246198Y-104510511D01*
X151246198Y-104510506D01*
X151246898Y-104505226D01*
X151244965Y-104453722D01*
X151238449Y-104280173D01*
X151238249Y-104274842D01*
X151190907Y-104049209D01*
X151136822Y-103912257D01*
X151108185Y-103839744D01*
X151108184Y-103839742D01*
X151106224Y-103834779D01*
X150986623Y-103637683D01*
X150970127Y-103618673D01*
X150839023Y-103467588D01*
X150839021Y-103467586D01*
X150835523Y-103463555D01*
X150769468Y-103409393D01*
X150661373Y-103320760D01*
X150661367Y-103320756D01*
X150657245Y-103317376D01*
X150625750Y-103299448D01*
X150576445Y-103248368D01*
X150562583Y-103178738D01*
X150588566Y-103112667D01*
X150617716Y-103085427D01*
X150653642Y-103061240D01*
X150739319Y-103003559D01*
X150768994Y-102975251D01*
X150902278Y-102848103D01*
X150906135Y-102844424D01*
X150933930Y-102807067D01*
X151040568Y-102663740D01*
X151043754Y-102659458D01*
X151058885Y-102629699D01*
X151126029Y-102497634D01*
X151148240Y-102453949D01*
X151162912Y-102406700D01*
X151215024Y-102238871D01*
X151216607Y-102233773D01*
X151217589Y-102226366D01*
X151246198Y-102010511D01*
X151246198Y-102010506D01*
X151246898Y-102005226D01*
X151238249Y-101774842D01*
X151190907Y-101549209D01*
X151106224Y-101334779D01*
X151093984Y-101314607D01*
X150989390Y-101142243D01*
X150986623Y-101137683D01*
X150983126Y-101133653D01*
X150839023Y-100967588D01*
X150839021Y-100967586D01*
X150835523Y-100963555D01*
X150793970Y-100929484D01*
X150661373Y-100820760D01*
X150661367Y-100820756D01*
X150657245Y-100817376D01*
X150625750Y-100799448D01*
X150576445Y-100748368D01*
X150562583Y-100678738D01*
X150588566Y-100612667D01*
X150617716Y-100585427D01*
X150653642Y-100561240D01*
X150739319Y-100503559D01*
X150791691Y-100453599D01*
X150902278Y-100348103D01*
X150906135Y-100344424D01*
X151043754Y-100159458D01*
X151148240Y-99953949D01*
X151178122Y-99857716D01*
X151215024Y-99738871D01*
X151216607Y-99733773D01*
X151221418Y-99697475D01*
X151246198Y-99510511D01*
X151246198Y-99510506D01*
X151246898Y-99505226D01*
X151245575Y-99469971D01*
X151238449Y-99280173D01*
X151238249Y-99274842D01*
X151190907Y-99049209D01*
X151106224Y-98834779D01*
X150986623Y-98637683D01*
X150917022Y-98557475D01*
X150839023Y-98467588D01*
X150839021Y-98467586D01*
X150835523Y-98463555D01*
X150756899Y-98399087D01*
X150661373Y-98320760D01*
X150661367Y-98320756D01*
X150657245Y-98317376D01*
X150625750Y-98299448D01*
X150576445Y-98248368D01*
X150562583Y-98178738D01*
X150588566Y-98112667D01*
X150617716Y-98085427D01*
X150653642Y-98061240D01*
X150739319Y-98003559D01*
X150906135Y-97844424D01*
X151043754Y-97659458D01*
X151148240Y-97453949D01*
X151160497Y-97414477D01*
X151215024Y-97238871D01*
X151216607Y-97233773D01*
X151231117Y-97124295D01*
X151246198Y-97010511D01*
X151246198Y-97010506D01*
X151246898Y-97005226D01*
X151238249Y-96774842D01*
X151190907Y-96549209D01*
X151158135Y-96466225D01*
X151108185Y-96339744D01*
X151108184Y-96339742D01*
X151106224Y-96334779D01*
X150986623Y-96137683D01*
X150899755Y-96037576D01*
X150839023Y-95967588D01*
X150839021Y-95967586D01*
X150835523Y-95963555D01*
X150799880Y-95934330D01*
X150759886Y-95875671D01*
X150757954Y-95804701D01*
X150794698Y-95743952D01*
X150813468Y-95729752D01*
X150953120Y-95643332D01*
X150959348Y-95639478D01*
X151084305Y-95514303D01*
X151177115Y-95363738D01*
X151232797Y-95195861D01*
X151243500Y-95091400D01*
X151243500Y-93790600D01*
X151232526Y-93684834D01*
X151229929Y-93677048D01*
X151178868Y-93524002D01*
X151176550Y-93517054D01*
X151083478Y-93366652D01*
X150958303Y-93241695D01*
X150886301Y-93197312D01*
X150813968Y-93152725D01*
X150813966Y-93152724D01*
X150807738Y-93148885D01*
X150647254Y-93095655D01*
X150646389Y-93095368D01*
X150646387Y-93095368D01*
X150639861Y-93093203D01*
X150633025Y-93092503D01*
X150633022Y-93092502D01*
X150589969Y-93088091D01*
X150535400Y-93082500D01*
X148984600Y-93082500D01*
X148981354Y-93082837D01*
X148981350Y-93082837D01*
X148885692Y-93092762D01*
X148885688Y-93092763D01*
X148878834Y-93093474D01*
X148872298Y-93095655D01*
X148872296Y-93095655D01*
X148740194Y-93139728D01*
X148711054Y-93149450D01*
X148560652Y-93242522D01*
X148435695Y-93367697D01*
X148431855Y-93373927D01*
X148431854Y-93373928D01*
X148368027Y-93477475D01*
X148342885Y-93518262D01*
X148340581Y-93525209D01*
X148307397Y-93625257D01*
X148287203Y-93686139D01*
X148276500Y-93790600D01*
X148276500Y-95091400D01*
X148276837Y-95094646D01*
X148276837Y-95094650D01*
X148284885Y-95172211D01*
X148287474Y-95197166D01*
X148343450Y-95364946D01*
X148436522Y-95515348D01*
X148561697Y-95640305D01*
X148707340Y-95730081D01*
X148754832Y-95782852D01*
X148766256Y-95852924D01*
X148737982Y-95918048D01*
X148728195Y-95928510D01*
X148613865Y-96037576D01*
X148476246Y-96222542D01*
X148473830Y-96227293D01*
X148473828Y-96227297D01*
X148464623Y-96245402D01*
X148371760Y-96428051D01*
X148370178Y-96433145D01*
X148370177Y-96433148D01*
X148308115Y-96633020D01*
X148303393Y-96648227D01*
X148302692Y-96653516D01*
X148274099Y-96869255D01*
X148273102Y-96876774D01*
X148273302Y-96882103D01*
X148273302Y-96882105D01*
X148277427Y-96991966D01*
X148281751Y-97107158D01*
X148329093Y-97332791D01*
X148331051Y-97337750D01*
X148331052Y-97337752D01*
X148361353Y-97414477D01*
X148413776Y-97547221D01*
X148533377Y-97744317D01*
X148536874Y-97748347D01*
X148660439Y-97890743D01*
X148684477Y-97918445D01*
X148688608Y-97921832D01*
X148858627Y-98061240D01*
X148858633Y-98061244D01*
X148862755Y-98064624D01*
X148894250Y-98082552D01*
X148943555Y-98133632D01*
X148957417Y-98203262D01*
X148931434Y-98269333D01*
X148902284Y-98296573D01*
X148780681Y-98378441D01*
X148613865Y-98537576D01*
X148476246Y-98722542D01*
X148473830Y-98727293D01*
X148473828Y-98727297D01*
X148444286Y-98785402D01*
X148371760Y-98928051D01*
X148370178Y-98933145D01*
X148370177Y-98933148D01*
X148321872Y-99088715D01*
X148303393Y-99148227D01*
X148302692Y-99153516D01*
X148278737Y-99334261D01*
X148273102Y-99376774D01*
X148273302Y-99382103D01*
X148273302Y-99382105D01*
X148277427Y-99491966D01*
X148281751Y-99607158D01*
X148329093Y-99832791D01*
X148331051Y-99837750D01*
X148331052Y-99837752D01*
X148341073Y-99863125D01*
X148413776Y-100047221D01*
X148416543Y-100051780D01*
X148416544Y-100051783D01*
X148439552Y-100089699D01*
X148533377Y-100244317D01*
X148536874Y-100248347D01*
X148623438Y-100348103D01*
X148684477Y-100418445D01*
X148716227Y-100444478D01*
X148858627Y-100561240D01*
X148858633Y-100561244D01*
X148862755Y-100564624D01*
X148894250Y-100582552D01*
X148943555Y-100633632D01*
X148957417Y-100703262D01*
X148931434Y-100769333D01*
X148902284Y-100796573D01*
X148780681Y-100878441D01*
X148613865Y-101037576D01*
X148476246Y-101222542D01*
X148371760Y-101428051D01*
X148370178Y-101433145D01*
X148370177Y-101433148D01*
X148332248Y-101555300D01*
X148303393Y-101648227D01*
X148302692Y-101653516D01*
X148274460Y-101866529D01*
X148273102Y-101876774D01*
X148281751Y-102107158D01*
X148329093Y-102332791D01*
X148331051Y-102337750D01*
X148331052Y-102337752D01*
X148392028Y-102492151D01*
X148413776Y-102547221D01*
X148416543Y-102551780D01*
X148416544Y-102551783D01*
X148445341Y-102599238D01*
X148533377Y-102744317D01*
X148536874Y-102748347D01*
X148623438Y-102848103D01*
X148684477Y-102918445D01*
X148688608Y-102921832D01*
X148858627Y-103061240D01*
X148858633Y-103061244D01*
X148862755Y-103064624D01*
X148894250Y-103082552D01*
X148943555Y-103133632D01*
X148957417Y-103203262D01*
X148931434Y-103269333D01*
X148902284Y-103296573D01*
X148780681Y-103378441D01*
X148776824Y-103382120D01*
X148776822Y-103382122D01*
X148748235Y-103409393D01*
X148613865Y-103537576D01*
X148476246Y-103722542D01*
X148371760Y-103928051D01*
X148370178Y-103933145D01*
X148370177Y-103933148D01*
X148325841Y-104075933D01*
X148303393Y-104148227D01*
X148302692Y-104153516D01*
X148284769Y-104288749D01*
X148273102Y-104376774D01*
X140129528Y-104376774D01*
X140262363Y-104283762D01*
X140295789Y-104260357D01*
X140295792Y-104260355D01*
X140300300Y-104257198D01*
X140462198Y-104095300D01*
X140468553Y-104086225D01*
X140579307Y-103928051D01*
X140593523Y-103907749D01*
X140595846Y-103902767D01*
X140595849Y-103902762D01*
X140687961Y-103705225D01*
X140687961Y-103705224D01*
X140690284Y-103700243D01*
X140711760Y-103620096D01*
X140748119Y-103484402D01*
X140748119Y-103484400D01*
X140749543Y-103479087D01*
X140769498Y-103251000D01*
X140749543Y-103022913D01*
X140720470Y-102914412D01*
X140691707Y-102807067D01*
X140691706Y-102807065D01*
X140690284Y-102801757D01*
X140665379Y-102748347D01*
X140595849Y-102599238D01*
X140595846Y-102599233D01*
X140593523Y-102594251D01*
X140491713Y-102448852D01*
X140465357Y-102411211D01*
X140465355Y-102411208D01*
X140462198Y-102406700D01*
X140300300Y-102244802D01*
X140295792Y-102241645D01*
X140295789Y-102241643D01*
X140217611Y-102186902D01*
X140112749Y-102113477D01*
X140107767Y-102111154D01*
X140107762Y-102111151D01*
X140073543Y-102095195D01*
X140020258Y-102048278D01*
X140000797Y-101980001D01*
X140021339Y-101912041D01*
X140073543Y-101866805D01*
X140107762Y-101850849D01*
X140107767Y-101850846D01*
X140112749Y-101848523D01*
X140262363Y-101743762D01*
X140295789Y-101720357D01*
X140295792Y-101720355D01*
X140300300Y-101717198D01*
X140462198Y-101555300D01*
X140468553Y-101546225D01*
X140590366Y-101372257D01*
X140593523Y-101367749D01*
X140595846Y-101362767D01*
X140595849Y-101362762D01*
X140687961Y-101165225D01*
X140687961Y-101165224D01*
X140690284Y-101160243D01*
X140722007Y-101041854D01*
X140748119Y-100944402D01*
X140748119Y-100944400D01*
X140749543Y-100939087D01*
X140769498Y-100711000D01*
X140749543Y-100482913D01*
X140712435Y-100344424D01*
X140691707Y-100267067D01*
X140691706Y-100267065D01*
X140690284Y-100261757D01*
X140680025Y-100239757D01*
X140595849Y-100059238D01*
X140595846Y-100059233D01*
X140593523Y-100054251D01*
X140510859Y-99936195D01*
X140465357Y-99871211D01*
X140465355Y-99871208D01*
X140462198Y-99866700D01*
X140300300Y-99704802D01*
X140295792Y-99701645D01*
X140295789Y-99701643D01*
X140194262Y-99630553D01*
X140112749Y-99573477D01*
X140107767Y-99571154D01*
X140107762Y-99571151D01*
X140073543Y-99555195D01*
X140020258Y-99508278D01*
X140000797Y-99440001D01*
X140021339Y-99372041D01*
X140073543Y-99326805D01*
X140107762Y-99310849D01*
X140107767Y-99310846D01*
X140112749Y-99308523D01*
X140262363Y-99203762D01*
X140295789Y-99180357D01*
X140295792Y-99180355D01*
X140300300Y-99177198D01*
X140462198Y-99015300D01*
X140468553Y-99006225D01*
X140585124Y-98839744D01*
X140593523Y-98827749D01*
X140595846Y-98822767D01*
X140595849Y-98822762D01*
X140687961Y-98625225D01*
X140687961Y-98625224D01*
X140690284Y-98620243D01*
X140711289Y-98541854D01*
X140748119Y-98404402D01*
X140748119Y-98404400D01*
X140749543Y-98399087D01*
X140769498Y-98171000D01*
X140749543Y-97942913D01*
X140723153Y-97844424D01*
X140691707Y-97727067D01*
X140691706Y-97727065D01*
X140690284Y-97721757D01*
X140681912Y-97703803D01*
X140595849Y-97519238D01*
X140595846Y-97519233D01*
X140593523Y-97514251D01*
X140510859Y-97396195D01*
X140465357Y-97331211D01*
X140465355Y-97331208D01*
X140462198Y-97326700D01*
X140300300Y-97164802D01*
X140295792Y-97161645D01*
X140295789Y-97161643D01*
X140210363Y-97101827D01*
X140112749Y-97033477D01*
X140107767Y-97031154D01*
X140107762Y-97031151D01*
X139910225Y-96939039D01*
X139910224Y-96939039D01*
X139905243Y-96936716D01*
X139899935Y-96935294D01*
X139899933Y-96935293D01*
X139689402Y-96878881D01*
X139689400Y-96878881D01*
X139684087Y-96877457D01*
X139456000Y-96857502D01*
X139227913Y-96877457D01*
X139222600Y-96878881D01*
X139222598Y-96878881D01*
X139012067Y-96935293D01*
X139012065Y-96935294D01*
X139006757Y-96936716D01*
X139001776Y-96939039D01*
X139001775Y-96939039D01*
X138804238Y-97031151D01*
X138804233Y-97031154D01*
X138799251Y-97033477D01*
X138701637Y-97101827D01*
X138616211Y-97161643D01*
X138616208Y-97161645D01*
X138611700Y-97164802D01*
X138449802Y-97326700D01*
X138446645Y-97331208D01*
X138446643Y-97331211D01*
X138401141Y-97396195D01*
X138318477Y-97514251D01*
X138316154Y-97519233D01*
X138316151Y-97519238D01*
X138230088Y-97703803D01*
X138221716Y-97721757D01*
X138220294Y-97727065D01*
X138220293Y-97727067D01*
X138188847Y-97844424D01*
X138162457Y-97942913D01*
X138142502Y-98171000D01*
X138162457Y-98399087D01*
X138163881Y-98404400D01*
X138163881Y-98404402D01*
X138200712Y-98541854D01*
X138221716Y-98620243D01*
X138224039Y-98625224D01*
X138224039Y-98625225D01*
X138316151Y-98822762D01*
X138316154Y-98822767D01*
X138318477Y-98827749D01*
X138326876Y-98839744D01*
X138443448Y-99006225D01*
X138449802Y-99015300D01*
X138611700Y-99177198D01*
X138616208Y-99180355D01*
X138616211Y-99180357D01*
X138649637Y-99203762D01*
X138799251Y-99308523D01*
X138804233Y-99310846D01*
X138804238Y-99310849D01*
X138838457Y-99326805D01*
X138891742Y-99373722D01*
X138911203Y-99441999D01*
X138890661Y-99509959D01*
X138838457Y-99555195D01*
X138804238Y-99571151D01*
X138804233Y-99571154D01*
X138799251Y-99573477D01*
X138717738Y-99630553D01*
X138616211Y-99701643D01*
X138616208Y-99701645D01*
X138611700Y-99704802D01*
X138449802Y-99866700D01*
X138446645Y-99871208D01*
X138446643Y-99871211D01*
X138401141Y-99936195D01*
X138318477Y-100054251D01*
X138316154Y-100059233D01*
X138316151Y-100059238D01*
X138231975Y-100239757D01*
X138221716Y-100261757D01*
X138220294Y-100267065D01*
X138220293Y-100267067D01*
X138199565Y-100344424D01*
X138162457Y-100482913D01*
X138142502Y-100711000D01*
X138162457Y-100939087D01*
X138163881Y-100944400D01*
X138163881Y-100944402D01*
X138189994Y-101041854D01*
X138221716Y-101160243D01*
X138224039Y-101165224D01*
X138224039Y-101165225D01*
X138316151Y-101362762D01*
X138316154Y-101362767D01*
X138318477Y-101367749D01*
X138321634Y-101372257D01*
X138443448Y-101546225D01*
X138449802Y-101555300D01*
X138611700Y-101717198D01*
X138616208Y-101720355D01*
X138616211Y-101720357D01*
X138649637Y-101743762D01*
X138799251Y-101848523D01*
X138804233Y-101850846D01*
X138804238Y-101850849D01*
X138838457Y-101866805D01*
X138891742Y-101913722D01*
X138911203Y-101981999D01*
X138890661Y-102049959D01*
X138838457Y-102095195D01*
X138804238Y-102111151D01*
X138804233Y-102111154D01*
X138799251Y-102113477D01*
X138694389Y-102186902D01*
X138616211Y-102241643D01*
X138616208Y-102241645D01*
X138611700Y-102244802D01*
X138449802Y-102406700D01*
X138446645Y-102411208D01*
X138446643Y-102411211D01*
X138420287Y-102448852D01*
X138318477Y-102594251D01*
X138316154Y-102599233D01*
X138316151Y-102599238D01*
X138246621Y-102748347D01*
X138221716Y-102801757D01*
X138220294Y-102807065D01*
X138220293Y-102807067D01*
X138191530Y-102914412D01*
X138162457Y-103022913D01*
X138142502Y-103251000D01*
X138162457Y-103479087D01*
X138163881Y-103484400D01*
X138163881Y-103484402D01*
X138200241Y-103620096D01*
X138221716Y-103700243D01*
X138224039Y-103705224D01*
X138224039Y-103705225D01*
X138316151Y-103902762D01*
X138316154Y-103902767D01*
X138318477Y-103907749D01*
X138332693Y-103928051D01*
X138443448Y-104086225D01*
X138449802Y-104095300D01*
X138611700Y-104257198D01*
X138616208Y-104260355D01*
X138616211Y-104260357D01*
X138649637Y-104283762D01*
X138799251Y-104388523D01*
X138804233Y-104390846D01*
X138804238Y-104390849D01*
X138838457Y-104406805D01*
X138891742Y-104453722D01*
X138911203Y-104521999D01*
X138890661Y-104589959D01*
X138838457Y-104635195D01*
X138804238Y-104651151D01*
X138804233Y-104651154D01*
X138799251Y-104653477D01*
X138694389Y-104726902D01*
X138616211Y-104781643D01*
X138616208Y-104781645D01*
X138611700Y-104784802D01*
X138449802Y-104946700D01*
X138446645Y-104951208D01*
X138446643Y-104951211D01*
X138401141Y-105016195D01*
X138318477Y-105134251D01*
X138316154Y-105139233D01*
X138316151Y-105139238D01*
X138241974Y-105298313D01*
X138221716Y-105341757D01*
X138220294Y-105347065D01*
X138220293Y-105347067D01*
X138173892Y-105520238D01*
X138162457Y-105562913D01*
X138142502Y-105791000D01*
X138162457Y-106019087D01*
X138163881Y-106024400D01*
X138163881Y-106024402D01*
X138185147Y-106103765D01*
X138221716Y-106240243D01*
X138224039Y-106245224D01*
X138224039Y-106245225D01*
X138316151Y-106442762D01*
X138316154Y-106442767D01*
X138318477Y-106447749D01*
X138321634Y-106452257D01*
X138443448Y-106626225D01*
X138449802Y-106635300D01*
X138611700Y-106797198D01*
X138616208Y-106800355D01*
X138616211Y-106800357D01*
X138649637Y-106823762D01*
X138799251Y-106928523D01*
X138804233Y-106930846D01*
X138804238Y-106930849D01*
X138838457Y-106946805D01*
X138891742Y-106993722D01*
X138911203Y-107061999D01*
X138890661Y-107129959D01*
X138838457Y-107175195D01*
X138804238Y-107191151D01*
X138804233Y-107191154D01*
X138799251Y-107193477D01*
X138694389Y-107266902D01*
X138616211Y-107321643D01*
X138616208Y-107321645D01*
X138611700Y-107324802D01*
X138449802Y-107486700D01*
X138446645Y-107491208D01*
X138446643Y-107491211D01*
X138401141Y-107556195D01*
X138318477Y-107674251D01*
X138316154Y-107679233D01*
X138316151Y-107679238D01*
X138301947Y-107709699D01*
X138221716Y-107881757D01*
X138162457Y-108102913D01*
X138142502Y-108331000D01*
X138162457Y-108559087D01*
X138163881Y-108564400D01*
X138163881Y-108564402D01*
X138190170Y-108662511D01*
X138221716Y-108780243D01*
X138224039Y-108785224D01*
X138224039Y-108785225D01*
X138316151Y-108982762D01*
X138316154Y-108982767D01*
X138318477Y-108987749D01*
X138321634Y-108992257D01*
X138443448Y-109166225D01*
X138449802Y-109175300D01*
X138611700Y-109337198D01*
X138616208Y-109340355D01*
X138616211Y-109340357D01*
X138649637Y-109363762D01*
X138799251Y-109468523D01*
X138804233Y-109470846D01*
X138804238Y-109470849D01*
X138838457Y-109486805D01*
X138891742Y-109533722D01*
X138911203Y-109601999D01*
X138890661Y-109669959D01*
X138838457Y-109715195D01*
X138804238Y-109731151D01*
X138804233Y-109731154D01*
X138799251Y-109733477D01*
X138694389Y-109806902D01*
X138616211Y-109861643D01*
X138616208Y-109861645D01*
X138611700Y-109864802D01*
X138449802Y-110026700D01*
X138446645Y-110031208D01*
X138446643Y-110031211D01*
X138401141Y-110096195D01*
X138318477Y-110214251D01*
X138316154Y-110219233D01*
X138316151Y-110219238D01*
X138301947Y-110249699D01*
X138221716Y-110421757D01*
X138162457Y-110642913D01*
X138142502Y-110871000D01*
X138162457Y-111099087D01*
X138163881Y-111104400D01*
X138163881Y-111104402D01*
X138196252Y-111225209D01*
X138221716Y-111320243D01*
X138224039Y-111325224D01*
X138224039Y-111325225D01*
X138316151Y-111522762D01*
X138316154Y-111522767D01*
X138318477Y-111527749D01*
X138321634Y-111532257D01*
X138443448Y-111706225D01*
X138449802Y-111715300D01*
X138611700Y-111877198D01*
X138616208Y-111880355D01*
X138616211Y-111880357D01*
X138649637Y-111903762D01*
X138799251Y-112008523D01*
X138804233Y-112010846D01*
X138804238Y-112010849D01*
X138838457Y-112026805D01*
X138891742Y-112073722D01*
X138911203Y-112141999D01*
X138890661Y-112209959D01*
X138838457Y-112255195D01*
X138804238Y-112271151D01*
X138804233Y-112271154D01*
X138799251Y-112273477D01*
X138694389Y-112346902D01*
X138616211Y-112401643D01*
X138616208Y-112401645D01*
X138611700Y-112404802D01*
X138449802Y-112566700D01*
X138446645Y-112571208D01*
X138446643Y-112571211D01*
X138431685Y-112592573D01*
X138318477Y-112754251D01*
X138316154Y-112759233D01*
X138316151Y-112759238D01*
X138248786Y-112903704D01*
X138221716Y-112961757D01*
X138220294Y-112967065D01*
X138220293Y-112967067D01*
X138195928Y-113057998D01*
X138162457Y-113182913D01*
X138142502Y-113411000D01*
X138162457Y-113639087D01*
X138163881Y-113644400D01*
X138163881Y-113644402D01*
X138167079Y-113656335D01*
X138221716Y-113860243D01*
X138224039Y-113865224D01*
X138224039Y-113865225D01*
X138316151Y-114062762D01*
X138316154Y-114062767D01*
X138318477Y-114067749D01*
X138321634Y-114072257D01*
X138442158Y-114244383D01*
X138449802Y-114255300D01*
X138611700Y-114417198D01*
X138616208Y-114420355D01*
X138616211Y-114420357D01*
X138694389Y-114475098D01*
X138799251Y-114548523D01*
X138804233Y-114550846D01*
X138804238Y-114550849D01*
X138838457Y-114566805D01*
X138891742Y-114613722D01*
X138911203Y-114681999D01*
X138890661Y-114749959D01*
X138838457Y-114795195D01*
X138804238Y-114811151D01*
X138804233Y-114811154D01*
X138799251Y-114813477D01*
X138694389Y-114886902D01*
X138616211Y-114941643D01*
X138616208Y-114941645D01*
X138611700Y-114944802D01*
X138449802Y-115106700D01*
X138318477Y-115294251D01*
X138316154Y-115299233D01*
X138316151Y-115299238D01*
X138253792Y-115432969D01*
X138221716Y-115501757D01*
X138220294Y-115507065D01*
X138220293Y-115507067D01*
X138166949Y-115706150D01*
X138162457Y-115722913D01*
X138142502Y-115951000D01*
X128069498Y-115951000D01*
X128049543Y-115722913D01*
X128045051Y-115706150D01*
X127991707Y-115507067D01*
X127991706Y-115507065D01*
X127990284Y-115501757D01*
X127958208Y-115432969D01*
X127895849Y-115299238D01*
X127895846Y-115299233D01*
X127893523Y-115294251D01*
X127762198Y-115106700D01*
X127600300Y-114944802D01*
X127595792Y-114941645D01*
X127595789Y-114941643D01*
X127517611Y-114886902D01*
X127412749Y-114813477D01*
X127407767Y-114811154D01*
X127407762Y-114811151D01*
X127373543Y-114795195D01*
X127320258Y-114748278D01*
X127300797Y-114680001D01*
X127321339Y-114612041D01*
X127373543Y-114566805D01*
X127407762Y-114550849D01*
X127407767Y-114550846D01*
X127412749Y-114548523D01*
X127517611Y-114475098D01*
X127595789Y-114420357D01*
X127595792Y-114420355D01*
X127600300Y-114417198D01*
X127762198Y-114255300D01*
X127769843Y-114244383D01*
X127890366Y-114072257D01*
X127893523Y-114067749D01*
X127895846Y-114062767D01*
X127895849Y-114062762D01*
X127987961Y-113865225D01*
X127987961Y-113865224D01*
X127990284Y-113860243D01*
X128044922Y-113656335D01*
X128048119Y-113644402D01*
X128048119Y-113644400D01*
X128049543Y-113639087D01*
X128069498Y-113411000D01*
X128049543Y-113182913D01*
X128016072Y-113057998D01*
X127991707Y-112967067D01*
X127991706Y-112967065D01*
X127990284Y-112961757D01*
X127963214Y-112903704D01*
X127895849Y-112759238D01*
X127895846Y-112759233D01*
X127893523Y-112754251D01*
X127780315Y-112592573D01*
X127765357Y-112571211D01*
X127765355Y-112571208D01*
X127762198Y-112566700D01*
X127600300Y-112404802D01*
X127595792Y-112401645D01*
X127595789Y-112401643D01*
X127517611Y-112346902D01*
X127412749Y-112273477D01*
X127407767Y-112271154D01*
X127407762Y-112271151D01*
X127373543Y-112255195D01*
X127320258Y-112208278D01*
X127300797Y-112140001D01*
X127321339Y-112072041D01*
X127373543Y-112026805D01*
X127407762Y-112010849D01*
X127407767Y-112010846D01*
X127412749Y-112008523D01*
X127562363Y-111903762D01*
X127595789Y-111880357D01*
X127595792Y-111880355D01*
X127600300Y-111877198D01*
X127762198Y-111715300D01*
X127768553Y-111706225D01*
X127890366Y-111532257D01*
X127893523Y-111527749D01*
X127895846Y-111522767D01*
X127895849Y-111522762D01*
X127987961Y-111325225D01*
X127987961Y-111325224D01*
X127990284Y-111320243D01*
X128015749Y-111225209D01*
X128048119Y-111104402D01*
X128048119Y-111104400D01*
X128049543Y-111099087D01*
X128069498Y-110871000D01*
X128049543Y-110642913D01*
X127990284Y-110421757D01*
X127910053Y-110249699D01*
X127895849Y-110219238D01*
X127895846Y-110219233D01*
X127893523Y-110214251D01*
X127810859Y-110096195D01*
X127765357Y-110031211D01*
X127765355Y-110031208D01*
X127762198Y-110026700D01*
X127600300Y-109864802D01*
X127595792Y-109861645D01*
X127595789Y-109861643D01*
X127517611Y-109806902D01*
X127412749Y-109733477D01*
X127407767Y-109731154D01*
X127407762Y-109731151D01*
X127373543Y-109715195D01*
X127320258Y-109668278D01*
X127300797Y-109600001D01*
X127321339Y-109532041D01*
X127373543Y-109486805D01*
X127407762Y-109470849D01*
X127407767Y-109470846D01*
X127412749Y-109468523D01*
X127562363Y-109363762D01*
X127595789Y-109340357D01*
X127595792Y-109340355D01*
X127600300Y-109337198D01*
X127762198Y-109175300D01*
X127768553Y-109166225D01*
X127890366Y-108992257D01*
X127893523Y-108987749D01*
X127895846Y-108982767D01*
X127895849Y-108982762D01*
X127987961Y-108785225D01*
X127987961Y-108785224D01*
X127990284Y-108780243D01*
X128021831Y-108662511D01*
X128048119Y-108564402D01*
X128048119Y-108564400D01*
X128049543Y-108559087D01*
X128069498Y-108331000D01*
X128049543Y-108102913D01*
X127990284Y-107881757D01*
X127910053Y-107709699D01*
X127895849Y-107679238D01*
X127895846Y-107679233D01*
X127893523Y-107674251D01*
X127810859Y-107556195D01*
X127765357Y-107491211D01*
X127765355Y-107491208D01*
X127762198Y-107486700D01*
X127600300Y-107324802D01*
X127595792Y-107321645D01*
X127595789Y-107321643D01*
X127517611Y-107266902D01*
X127412749Y-107193477D01*
X127407767Y-107191154D01*
X127407762Y-107191151D01*
X127373543Y-107175195D01*
X127320258Y-107128278D01*
X127300797Y-107060001D01*
X127321339Y-106992041D01*
X127373543Y-106946805D01*
X127407762Y-106930849D01*
X127407767Y-106930846D01*
X127412749Y-106928523D01*
X127562363Y-106823762D01*
X127595789Y-106800357D01*
X127595792Y-106800355D01*
X127600300Y-106797198D01*
X127762198Y-106635300D01*
X127768553Y-106626225D01*
X127890366Y-106452257D01*
X127893523Y-106447749D01*
X127895846Y-106442767D01*
X127895849Y-106442762D01*
X127987961Y-106245225D01*
X127987961Y-106245224D01*
X127990284Y-106240243D01*
X128026854Y-106103765D01*
X128048119Y-106024402D01*
X128048119Y-106024400D01*
X128049543Y-106019087D01*
X128069498Y-105791000D01*
X128049543Y-105562913D01*
X128038108Y-105520238D01*
X127991707Y-105347067D01*
X127991706Y-105347065D01*
X127990284Y-105341757D01*
X127970026Y-105298313D01*
X127895849Y-105139238D01*
X127895846Y-105139233D01*
X127893523Y-105134251D01*
X127810859Y-105016195D01*
X127765357Y-104951211D01*
X127765355Y-104951208D01*
X127762198Y-104946700D01*
X127600300Y-104784802D01*
X127595792Y-104781645D01*
X127595789Y-104781643D01*
X127517611Y-104726902D01*
X127412749Y-104653477D01*
X127407767Y-104651154D01*
X127407762Y-104651151D01*
X127373543Y-104635195D01*
X127320258Y-104588278D01*
X127300797Y-104520001D01*
X127321339Y-104452041D01*
X127373543Y-104406805D01*
X127407762Y-104390849D01*
X127407767Y-104390846D01*
X127412749Y-104388523D01*
X127562363Y-104283762D01*
X127595789Y-104260357D01*
X127595792Y-104260355D01*
X127600300Y-104257198D01*
X127762198Y-104095300D01*
X127768553Y-104086225D01*
X127879307Y-103928051D01*
X127893523Y-103907749D01*
X127895846Y-103902767D01*
X127895849Y-103902762D01*
X127987961Y-103705225D01*
X127987961Y-103705224D01*
X127990284Y-103700243D01*
X128011760Y-103620096D01*
X128048119Y-103484402D01*
X128048119Y-103484400D01*
X128049543Y-103479087D01*
X128069498Y-103251000D01*
X128049543Y-103022913D01*
X128020470Y-102914412D01*
X127991707Y-102807067D01*
X127991706Y-102807065D01*
X127990284Y-102801757D01*
X127965379Y-102748347D01*
X127895849Y-102599238D01*
X127895846Y-102599233D01*
X127893523Y-102594251D01*
X127791713Y-102448852D01*
X127765357Y-102411211D01*
X127765355Y-102411208D01*
X127762198Y-102406700D01*
X127600300Y-102244802D01*
X127595792Y-102241645D01*
X127595789Y-102241643D01*
X127517611Y-102186902D01*
X127412749Y-102113477D01*
X127407767Y-102111154D01*
X127407762Y-102111151D01*
X127372951Y-102094919D01*
X127319666Y-102048002D01*
X127300205Y-101979725D01*
X127320747Y-101911765D01*
X127372951Y-101866529D01*
X127407511Y-101850414D01*
X127417007Y-101844931D01*
X127595467Y-101719972D01*
X127603875Y-101712916D01*
X127757916Y-101558875D01*
X127764972Y-101550467D01*
X127889931Y-101372007D01*
X127895414Y-101362511D01*
X127987490Y-101165053D01*
X127991236Y-101154761D01*
X128037394Y-100982497D01*
X128037058Y-100968401D01*
X128029116Y-100965000D01*
X125488033Y-100965000D01*
X125474502Y-100968973D01*
X125473273Y-100977522D01*
X125520764Y-101154761D01*
X125524510Y-101165053D01*
X125616586Y-101362511D01*
X125622069Y-101372007D01*
X125747028Y-101550467D01*
X125754084Y-101558875D01*
X125908125Y-101712916D01*
X125916533Y-101719972D01*
X126094993Y-101844931D01*
X126104489Y-101850414D01*
X126139049Y-101866529D01*
X126192334Y-101913446D01*
X126211795Y-101981723D01*
X126191253Y-102049683D01*
X126139049Y-102094919D01*
X126104238Y-102111151D01*
X126104233Y-102111154D01*
X126099251Y-102113477D01*
X125994389Y-102186902D01*
X125916211Y-102241643D01*
X125916208Y-102241645D01*
X125911700Y-102244802D01*
X125749802Y-102406700D01*
X125746645Y-102411208D01*
X125746643Y-102411211D01*
X125720287Y-102448852D01*
X125618477Y-102594251D01*
X125616154Y-102599233D01*
X125616151Y-102599238D01*
X125546621Y-102748347D01*
X125521716Y-102801757D01*
X125520294Y-102807065D01*
X125520293Y-102807067D01*
X125491530Y-102914412D01*
X125462457Y-103022913D01*
X125442502Y-103251000D01*
X125462457Y-103479087D01*
X125463881Y-103484400D01*
X125463881Y-103484402D01*
X125500241Y-103620096D01*
X125521716Y-103700243D01*
X125524039Y-103705224D01*
X125524039Y-103705225D01*
X125616151Y-103902762D01*
X125616154Y-103902767D01*
X125618477Y-103907749D01*
X125632693Y-103928051D01*
X125743448Y-104086225D01*
X125749802Y-104095300D01*
X125911700Y-104257198D01*
X125916208Y-104260355D01*
X125916211Y-104260357D01*
X125949637Y-104283762D01*
X126099251Y-104388523D01*
X126104233Y-104390846D01*
X126104238Y-104390849D01*
X126138457Y-104406805D01*
X126191742Y-104453722D01*
X126211203Y-104521999D01*
X126190661Y-104589959D01*
X126138457Y-104635195D01*
X126104238Y-104651151D01*
X126104233Y-104651154D01*
X126099251Y-104653477D01*
X125994389Y-104726902D01*
X125916211Y-104781643D01*
X125916208Y-104781645D01*
X125911700Y-104784802D01*
X125749802Y-104946700D01*
X125746645Y-104951208D01*
X125746643Y-104951211D01*
X125701141Y-105016195D01*
X125618477Y-105134251D01*
X125616154Y-105139233D01*
X125616151Y-105139238D01*
X125541974Y-105298313D01*
X125521716Y-105341757D01*
X125520294Y-105347065D01*
X125520293Y-105347067D01*
X125473892Y-105520238D01*
X125462457Y-105562913D01*
X125442502Y-105791000D01*
X125462457Y-106019087D01*
X125463881Y-106024400D01*
X125463881Y-106024402D01*
X125485147Y-106103765D01*
X125521716Y-106240243D01*
X125524039Y-106245224D01*
X125524039Y-106245225D01*
X125616151Y-106442762D01*
X125616154Y-106442767D01*
X125618477Y-106447749D01*
X125621634Y-106452257D01*
X125743448Y-106626225D01*
X125749802Y-106635300D01*
X125911700Y-106797198D01*
X125916208Y-106800355D01*
X125916211Y-106800357D01*
X125949637Y-106823762D01*
X126099251Y-106928523D01*
X126104233Y-106930846D01*
X126104238Y-106930849D01*
X126138457Y-106946805D01*
X126191742Y-106993722D01*
X126211203Y-107061999D01*
X126190661Y-107129959D01*
X126138457Y-107175195D01*
X126104238Y-107191151D01*
X126104233Y-107191154D01*
X126099251Y-107193477D01*
X125994389Y-107266902D01*
X125916211Y-107321643D01*
X125916208Y-107321645D01*
X125911700Y-107324802D01*
X125749802Y-107486700D01*
X125746645Y-107491208D01*
X125746643Y-107491211D01*
X125701141Y-107556195D01*
X125618477Y-107674251D01*
X125616154Y-107679233D01*
X125616151Y-107679238D01*
X125601947Y-107709699D01*
X125521716Y-107881757D01*
X125462457Y-108102913D01*
X125442502Y-108331000D01*
X125462457Y-108559087D01*
X125463881Y-108564400D01*
X125463881Y-108564402D01*
X125490170Y-108662511D01*
X125521716Y-108780243D01*
X125524039Y-108785224D01*
X125524039Y-108785225D01*
X125616151Y-108982762D01*
X125616154Y-108982767D01*
X125618477Y-108987749D01*
X125621634Y-108992257D01*
X125743448Y-109166225D01*
X125749802Y-109175300D01*
X125911700Y-109337198D01*
X125916208Y-109340355D01*
X125916211Y-109340357D01*
X125949637Y-109363762D01*
X126099251Y-109468523D01*
X126104233Y-109470846D01*
X126104238Y-109470849D01*
X126138457Y-109486805D01*
X126191742Y-109533722D01*
X126211203Y-109601999D01*
X126190661Y-109669959D01*
X126138457Y-109715195D01*
X126104238Y-109731151D01*
X126104233Y-109731154D01*
X126099251Y-109733477D01*
X125994389Y-109806902D01*
X125916211Y-109861643D01*
X125916208Y-109861645D01*
X125911700Y-109864802D01*
X125749802Y-110026700D01*
X125746645Y-110031208D01*
X125746643Y-110031211D01*
X125701141Y-110096195D01*
X125618477Y-110214251D01*
X125616154Y-110219233D01*
X125616151Y-110219238D01*
X125601947Y-110249699D01*
X125521716Y-110421757D01*
X125462457Y-110642913D01*
X125442502Y-110871000D01*
X125462457Y-111099087D01*
X125463881Y-111104400D01*
X125463881Y-111104402D01*
X125496252Y-111225209D01*
X125521716Y-111320243D01*
X125524039Y-111325224D01*
X125524039Y-111325225D01*
X125616151Y-111522762D01*
X125616154Y-111522767D01*
X125618477Y-111527749D01*
X125621634Y-111532257D01*
X125743448Y-111706225D01*
X125749802Y-111715300D01*
X125911700Y-111877198D01*
X125916208Y-111880355D01*
X125916211Y-111880357D01*
X125949637Y-111903762D01*
X126099251Y-112008523D01*
X126104233Y-112010846D01*
X126104238Y-112010849D01*
X126138457Y-112026805D01*
X126191742Y-112073722D01*
X126211203Y-112141999D01*
X126190661Y-112209959D01*
X126138457Y-112255195D01*
X126104238Y-112271151D01*
X126104233Y-112271154D01*
X126099251Y-112273477D01*
X125994389Y-112346902D01*
X125916211Y-112401643D01*
X125916208Y-112401645D01*
X125911700Y-112404802D01*
X125749802Y-112566700D01*
X125746645Y-112571208D01*
X125746643Y-112571211D01*
X125731685Y-112592573D01*
X125618477Y-112754251D01*
X125616154Y-112759233D01*
X125616151Y-112759238D01*
X125548786Y-112903704D01*
X125521716Y-112961757D01*
X125520294Y-112967065D01*
X125520293Y-112967067D01*
X125495928Y-113057998D01*
X125462457Y-113182913D01*
X125442502Y-113411000D01*
X125462457Y-113639087D01*
X125463881Y-113644400D01*
X125463881Y-113644402D01*
X125467079Y-113656335D01*
X125521716Y-113860243D01*
X125524039Y-113865224D01*
X125524039Y-113865225D01*
X125616151Y-114062762D01*
X125616154Y-114062767D01*
X125618477Y-114067749D01*
X125621634Y-114072257D01*
X125742158Y-114244383D01*
X125749802Y-114255300D01*
X125911700Y-114417198D01*
X125916208Y-114420355D01*
X125916211Y-114420357D01*
X125994389Y-114475098D01*
X126099251Y-114548523D01*
X126104233Y-114550846D01*
X126104238Y-114550849D01*
X126138457Y-114566805D01*
X126191742Y-114613722D01*
X126211203Y-114681999D01*
X126190661Y-114749959D01*
X126138457Y-114795195D01*
X126104238Y-114811151D01*
X126104233Y-114811154D01*
X126099251Y-114813477D01*
X125994389Y-114886902D01*
X125916211Y-114941643D01*
X125916208Y-114941645D01*
X125911700Y-114944802D01*
X125749802Y-115106700D01*
X125618477Y-115294251D01*
X125616154Y-115299233D01*
X125616151Y-115299238D01*
X125553792Y-115432969D01*
X125521716Y-115501757D01*
X125520294Y-115507065D01*
X125520293Y-115507067D01*
X125466949Y-115706150D01*
X125462457Y-115722913D01*
X125442502Y-115951000D01*
X119701108Y-115951000D01*
X119783164Y-115857434D01*
X119783169Y-115857427D01*
X119785881Y-115854335D01*
X119946721Y-115613619D01*
X120074766Y-115353970D01*
X120167825Y-115079828D01*
X120176222Y-115037617D01*
X120223500Y-114799929D01*
X120223500Y-114799926D01*
X120224304Y-114795886D01*
X120227315Y-114749959D01*
X120242969Y-114511119D01*
X120243239Y-114507000D01*
X120233186Y-114353624D01*
X120224574Y-114222229D01*
X120224573Y-114222225D01*
X120224304Y-114218114D01*
X120167825Y-113934172D01*
X120142730Y-113860243D01*
X120076090Y-113663930D01*
X120076089Y-113663928D01*
X120074766Y-113660030D01*
X119946721Y-113400381D01*
X119785881Y-113159665D01*
X119783169Y-113156573D01*
X119783164Y-113156566D01*
X119597705Y-112945093D01*
X119594996Y-112942004D01*
X119549824Y-112902389D01*
X119380435Y-112753837D01*
X119380429Y-112753832D01*
X119377335Y-112751119D01*
X119136620Y-112590279D01*
X119132921Y-112588455D01*
X119132916Y-112588452D01*
X118880665Y-112464056D01*
X118880663Y-112464055D01*
X118876970Y-112462234D01*
X118719262Y-112408699D01*
X118606738Y-112370502D01*
X118606734Y-112370501D01*
X118602828Y-112369175D01*
X118598784Y-112368371D01*
X118598778Y-112368369D01*
X118322929Y-112313500D01*
X118322926Y-112313500D01*
X118318886Y-112312696D01*
X118314775Y-112312427D01*
X118314771Y-112312426D01*
X118034119Y-112294031D01*
X118030000Y-112293761D01*
X118025881Y-112294031D01*
X117745229Y-112312426D01*
X117745225Y-112312427D01*
X117741114Y-112312696D01*
X117737074Y-112313500D01*
X117737071Y-112313500D01*
X117461222Y-112368369D01*
X117461216Y-112368371D01*
X117457172Y-112369175D01*
X117453266Y-112370501D01*
X117453262Y-112370502D01*
X117340738Y-112408699D01*
X117183030Y-112462234D01*
X117179337Y-112464055D01*
X117179335Y-112464056D01*
X117131376Y-112487707D01*
X116923381Y-112590279D01*
X116682665Y-112751119D01*
X116679573Y-112753831D01*
X116679566Y-112753836D01*
X116510176Y-112902389D01*
X116465004Y-112942004D01*
X116462295Y-112945093D01*
X116276836Y-113156566D01*
X116276831Y-113156573D01*
X116274119Y-113159665D01*
X116113279Y-113400381D01*
X115985234Y-113660030D01*
X115983911Y-113663928D01*
X115983910Y-113663930D01*
X115917271Y-113860243D01*
X115892175Y-113934172D01*
X115835696Y-114218114D01*
X115835427Y-114222225D01*
X115835426Y-114222229D01*
X115824875Y-114383207D01*
X115818805Y-114475810D01*
X115816761Y-114507000D01*
X113538500Y-114507000D01*
X113538500Y-104854380D01*
X117685502Y-104854380D01*
X117705457Y-105082467D01*
X117706881Y-105087780D01*
X117706881Y-105087782D01*
X117719333Y-105134251D01*
X117764716Y-105303623D01*
X117767039Y-105308604D01*
X117767039Y-105308605D01*
X117859151Y-105506142D01*
X117859154Y-105506147D01*
X117861477Y-105511129D01*
X117894015Y-105557598D01*
X117976944Y-105676032D01*
X117992802Y-105698680D01*
X118138502Y-105844380D01*
X118172528Y-105906692D01*
X118167463Y-105977507D01*
X118124916Y-106034343D01*
X118088263Y-106051512D01*
X118088684Y-106052635D01*
X117952295Y-106103765D01*
X117835739Y-106191119D01*
X117748385Y-106307675D01*
X117697255Y-106444064D01*
X117690500Y-106506246D01*
X117690500Y-108202514D01*
X117697255Y-108264696D01*
X117748385Y-108401085D01*
X117835739Y-108517641D01*
X117952295Y-108604995D01*
X118088684Y-108656125D01*
X118150866Y-108662880D01*
X119847134Y-108662880D01*
X119909316Y-108656125D01*
X120045705Y-108604995D01*
X120162261Y-108517641D01*
X120249615Y-108401085D01*
X120300745Y-108264696D01*
X120307500Y-108202514D01*
X120307500Y-106506246D01*
X120300745Y-106444064D01*
X120249615Y-106307675D01*
X120162261Y-106191119D01*
X120045705Y-106103765D01*
X119909316Y-106052635D01*
X119910046Y-106050689D01*
X119857795Y-106020835D01*
X119824979Y-105957877D01*
X119831409Y-105887173D01*
X119859498Y-105844380D01*
X120005198Y-105698680D01*
X120021057Y-105676032D01*
X120103985Y-105557598D01*
X120136523Y-105511129D01*
X120138846Y-105506147D01*
X120138849Y-105506142D01*
X120230961Y-105308605D01*
X120230961Y-105308604D01*
X120233284Y-105303623D01*
X120278668Y-105134251D01*
X120291119Y-105087782D01*
X120291119Y-105087780D01*
X120292543Y-105082467D01*
X120312498Y-104854380D01*
X120292543Y-104626293D01*
X120258675Y-104499895D01*
X120234707Y-104410447D01*
X120234706Y-104410445D01*
X120233284Y-104405137D01*
X120230961Y-104400155D01*
X120138849Y-104202618D01*
X120138846Y-104202613D01*
X120136523Y-104197631D01*
X120036251Y-104054428D01*
X120008357Y-104014591D01*
X120008355Y-104014588D01*
X120005198Y-104010080D01*
X119843300Y-103848182D01*
X119838792Y-103845025D01*
X119838789Y-103845023D01*
X119760611Y-103790282D01*
X119655749Y-103716857D01*
X119650767Y-103714534D01*
X119650762Y-103714531D01*
X119453225Y-103622419D01*
X119453224Y-103622419D01*
X119448243Y-103620096D01*
X119442935Y-103618674D01*
X119442933Y-103618673D01*
X119232402Y-103562261D01*
X119232400Y-103562261D01*
X119227087Y-103560837D01*
X118999000Y-103540882D01*
X118770913Y-103560837D01*
X118765600Y-103562261D01*
X118765598Y-103562261D01*
X118555067Y-103618673D01*
X118555065Y-103618674D01*
X118549757Y-103620096D01*
X118544776Y-103622419D01*
X118544775Y-103622419D01*
X118347238Y-103714531D01*
X118347233Y-103714534D01*
X118342251Y-103716857D01*
X118237389Y-103790282D01*
X118159211Y-103845023D01*
X118159208Y-103845025D01*
X118154700Y-103848182D01*
X117992802Y-104010080D01*
X117989645Y-104014588D01*
X117989643Y-104014591D01*
X117961749Y-104054428D01*
X117861477Y-104197631D01*
X117859154Y-104202613D01*
X117859151Y-104202618D01*
X117767039Y-104400155D01*
X117764716Y-104405137D01*
X117763294Y-104410445D01*
X117763293Y-104410447D01*
X117739325Y-104499895D01*
X117705457Y-104626293D01*
X117685502Y-104854380D01*
X113538500Y-104854380D01*
X113538500Y-99019134D01*
X125447500Y-99019134D01*
X125454255Y-99081316D01*
X125505385Y-99217705D01*
X125592739Y-99334261D01*
X125709295Y-99421615D01*
X125845684Y-99472745D01*
X125857229Y-99473999D01*
X125859910Y-99475113D01*
X125861222Y-99475425D01*
X125861172Y-99475637D01*
X125922790Y-99501238D01*
X125963218Y-99559599D01*
X125965677Y-99630553D01*
X125929384Y-99691572D01*
X125918775Y-99700147D01*
X125908125Y-99709084D01*
X125754084Y-99863125D01*
X125747028Y-99871533D01*
X125622069Y-100049993D01*
X125616586Y-100059489D01*
X125524510Y-100256947D01*
X125520764Y-100267239D01*
X125474606Y-100439503D01*
X125474942Y-100453599D01*
X125482884Y-100457000D01*
X128023967Y-100457000D01*
X128037498Y-100453027D01*
X128038727Y-100444478D01*
X127991236Y-100267239D01*
X127987490Y-100256947D01*
X127895414Y-100059489D01*
X127889931Y-100049993D01*
X127764972Y-99871533D01*
X127757916Y-99863125D01*
X127603875Y-99709084D01*
X127591254Y-99698493D01*
X127592108Y-99697475D01*
X127551776Y-99647016D01*
X127544468Y-99576397D01*
X127576500Y-99513037D01*
X127637702Y-99477053D01*
X127654762Y-99474000D01*
X127666316Y-99472745D01*
X127802705Y-99421615D01*
X127919261Y-99334261D01*
X128006615Y-99217705D01*
X128057745Y-99081316D01*
X128064500Y-99019134D01*
X128064500Y-97322866D01*
X128057745Y-97260684D01*
X128006615Y-97124295D01*
X127919261Y-97007739D01*
X127802705Y-96920385D01*
X127666316Y-96869255D01*
X127604134Y-96862500D01*
X125907866Y-96862500D01*
X125845684Y-96869255D01*
X125709295Y-96920385D01*
X125592739Y-97007739D01*
X125505385Y-97124295D01*
X125454255Y-97260684D01*
X125447500Y-97322866D01*
X125447500Y-99019134D01*
X113538500Y-99019134D01*
X113538500Y-87234918D01*
X131431917Y-87234918D01*
X131447682Y-87508320D01*
X131448507Y-87512525D01*
X131448508Y-87512533D01*
X131454643Y-87543803D01*
X131500405Y-87777053D01*
X131501792Y-87781103D01*
X131501793Y-87781108D01*
X131557138Y-87942757D01*
X131589112Y-88036144D01*
X131712160Y-88280799D01*
X131714586Y-88284328D01*
X131714589Y-88284334D01*
X131864843Y-88502953D01*
X131867274Y-88506490D01*
X132051582Y-88709043D01*
X132261675Y-88884707D01*
X132265316Y-88886991D01*
X132490024Y-89027951D01*
X132490028Y-89027953D01*
X132493664Y-89030234D01*
X132561544Y-89060883D01*
X132739345Y-89141164D01*
X132739349Y-89141166D01*
X132743257Y-89142930D01*
X132747377Y-89144150D01*
X132747376Y-89144150D01*
X133001723Y-89219491D01*
X133001727Y-89219492D01*
X133005836Y-89220709D01*
X133010070Y-89221357D01*
X133010075Y-89221358D01*
X133272298Y-89261483D01*
X133272300Y-89261483D01*
X133276540Y-89262132D01*
X133415912Y-89264322D01*
X133546071Y-89266367D01*
X133546077Y-89266367D01*
X133550362Y-89266434D01*
X133822235Y-89233534D01*
X134087127Y-89164041D01*
X134091087Y-89162401D01*
X134091092Y-89162399D01*
X134213632Y-89111641D01*
X134340136Y-89059241D01*
X134576582Y-88921073D01*
X134792089Y-88752094D01*
X134833809Y-88709043D01*
X134979686Y-88558509D01*
X134982669Y-88555431D01*
X134985202Y-88551983D01*
X134985206Y-88551978D01*
X135142257Y-88338178D01*
X135144795Y-88334723D01*
X135172154Y-88284334D01*
X135273418Y-88097830D01*
X135273419Y-88097828D01*
X135275468Y-88094054D01*
X135372269Y-87837877D01*
X135433407Y-87570933D01*
X135435481Y-87547700D01*
X135457531Y-87300627D01*
X135457531Y-87300625D01*
X135457751Y-87298161D01*
X135458193Y-87256000D01*
X135453759Y-87190959D01*
X135439859Y-86987055D01*
X135439858Y-86987049D01*
X135439567Y-86982778D01*
X135413768Y-86858198D01*
X135391257Y-86749500D01*
X135384032Y-86714612D01*
X135292617Y-86456465D01*
X135167013Y-86213112D01*
X135157040Y-86198921D01*
X135018489Y-86001783D01*
X135009545Y-85989057D01*
X134876011Y-85845357D01*
X134826046Y-85791588D01*
X134826043Y-85791585D01*
X134823125Y-85788445D01*
X134819810Y-85785731D01*
X134819806Y-85785728D01*
X134628802Y-85629393D01*
X134611205Y-85614990D01*
X134377704Y-85471901D01*
X134373768Y-85470173D01*
X134130873Y-85363549D01*
X134130869Y-85363548D01*
X134126945Y-85361825D01*
X134003897Y-85326774D01*
X148019102Y-85326774D01*
X148019302Y-85332103D01*
X148019302Y-85332105D01*
X148022154Y-85408067D01*
X148027751Y-85557158D01*
X148075093Y-85782791D01*
X148077051Y-85787750D01*
X148077052Y-85787752D01*
X148148999Y-85969931D01*
X148159776Y-85997221D01*
X148279377Y-86194317D01*
X148282874Y-86198347D01*
X148369438Y-86298103D01*
X148430477Y-86368445D01*
X148434608Y-86371832D01*
X148604627Y-86511240D01*
X148604633Y-86511244D01*
X148608755Y-86514624D01*
X148613391Y-86517263D01*
X148613394Y-86517265D01*
X148722422Y-86579327D01*
X148809114Y-86628675D01*
X149025825Y-86707337D01*
X149031074Y-86708286D01*
X149031077Y-86708287D01*
X149248608Y-86747623D01*
X149248615Y-86747624D01*
X149252692Y-86748361D01*
X149270414Y-86749197D01*
X149275356Y-86749430D01*
X149275363Y-86749430D01*
X149276844Y-86749500D01*
X149688890Y-86749500D01*
X149755809Y-86743822D01*
X149855409Y-86735371D01*
X149855413Y-86735370D01*
X149860720Y-86734920D01*
X149865875Y-86733582D01*
X149865881Y-86733581D01*
X150078703Y-86678343D01*
X150078707Y-86678342D01*
X150083872Y-86677001D01*
X150088738Y-86674809D01*
X150088741Y-86674808D01*
X150289202Y-86584507D01*
X150294075Y-86582312D01*
X150485319Y-86453559D01*
X150502509Y-86437161D01*
X150639764Y-86306225D01*
X150652135Y-86294424D01*
X150789754Y-86109458D01*
X150894240Y-85903949D01*
X150912434Y-85845357D01*
X150961024Y-85688871D01*
X150962607Y-85683773D01*
X150972020Y-85612751D01*
X150992198Y-85460511D01*
X150992198Y-85460506D01*
X150992898Y-85455226D01*
X150984249Y-85224842D01*
X150936907Y-84999209D01*
X150891072Y-84883148D01*
X150854185Y-84789744D01*
X150854184Y-84789742D01*
X150852224Y-84784779D01*
X150829242Y-84746905D01*
X150759955Y-84632724D01*
X150732623Y-84587683D01*
X150669311Y-84514722D01*
X150585023Y-84417588D01*
X150585021Y-84417586D01*
X150581523Y-84413555D01*
X150539970Y-84379484D01*
X150407373Y-84270760D01*
X150407367Y-84270756D01*
X150403245Y-84267376D01*
X150398602Y-84264733D01*
X150371265Y-84249171D01*
X150321959Y-84198088D01*
X150308098Y-84128458D01*
X150334082Y-84062387D01*
X150363232Y-84035149D01*
X150480578Y-83956148D01*
X150488870Y-83949481D01*
X150647900Y-83797772D01*
X150654941Y-83789814D01*
X150786141Y-83613475D01*
X150791745Y-83604438D01*
X150891357Y-83408516D01*
X150895357Y-83398665D01*
X150960534Y-83188760D01*
X150962817Y-83178376D01*
X150964861Y-83162957D01*
X150962665Y-83148793D01*
X150949478Y-83145000D01*
X148064808Y-83145000D01*
X148051277Y-83148973D01*
X148049752Y-83159580D01*
X148074477Y-83277421D01*
X148077537Y-83287617D01*
X148158263Y-83492029D01*
X148162994Y-83501561D01*
X148277016Y-83689462D01*
X148283280Y-83698052D01*
X148427327Y-83864052D01*
X148434958Y-83871472D01*
X148604911Y-84010826D01*
X148613674Y-84016848D01*
X148640711Y-84032238D01*
X148690018Y-84083320D01*
X148703880Y-84152951D01*
X148677897Y-84219022D01*
X148648747Y-84246261D01*
X148644425Y-84249171D01*
X148526681Y-84328441D01*
X148359865Y-84487576D01*
X148222246Y-84672542D01*
X148219830Y-84677293D01*
X148219828Y-84677297D01*
X148200925Y-84714477D01*
X148117760Y-84878051D01*
X148116178Y-84883145D01*
X148116177Y-84883148D01*
X148076102Y-85012211D01*
X148049393Y-85098227D01*
X148048692Y-85103516D01*
X148024967Y-85282525D01*
X148019102Y-85326774D01*
X134003897Y-85326774D01*
X133863566Y-85286800D01*
X133859324Y-85286196D01*
X133859318Y-85286195D01*
X133658834Y-85257662D01*
X133592443Y-85248213D01*
X133448589Y-85247460D01*
X133322877Y-85246802D01*
X133322871Y-85246802D01*
X133318591Y-85246780D01*
X133314347Y-85247339D01*
X133314343Y-85247339D01*
X133195302Y-85263011D01*
X133047078Y-85282525D01*
X133042938Y-85283658D01*
X133042936Y-85283658D01*
X133019560Y-85290053D01*
X132782928Y-85354788D01*
X132778980Y-85356472D01*
X132534982Y-85460546D01*
X132534978Y-85460548D01*
X132531030Y-85462232D01*
X132480040Y-85492749D01*
X132299725Y-85600664D01*
X132299721Y-85600667D01*
X132296043Y-85602868D01*
X132082318Y-85774094D01*
X132065717Y-85791588D01*
X131941902Y-85922062D01*
X131893808Y-85972742D01*
X131734002Y-86195136D01*
X131605857Y-86437161D01*
X131604385Y-86441184D01*
X131604383Y-86441188D01*
X131577509Y-86514624D01*
X131511743Y-86694337D01*
X131453404Y-86961907D01*
X131431917Y-87234918D01*
X113538500Y-87234918D01*
X113538500Y-80326774D01*
X148019102Y-80326774D01*
X148027751Y-80557158D01*
X148075093Y-80782791D01*
X148159776Y-80997221D01*
X148279377Y-81194317D01*
X148282874Y-81198347D01*
X148369438Y-81298103D01*
X148430477Y-81368445D01*
X148434608Y-81371832D01*
X148604627Y-81511240D01*
X148604633Y-81511244D01*
X148608755Y-81514624D01*
X148613398Y-81517267D01*
X148640735Y-81532829D01*
X148690041Y-81583912D01*
X148703902Y-81653542D01*
X148677918Y-81719613D01*
X148648768Y-81746851D01*
X148531422Y-81825852D01*
X148523130Y-81832519D01*
X148364100Y-81984228D01*
X148357059Y-81992186D01*
X148225859Y-82168525D01*
X148220255Y-82177562D01*
X148120643Y-82373484D01*
X148116643Y-82383335D01*
X148051466Y-82593240D01*
X148049183Y-82603624D01*
X148047139Y-82619043D01*
X148049335Y-82633207D01*
X148062522Y-82637000D01*
X150947192Y-82637000D01*
X150960723Y-82633027D01*
X150962248Y-82622420D01*
X150937523Y-82504579D01*
X150934463Y-82494383D01*
X150853737Y-82289971D01*
X150849006Y-82280439D01*
X150734984Y-82092538D01*
X150728720Y-82083948D01*
X150584673Y-81917948D01*
X150577042Y-81910528D01*
X150407089Y-81771174D01*
X150398326Y-81765152D01*
X150371289Y-81749762D01*
X150321982Y-81698680D01*
X150308120Y-81629049D01*
X150334103Y-81562978D01*
X150363253Y-81535739D01*
X150416532Y-81499869D01*
X150485319Y-81453559D01*
X150652135Y-81294424D01*
X150789754Y-81109458D01*
X150894240Y-80903949D01*
X150930321Y-80787752D01*
X150961024Y-80688871D01*
X150962607Y-80683773D01*
X150963308Y-80678484D01*
X150992198Y-80460511D01*
X150992198Y-80460506D01*
X150992898Y-80455226D01*
X150984249Y-80224842D01*
X150936907Y-79999209D01*
X150852224Y-79784779D01*
X150840709Y-79765802D01*
X150735390Y-79592243D01*
X150732623Y-79587683D01*
X150659138Y-79502999D01*
X150585023Y-79417588D01*
X150585021Y-79417586D01*
X150581523Y-79413555D01*
X150523972Y-79366366D01*
X150407373Y-79270760D01*
X150407367Y-79270756D01*
X150403245Y-79267376D01*
X150371750Y-79249448D01*
X150322445Y-79198368D01*
X150308583Y-79128738D01*
X150334566Y-79062667D01*
X150363716Y-79035427D01*
X150399642Y-79011240D01*
X150485319Y-78953559D01*
X150652135Y-78794424D01*
X150789754Y-78609458D01*
X150894240Y-78403949D01*
X150930321Y-78287752D01*
X150961024Y-78188871D01*
X150962607Y-78183773D01*
X150963308Y-78178484D01*
X150992198Y-77960511D01*
X150992198Y-77960506D01*
X150992898Y-77955226D01*
X150984249Y-77724842D01*
X150936907Y-77499209D01*
X150852224Y-77284779D01*
X150732623Y-77087683D01*
X150656970Y-77000500D01*
X150585023Y-76917588D01*
X150585021Y-76917586D01*
X150581523Y-76913555D01*
X150545880Y-76884330D01*
X150505886Y-76825671D01*
X150503954Y-76754701D01*
X150540698Y-76693952D01*
X150559468Y-76679752D01*
X150699120Y-76593332D01*
X150705348Y-76589478D01*
X150830305Y-76464303D01*
X150859780Y-76416486D01*
X150919275Y-76319968D01*
X150919276Y-76319966D01*
X150923115Y-76313738D01*
X150978797Y-76145861D01*
X150989500Y-76041400D01*
X150989500Y-74740600D01*
X150988712Y-74733008D01*
X150979238Y-74641692D01*
X150979237Y-74641688D01*
X150978526Y-74634834D01*
X150922550Y-74467054D01*
X150829478Y-74316652D01*
X150704303Y-74191695D01*
X150659440Y-74164041D01*
X150559968Y-74102725D01*
X150559966Y-74102724D01*
X150553738Y-74098885D01*
X150439165Y-74060883D01*
X150392389Y-74045368D01*
X150392387Y-74045368D01*
X150385861Y-74043203D01*
X150379025Y-74042503D01*
X150379022Y-74042502D01*
X150335969Y-74038091D01*
X150281400Y-74032500D01*
X148730600Y-74032500D01*
X148727354Y-74032837D01*
X148727350Y-74032837D01*
X148631692Y-74042762D01*
X148631688Y-74042763D01*
X148624834Y-74043474D01*
X148618298Y-74045655D01*
X148618296Y-74045655D01*
X148572653Y-74060883D01*
X148457054Y-74099450D01*
X148306652Y-74192522D01*
X148181695Y-74317697D01*
X148177855Y-74323927D01*
X148177854Y-74323928D01*
X148095386Y-74457716D01*
X148088885Y-74468262D01*
X148033203Y-74636139D01*
X148032503Y-74642975D01*
X148032502Y-74642978D01*
X148031403Y-74653703D01*
X148022500Y-74740600D01*
X148022500Y-76041400D01*
X148033474Y-76147166D01*
X148089450Y-76314946D01*
X148182522Y-76465348D01*
X148307697Y-76590305D01*
X148313927Y-76594145D01*
X148313928Y-76594146D01*
X148339186Y-76609715D01*
X148453340Y-76680081D01*
X148500832Y-76732852D01*
X148512256Y-76802924D01*
X148483982Y-76868048D01*
X148474195Y-76878510D01*
X148359865Y-76987576D01*
X148222246Y-77172542D01*
X148219830Y-77177293D01*
X148219828Y-77177297D01*
X148198377Y-77219489D01*
X148117760Y-77378051D01*
X148116178Y-77383145D01*
X148116177Y-77383148D01*
X148057927Y-77570743D01*
X148049393Y-77598227D01*
X148048692Y-77603516D01*
X148033304Y-77719623D01*
X148019102Y-77826774D01*
X148027751Y-78057158D01*
X148075093Y-78282791D01*
X148159776Y-78497221D01*
X148279377Y-78694317D01*
X148282874Y-78698347D01*
X148369438Y-78798103D01*
X148430477Y-78868445D01*
X148460737Y-78893257D01*
X148604627Y-79011240D01*
X148604633Y-79011244D01*
X148608755Y-79014624D01*
X148640250Y-79032552D01*
X148689555Y-79083632D01*
X148703417Y-79153262D01*
X148677434Y-79219333D01*
X148648284Y-79246573D01*
X148526681Y-79328441D01*
X148359865Y-79487576D01*
X148222246Y-79672542D01*
X148117760Y-79878051D01*
X148116178Y-79883145D01*
X148116177Y-79883148D01*
X148054115Y-80083020D01*
X148049393Y-80098227D01*
X148048692Y-80103516D01*
X148020295Y-80317775D01*
X148019102Y-80326774D01*
X113538500Y-80326774D01*
X113538500Y-72234918D01*
X131431917Y-72234918D01*
X131447682Y-72508320D01*
X131448507Y-72512525D01*
X131448508Y-72512533D01*
X131459127Y-72566657D01*
X131500405Y-72777053D01*
X131501792Y-72781103D01*
X131501793Y-72781108D01*
X131522605Y-72841895D01*
X131589112Y-73036144D01*
X131712160Y-73280799D01*
X131714586Y-73284328D01*
X131714589Y-73284334D01*
X131864843Y-73502953D01*
X131867274Y-73506490D01*
X132051582Y-73709043D01*
X132261675Y-73884707D01*
X132265316Y-73886991D01*
X132490024Y-74027951D01*
X132490028Y-74027953D01*
X132493664Y-74030234D01*
X132561544Y-74060883D01*
X132739345Y-74141164D01*
X132739349Y-74141166D01*
X132743257Y-74142930D01*
X132747377Y-74144150D01*
X132747376Y-74144150D01*
X133001723Y-74219491D01*
X133001727Y-74219492D01*
X133005836Y-74220709D01*
X133010070Y-74221357D01*
X133010075Y-74221358D01*
X133272298Y-74261483D01*
X133272300Y-74261483D01*
X133276540Y-74262132D01*
X133415912Y-74264322D01*
X133546071Y-74266367D01*
X133546077Y-74266367D01*
X133550362Y-74266434D01*
X133822235Y-74233534D01*
X134087127Y-74164041D01*
X134091087Y-74162401D01*
X134091092Y-74162399D01*
X134233754Y-74103306D01*
X134340136Y-74059241D01*
X134576582Y-73921073D01*
X134792089Y-73752094D01*
X134833809Y-73709043D01*
X134979686Y-73558509D01*
X134982669Y-73555431D01*
X134985202Y-73551983D01*
X134985206Y-73551978D01*
X135142257Y-73338178D01*
X135144795Y-73334723D01*
X135172154Y-73284334D01*
X135273418Y-73097830D01*
X135273419Y-73097828D01*
X135275468Y-73094054D01*
X135372269Y-72837877D01*
X135433407Y-72570933D01*
X135457751Y-72298161D01*
X135458193Y-72256000D01*
X135439567Y-71982778D01*
X135384032Y-71714612D01*
X135292617Y-71456465D01*
X135167013Y-71213112D01*
X135157040Y-71198921D01*
X135012008Y-70992562D01*
X135009545Y-70989057D01*
X134823125Y-70788445D01*
X134819810Y-70785731D01*
X134819806Y-70785728D01*
X134614523Y-70617706D01*
X134611205Y-70614990D01*
X134377704Y-70471901D01*
X134373768Y-70470173D01*
X134130873Y-70363549D01*
X134130869Y-70363548D01*
X134126945Y-70361825D01*
X133863566Y-70286800D01*
X133859324Y-70286196D01*
X133859318Y-70286195D01*
X133658834Y-70257662D01*
X133592443Y-70248213D01*
X133448589Y-70247460D01*
X133322877Y-70246802D01*
X133322871Y-70246802D01*
X133318591Y-70246780D01*
X133314347Y-70247339D01*
X133314343Y-70247339D01*
X133195302Y-70263011D01*
X133047078Y-70282525D01*
X133042938Y-70283658D01*
X133042936Y-70283658D01*
X132970008Y-70303609D01*
X132782928Y-70354788D01*
X132778980Y-70356472D01*
X132534982Y-70460546D01*
X132534978Y-70460548D01*
X132531030Y-70462232D01*
X132511125Y-70474145D01*
X132299725Y-70600664D01*
X132299721Y-70600667D01*
X132296043Y-70602868D01*
X132082318Y-70774094D01*
X131893808Y-70972742D01*
X131734002Y-71195136D01*
X131605857Y-71437161D01*
X131604385Y-71441184D01*
X131604383Y-71441188D01*
X131597314Y-71460506D01*
X131511743Y-71694337D01*
X131453404Y-71961907D01*
X131431917Y-72234918D01*
X113538500Y-72234918D01*
X113538500Y-63326890D01*
X145620500Y-63326890D01*
X145635080Y-63498720D01*
X145636418Y-63503875D01*
X145636419Y-63503881D01*
X145666954Y-63621525D01*
X145692999Y-63721872D01*
X145787688Y-63932075D01*
X145916441Y-64123319D01*
X145920120Y-64127176D01*
X145920122Y-64127178D01*
X145981710Y-64191738D01*
X146075576Y-64290135D01*
X146260542Y-64427754D01*
X146265293Y-64430170D01*
X146265297Y-64430172D01*
X146297965Y-64446781D01*
X146466051Y-64532240D01*
X146471145Y-64533822D01*
X146471148Y-64533823D01*
X146671020Y-64595885D01*
X146686227Y-64600607D01*
X146691516Y-64601308D01*
X146909489Y-64630198D01*
X146909494Y-64630198D01*
X146914774Y-64630898D01*
X146920103Y-64630698D01*
X146920105Y-64630698D01*
X147029966Y-64626573D01*
X147145158Y-64622249D01*
X147167802Y-64617498D01*
X147365572Y-64576002D01*
X147370791Y-64574907D01*
X147375750Y-64572949D01*
X147375752Y-64572948D01*
X147580256Y-64492185D01*
X147580258Y-64492184D01*
X147585221Y-64490224D01*
X147621343Y-64468305D01*
X147777757Y-64373390D01*
X147777756Y-64373390D01*
X147782317Y-64370623D01*
X147822134Y-64336072D01*
X147952412Y-64223023D01*
X147952414Y-64223021D01*
X147956445Y-64219523D01*
X147985670Y-64183880D01*
X148044329Y-64143886D01*
X148115299Y-64141954D01*
X148176048Y-64178698D01*
X148190248Y-64197468D01*
X148201341Y-64215394D01*
X148280522Y-64343348D01*
X148405697Y-64468305D01*
X148411927Y-64472145D01*
X148411928Y-64472146D01*
X148549090Y-64556694D01*
X148556262Y-64561115D01*
X148591938Y-64572948D01*
X148717611Y-64614632D01*
X148717613Y-64614632D01*
X148724139Y-64616797D01*
X148730975Y-64617497D01*
X148730978Y-64617498D01*
X148766663Y-64621154D01*
X148828600Y-64627500D01*
X150129400Y-64627500D01*
X150132646Y-64627163D01*
X150132650Y-64627163D01*
X150228308Y-64617238D01*
X150228312Y-64617237D01*
X150235166Y-64616526D01*
X150241702Y-64614345D01*
X150241704Y-64614345D01*
X150373806Y-64570272D01*
X150402946Y-64560550D01*
X150553348Y-64467478D01*
X150678305Y-64342303D01*
X150710462Y-64290135D01*
X150767275Y-64197968D01*
X150767276Y-64197966D01*
X150771115Y-64191738D01*
X150813750Y-64063196D01*
X150824632Y-64030389D01*
X150824632Y-64030387D01*
X150826797Y-64023861D01*
X150837500Y-63919400D01*
X150837500Y-63627000D01*
X156331647Y-63627000D01*
X156351022Y-63848463D01*
X156408560Y-64063196D01*
X156410882Y-64068177D01*
X156410883Y-64068178D01*
X156500186Y-64259689D01*
X156500189Y-64259694D01*
X156502512Y-64264676D01*
X156505668Y-64269183D01*
X156505669Y-64269185D01*
X156576697Y-64370623D01*
X156630023Y-64446781D01*
X156787219Y-64603977D01*
X156791727Y-64607134D01*
X156791730Y-64607136D01*
X156820813Y-64627500D01*
X156969323Y-64731488D01*
X156974305Y-64733811D01*
X156974310Y-64733814D01*
X157165822Y-64823117D01*
X157170804Y-64825440D01*
X157176112Y-64826862D01*
X157176114Y-64826863D01*
X157241949Y-64844503D01*
X157385537Y-64882978D01*
X157607000Y-64902353D01*
X157828463Y-64882978D01*
X157972051Y-64844503D01*
X158037886Y-64826863D01*
X158037888Y-64826862D01*
X158043196Y-64825440D01*
X158048178Y-64823117D01*
X158239690Y-64733814D01*
X158239695Y-64733811D01*
X158244677Y-64731488D01*
X158393187Y-64627500D01*
X158422270Y-64607136D01*
X158422273Y-64607134D01*
X158426781Y-64603977D01*
X158583977Y-64446781D01*
X158637304Y-64370623D01*
X158708331Y-64269185D01*
X158708332Y-64269183D01*
X158711488Y-64264676D01*
X158713811Y-64259694D01*
X158713814Y-64259689D01*
X158803117Y-64068178D01*
X158803118Y-64068177D01*
X158805440Y-64063196D01*
X158862978Y-63848463D01*
X158882353Y-63627000D01*
X179191647Y-63627000D01*
X179211022Y-63848463D01*
X179268560Y-64063196D01*
X179270882Y-64068177D01*
X179270883Y-64068178D01*
X179360186Y-64259689D01*
X179360189Y-64259694D01*
X179362512Y-64264676D01*
X179365668Y-64269183D01*
X179365669Y-64269185D01*
X179436697Y-64370623D01*
X179490023Y-64446781D01*
X179647219Y-64603977D01*
X179651727Y-64607134D01*
X179651730Y-64607136D01*
X179680813Y-64627500D01*
X179829323Y-64731488D01*
X179834305Y-64733811D01*
X179834310Y-64733814D01*
X180025822Y-64823117D01*
X180030804Y-64825440D01*
X180036112Y-64826862D01*
X180036114Y-64826863D01*
X180101949Y-64844503D01*
X180245537Y-64882978D01*
X180467000Y-64902353D01*
X180688463Y-64882978D01*
X180832051Y-64844503D01*
X180897886Y-64826863D01*
X180897888Y-64826862D01*
X180903196Y-64825440D01*
X180908178Y-64823117D01*
X181099690Y-64733814D01*
X181099695Y-64733811D01*
X181104677Y-64731488D01*
X181253187Y-64627500D01*
X181282270Y-64607136D01*
X181282273Y-64607134D01*
X181286781Y-64603977D01*
X181443977Y-64446781D01*
X181497304Y-64370623D01*
X181568331Y-64269185D01*
X181568332Y-64269183D01*
X181571488Y-64264676D01*
X181573811Y-64259694D01*
X181573814Y-64259689D01*
X181663117Y-64068178D01*
X181663118Y-64068177D01*
X181665440Y-64063196D01*
X181722978Y-63848463D01*
X181742353Y-63627000D01*
X181722978Y-63405537D01*
X181665440Y-63190804D01*
X181663117Y-63185822D01*
X181573814Y-62994311D01*
X181573811Y-62994306D01*
X181571488Y-62989324D01*
X181485368Y-62866331D01*
X181447136Y-62811730D01*
X181447134Y-62811727D01*
X181443977Y-62807219D01*
X181286781Y-62650023D01*
X181282273Y-62646866D01*
X181282270Y-62646864D01*
X181166801Y-62566012D01*
X181104677Y-62522512D01*
X181099695Y-62520189D01*
X181099690Y-62520186D01*
X180994035Y-62470919D01*
X180940750Y-62424002D01*
X180921289Y-62355725D01*
X180941831Y-62287765D01*
X180994035Y-62242529D01*
X181099445Y-62193376D01*
X181108931Y-62187898D01*
X181152764Y-62157207D01*
X181161139Y-62146729D01*
X181154071Y-62133281D01*
X180479812Y-61459022D01*
X180465868Y-61451408D01*
X180464035Y-61451539D01*
X180457420Y-61455790D01*
X179779207Y-62134003D01*
X179772777Y-62145777D01*
X179782074Y-62157793D01*
X179825069Y-62187898D01*
X179834555Y-62193376D01*
X179939965Y-62242529D01*
X179993250Y-62289446D01*
X180012711Y-62357723D01*
X179992169Y-62425683D01*
X179939965Y-62470919D01*
X179834311Y-62520186D01*
X179834306Y-62520189D01*
X179829324Y-62522512D01*
X179824817Y-62525668D01*
X179824815Y-62525669D01*
X179651730Y-62646864D01*
X179651727Y-62646866D01*
X179647219Y-62650023D01*
X179490023Y-62807219D01*
X179486866Y-62811727D01*
X179486864Y-62811730D01*
X179448632Y-62866331D01*
X179362512Y-62989324D01*
X179360189Y-62994306D01*
X179360186Y-62994311D01*
X179270883Y-63185822D01*
X179268560Y-63190804D01*
X179211022Y-63405537D01*
X179191647Y-63627000D01*
X158882353Y-63627000D01*
X158862978Y-63405537D01*
X158805440Y-63190804D01*
X158803117Y-63185822D01*
X158713814Y-62994311D01*
X158713811Y-62994306D01*
X158711488Y-62989324D01*
X158625368Y-62866331D01*
X158587136Y-62811730D01*
X158587134Y-62811727D01*
X158583977Y-62807219D01*
X158426781Y-62650023D01*
X158422273Y-62646866D01*
X158422270Y-62646864D01*
X158336365Y-62586713D01*
X158292037Y-62531256D01*
X158284728Y-62460637D01*
X158316759Y-62397276D01*
X158377960Y-62361291D01*
X158408636Y-62357500D01*
X158417134Y-62357500D01*
X158479316Y-62350745D01*
X158615705Y-62299615D01*
X158732261Y-62212261D01*
X158819615Y-62095705D01*
X158870745Y-61959316D01*
X158877500Y-61897134D01*
X158877500Y-61092475D01*
X179192628Y-61092475D01*
X179211038Y-61302896D01*
X179212941Y-61313691D01*
X179267609Y-61517715D01*
X179271355Y-61528007D01*
X179360623Y-61719441D01*
X179366103Y-61728932D01*
X179396794Y-61772765D01*
X179407271Y-61781140D01*
X179420718Y-61774072D01*
X180094978Y-61099812D01*
X180101356Y-61088132D01*
X180831408Y-61088132D01*
X180831539Y-61089965D01*
X180835790Y-61096580D01*
X181514003Y-61774793D01*
X181525777Y-61781223D01*
X181537793Y-61771926D01*
X181567897Y-61728932D01*
X181573377Y-61719441D01*
X181662645Y-61528007D01*
X181666391Y-61517715D01*
X181721059Y-61313691D01*
X181722962Y-61302896D01*
X181741372Y-61092475D01*
X181741372Y-61081525D01*
X181722962Y-60871104D01*
X181721059Y-60860309D01*
X181666391Y-60656285D01*
X181662645Y-60645993D01*
X181573377Y-60454559D01*
X181567897Y-60445068D01*
X181537206Y-60401235D01*
X181526729Y-60392860D01*
X181513282Y-60399928D01*
X180839022Y-61074188D01*
X180831408Y-61088132D01*
X180101356Y-61088132D01*
X180102592Y-61085868D01*
X180102461Y-61084035D01*
X180098210Y-61077420D01*
X179419997Y-60399207D01*
X179408223Y-60392777D01*
X179396207Y-60402074D01*
X179366103Y-60445068D01*
X179360623Y-60454559D01*
X179271355Y-60645993D01*
X179267609Y-60656285D01*
X179212941Y-60860309D01*
X179211038Y-60871104D01*
X179192628Y-61081525D01*
X179192628Y-61092475D01*
X158877500Y-61092475D01*
X158877500Y-60276866D01*
X158870745Y-60214684D01*
X158819615Y-60078295D01*
X158781375Y-60027271D01*
X179772860Y-60027271D01*
X179779928Y-60040718D01*
X180454188Y-60714978D01*
X180468132Y-60722592D01*
X180469965Y-60722461D01*
X180476580Y-60718210D01*
X181154793Y-60039997D01*
X181161223Y-60028223D01*
X181151926Y-60016207D01*
X181108931Y-59986102D01*
X181099445Y-59980624D01*
X180908007Y-59891355D01*
X180897715Y-59887609D01*
X180693691Y-59832941D01*
X180682896Y-59831038D01*
X180472475Y-59812628D01*
X180461525Y-59812628D01*
X180251104Y-59831038D01*
X180240309Y-59832941D01*
X180036285Y-59887609D01*
X180025993Y-59891355D01*
X179834559Y-59980623D01*
X179825068Y-59986103D01*
X179781235Y-60016794D01*
X179772860Y-60027271D01*
X158781375Y-60027271D01*
X158732261Y-59961739D01*
X158615705Y-59874385D01*
X158479316Y-59823255D01*
X158417134Y-59816500D01*
X156796866Y-59816500D01*
X156734684Y-59823255D01*
X156598295Y-59874385D01*
X156481739Y-59961739D01*
X156394385Y-60078295D01*
X156343255Y-60214684D01*
X156336500Y-60276866D01*
X156336500Y-61897134D01*
X156343255Y-61959316D01*
X156394385Y-62095705D01*
X156481739Y-62212261D01*
X156598295Y-62299615D01*
X156734684Y-62350745D01*
X156796866Y-62357500D01*
X156805364Y-62357500D01*
X156873485Y-62377502D01*
X156919978Y-62431158D01*
X156930082Y-62501432D01*
X156900588Y-62566012D01*
X156877635Y-62586713D01*
X156791730Y-62646864D01*
X156791727Y-62646866D01*
X156787219Y-62650023D01*
X156630023Y-62807219D01*
X156626866Y-62811727D01*
X156626864Y-62811730D01*
X156588632Y-62866331D01*
X156502512Y-62989324D01*
X156500189Y-62994306D01*
X156500186Y-62994311D01*
X156410883Y-63185822D01*
X156408560Y-63190804D01*
X156351022Y-63405537D01*
X156331647Y-63627000D01*
X150837500Y-63627000D01*
X150837500Y-62318600D01*
X150835530Y-62299615D01*
X150827238Y-62219692D01*
X150827237Y-62219688D01*
X150826526Y-62212834D01*
X150823940Y-62205081D01*
X150772868Y-62052002D01*
X150770550Y-62045054D01*
X150677478Y-61894652D01*
X150552303Y-61769695D01*
X150546072Y-61765854D01*
X150407968Y-61680725D01*
X150407966Y-61680724D01*
X150401738Y-61676885D01*
X150321995Y-61650436D01*
X150240389Y-61623368D01*
X150240387Y-61623368D01*
X150233861Y-61621203D01*
X150227025Y-61620503D01*
X150227022Y-61620502D01*
X150183969Y-61616091D01*
X150129400Y-61610500D01*
X148828600Y-61610500D01*
X148825354Y-61610837D01*
X148825350Y-61610837D01*
X148729692Y-61620762D01*
X148729688Y-61620763D01*
X148722834Y-61621474D01*
X148716298Y-61623655D01*
X148716296Y-61623655D01*
X148677220Y-61636692D01*
X148555054Y-61677450D01*
X148404652Y-61770522D01*
X148279695Y-61895697D01*
X148206170Y-62014977D01*
X148189920Y-62041339D01*
X148137148Y-62088832D01*
X148067076Y-62100256D01*
X148001952Y-62071982D01*
X147991490Y-62062195D01*
X147900406Y-61966715D01*
X147882424Y-61947865D01*
X147697458Y-61810246D01*
X147692707Y-61807830D01*
X147692703Y-61807828D01*
X147537525Y-61728932D01*
X147491949Y-61705760D01*
X147486855Y-61704178D01*
X147486852Y-61704177D01*
X147276871Y-61638976D01*
X147271773Y-61637393D01*
X147266484Y-61636692D01*
X147048511Y-61607802D01*
X147048506Y-61607802D01*
X147043226Y-61607102D01*
X147037897Y-61607302D01*
X147037895Y-61607302D01*
X146928034Y-61611427D01*
X146812842Y-61615751D01*
X146807623Y-61616846D01*
X146785566Y-61621474D01*
X146587209Y-61663093D01*
X146582250Y-61665051D01*
X146582248Y-61665052D01*
X146377744Y-61745815D01*
X146377742Y-61745816D01*
X146372779Y-61747776D01*
X146368220Y-61750543D01*
X146368217Y-61750544D01*
X146269832Y-61810246D01*
X146175683Y-61867377D01*
X146171653Y-61870874D01*
X146061206Y-61966715D01*
X146001555Y-62018477D01*
X145982809Y-62041339D01*
X145858760Y-62192627D01*
X145858756Y-62192633D01*
X145855376Y-62196755D01*
X145852737Y-62201391D01*
X145852735Y-62201394D01*
X145796825Y-62299615D01*
X145741325Y-62397114D01*
X145662663Y-62613825D01*
X145661714Y-62619074D01*
X145661713Y-62619077D01*
X145622377Y-62836608D01*
X145622376Y-62836615D01*
X145621639Y-62840692D01*
X145620500Y-62864844D01*
X145620500Y-63326890D01*
X113538500Y-63326890D01*
X113538500Y-56049774D01*
X116733102Y-56049774D01*
X116733302Y-56055103D01*
X116733302Y-56055105D01*
X116735451Y-56112356D01*
X116741751Y-56280158D01*
X116789093Y-56505791D01*
X116791051Y-56510750D01*
X116791052Y-56510752D01*
X116861992Y-56690381D01*
X116873776Y-56720221D01*
X116993377Y-56917317D01*
X116996874Y-56921347D01*
X117083438Y-57021103D01*
X117144477Y-57091445D01*
X117180120Y-57120670D01*
X117220114Y-57179329D01*
X117222046Y-57250299D01*
X117185302Y-57311048D01*
X117166532Y-57325248D01*
X117035579Y-57406285D01*
X117020652Y-57415522D01*
X116895695Y-57540697D01*
X116802885Y-57691262D01*
X116747203Y-57859139D01*
X116736500Y-57963600D01*
X116736500Y-59264400D01*
X116736837Y-59267646D01*
X116736837Y-59267650D01*
X116739708Y-59295316D01*
X116747474Y-59370166D01*
X116749655Y-59376702D01*
X116749655Y-59376704D01*
X116793728Y-59508806D01*
X116803450Y-59537946D01*
X116896522Y-59688348D01*
X117021697Y-59813305D01*
X117027927Y-59817145D01*
X117027928Y-59817146D01*
X117165090Y-59901694D01*
X117172262Y-59906115D01*
X117252005Y-59932564D01*
X117333611Y-59959632D01*
X117333613Y-59959632D01*
X117340139Y-59961797D01*
X117346975Y-59962497D01*
X117346978Y-59962498D01*
X117390031Y-59966909D01*
X117444600Y-59972500D01*
X118995400Y-59972500D01*
X118998646Y-59972163D01*
X118998650Y-59972163D01*
X119094308Y-59962238D01*
X119094312Y-59962237D01*
X119101166Y-59961526D01*
X119107702Y-59959345D01*
X119107704Y-59959345D01*
X119239806Y-59915272D01*
X119268946Y-59905550D01*
X119419348Y-59812478D01*
X119544305Y-59687303D01*
X119637115Y-59536738D01*
X119671953Y-59431705D01*
X119690632Y-59375389D01*
X119690632Y-59375387D01*
X119692797Y-59368861D01*
X119703500Y-59264400D01*
X119703500Y-57963600D01*
X119692526Y-57857834D01*
X119636550Y-57690054D01*
X119543478Y-57539652D01*
X119418303Y-57414695D01*
X119272660Y-57324919D01*
X119225168Y-57272148D01*
X119213744Y-57202076D01*
X119242018Y-57136952D01*
X119251805Y-57126490D01*
X119362278Y-57021103D01*
X119366135Y-57017424D01*
X119503754Y-56832458D01*
X119608240Y-56626949D01*
X119628347Y-56562196D01*
X119675024Y-56411871D01*
X119676607Y-56406773D01*
X119677308Y-56401484D01*
X119706198Y-56183511D01*
X119706198Y-56183506D01*
X119706898Y-56178226D01*
X119698249Y-55947842D01*
X119650907Y-55722209D01*
X119648948Y-55717248D01*
X119568185Y-55512744D01*
X119568184Y-55512742D01*
X119566224Y-55507779D01*
X119534561Y-55455599D01*
X119502257Y-55402364D01*
X126587000Y-55402364D01*
X126587091Y-55404037D01*
X126587091Y-55404052D01*
X126588946Y-55438295D01*
X126590119Y-55459957D01*
X126590956Y-55464243D01*
X126624004Y-55633469D01*
X126635120Y-55690393D01*
X126718304Y-55909952D01*
X126837291Y-56112356D01*
X126988681Y-56291819D01*
X127168144Y-56443209D01*
X127370548Y-56562196D01*
X127590107Y-56645380D01*
X127820543Y-56690381D01*
X127824901Y-56690617D01*
X127876448Y-56693409D01*
X127876463Y-56693409D01*
X127878136Y-56693500D01*
X129812864Y-56693500D01*
X129814537Y-56693409D01*
X129814552Y-56693409D01*
X129866099Y-56690617D01*
X129870457Y-56690381D01*
X130100893Y-56645380D01*
X130320452Y-56562196D01*
X130522856Y-56443209D01*
X130702319Y-56291819D01*
X130853709Y-56112356D01*
X130972696Y-55909952D01*
X131043173Y-55723932D01*
X131086012Y-55667317D01*
X131152660Y-55642849D01*
X131221955Y-55658298D01*
X131271898Y-55708759D01*
X131287000Y-55768573D01*
X131287000Y-59233134D01*
X131293755Y-59295316D01*
X131344885Y-59431705D01*
X131432239Y-59548261D01*
X131548795Y-59635615D01*
X131685184Y-59686745D01*
X131747366Y-59693500D01*
X135343634Y-59693500D01*
X135405816Y-59686745D01*
X135542205Y-59635615D01*
X135658761Y-59548261D01*
X135746115Y-59431705D01*
X135797245Y-59295316D01*
X135804000Y-59233134D01*
X135804000Y-55636866D01*
X135797245Y-55574684D01*
X135746115Y-55438295D01*
X135658761Y-55321739D01*
X135542205Y-55234385D01*
X135405816Y-55183255D01*
X135343634Y-55176500D01*
X131747366Y-55176500D01*
X131685184Y-55183255D01*
X131548795Y-55234385D01*
X131432239Y-55321739D01*
X131344885Y-55438295D01*
X131341736Y-55446696D01*
X131340519Y-55448918D01*
X131290260Y-55499064D01*
X131220869Y-55514077D01*
X131154377Y-55489191D01*
X131111895Y-55432307D01*
X131104000Y-55388408D01*
X131104000Y-53467636D01*
X131102646Y-53442623D01*
X131101117Y-53414401D01*
X131100881Y-53410043D01*
X131072142Y-53262881D01*
X131056902Y-53184840D01*
X131056902Y-53184839D01*
X131055880Y-53179607D01*
X130972696Y-52960048D01*
X130853709Y-52757644D01*
X130702319Y-52578181D01*
X130522856Y-52426791D01*
X130513632Y-52421368D01*
X130417802Y-52365033D01*
X130320452Y-52307804D01*
X130161394Y-52247542D01*
X131287000Y-52247542D01*
X131287207Y-52250082D01*
X131287207Y-52250092D01*
X131292121Y-52310507D01*
X131298522Y-52389200D01*
X131299856Y-52394395D01*
X131299856Y-52394396D01*
X131347503Y-52579971D01*
X131354390Y-52606794D01*
X131447909Y-52811055D01*
X131576120Y-52995527D01*
X131734973Y-53154380D01*
X131919445Y-53282591D01*
X132123706Y-53376110D01*
X132129138Y-53377505D01*
X132129139Y-53377505D01*
X132316257Y-53425548D01*
X132341300Y-53431978D01*
X132395205Y-53436362D01*
X132480408Y-53443293D01*
X132480418Y-53443293D01*
X132482958Y-53443500D01*
X134608042Y-53443500D01*
X134610582Y-53443293D01*
X134610592Y-53443293D01*
X134695795Y-53436362D01*
X134749700Y-53431978D01*
X134774744Y-53425548D01*
X134961861Y-53377505D01*
X134961862Y-53377505D01*
X134967294Y-53376110D01*
X135171555Y-53282591D01*
X135356027Y-53154380D01*
X135514880Y-52995527D01*
X135643091Y-52811055D01*
X135736610Y-52606794D01*
X135743497Y-52579971D01*
X135791144Y-52394396D01*
X135791144Y-52394395D01*
X135792478Y-52389200D01*
X135798879Y-52310507D01*
X135803793Y-52250092D01*
X135803793Y-52250082D01*
X135804000Y-52247542D01*
X135804000Y-52129134D01*
X148954500Y-52129134D01*
X148961255Y-52191316D01*
X149012385Y-52327705D01*
X149099739Y-52444261D01*
X149216295Y-52531615D01*
X149352684Y-52582745D01*
X149414866Y-52589500D01*
X151311134Y-52589500D01*
X151373316Y-52582745D01*
X151509705Y-52531615D01*
X151626261Y-52444261D01*
X151702597Y-52342406D01*
X152106423Y-52342406D01*
X152111704Y-52349461D01*
X152288080Y-52452527D01*
X152297363Y-52456974D01*
X152504003Y-52535883D01*
X152513901Y-52538759D01*
X152730653Y-52582857D01*
X152740883Y-52584076D01*
X152961914Y-52592182D01*
X152972223Y-52591714D01*
X153191623Y-52563608D01*
X153201688Y-52561468D01*
X153413557Y-52497905D01*
X153423152Y-52494144D01*
X153621778Y-52396838D01*
X153630636Y-52391559D01*
X153688097Y-52350572D01*
X153696497Y-52339874D01*
X153689510Y-52326721D01*
X152915811Y-51553021D01*
X152901868Y-51545408D01*
X152900034Y-51545539D01*
X152893420Y-51549790D01*
X152113180Y-52330031D01*
X152106423Y-52342406D01*
X151702597Y-52342406D01*
X151713615Y-52327705D01*
X151764745Y-52191316D01*
X151771500Y-52129134D01*
X151771500Y-52005480D01*
X151791502Y-51937359D01*
X151808405Y-51916384D01*
X152530979Y-51193811D01*
X152537356Y-51182132D01*
X153267408Y-51182132D01*
X153267539Y-51183966D01*
X153271790Y-51190580D01*
X154049307Y-51968096D01*
X154061313Y-51974652D01*
X154073052Y-51965684D01*
X154111010Y-51912859D01*
X154116321Y-51904020D01*
X154214318Y-51705737D01*
X154218117Y-51696142D01*
X154275584Y-51507000D01*
X176816761Y-51507000D01*
X176817031Y-51511119D01*
X176831036Y-51724783D01*
X176835696Y-51795886D01*
X176836500Y-51799926D01*
X176836500Y-51799929D01*
X176869471Y-51965684D01*
X176892175Y-52079828D01*
X176893501Y-52083734D01*
X176893502Y-52083738D01*
X176983703Y-52349461D01*
X176985234Y-52353970D01*
X176987055Y-52357663D01*
X176987056Y-52357665D01*
X177003771Y-52391559D01*
X177113279Y-52613619D01*
X177274119Y-52854335D01*
X177276831Y-52857427D01*
X177276836Y-52857434D01*
X177371200Y-52965034D01*
X177465004Y-53071996D01*
X177468093Y-53074705D01*
X177679565Y-53260163D01*
X177679571Y-53260168D01*
X177682665Y-53262881D01*
X177923380Y-53423721D01*
X177927079Y-53425545D01*
X177927084Y-53425548D01*
X178179335Y-53549944D01*
X178183030Y-53551766D01*
X178186928Y-53553089D01*
X178186930Y-53553090D01*
X178453262Y-53643498D01*
X178453266Y-53643499D01*
X178457172Y-53644825D01*
X178461216Y-53645629D01*
X178461222Y-53645631D01*
X178737071Y-53700500D01*
X178737074Y-53700500D01*
X178741114Y-53701304D01*
X178745225Y-53701573D01*
X178745229Y-53701574D01*
X179025881Y-53719969D01*
X179030000Y-53720239D01*
X179034119Y-53719969D01*
X179314771Y-53701574D01*
X179314775Y-53701573D01*
X179318886Y-53701304D01*
X179322926Y-53700500D01*
X179322929Y-53700500D01*
X179598778Y-53645631D01*
X179598784Y-53645629D01*
X179602828Y-53644825D01*
X179606734Y-53643499D01*
X179606738Y-53643498D01*
X179873070Y-53553090D01*
X179873072Y-53553089D01*
X179876970Y-53551766D01*
X179880665Y-53549944D01*
X180132916Y-53425548D01*
X180132921Y-53425545D01*
X180136620Y-53423721D01*
X180377335Y-53262881D01*
X180380429Y-53260168D01*
X180380435Y-53260163D01*
X180591907Y-53074705D01*
X180594996Y-53071996D01*
X180688800Y-52965034D01*
X180783164Y-52857434D01*
X180783169Y-52857427D01*
X180785881Y-52854335D01*
X180946721Y-52613619D01*
X181056229Y-52391559D01*
X181072944Y-52357665D01*
X181072945Y-52357663D01*
X181074766Y-52353970D01*
X181076297Y-52349461D01*
X181166498Y-52083738D01*
X181166499Y-52083734D01*
X181167825Y-52079828D01*
X181190530Y-51965684D01*
X181223500Y-51799929D01*
X181223500Y-51799926D01*
X181224304Y-51795886D01*
X181228965Y-51724783D01*
X181242969Y-51511119D01*
X181243239Y-51507000D01*
X181224304Y-51218114D01*
X181217147Y-51182132D01*
X181168631Y-50938222D01*
X181168629Y-50938216D01*
X181167825Y-50934172D01*
X181141990Y-50858063D01*
X181076090Y-50663930D01*
X181076089Y-50663928D01*
X181074766Y-50660030D01*
X181057498Y-50625013D01*
X180948550Y-50404090D01*
X180946721Y-50400381D01*
X180785881Y-50159665D01*
X180783169Y-50156573D01*
X180783164Y-50156566D01*
X180597705Y-49945093D01*
X180594996Y-49942004D01*
X180575514Y-49924919D01*
X180380435Y-49753837D01*
X180380429Y-49753832D01*
X180377335Y-49751119D01*
X180136620Y-49590279D01*
X180132921Y-49588455D01*
X180132916Y-49588452D01*
X179880665Y-49464056D01*
X179880663Y-49464055D01*
X179876970Y-49462234D01*
X179804363Y-49437587D01*
X179606738Y-49370502D01*
X179606734Y-49370501D01*
X179602828Y-49369175D01*
X179598784Y-49368371D01*
X179598778Y-49368369D01*
X179322929Y-49313500D01*
X179322926Y-49313500D01*
X179318886Y-49312696D01*
X179314775Y-49312427D01*
X179314771Y-49312426D01*
X179034119Y-49294031D01*
X179030000Y-49293761D01*
X179025881Y-49294031D01*
X178745229Y-49312426D01*
X178745225Y-49312427D01*
X178741114Y-49312696D01*
X178737074Y-49313500D01*
X178737071Y-49313500D01*
X178461222Y-49368369D01*
X178461216Y-49368371D01*
X178457172Y-49369175D01*
X178453266Y-49370501D01*
X178453262Y-49370502D01*
X178255637Y-49437587D01*
X178183030Y-49462234D01*
X177923381Y-49590279D01*
X177682665Y-49751119D01*
X177679573Y-49753831D01*
X177679566Y-49753836D01*
X177483626Y-49925673D01*
X177465004Y-49942004D01*
X177462295Y-49945093D01*
X177276836Y-50156566D01*
X177276831Y-50156573D01*
X177274119Y-50159665D01*
X177113279Y-50400381D01*
X177111450Y-50404090D01*
X177002503Y-50625013D01*
X176985234Y-50660030D01*
X176983911Y-50663928D01*
X176983910Y-50663930D01*
X176918011Y-50858063D01*
X176892175Y-50934172D01*
X176891371Y-50938216D01*
X176891369Y-50938222D01*
X176842853Y-51182132D01*
X176835696Y-51218114D01*
X176835427Y-51222225D01*
X176835426Y-51222229D01*
X176831629Y-51280158D01*
X176818805Y-51475810D01*
X176816761Y-51507000D01*
X154275584Y-51507000D01*
X154282415Y-51484517D01*
X154284594Y-51474436D01*
X154313702Y-51253338D01*
X154314221Y-51246663D01*
X154315744Y-51184364D01*
X154315550Y-51177646D01*
X154297279Y-50955400D01*
X154295596Y-50945238D01*
X154241710Y-50730708D01*
X154238389Y-50720953D01*
X154150193Y-50518118D01*
X154145315Y-50509020D01*
X154072224Y-50396038D01*
X154061538Y-50386835D01*
X154051973Y-50391238D01*
X153275021Y-51168189D01*
X153267408Y-51182132D01*
X152537356Y-51182132D01*
X152538592Y-51179868D01*
X152538461Y-51178034D01*
X152534210Y-51171420D01*
X151808405Y-50445616D01*
X151774380Y-50383303D01*
X151771500Y-50356520D01*
X151771500Y-50232866D01*
X151764745Y-50170684D01*
X151713615Y-50034295D01*
X151704184Y-50021711D01*
X152108508Y-50021711D01*
X152115251Y-50034040D01*
X152890189Y-50808979D01*
X152904132Y-50816592D01*
X152905966Y-50816461D01*
X152912580Y-50812210D01*
X153691994Y-50032795D01*
X153699011Y-50019944D01*
X153691237Y-50009274D01*
X153688902Y-50007430D01*
X153680320Y-50001729D01*
X153486678Y-49894833D01*
X153477272Y-49890606D01*
X153268772Y-49816772D01*
X153258809Y-49814140D01*
X153041047Y-49775350D01*
X153030796Y-49774381D01*
X152809616Y-49771679D01*
X152799332Y-49772399D01*
X152580693Y-49805855D01*
X152570666Y-49808244D01*
X152360426Y-49876961D01*
X152350916Y-49880958D01*
X152154725Y-49983089D01*
X152146007Y-49988578D01*
X152116961Y-50010386D01*
X152108508Y-50021711D01*
X151704184Y-50021711D01*
X151626261Y-49917739D01*
X151509705Y-49830385D01*
X151373316Y-49779255D01*
X151311134Y-49772500D01*
X149414866Y-49772500D01*
X149352684Y-49779255D01*
X149216295Y-49830385D01*
X149099739Y-49917739D01*
X149012385Y-50034295D01*
X148961255Y-50170684D01*
X148954500Y-50232866D01*
X148954500Y-52129134D01*
X135804000Y-52129134D01*
X135804000Y-50622458D01*
X135802674Y-50606148D01*
X135792913Y-50486151D01*
X135792478Y-50480800D01*
X135772783Y-50404090D01*
X135738005Y-50268639D01*
X135738005Y-50268638D01*
X135736610Y-50263206D01*
X135643091Y-50058945D01*
X135635805Y-50048461D01*
X135559932Y-49939295D01*
X135514880Y-49874473D01*
X135356027Y-49715620D01*
X135171555Y-49587409D01*
X134967294Y-49493890D01*
X134749700Y-49438022D01*
X134695795Y-49433638D01*
X134610592Y-49426707D01*
X134610582Y-49426707D01*
X134608042Y-49426500D01*
X132482958Y-49426500D01*
X132480418Y-49426707D01*
X132480408Y-49426707D01*
X132395205Y-49433638D01*
X132341300Y-49438022D01*
X132123706Y-49493890D01*
X131919445Y-49587409D01*
X131734973Y-49715620D01*
X131576120Y-49874473D01*
X131531068Y-49939295D01*
X131455196Y-50048461D01*
X131447909Y-50058945D01*
X131354390Y-50263206D01*
X131352995Y-50268638D01*
X131352995Y-50268639D01*
X131318218Y-50404090D01*
X131298522Y-50480800D01*
X131298087Y-50486151D01*
X131288327Y-50606148D01*
X131287000Y-50622458D01*
X131287000Y-52247542D01*
X130161394Y-52247542D01*
X130100893Y-52224620D01*
X129870457Y-52179619D01*
X129864727Y-52179309D01*
X129814552Y-52176591D01*
X129814537Y-52176591D01*
X129812864Y-52176500D01*
X127878136Y-52176500D01*
X127876463Y-52176591D01*
X127876448Y-52176591D01*
X127826273Y-52179309D01*
X127820543Y-52179619D01*
X127590107Y-52224620D01*
X127370548Y-52307804D01*
X127273198Y-52365033D01*
X127177369Y-52421368D01*
X127168144Y-52426791D01*
X126988681Y-52578181D01*
X126837291Y-52757644D01*
X126718304Y-52960048D01*
X126635120Y-53179607D01*
X126634098Y-53184839D01*
X126634098Y-53184840D01*
X126618858Y-53262881D01*
X126590119Y-53410043D01*
X126589883Y-53414401D01*
X126588355Y-53442623D01*
X126587000Y-53467636D01*
X126587000Y-55402364D01*
X119502257Y-55402364D01*
X119449390Y-55315243D01*
X119446623Y-55310683D01*
X119359755Y-55210576D01*
X119299023Y-55140588D01*
X119299021Y-55140586D01*
X119295523Y-55136555D01*
X119253970Y-55102484D01*
X119121373Y-54993760D01*
X119121367Y-54993756D01*
X119117245Y-54990376D01*
X119085750Y-54972448D01*
X119036445Y-54921368D01*
X119022583Y-54851738D01*
X119048566Y-54785667D01*
X119077716Y-54758427D01*
X119113642Y-54734240D01*
X119199319Y-54676559D01*
X119366135Y-54517424D01*
X119503754Y-54332458D01*
X119608240Y-54126949D01*
X119644321Y-54010752D01*
X119675024Y-53911871D01*
X119676607Y-53906773D01*
X119677308Y-53901484D01*
X119706198Y-53683511D01*
X119706198Y-53683506D01*
X119706898Y-53678226D01*
X119698249Y-53447842D01*
X119650907Y-53222209D01*
X119632114Y-53174622D01*
X119568185Y-53012744D01*
X119568184Y-53012742D01*
X119566224Y-53007779D01*
X119558790Y-52995527D01*
X119449390Y-52815243D01*
X119446623Y-52810683D01*
X119359755Y-52710576D01*
X119299023Y-52640588D01*
X119299021Y-52640586D01*
X119295523Y-52636555D01*
X119252601Y-52601361D01*
X119121373Y-52493760D01*
X119121367Y-52493756D01*
X119117245Y-52490376D01*
X119085750Y-52472448D01*
X119036445Y-52421368D01*
X119022583Y-52351738D01*
X119048566Y-52285667D01*
X119077716Y-52258427D01*
X119166409Y-52198715D01*
X119199319Y-52176559D01*
X119366135Y-52017424D01*
X119503754Y-51832458D01*
X119524441Y-51791771D01*
X119568182Y-51705737D01*
X119608240Y-51626949D01*
X119631196Y-51553021D01*
X119675024Y-51411871D01*
X119676607Y-51406773D01*
X119692102Y-51289866D01*
X119706198Y-51183511D01*
X119706198Y-51183506D01*
X119706898Y-51178226D01*
X119706643Y-51171420D01*
X119698449Y-50953173D01*
X119698249Y-50947842D01*
X119650907Y-50722209D01*
X119645979Y-50709731D01*
X119568185Y-50512744D01*
X119568184Y-50512742D01*
X119566224Y-50507779D01*
X119528503Y-50445616D01*
X119449390Y-50315243D01*
X119446623Y-50310683D01*
X119379097Y-50232866D01*
X119299023Y-50140588D01*
X119299021Y-50140586D01*
X119295523Y-50136555D01*
X119200871Y-50058945D01*
X119121373Y-49993760D01*
X119121367Y-49993756D01*
X119117245Y-49990376D01*
X119112609Y-49987737D01*
X119112606Y-49987735D01*
X118921529Y-49878968D01*
X118916886Y-49876325D01*
X118700175Y-49797663D01*
X118694926Y-49796714D01*
X118694923Y-49796713D01*
X118477392Y-49757377D01*
X118477385Y-49757376D01*
X118473308Y-49756639D01*
X118455586Y-49755803D01*
X118450644Y-49755570D01*
X118450637Y-49755570D01*
X118449156Y-49755500D01*
X118037110Y-49755500D01*
X117970191Y-49761178D01*
X117870591Y-49769629D01*
X117870587Y-49769630D01*
X117865280Y-49770080D01*
X117860125Y-49771418D01*
X117860119Y-49771419D01*
X117647297Y-49826657D01*
X117647293Y-49826658D01*
X117642128Y-49827999D01*
X117637262Y-49830191D01*
X117637259Y-49830192D01*
X117524563Y-49880958D01*
X117431925Y-49922688D01*
X117240681Y-50051441D01*
X117236824Y-50055120D01*
X117236822Y-50055122D01*
X117167464Y-50121287D01*
X117073865Y-50210576D01*
X116936246Y-50395542D01*
X116933830Y-50400293D01*
X116933828Y-50400297D01*
X116931900Y-50404090D01*
X116831760Y-50601051D01*
X116830178Y-50606145D01*
X116830177Y-50606148D01*
X116791500Y-50730708D01*
X116763393Y-50821227D01*
X116762692Y-50826516D01*
X116747304Y-50942623D01*
X116733102Y-51049774D01*
X116741751Y-51280158D01*
X116789093Y-51505791D01*
X116791051Y-51510750D01*
X116791052Y-51510752D01*
X116864267Y-51696142D01*
X116873776Y-51720221D01*
X116993377Y-51917317D01*
X116996874Y-51921347D01*
X117083438Y-52021103D01*
X117144477Y-52091445D01*
X117186030Y-52125516D01*
X117318627Y-52234240D01*
X117318633Y-52234244D01*
X117322755Y-52237624D01*
X117354250Y-52255552D01*
X117403555Y-52306632D01*
X117417417Y-52376262D01*
X117391434Y-52442333D01*
X117362284Y-52469573D01*
X117240681Y-52551441D01*
X117236824Y-52555120D01*
X117236822Y-52555122D01*
X117182656Y-52606794D01*
X117073865Y-52710576D01*
X116936246Y-52895542D01*
X116933830Y-52900293D01*
X116933828Y-52900297D01*
X116887754Y-52990919D01*
X116831760Y-53101051D01*
X116830178Y-53106145D01*
X116830177Y-53106148D01*
X116782354Y-53260163D01*
X116763393Y-53321227D01*
X116762692Y-53326516D01*
X116747215Y-53443293D01*
X116733102Y-53549774D01*
X116741751Y-53780158D01*
X116789093Y-54005791D01*
X116873776Y-54220221D01*
X116993377Y-54417317D01*
X116996874Y-54421347D01*
X117083438Y-54521103D01*
X117144477Y-54591445D01*
X117148608Y-54594832D01*
X117318627Y-54734240D01*
X117318633Y-54734244D01*
X117322755Y-54737624D01*
X117354250Y-54755552D01*
X117403555Y-54806632D01*
X117417417Y-54876262D01*
X117391434Y-54942333D01*
X117362284Y-54969573D01*
X117240681Y-55051441D01*
X117073865Y-55210576D01*
X116936246Y-55395542D01*
X116933830Y-55400293D01*
X116933828Y-55400297D01*
X116914509Y-55438295D01*
X116831760Y-55601051D01*
X116830178Y-55606145D01*
X116830177Y-55606148D01*
X116779743Y-55768573D01*
X116763393Y-55821227D01*
X116762692Y-55826516D01*
X116747304Y-55942623D01*
X116733102Y-56049774D01*
X113538500Y-56049774D01*
X113538500Y-47141500D01*
X113558502Y-47073379D01*
X113612158Y-47026886D01*
X113664500Y-47015500D01*
X183395500Y-47015500D01*
X183463621Y-47035502D01*
G37*
%TD.AperFunction*%
%TD*%
M02*
