%TF.GenerationSoftware,KiCad,Pcbnew,(6.0.9)*%
%TF.CreationDate,2024-07-14T14:50:05-07:00*%
%TF.ProjectId,RA_Controller,52415f43-6f6e-4747-926f-6c6c65722e6b,rev?*%
%TF.SameCoordinates,Original*%
%TF.FileFunction,Soldermask,Bot*%
%TF.FilePolarity,Negative*%
%FSLAX46Y46*%
G04 Gerber Fmt 4.6, Leading zero omitted, Abs format (unit mm)*
G04 Created by KiCad (PCBNEW (6.0.9)) date 2024-07-14 14:50:05*
%MOMM*%
%LPD*%
G01*
G04 APERTURE LIST*
G04 Aperture macros list*
%AMRoundRect*
0 Rectangle with rounded corners*
0 $1 Rounding radius*
0 $2 $3 $4 $5 $6 $7 $8 $9 X,Y pos of 4 corners*
0 Add a 4 corners polygon primitive as box body*
4,1,4,$2,$3,$4,$5,$6,$7,$8,$9,$2,$3,0*
0 Add four circle primitives for the rounded corners*
1,1,$1+$1,$2,$3*
1,1,$1+$1,$4,$5*
1,1,$1+$1,$6,$7*
1,1,$1+$1,$8,$9*
0 Add four rect primitives between the rounded corners*
20,1,$1+$1,$2,$3,$4,$5,0*
20,1,$1+$1,$4,$5,$6,$7,0*
20,1,$1+$1,$6,$7,$8,$9,0*
20,1,$1+$1,$8,$9,$2,$3,0*%
G04 Aperture macros list end*
%ADD10R,1.600000X1.600000*%
%ADD11C,1.600000*%
%ADD12O,1.600000X1.600000*%
%ADD13RoundRect,0.250000X-0.750000X0.600000X-0.750000X-0.600000X0.750000X-0.600000X0.750000X0.600000X0*%
%ADD14O,2.000000X1.700000*%
%ADD15C,3.000000*%
%ADD16RoundRect,0.250000X-0.725000X0.600000X-0.725000X-0.600000X0.725000X-0.600000X0.725000X0.600000X0*%
%ADD17O,1.950000X1.700000*%
%ADD18R,1.524000X1.524000*%
%ADD19C,1.524000*%
%ADD20RoundRect,0.250000X0.600000X0.750000X-0.600000X0.750000X-0.600000X-0.750000X0.600000X-0.750000X0*%
%ADD21O,1.700000X2.000000*%
%ADD22R,3.500000X3.500000*%
%ADD23RoundRect,0.750000X-1.000000X0.750000X-1.000000X-0.750000X1.000000X-0.750000X1.000000X0.750000X0*%
%ADD24RoundRect,0.875000X-0.875000X0.875000X-0.875000X-0.875000X0.875000X-0.875000X0.875000X0.875000X0*%
%ADD25RoundRect,0.250000X0.725000X-0.600000X0.725000X0.600000X-0.725000X0.600000X-0.725000X-0.600000X0*%
%ADD26R,1.800000X1.800000*%
%ADD27C,1.800000*%
G04 APERTURE END LIST*
D10*
%TO.C,C1*%
X118999000Y-107354380D03*
D11*
X118999000Y-104854380D03*
%TD*%
%TO.C,C3*%
X182499000Y-84836000D03*
X177499000Y-84836000D03*
%TD*%
D10*
%TO.C,A2*%
X126756000Y-98171000D03*
D12*
X126756000Y-100711000D03*
X126756000Y-103251000D03*
X126756000Y-105791000D03*
X126756000Y-108331000D03*
X126756000Y-110871000D03*
X126756000Y-113411000D03*
X126756000Y-115951000D03*
X139456000Y-115951000D03*
X139456000Y-113411000D03*
X139456000Y-110871000D03*
X139456000Y-108331000D03*
X139456000Y-105791000D03*
X139456000Y-103251000D03*
X139456000Y-100711000D03*
X139456000Y-98171000D03*
%TD*%
D13*
%TO.C,J3*%
X149733000Y-112141000D03*
D14*
X149733000Y-114641000D03*
%TD*%
D15*
%TO.C,F1*%
X133445000Y-72256000D03*
X133445000Y-87256000D03*
%TD*%
D10*
%TO.C,C2*%
X181483000Y-75565000D03*
D11*
X178983000Y-75565000D03*
%TD*%
D16*
%TO.C,J1*%
X149506000Y-75391000D03*
D17*
X149506000Y-77891000D03*
X149506000Y-80391000D03*
X149506000Y-82891000D03*
X149506000Y-85391000D03*
%TD*%
D10*
%TO.C,A1*%
X157617000Y-75692000D03*
D12*
X157617000Y-78232000D03*
X157617000Y-80772000D03*
X157617000Y-83312000D03*
X157617000Y-85852000D03*
X157617000Y-88392000D03*
X157617000Y-90932000D03*
X157617000Y-93472000D03*
X157617000Y-96012000D03*
X157617000Y-98552000D03*
X157617000Y-101092000D03*
X157617000Y-103632000D03*
X157617000Y-106172000D03*
X157617000Y-108712000D03*
X157617000Y-111252000D03*
X172857000Y-111252000D03*
X172857000Y-108712000D03*
X172857000Y-106172000D03*
X172857000Y-103632000D03*
X172857000Y-101092000D03*
X172857000Y-98552000D03*
X172857000Y-96012000D03*
X172857000Y-93472000D03*
X172857000Y-90932000D03*
X172857000Y-88392000D03*
X172857000Y-85852000D03*
X172857000Y-83312000D03*
X172857000Y-80772000D03*
X172857000Y-78232000D03*
X172857000Y-75692000D03*
%TD*%
D11*
%TO.C,C4*%
X181209000Y-92964000D03*
X178709000Y-92964000D03*
%TD*%
D18*
%TO.C,U1*%
X157607000Y-61087000D03*
D19*
X157607000Y-63627000D03*
X180467000Y-61087000D03*
X180467000Y-63627000D03*
%TD*%
D20*
%TO.C,J6*%
X149479000Y-63119000D03*
D21*
X146979000Y-63119000D03*
%TD*%
D22*
%TO.C,J5*%
X133545500Y-57435000D03*
D23*
X133545500Y-51435000D03*
D24*
X128845500Y-54435000D03*
%TD*%
D16*
%TO.C,J2*%
X149760000Y-94441000D03*
D17*
X149760000Y-96941000D03*
X149760000Y-99441000D03*
X149760000Y-101941000D03*
X149760000Y-104441000D03*
%TD*%
D25*
%TO.C,J4*%
X118220000Y-58614000D03*
D17*
X118220000Y-56114000D03*
X118220000Y-53614000D03*
X118220000Y-51114000D03*
%TD*%
D26*
%TO.C,D1*%
X150363000Y-51181000D03*
D27*
X152903000Y-51181000D03*
%TD*%
M02*
